<svg xmlns="http://www.w3.org/2000/svg" xmlns:xlink="http://www.w3.org/1999/xlink"
	 width="89.909" height="89.908" viewBox="0 0 89.909 89.908"
	>
	<g>
		<g>
			<path fill="#FFFFFF" d="M63.932,75.486c-0.277-0.488-0.973-1.527-1.939-0.979l-0.869,0.5l1.935,3.408l0.876-0.497
				C64.87,77.389,64.208,75.974,63.932,75.486z"/>
			<path fill="#FFFFFF" d="M49.371,3.926L47.11,8.375l3.164,0.412L49.371,3.926z"/>
			<path fill="#FFFFFF" d="M62.427,9.061c0.226-0.513,0.677-1.847-0.723-2.464l-1.264-0.551l-1.577,3.576l1.42,0.633
				C61.536,10.693,62.209,9.553,62.427,9.061z"/>
			<path fill="#FFFFFF" d="M47.462,78.939c-0.886,0.064-1.377,1.58-1.2,4.023c0.16,2.191,0.896,3.859,1.768,3.795h0.004
				c0.945-0.068,1.365-1.814,1.205-4.018C49.055,80.201,48.325,78.877,47.462,78.939z"/>
			<path fill="#FFFFFF" d="M39.836,7.334l0.421,3.891l1.383-0.15c1.464-0.158,1.489-1.565,1.429-2.123
				c-0.059-0.546-0.331-1.887-1.782-1.781L39.836,7.334z"/>
			<path fill="#FFFFFF" d="M67.27,77.49l1.846-1.405l-3.729-3.072L67.27,77.49z"/>
			<path fill="#FFFFFF" d="M40.943,7.03c1.464-0.158,1.513-1.343,1.453-1.901c-0.06-0.558-0.347-1.977-1.861-1.813l-1.12,0.127
				l0.401,3.709L40.943,7.03z"/>
			<path fill="#FFFFFF" d="M44.955,0.5C20.442,0.5,0.5,20.442,0.5,44.955c0,24.512,19.942,44.453,44.455,44.453
				c24.513,0,44.454-19.941,44.454-44.453C89.409,20.442,69.467,0.5,44.955,0.5z M76.1,18.579c0.215-0.231,0.37-0.436,0.459-0.616
				c0.09-0.18,0.137-0.33,0.151-0.457c0.011-0.124,0.001-0.225-0.026-0.292c-0.029-0.071-0.05-0.119-0.061-0.134l-0.008-0.01
				l0.037-0.026l0.709,0.987l-0.982,8.133l3.598-2.582c0.182-0.169,0.307-0.328,0.375-0.478c0.07-0.158,0.099-0.295,0.097-0.425
				c-0.007-0.127-0.028-0.236-0.069-0.322c-0.041-0.087-0.08-0.151-0.105-0.188l-0.022-0.031l0.037-0.026l1.299,1.811l-0.037,0.026
				l-0.026-0.036c-0.025-0.036-0.074-0.085-0.147-0.157s-0.173-0.132-0.295-0.176c-0.123-0.043-0.274-0.059-0.448-0.035
				c-0.173,0.023-0.378,0.101-0.603,0.239l-5.687,4.079l-0.113-0.159l0.936-8.1l-3.547,2.544c-0.187,0.172-0.312,0.332-0.381,0.482
				c-0.072,0.153-0.098,0.295-0.091,0.422s0.028,0.235,0.069,0.322c0.041,0.086,0.076,0.155,0.102,0.19l0.025,0.036l-0.037,0.027
				l-1.303-1.815l0.037-0.027l0.025,0.036c0.026,0.036,0.08,0.091,0.152,0.163c0.068,0.066,0.168,0.127,0.291,0.17
				s0.275,0.059,0.453,0.032c0.173-0.023,0.378-0.101,0.603-0.239l3.617-2.595C75.579,19.069,75.885,18.81,76.1,18.579z
				 M76.813,44.955c0,17.566-14.292,31.857-31.858,31.857c-17.567,0-31.859-14.291-31.859-31.857
				c0-17.567,14.292-31.859,31.859-31.859C62.521,13.096,76.813,27.388,76.813,44.955z M65.738,12.926
				c1.45-1.778,3.892-2.113,5.779-0.574c1.888,1.539,2.046,3.994,0.597,5.772c-1.454,1.783-3.887,2.117-5.775,0.578
				C64.452,17.163,64.284,14.708,65.738,12.926z M54.403,12.094l0.035,0.015c0.16,0.071,0.896,0.321,1.397-0.753l2.261-5.125
				c0.455-1.094-0.226-1.469-0.387-1.541l-0.035-0.015l0.02-0.042l4.859,2.144c1.877,0.828,2.223,2.074,1.76,3.122
				c-0.396,0.9-1.27,1.459-2.741,1.054c0.642,0.446,1.107,0.982,1.221,1.614c0.067,0.455-0.124,0.89-0.292,1.271l-0.098,0.22
				c-0.24,0.544-0.52,1.334,0.414,1.746l-0.02,0.042l-0.225-0.099c-1.871-0.826-2.631-1.224-1.92-2.836
				c0.428-0.968,0.564-1.934-0.65-2.582l-1.215-0.536l-1.058,2.398c-0.443,1.099,0.237,1.474,0.404,1.548l0.034,0.015l-0.018,0.042
				l-3.767-1.661L54.403,12.094z M46.235,9.687l3.316-6.562l1.822,0.237l1.238,6.773c0.381,1.66,1.115,1.772,1.141,1.775
				l-0.006,0.045l-3.97-0.516l0.006-0.045l0.031,0.004c0.138,0.018,0.661,0.04,0.747-0.618c0.016-0.119,0.02-0.251,0.003-0.415
				l-0.249-1.4l-3.283-0.427l-0.426,0.833c-0.178,0.433-0.274,0.593-0.31,0.866c-0.083,0.641,0.353,0.75,0.497,0.769l0.049,0.007
				l-0.006,0.045l-1.854-0.241l0.006-0.045l0.013,0.001C45.102,10.786,45.602,10.787,46.235,9.687z M41.359,3.043
				c2.034-0.22,2.966,0.727,3.089,1.87c0.097,0.888-0.308,1.604-1.502,1.976c1.41,0.101,2.059,0.888,2.163,1.849
				c0.121,1.126-0.541,2.205-2.612,2.429l-5.294,0.573l-0.005-0.045l0.038-0.004c0.175-0.019,0.938-0.171,0.854-1.353l-0.603-5.575
				c-0.171-1.173-0.948-1.158-1.124-1.139l-0.038,0.004l-0.004-0.04L41.359,3.043z M29.801,5.571l0.088,0.154l0.951,1.441
				l-0.295,0.142c0,0-0.792-1.385-2.144-0.855l-2.07,0.995l1.654,3.439l0.919-0.441c1.435-0.69,1.233-1.634,1.233-1.634l0.893,1.856
				c0,0-0.611-0.748-2.046-0.058l-0.919,0.442l1.654,3.439l2.07-0.995c1.258-0.726,0.675-2.198,0.675-2.198l0.295-0.142l0.521,1.622
				l0.073,0.181l-6.325,3.041l-0.02-0.041l0.034-0.017c0.159-0.076,0.81-0.465,0.336-1.552l-2.43-5.053
				c-0.553-1.048-1.263-0.783-1.422-0.707l-0.034,0.016l-0.018-0.036L29.801,5.571z M16.657,13.838l0.026,0.03l-0.028,0.025
				c-0.137,0.121-0.668,0.679,0.08,1.598l1.79,2.038l2.672-2.346l-1.79-2.038c-0.805-0.869-1.428-0.414-1.564-0.293l-0.029,0.025
				l-0.026-0.03l3.084-2.708l0.026,0.03l-0.028,0.025c-0.133,0.116-0.66,0.67,0.089,1.589l3.7,4.214
				c0.814,0.861,1.432,0.41,1.564,0.293l0.029-0.025l0.03,0.035l-3.083,2.708l-0.03-0.034l0.028-0.025
				c0.137-0.121,0.669-0.679-0.089-1.59l-1.79-2.038l-2.672,2.346l1.79,2.038c0.814,0.861,1.437,0.406,1.574,0.285l0.028-0.025
				L22.067,20l-3.093,2.716l-0.03-0.034l0.028-0.025c0.137-0.121,0.669-0.679-0.094-1.585l-3.7-4.213
				c-0.801-0.874-1.423-0.418-1.56-0.298l-0.028,0.025l-0.026-0.03L16.657,13.838z M11.219,19.465l1.75,0.756l-0.176,0.291
				c0,0-1.423-0.721-2.262,0.457l-0.889,1.47l5.744,3.473c1.033,0.581,1.493-0.046,1.587-0.203l0.02-0.032l0.039,0.023l-2.13,3.522
				l-0.039-0.023l0.02-0.032c0.091-0.151,0.433-0.849-0.558-1.5L8.58,24.194l-0.898,1.487c-0.656,1.295,0.646,2.215,0.646,2.215
				l-0.169,0.28l-1.334-1.079L6.67,26.989L11.219,19.465z M10.589,65.642c-0.396,0.206-0.777,0.292-1.137,0.259
				c-0.365-0.031-0.7-0.166-1.003-0.4c-0.303-0.233-0.561-0.553-0.778-0.956l-0.015,0.008l-0.04-0.077l0.015-0.008
				c-0.127-0.243-0.22-0.494-0.278-0.754c-0.064-0.332-0.115-0.688-0.146-1.08l-0.002-0.066c-0.004-0.045-0.016-0.08-0.03-0.107
				C7.138,62.39,7.084,62.35,7.016,62.33c-0.074-0.019-0.147-0.021-0.22-0.015c-0.081,0.007-0.145,0.019-0.195,0.035
				c-0.03,0.005-0.05,0.016-0.063,0.017c-0.005,0.003-0.01,0.006-0.012,0.002l2.383-1.247l0.117,0.224l-0.005,0.002
				c-0.023,0.018-0.1,0.068-0.231,0.162c-0.157,0.107-0.336,0.259-0.533,0.449c-0.202,0.194-0.373,0.423-0.522,0.682
				s-0.224,0.535-0.22,0.838c0.003,0.092,0.017,0.193,0.042,0.304l0.011,0.021c0.044,0.184,0.114,0.379,0.205,0.59l0.016-0.008
				c0.046,0.09,0.112,0.189,0.188,0.299s0.167,0.207,0.28,0.287c0.108,0.084,0.23,0.133,0.377,0.154
				c0.145,0.018,0.301-0.018,0.478-0.11l0.051-0.026c0.23-0.141,0.424-0.361,0.582-0.666s0.292-0.664,0.404-1.08
				c0.112-0.414,0.211-0.854,0.313-1.314c0.035-0.168,0.077-0.335,0.117-0.506c0.063-0.275,0.141-0.533,0.24-0.776
				c0.094-0.24,0.22-0.456,0.383-0.649c0.158-0.191,0.368-0.358,0.626-0.494c0.633-0.32,1.205-0.387,1.716-0.2
				c0.509,0.183,0.932,0.597,1.266,1.233c0.07,0.135,0.132,0.277,0.186,0.43c0.049,0.156,0.089,0.295,0.117,0.409
				c0.055,0.267,0.077,0.528,0.055,0.782c-0.001,0.073,0.009,0.13,0.033,0.175c0.032,0.061,0.078,0.099,0.139,0.118
				c0.055,0.018,0.117,0.026,0.186,0.021c0.061-0.006,0.115-0.014,0.162-0.023c0.01-0.005,0.027-0.009,0.04-0.01l0.01-0.006
				c0.007,0.002,0.007,0.002,0.012-0.001l-1.941,1.017l-0.11-0.211l0.22-0.146c0.149-0.099,0.31-0.234,0.487-0.415
				c0.172-0.178,0.313-0.391,0.421-0.64c0.104-0.245,0.123-0.518,0.056-0.818l0.008,0.016c-0.041-0.189-0.123-0.396-0.237-0.614
				c-0.106-0.203-0.239-0.345-0.398-0.427c-0.167-0.084-0.334-0.121-0.508-0.107c-0.181,0.013-0.345,0.057-0.502,0.139l-0.161,0.1
				c-0.289,0.214-0.499,0.516-0.626,0.902c-0.127,0.387-0.241,0.859-0.335,1.42c-0.049,0.252-0.101,0.523-0.157,0.811
				c-0.108,0.521-0.25,0.953-0.438,1.299c-0.189,0.342-0.469,0.622-0.851,0.842L10.589,65.642z M13.347,70.764
				c-0.914,0.754-0.619,1.238-0.537,1.344l0.017,0.021l-0.036,0.027l-1.852-2.352l0.036-0.028l0.017,0.021
				c0.079,0.101,0.481,0.501,1.432-0.207l5.273-4.152l-0.781-0.993c-0.737-0.76-2.038,0.16-2.038,0.16l-0.147-0.188l1.44-0.918
				l0.154-0.109l3.956,5.023l-1.367,1.316l-0.153-0.194c0,0,1.196-1.053,0.632-1.943l-0.773-0.981L13.347,70.764z M20.491,74.148
				l-0.564-0.481l-2.479,2.901l1.271,1.086c0.871,0.602,1.959-0.547,1.959-0.547l0.181,0.155l-1.225,1.173l-0.133,0.143
				l-3.881-3.314l0.03-0.035l0.021,0.018c0.097,0.083,0.56,0.388,1.353-0.492l3.642-4.264c0.745-0.922,0.372-1.33,0.274-1.414
				l-0.021-0.018l0.026-0.029l3.88,3.314l-0.108,0.141l-0.982,1.41l-0.181-0.154c0,0,0.971-1.263,0.241-2.029l-1.271-1.085
				l-2.479,2.901l0.563,0.482c0.881,0.752,1.615,0.146,1.615,0.146l-1.337,1.565C20.888,75.721,21.372,74.9,20.491,74.148z
				 M26.024,78.014l-0.64-0.375l-1.929,3.293l1.441,0.844c0.963,0.439,1.833-0.882,1.833-0.882l0.206,0.12l-1,1.371l-0.106,0.163
				l-4.403-2.581l0.023-0.039l0.024,0.014c0.11,0.065,0.619,0.283,1.246-0.723l2.835-4.838c0.571-1.037,0.132-1.375,0.021-1.439
				l-0.024-0.014l0.021-0.035l4.403,2.581l-0.082,0.157l-0.719,1.563l-0.205-0.121c0,0,0.733-1.414-0.121-2.04l-1.441-0.845
				l-1.929,3.293l0.64,0.375c0.999,0.586,1.616-0.141,1.616-0.141l-1.042,1.777C26.691,79.492,27.023,78.599,26.024,78.014z
				 M33.585,76.982l-0.026-0.01c-0.12-0.044-0.672-0.174-1.11,0.928l-2.31,6.295l1.568,0.576c1.02,0.264,1.641-1.189,1.641-1.189
				l0.228,0.083l-0.731,1.542l-0.087,0.156l-4.792-1.758l0.016-0.043l0.026,0.01c0.125,0.046,0.673,0.174,1.102-0.93l1.929-5.26
				c0.387-1.119-0.114-1.376-0.239-1.422l-0.026-0.01l0.016-0.043l2.811,1.031L33.585,76.982z M43.239,81.133l-0.236-0.027
				c0,0,0.159-1.693-1.004-2.11c-0.101-0.04-0.208-0.07-0.325-0.101l-0.136-0.021l-0.182-0.016
				c-0.935,0.076-1.866,1.742-2.072,3.521c-0.019,0.158-0.027,0.313-0.036,0.468c-0.005,0.241-0.019,0.481,0,0.72
				c0.098,1.336,0.718,2.111,1.339,2.437c0.186,0.103,0.377,0.165,0.573,0.188c0.618,0.071,1.257-0.269,1.795-1.14l0.065,0.157
				c-0.128,0.268-0.3,0.519-0.494,0.72c-0.384,0.451-0.917,0.799-1.405,0.875c-0.212,0.038-0.41,0.038-0.61,0.016
				c-0.132-0.016-0.267-0.043-0.406-0.076c-0.209-0.064-0.425-0.153-0.628-0.264c-0.194-0.114-0.38-0.257-0.554-0.427
				c-0.162-0.151-0.32-0.337-0.462-0.549c-0.132-0.212-0.25-0.421-0.356-0.657c-0.104-0.254-0.182-0.5-0.249-0.761
				c-0.052-0.266-0.092-0.552-0.107-0.825c-0.016-0.301-0.005-0.588,0.029-0.883c0.264-2.279,1.894-3.894,3.646-3.701l0.037,0.004
				c0.345,0.039,0.598,0.127,0.805,0.208c0.25,0.104,0.475,0.239,0.673,0.396l-0.009-0.002c0.056,0.035,0.109,0.053,0.159,0.059
				c0.286,0.033,0.404-0.385,0.404-0.385L43.239,81.133z M48.047,86.936c-1.768,0.128-3.115-1.576-3.282-3.869
				c-0.167-2.289,0.923-4.176,2.688-4.304c1.768-0.128,3.112,1.581,3.278,3.87C50.899,84.927,49.814,86.807,48.047,86.936z
				 M58.192,84.938l-0.014-0.044l0.027-0.008c0.03-0.01,0.08-0.036,0.148-0.075c0.064-0.043,0.123-0.114,0.186-0.211
				c0.056-0.101,0.09-0.242,0.097-0.424c0.009-0.177-0.023-0.411-0.099-0.693l-1.857-6.151l-0.297,8.17l-0.022,0.008l-4.526-6.697
				l1.908,6.322c0.094,0.234,0.194,0.406,0.293,0.526c0.1,0.126,0.199,0.202,0.294,0.246c0.095,0.043,0.178,0.065,0.248,0.063
				c0.071-0.003,0.122-0.007,0.153-0.017l0.03-0.009l0.013,0.044l-1.555,0.469l-0.014-0.043l0.031-0.01
				c0.03-0.01,0.08-0.036,0.145-0.074c0.061-0.035,0.122-0.102,0.176-0.195c0.053-0.094,0.09-0.225,0.1-0.395
				c0.013-0.166-0.009-0.381-0.072-0.637l-1.699-5.631c-0.092-0.223-0.188-0.397-0.285-0.518c-0.099-0.119-0.193-0.198-0.289-0.242
				c-0.094-0.043-0.184-0.069-0.26-0.088c-0.078-0.019-0.135-0.02-0.166-0.01l2.195-0.662l3.249,4.697l0.213-5.742l2.155-0.651
				l0.014,0.044l-0.025,0.008c-0.031,0.01-0.08,0.036-0.146,0.074c-0.067,0.044-0.127,0.115-0.183,0.216s-0.089,0.242-0.099,0.419
				c-0.012,0.182,0.02,0.412,0.096,0.693l1.611,5.342c0.094,0.276,0.196,0.49,0.306,0.631c0.106,0.146,0.213,0.246,0.315,0.299
				c0.1,0.048,0.189,0.074,0.271,0.074c0.075-0.005,0.131-0.01,0.161-0.02l0.027-0.008l0.013,0.044L58.192,84.938z M63.129,83.086
				l-0.022-0.039l0.024-0.014c0.111-0.063,0.559-0.396,0.002-1.442l-2.766-4.872c-0.611-1.014-1.127-0.801-1.238-0.736l-0.024,0.013
				l-0.022-0.04l3.352-1.902c1.306-0.74,2.244-0.293,2.803,0.692c0.565,0.995,0.647,2.271-0.682,3.025l-1.41,0.8l1.294,2.279
				c0.604,1.019,1.124,0.803,1.239,0.737l0.024-0.014l0.022,0.04L63.129,83.086z M70.661,78.296l-0.027-0.036l0.018-0.014
				c0.08-0.061,0.355-0.328-0.047-0.855c-0.072-0.096-0.16-0.195-0.278-0.307l-1.069-0.891l-1.916,1.459l0.352,0.84
				c0.205,0.412,0.265,0.582,0.432,0.801c0.391,0.514,0.681,0.357,0.765,0.295l0.029-0.023l0.027,0.037l-1.081,0.823l-0.028-0.036
				l0.007-0.006c0.059-0.045,0.309-0.313-0.121-1.461l-2.786-6.594l1.063-0.81l5.188,4.293c1.309,1.01,1.75,0.696,1.764,0.686
				l0.027,0.036L70.661,78.296z M77.974,71.18l-7.015-0.34l3.271,2.891c0.204,0.15,0.377,0.248,0.523,0.299
				c0.151,0.053,0.277,0.066,0.38,0.054s0.187-0.038,0.244-0.077c0.059-0.041,0.104-0.074,0.124-0.098l0.021-0.024l0.035,0.03
				l-1.076,1.218l-0.035-0.03l0.021-0.023c0.021-0.024,0.049-0.073,0.085-0.14c0.032-0.063,0.05-0.151,0.046-0.259
				s-0.042-0.238-0.123-0.389c-0.076-0.147-0.207-0.318-0.396-0.503l-3.336-2.947c-0.364-0.322-0.68-0.57-0.941-0.741
				c-0.263-0.17-0.483-0.291-0.661-0.357s-0.318-0.098-0.428-0.104c-0.105-0.001-0.188,0.013-0.232,0.039
				c-0.05,0.029-0.082,0.05-0.092,0.061l-0.006,0.006l-0.034-0.029l0.585-0.662l7.057,0.377l-3.318-2.932
				c-0.199-0.146-0.373-0.244-0.52-0.295c-0.154-0.05-0.276-0.066-0.384-0.058c-0.103,0.013-0.186,0.038-0.244,0.077
				c-0.058,0.041-0.099,0.078-0.12,0.102l-0.018,0.021l-0.035-0.031l1.073-1.214l0.034,0.03l-0.021,0.023
				c-0.021,0.024-0.045,0.07-0.081,0.137s-0.054,0.154-0.049,0.262s0.042,0.238,0.118,0.385c0.076,0.147,0.207,0.318,0.396,0.503
				l5.244,4.634L77.974,71.18z M80.694,67.229l0.014-0.023c0.064-0.111,0.281-0.626-0.729-1.245l-2.35-1.354l-3.696-0.244
				c-0.934,0.027-1.226,0.487-1.26,0.547l-0.002,0.004l-0.04-0.023l1.584-2.748l0.04,0.023c0,0-0.178,0.33,0.189,0.542
				c0.099,0.058,0.229,0.106,0.415,0.14l2.663,0.156l-1.228-2.235c-0.205-0.298-0.373-0.452-0.513-0.532
				c-0.307-0.178-0.444,0.05-0.444,0.05l-0.04-0.022l0.821-1.424l0.04,0.022c-0.021,0.036-0.338,0.608,0.152,1.614l1.304,2.39
				l3.113,1.794c1.038,0.572,1.376,0.123,1.442,0.008l0.014-0.023l0.039,0.022l-1.49,2.585L80.694,67.229z"/>
			<path fill="#FFFFFF" d="M66.452,18.564c1.01,0.824,2.671-0.029,4.066-1.741c1.609-1.973,1.804-3.586,0.882-4.338
				c-0.946-0.771-2.519-0.148-4.065,1.75c-1.389,1.703-1.82,3.566-0.889,4.326L66.452,18.564z"/>
			<path d="M44.955,0C20.167,0,0,20.167,0,44.955c0,24.787,20.167,44.953,44.955,44.953s44.954-20.166,44.954-44.953
				C89.909,20.167,69.743,0,44.955,0z M44.955,89.408C20.442,89.408,0.5,69.467,0.5,44.955C0.5,20.442,20.442,0.5,44.955,0.5
				c24.513,0,44.454,19.942,44.454,44.455C89.409,69.467,69.467,89.408,44.955,89.408z"/>
			<path d="M8.159,28.176l0.169-0.28c0,0-1.303-0.92-0.646-2.215l0.898-1.487l5.744,3.473c0.991,0.65,0.649,1.349,0.558,1.5
				l-0.02,0.032l0.039,0.023l2.13-3.522l-0.039-0.023l-0.02,0.032c-0.094,0.156-0.554,0.783-1.587,0.203l-5.744-3.473l0.889-1.47
				c0.839-1.177,2.262-0.457,2.262-0.457l0.176-0.291l-1.75-0.756L6.67,26.989l0.155,0.108L8.159,28.176z"/>
			<path d="M13.619,16.56c0.137-0.121,0.759-0.576,1.56,0.298l3.7,4.213c0.763,0.907,0.231,1.465,0.094,1.585l-0.028,0.025
				l0.03,0.034L22.067,20l-0.03-0.035l-0.028,0.025c-0.137,0.121-0.759,0.576-1.574-0.285l-1.79-2.038l2.672-2.346l1.79,2.038
				c0.758,0.911,0.226,1.469,0.089,1.59l-0.028,0.025l0.03,0.034l3.083-2.708l-0.03-0.035l-0.029,0.025
				c-0.132,0.117-0.75,0.567-1.564-0.293l-3.7-4.214c-0.749-0.919-0.222-1.473-0.089-1.589l0.028-0.025l-0.026-0.03l-3.084,2.708
				l0.026,0.03l0.029-0.025c0.137-0.121,0.759-0.576,1.564,0.293l1.79,2.038l-2.672,2.346l-1.79-2.038
				c-0.748-0.919-0.217-1.478-0.08-1.598l0.028-0.025l-0.026-0.03l-3.093,2.716l0.026,0.03L13.619,16.56z"/>
			<path d="M23.528,8.632c0.159-0.077,0.87-0.342,1.422,0.707l2.43,5.053c0.473,1.087-0.178,1.476-0.336,1.552L27.01,15.96
				l0.02,0.041l6.325-3.041l-0.073-0.181l-0.521-1.622l-0.295,0.142c0,0,0.583,1.472-0.675,2.198l-2.07,0.995l-1.654-3.439
				l0.919-0.442c1.435-0.69,2.046,0.058,2.046,0.058l-0.893-1.856c0,0,0.202,0.944-1.233,1.634l-0.919,0.441l-1.654-3.439
				l2.07-0.995c1.352-0.53,2.144,0.855,2.144,0.855l0.295-0.142L29.89,5.725l-0.088-0.154l-6.325,3.041l0.018,0.036L23.528,8.632z"
				/>
			<path d="M36.364,3.624c0.175-0.019,0.952-0.034,1.124,1.139l0.603,5.575c0.083,1.182-0.679,1.334-0.854,1.353l-0.038,0.004
				l0.005,0.045l5.294-0.573c2.071-0.224,2.733-1.303,2.612-2.429c-0.104-0.961-0.753-1.749-2.163-1.849
				c1.194-0.371,1.599-1.088,1.502-1.976c-0.124-1.144-1.055-2.09-3.089-1.87l-5.037,0.545l0.004,0.04L36.364,3.624z M43.069,8.953
				c0.06,0.557,0.035,1.964-1.429,2.123l-1.383,0.15l-0.421-3.891l1.451-0.163C42.738,7.066,43.01,8.407,43.069,8.953z
				 M40.535,3.316c1.514-0.164,1.801,1.255,1.861,1.813c0.061,0.558,0.011,1.743-1.453,1.901l-1.126,0.122l-0.401-3.709
				L40.535,3.316z"/>
			<path d="M45.001,10.772l-0.013-0.001l-0.006,0.045l1.854,0.241l0.006-0.045l-0.049-0.007c-0.145-0.019-0.58-0.127-0.497-0.769
				c0.035-0.272,0.132-0.433,0.31-0.866l0.426-0.833l3.283,0.427l0.249,1.4c0.017,0.164,0.013,0.296-0.003,0.415
				c-0.086,0.658-0.609,0.636-0.747,0.618l-0.031-0.004l-0.006,0.045l3.97,0.516l0.006-0.045c-0.025-0.003-0.76-0.116-1.141-1.775
				l-1.238-6.773l-1.822-0.237l-3.316,6.562C45.602,10.787,45.102,10.786,45.001,10.772z M49.371,3.926l0.903,4.86L47.11,8.375
				L49.371,3.926z"/>
			<path d="M58.168,13.755l-0.034-0.015c-0.167-0.074-0.848-0.449-0.404-1.548l1.058-2.398l1.215,0.536
				c1.215,0.648,1.078,1.613,0.65,2.582c-0.711,1.612,0.049,2.01,1.92,2.836l0.225,0.099l0.02-0.042
				c-0.934-0.412-0.654-1.201-0.414-1.746l0.098-0.22c0.168-0.382,0.359-0.816,0.292-1.271c-0.113-0.632-0.579-1.168-1.221-1.614
				c1.472,0.405,2.345-0.154,2.741-1.054c0.463-1.047,0.117-2.293-1.76-3.122l-4.859-2.144l-0.02,0.042l0.035,0.015
				c0.161,0.071,0.842,0.447,0.387,1.541l-2.261,5.125c-0.501,1.074-1.237,0.824-1.397,0.753l-0.035-0.015l-0.019,0.042l3.767,1.661
				L58.168,13.755z M60.441,6.046l1.264,0.551c1.399,0.617,0.948,1.951,0.723,2.464c-0.218,0.492-0.892,1.632-2.144,1.193
				l-1.42-0.633L60.441,6.046z"/>
			<path d="M66.338,18.702c1.889,1.539,4.321,1.205,5.775-0.578c1.449-1.778,1.291-4.233-0.597-5.772
				c-1.888-1.54-4.329-1.205-5.779,0.574C64.284,14.708,64.452,17.163,66.338,18.702z M67.334,14.235
				c1.547-1.898,3.119-2.521,4.065-1.75c0.922,0.752,0.728,2.365-0.882,4.338c-1.396,1.712-3.057,2.564-4.066,1.741l-0.006-0.004
				C65.514,17.801,65.946,15.938,67.334,14.235z"/>
			<path d="M70.963,22.186c-0.178,0.027-0.33,0.012-0.453-0.032s-0.223-0.104-0.291-0.17c-0.072-0.072-0.126-0.126-0.152-0.163
				l-0.025-0.036l-0.037,0.027l1.303,1.815l0.037-0.027l-0.025-0.036c-0.025-0.036-0.061-0.104-0.102-0.19
				c-0.041-0.087-0.063-0.195-0.069-0.322s0.019-0.269,0.091-0.422c0.069-0.15,0.194-0.31,0.381-0.482l3.547-2.544l-0.936,8.1
				l0.113,0.159l5.687-4.079c0.225-0.138,0.43-0.216,0.603-0.239c0.174-0.023,0.325-0.008,0.448,0.035
				c0.122,0.044,0.222,0.104,0.295,0.176s0.122,0.122,0.147,0.157l0.026,0.036l0.037-0.026l-1.299-1.811l-0.037,0.026l0.022,0.031
				c0.025,0.036,0.064,0.101,0.105,0.188c0.041,0.086,0.063,0.195,0.069,0.322c0.002,0.13-0.026,0.267-0.097,0.425
				c-0.068,0.15-0.193,0.309-0.375,0.478l-3.598,2.582l0.982-8.133l-0.709-0.987l-0.037,0.026l0.008,0.01
				c0.011,0.016,0.031,0.063,0.061,0.134c0.027,0.066,0.037,0.168,0.026,0.292c-0.015,0.127-0.062,0.277-0.151,0.457
				c-0.089,0.18-0.244,0.385-0.459,0.616c-0.215,0.231-0.521,0.49-0.917,0.773l-3.617,2.595
				C71.341,22.085,71.136,22.163,70.963,22.186z"/>
			<path d="M11.526,64.754c0.187-0.346,0.33-0.777,0.438-1.299c0.056-0.287,0.108-0.559,0.157-0.811
				c0.094-0.561,0.208-1.033,0.335-1.42c0.127-0.387,0.338-0.688,0.626-0.902l0.161-0.1c0.157-0.082,0.321-0.126,0.502-0.139
				c0.174-0.014,0.341,0.023,0.508,0.107c0.159,0.082,0.292,0.224,0.398,0.427c0.114,0.219,0.196,0.425,0.237,0.614l-0.008-0.016
				c0.067,0.301,0.048,0.573-0.056,0.818c-0.109,0.249-0.25,0.462-0.421,0.64c-0.177,0.181-0.338,0.316-0.487,0.415l-0.22,0.146
				l0.11,0.211l1.941-1.017c-0.005,0.003-0.005,0.003-0.012,0.001l-0.01,0.006c-0.012,0.001-0.029,0.005-0.04,0.01
				c-0.047,0.01-0.101,0.018-0.162,0.023c-0.069,0.005-0.131-0.004-0.186-0.021c-0.062-0.02-0.107-0.058-0.139-0.118
				c-0.023-0.045-0.034-0.102-0.033-0.175c0.022-0.254,0-0.516-0.055-0.782c-0.027-0.114-0.068-0.253-0.117-0.409
				c-0.054-0.152-0.116-0.295-0.186-0.43c-0.333-0.637-0.756-1.051-1.266-1.233c-0.511-0.187-1.083-0.12-1.716,0.2
				c-0.258,0.136-0.468,0.303-0.626,0.494c-0.164,0.193-0.29,0.409-0.383,0.649c-0.099,0.243-0.177,0.501-0.24,0.776
				c-0.04,0.171-0.082,0.338-0.117,0.506c-0.101,0.461-0.2,0.9-0.313,1.314c-0.112,0.416-0.247,0.775-0.404,1.08
				s-0.352,0.525-0.582,0.666l-0.051,0.026c-0.177,0.093-0.333,0.128-0.478,0.11c-0.147-0.021-0.27-0.07-0.377-0.154
				c-0.113-0.08-0.203-0.178-0.28-0.287s-0.142-0.209-0.188-0.299l-0.016,0.008c-0.091-0.211-0.161-0.406-0.205-0.59l-0.011-0.021
				c-0.025-0.11-0.04-0.212-0.042-0.304c-0.003-0.303,0.071-0.579,0.22-0.838s0.32-0.487,0.522-0.682
				c0.197-0.19,0.376-0.342,0.533-0.449c0.131-0.094,0.208-0.145,0.231-0.162l0.005-0.002l-0.117-0.224l-2.383,1.247
				c0.002,0.004,0.007,0.001,0.012-0.002c0.012-0.001,0.033-0.012,0.063-0.017c0.05-0.017,0.114-0.028,0.195-0.035
				c0.073-0.007,0.146-0.004,0.22,0.015c0.069,0.02,0.122,0.06,0.158,0.129c0.015,0.027,0.026,0.063,0.03,0.107l0.002,0.066
				c0.031,0.392,0.081,0.748,0.146,1.08c0.058,0.26,0.151,0.511,0.278,0.754l-0.015,0.008l0.04,0.077l0.015-0.008
				c0.217,0.403,0.475,0.723,0.778,0.956c0.303,0.234,0.639,0.369,1.003,0.4c0.36,0.033,0.741-0.053,1.137-0.259l0.086-0.046
				C11.057,65.376,11.336,65.096,11.526,64.754z"/>
			<path d="M19.393,67.593c0.563,0.891-0.632,1.943-0.632,1.943l0.153,0.194l1.367-1.316l-3.956-5.023L16.17,63.5l-1.44,0.918
				l0.147,0.188c0,0,1.301-0.92,2.038-0.16l0.781,0.993l-5.273,4.152c-0.95,0.708-1.353,0.308-1.432,0.207l-0.017-0.021
				l-0.036,0.028l1.852,2.352l0.036-0.027l-0.017-0.021c-0.082-0.105-0.376-0.59,0.537-1.344l5.273-4.152L19.393,67.593z"/>
			<path d="M22.225,74.155c0,0-0.734,0.606-1.615-0.146l-0.563-0.482l2.479-2.901l1.271,1.085c0.73,0.767-0.241,2.029-0.241,2.029
				l0.181,0.154l0.982-1.41l0.108-0.141l-3.88-3.314l-0.026,0.029l0.021,0.018c0.098,0.084,0.471,0.492-0.274,1.414l-3.642,4.264
				c-0.793,0.88-1.256,0.575-1.353,0.492l-0.021-0.018l-0.03,0.035l3.881,3.314l0.133-0.143l1.225-1.173l-0.181-0.155
				c0,0-1.088,1.148-1.959,0.547l-1.271-1.086l2.479-2.901l0.564,0.481c0.88,0.752,0.396,1.572,0.396,1.572L22.225,74.155z"/>
			<path d="M27.732,77.715c0,0-0.617,0.727-1.616,0.141l-0.64-0.375l1.929-3.293l1.441,0.845c0.854,0.626,0.121,2.04,0.121,2.04
				l0.205,0.121l0.719-1.563l0.082-0.157l-4.403-2.581l-0.021,0.035l0.024,0.014c0.11,0.064,0.55,0.402-0.021,1.439l-2.835,4.838
				c-0.626,1.006-1.135,0.788-1.246,0.723l-0.024-0.014l-0.023,0.039l4.403,2.581l0.106-0.163l1-1.371l-0.206-0.12
				c0,0-0.869,1.321-1.833,0.882l-1.441-0.844l1.929-3.293l0.64,0.375c1,0.585,0.667,1.479,0.667,1.479L27.732,77.715z"/>
			<path d="M30.774,75.951l0.026,0.01c0.125,0.046,0.625,0.303,0.239,1.422l-1.929,5.26c-0.429,1.104-0.978,0.976-1.102,0.93
				l-0.026-0.01l-0.016,0.043l4.792,1.758l0.087-0.156l0.731-1.542l-0.228-0.083c0,0-0.622,1.453-1.641,1.189l-1.568-0.576
				l2.31-6.295c0.438-1.102,0.99-0.972,1.11-0.928l0.026,0.01l0.016-0.043l-2.811-1.031L30.774,75.951z"/>
			<path d="M43.087,79.34c-0.05-0.006-0.104-0.023-0.159-0.059l0.009,0.002c-0.198-0.156-0.422-0.291-0.673-0.396
				c-0.207-0.081-0.46-0.169-0.805-0.208l-0.037-0.004c-1.752-0.192-3.381,1.422-3.646,3.701c-0.034,0.295-0.044,0.582-0.029,0.883
				c0.015,0.273,0.055,0.56,0.107,0.825c0.066,0.261,0.144,0.507,0.249,0.761c0.106,0.236,0.225,0.445,0.356,0.657
				c0.142,0.212,0.3,0.397,0.462,0.549c0.174,0.17,0.36,0.313,0.554,0.427c0.204,0.11,0.419,0.199,0.628,0.264
				c0.139,0.033,0.274,0.061,0.406,0.076c0.2,0.022,0.398,0.022,0.61-0.016c0.488-0.076,1.021-0.424,1.405-0.875
				c0.194-0.201,0.366-0.452,0.494-0.72l-0.065-0.157c-0.539,0.871-1.177,1.211-1.795,1.14c-0.196-0.022-0.387-0.085-0.573-0.188
				c-0.621-0.325-1.241-1.101-1.339-2.437c-0.019-0.238-0.004-0.479,0-0.72c0.009-0.155,0.017-0.31,0.036-0.468
				c0.207-1.779,1.137-3.445,2.072-3.521l0.182,0.016l0.136,0.021c0.116,0.03,0.224,0.061,0.325,0.101
				c1.164,0.417,1.004,2.11,1.004,2.11l0.236,0.027l0.252-2.178C43.491,78.955,43.374,79.373,43.087,79.34z"/>
			<path d="M47.454,78.763c-1.766,0.128-2.855,2.015-2.688,4.304c0.167,2.293,1.515,3.997,3.282,3.869
				c1.767-0.129,2.852-2.009,2.685-4.303C50.566,80.344,49.221,78.635,47.454,78.763z M48.034,86.758H48.03
				c-0.872,0.064-1.607-1.604-1.768-3.795c-0.177-2.443,0.314-3.959,1.2-4.023c0.862-0.063,1.593,1.262,1.776,3.801
				C49.399,84.943,48.979,86.689,48.034,86.758z"/>
			<path d="M61.018,84.037c-0.03,0.01-0.086,0.015-0.161,0.02c-0.081,0-0.171-0.026-0.271-0.074
				c-0.103-0.053-0.209-0.152-0.315-0.299c-0.109-0.141-0.212-0.354-0.306-0.631l-1.611-5.342c-0.076-0.281-0.107-0.512-0.096-0.693
				c0.01-0.177,0.043-0.318,0.099-0.419s0.115-0.172,0.183-0.216c0.066-0.038,0.115-0.064,0.146-0.074l0.025-0.008l-0.014-0.044
				l-2.155,0.651L56.33,82.65l-3.249-4.697l-2.195,0.662c0.031-0.01,0.088-0.009,0.166,0.01c0.076,0.019,0.166,0.045,0.26,0.088
				c0.096,0.044,0.19,0.123,0.289,0.242c0.098,0.12,0.193,0.295,0.285,0.518l1.699,5.631c0.063,0.256,0.085,0.471,0.072,0.637
				c-0.01,0.17-0.047,0.301-0.1,0.395c-0.054,0.094-0.115,0.16-0.176,0.195c-0.064,0.038-0.114,0.064-0.145,0.074l-0.031,0.01
				l0.014,0.043l1.555-0.469l-0.013-0.044l-0.03,0.009c-0.031,0.01-0.082,0.014-0.153,0.017c-0.07,0.003-0.153-0.02-0.248-0.063
				c-0.095-0.044-0.194-0.12-0.294-0.246c-0.099-0.12-0.199-0.292-0.293-0.526l-1.908-6.322l4.526,6.697l0.022-0.008l0.297-8.17
				l1.857,6.151c0.075,0.282,0.107,0.517,0.099,0.693c-0.007,0.182-0.041,0.323-0.097,0.424c-0.063,0.097-0.121,0.168-0.186,0.211
				c-0.068,0.039-0.118,0.065-0.148,0.075l-0.027,0.008l0.014,0.044l2.866-0.865l-0.013-0.044L61.018,84.037z"/>
			<path d="M65.678,81.587c-0.115,0.065-0.635,0.281-1.239-0.737l-1.294-2.279l1.41-0.8c1.329-0.755,1.247-2.03,0.682-3.025
				c-0.559-0.985-1.497-1.433-2.803-0.692l-3.352,1.902l0.022,0.04l0.024-0.013c0.111-0.064,0.627-0.277,1.238,0.736l2.766,4.872
				c0.557,1.046,0.109,1.379-0.002,1.442l-0.024,0.014l0.022,0.039l2.596-1.473l-0.022-0.04L65.678,81.587z M63.058,78.416
				l-1.935-3.408l0.869-0.5c0.967-0.549,1.662,0.49,1.939,0.979c0.276,0.487,0.938,1.902,0.002,2.433L63.058,78.416z"/>
			<path d="M71.186,75.812l-5.188-4.293l-1.063,0.81l2.786,6.594c0.43,1.147,0.18,1.416,0.121,1.461l-0.007,0.006l0.028,0.036
				l1.081-0.823l-0.027-0.037l-0.029,0.023c-0.084,0.063-0.374,0.219-0.765-0.295c-0.167-0.219-0.227-0.389-0.432-0.801l-0.352-0.84
				l1.916-1.459l1.069,0.891c0.118,0.111,0.206,0.211,0.278,0.307c0.402,0.527,0.127,0.795,0.047,0.855l-0.018,0.014l0.027,0.036
				l2.316-1.763l-0.027-0.036C72.936,76.508,72.495,76.821,71.186,75.812z M67.27,77.49l-1.883-4.478l3.729,3.072L67.27,77.49z"/>
			<path d="M72.428,65.938c-0.076-0.146-0.113-0.277-0.118-0.385s0.013-0.195,0.049-0.262s0.06-0.112,0.081-0.137l0.021-0.023
				l-0.034-0.03l-1.073,1.214l0.035,0.031l0.018-0.021c0.021-0.023,0.063-0.061,0.12-0.102c0.059-0.039,0.142-0.064,0.244-0.077
				c0.107-0.009,0.229,0.008,0.384,0.058c0.146,0.051,0.32,0.148,0.52,0.295l3.318,2.932l-7.057-0.377l-0.585,0.662l0.034,0.029
				l0.006-0.006c0.01-0.011,0.042-0.031,0.092-0.061c0.045-0.026,0.127-0.04,0.232-0.039c0.109,0.006,0.25,0.037,0.428,0.104
				s0.398,0.188,0.661,0.357c0.262,0.171,0.577,0.419,0.941,0.741l3.336,2.947c0.188,0.185,0.319,0.355,0.396,0.503
				c0.081,0.15,0.119,0.281,0.123,0.389s-0.014,0.195-0.046,0.259c-0.036,0.066-0.063,0.115-0.085,0.14l-0.021,0.023l0.035,0.03
				l1.076-1.218l-0.035-0.03l-0.021,0.024c-0.021,0.023-0.065,0.057-0.124,0.098c-0.058,0.039-0.142,0.064-0.244,0.077
				s-0.229-0.001-0.38-0.054c-0.146-0.051-0.319-0.148-0.523-0.299l-3.271-2.891l7.015,0.34l0.094-0.105l-5.244-4.634
				C72.635,66.256,72.504,66.085,72.428,65.938z"/>
			<path d="M82.184,64.645l-0.014,0.023c-0.066,0.115-0.404,0.564-1.442-0.008l-3.113-1.794l-1.304-2.39
				c-0.49-1.006-0.174-1.578-0.152-1.614l-0.04-0.022l-0.821,1.424l0.04,0.022c0,0,0.138-0.228,0.444-0.05
				c0.14,0.08,0.308,0.234,0.513,0.532l1.228,2.235l-2.663-0.156c-0.187-0.033-0.316-0.082-0.415-0.14
				c-0.367-0.212-0.189-0.542-0.189-0.542l-0.04-0.023l-1.584,2.748l0.04,0.023l0.002-0.004c0.034-0.06,0.326-0.52,1.26-0.547
				l3.696,0.244l2.35,1.354c1.011,0.619,0.794,1.134,0.729,1.245l-0.014,0.023l0.039,0.022l1.49-2.585L82.184,64.645z"/>
			<path fill="#BC80BD" d="M44.955,14.096c-17.016,0-30.859,13.843-30.859,30.859c0,17.015,13.843,30.857,30.859,30.857
				c17.015,0,30.858-13.843,30.858-30.857C75.813,27.939,61.969,14.096,44.955,14.096z M63.458,62.402
				c-5.953,4.213-12.911,3.937-23.439,4.213c-10.53,0.271-18.497-7.143-19.777-10.898c-1.282-3.752,2.471-3.843,3.021-3.843
				c0.55,0,6.959,2.928,6.959,2.928l0.092-2.104c0,0-0.092-2.107-0.274-8.332c-0.184-6.228-2.931-18.863-2.748-19.595
				c0.185-0.733,7.967-3.572,18.221-3.847c10.256-0.271,17.581,3.847,17.581,3.847s-2.198,8.698-2.748,13.825
				c-0.549,5.127-0.457,15.658-0.457,15.658s4.119-1.741,5.402-2.199c1.282-0.457,3.295-0.457,3.936,1.191
				C69.867,54.893,69.41,58.19,63.458,62.402z"/>
			<path fill="#BC80BD" d="M57.305,24.436c0-0.824-5.396-1.491-12.053-1.491c-6.657,0-12.053,0.667-12.053,1.491
				c0,0.825,5.396,1.49,12.053,1.49C51.909,25.926,57.305,25.261,57.305,24.436z"/>
			<path fill="#BC80BD" d="M60.894,25.686c0,0-1.099,0.549-4.395,1.465c-3.298,0.916-7.966,1.831-7.966,1.831
				c5.95,0.093,8.974-0.366,8.974-0.366s-1.558,6.958-2.474,13.461C54.118,48.576,54.577,57,54.577,57l2.837-1.557
				c0,0-0.274-7.232,0.094-14.283C57.874,34.109,60.894,25.686,60.894,25.686z"/>
			<path d="M44.955,13.096c-17.567,0-31.859,14.292-31.859,31.859c0,17.566,14.292,31.857,31.859,31.857
				c17.566,0,31.858-14.291,31.858-31.857C76.813,27.388,62.521,13.096,44.955,13.096z M44.955,75.813
				c-17.016,0-30.859-13.843-30.859-30.857c0-17.016,13.843-30.859,30.859-30.859c17.015,0,30.858,13.843,30.858,30.859
				C75.813,61.97,61.969,75.813,44.955,75.813z"/>
			<path fill="#400C44" d="M69.225,53.246c-0.641-1.648-2.653-1.648-3.936-1.191c-1.283,0.458-5.402,2.199-5.402,2.199
				s-0.092-10.531,0.457-15.658c0.55-5.127,2.748-13.825,2.748-13.825s-7.325-4.118-17.581-3.847
				c-10.254,0.274-18.036,3.113-18.221,3.847c-0.183,0.731,2.564,13.367,2.748,19.595c0.183,6.225,0.274,8.332,0.274,8.332
				l-0.092,2.104c0,0-6.409-2.928-6.959-2.928c-0.549,0-4.303,0.091-3.021,3.843c1.281,3.756,9.248,11.17,19.777,10.898
				c10.528-0.276,17.486,0,23.439-4.213C69.41,58.19,69.867,54.893,69.225,53.246z M33.199,24.436c0-0.824,5.396-1.491,12.053-1.491
				c6.656,0,12.053,0.667,12.053,1.491c0,0.825-5.396,1.49-12.053,1.49C38.596,25.926,33.199,25.261,33.199,24.436z M57.414,55.443
				L54.577,57c0,0-0.459-8.424,0.457-14.924c0.916-6.503,2.474-13.461,2.474-13.461s-3.023,0.459-8.974,0.366
				c0,0,4.668-0.915,7.966-1.831c3.296-0.916,4.395-1.465,4.395-1.465s-3.021,8.424-3.387,15.475
				C57.139,48.211,57.414,55.443,57.414,55.443z"/>
		</g>
	</g>
</svg>