<svg xmlns="http://www.w3.org/2000/svg" xmlns:xlink="http://www.w3.org/1999/xlink"
	 width="88.066" height="88.064" viewBox="0 0 88.066 88.064"
	>
	<g>
		<g>
			<path fill="#FFFFFF" d="M55.762,75.302c-0.816,0.306-0.855,1.868-0.014,4.112c0.756,2.018,1.91,3.38,2.713,3.079l0.004-0.003
				c0.869-0.326,0.779-2.082,0.02-4.108C57.607,76.047,56.555,75.005,55.762,75.302z"/>
			<path fill="#FFFFFF" d="M29.433,74.066c-0.783-0.381-1.944,0.662-2.995,2.819c-0.943,1.935-1.14,3.711-0.37,4.085l0.004,0.002
				c0.835,0.407,2.049-0.865,2.996-2.812C30.161,75.918,30.195,74.438,29.433,74.066z"/>
			<path fill="#FFFFFF" d="M23.038,70.06l-2.309,3.053l0.88,0.672c0.812,0.489,1.679-0.472,1.997-0.893
				c0.331-0.438,1.089-1.588,0.219-2.245L23.038,70.06z"/>
			<path fill="#FFFFFF" d="M58.254,7.422c0.176-0.52,0.463-1.712-0.789-2.135l-1.129-0.376l-1.229,3.637l1.133,0.383
				C57.451,9.341,58.078,7.943,58.254,7.422z"/>
			<path fill="#FFFFFF" d="M12.913,57.761l-4.678,0.87l0.961,2.062L12.913,57.761z"/>
			<path fill="#FFFFFF" d="M41.052,77.289l-0.554-0.044l-0.61,7.656l0.527,0.048c1.618,0.129,2.042-1.807,2.19-3.66
				C42.765,79.287,42.688,77.419,41.052,77.289z"/>
			<path fill="#FFFFFF" d="M33.767,81.26l0.226-4.729l-2.412,4.104L33.767,81.26z"/>
			<path fill="#FFFFFF" d="M44.033,0.467c-24.022,0-43.566,19.544-43.566,43.567c0,24.021,19.543,43.564,43.566,43.564
				c24.022,0,43.567-19.543,43.567-43.564C87.6,20.011,68.055,0.467,44.033,0.467z M83.941,33.755l0.012,0.042
				c0.109,0.4,0.135,0.713,0.148,0.975c0.01,0.318-0.018,0.619-0.076,0.899l-0.004-0.01c-0.008,0.075-0.002,0.142,0.014,0.199
				c0.09,0.331,0.518,0.3,0.518,0.3l-2.074,0.56l-0.074-0.273c0,0,1.598-0.477,1.488-1.928c-0.004-0.129-0.021-0.259-0.043-0.4
				l-0.037-0.16l-0.063-0.208c-0.459-1.009-2.352-1.398-4.045-0.94c-0.152,0.041-0.295,0.091-0.439,0.141
				c-0.219,0.087-0.443,0.165-0.65,0.277c-1.168,0.625-1.609,1.612-1.645,2.427c-0.014,0.246,0.008,0.481,0.07,0.708
				c0.193,0.713,0.768,1.291,1.777,1.552l-0.113,0.132c-0.297-0.038-0.596-0.132-0.857-0.269c-0.568-0.252-1.104-0.71-1.377-1.223
				c-0.123-0.22-0.205-0.44-0.268-0.671c-0.041-0.152-0.074-0.313-0.102-0.479c-0.029-0.257-0.037-0.531-0.023-0.799
				c0.023-0.26,0.074-0.521,0.154-0.78c0.068-0.238,0.172-0.485,0.305-0.724c0.137-0.228,0.275-0.44,0.445-0.65
				c0.188-0.214,0.375-0.394,0.584-0.568c0.219-0.161,0.461-0.317,0.701-0.438c0.266-0.134,0.529-0.233,0.811-0.309
				C81.248,30.552,83.387,31.737,83.941,33.755z M82.73,45.523l-1.4-1.023l-1.404,1.023l0.539-1.65l-1.406-1.018l1.736,0.004
				l0.535-1.652l0.531,1.652l1.736-0.004l-1.406,1.018L82.73,45.523z M80.879,25.589l-0.012-0.029l0.035-0.017l1.451,3.229
				l-0.035,0.017l-0.014-0.031c-0.064-0.144-0.398-0.721-1.467-0.271l-5.012,2.252c-1.049,0.5-0.838,1.133-0.773,1.277l0.016,0.029
				l-0.043,0.019l-1.451-3.23l0.041-0.018l0.014,0.03c0.063,0.138,0.391,0.707,1.465,0.265l5.012-2.252
				C81.148,26.35,80.943,25.727,80.879,25.589z M75.223,44.034c0,17.199-13.992,31.19-31.19,31.19
				c-17.199,0-31.191-13.991-31.191-31.19c0-17.199,13.993-31.191,31.191-31.191C61.23,12.842,75.223,26.835,75.223,44.034z
				 M76.701,18.797l-0.018-0.026l0.031-0.022l3.342,5.065l-0.139,0.104l-1.289,1.092l-0.154-0.236c0,0,1.242-0.945,0.646-2.042
				l-1.092-1.657l-3.123,2.059l0.486,0.735c0.758,1.149,1.633,0.806,1.633,0.806l-1.684,1.111c0,0,0.658-0.67-0.1-1.818
				l-0.484-0.736l-2.219,1.463c-0.953,0.662-0.645,1.252-0.557,1.384L72,26.107l-0.037,0.024l-1.953-2.96l0.037-0.024l0.018,0.027
				c0.088,0.131,0.502,0.639,1.492,0.032l4.588-3.025C77.09,19.511,76.787,18.929,76.701,18.797z M73.232,14.97l-0.021-0.024
				l0.027-0.026l2.391,2.612L75.6,17.557l-0.021-0.023c-0.107-0.117-0.604-0.56-1.479,0.204l-4.053,3.708
				c-0.838,0.803-0.439,1.339-0.332,1.455l0.021,0.024l-0.033,0.03l-2.391-2.611l0.033-0.03l0.021,0.024
				c0.104,0.112,0.594,0.549,1.475-0.207l4.053-3.709C73.727,15.609,73.336,15.082,73.232,14.97z M64.455,12.779
				c1.393-1.766,3.814-2.089,5.465-0.803l0.035,0.028c0.324,0.255,0.533,0.492,0.699,0.694c0.197,0.249,0.355,0.507,0.475,0.767
				l-0.008-0.007c0.039,0.066,0.082,0.115,0.129,0.152c0.27,0.211,0.594-0.068,0.594-0.068l-1.328,1.687l-0.223-0.175
				c0,0,0.996-1.335,0.043-2.436c-0.08-0.099-0.172-0.193-0.273-0.294l-0.123-0.105l-0.176-0.13
				c-0.969-0.537-2.721,0.281-3.809,1.659c-0.096,0.124-0.182,0.249-0.268,0.375c-0.123,0.202-0.258,0.396-0.355,0.61
				c-0.564,1.198-0.33,2.254,0.129,2.929c0.135,0.206,0.293,0.382,0.477,0.527c0.58,0.458,1.387,0.578,2.355,0.186l-0.014,0.175
				c-0.26,0.145-0.557,0.247-0.85,0.294c-0.605,0.136-1.309,0.089-1.832-0.16c-0.23-0.104-0.428-0.229-0.617-0.379
				c-0.123-0.098-0.244-0.207-0.367-0.324c-0.176-0.189-0.348-0.402-0.496-0.626c-0.137-0.223-0.252-0.463-0.34-0.719
				c-0.088-0.232-0.152-0.491-0.188-0.762c-0.027-0.265-0.043-0.519-0.031-0.788c0.021-0.283,0.066-0.541,0.129-0.805
				c0.078-0.258,0.18-0.528,0.303-0.769C64.121,13.245,64.275,13.008,64.455,12.779z M63.734,7.812l-1.348,6.539
				c-0.268,1.623,0.295,1.934,0.313,1.944l-0.02,0.04l-3.07-1.594l0.021-0.04l0.023,0.012c0.107,0.056,0.527,0.224,0.828-0.354
				c0.055-0.104,0.104-0.223,0.146-0.378l0.283-1.35l-2.539-1.317l-0.639,0.641c-0.295,0.346-0.43,0.465-0.555,0.704
				c-0.291,0.562,0.029,0.785,0.139,0.843l0.039,0.02l-0.021,0.039l-1.434-0.744l0.021-0.04l0.01,0.005
				c0.076,0.04,0.486,0.183,1.387-0.644l5.004-5.058L63.734,7.812z M51.313,11.457l0.029,0.01c0.146,0.05,0.791,0.196,1.199-0.892
				l1.756-5.199c0.334-1.112-0.266-1.386-0.41-1.435L53.855,3.93l0.014-0.042l4.338,1.465c1.689,0.571,2.092,1.588,1.736,2.64
				c-0.357,1.062-1.348,1.917-3.068,1.336l-1.824-0.617l-0.82,2.433c-0.346,1.108,0.262,1.384,0.41,1.434l0.029,0.01l-0.014,0.043
				l-3.359-1.135L51.313,11.457z M42.822,10.725l0.032,0.001c0.158,0.009,0.825-0.021,0.917-1.177l0.314-5.479
				c0.039-1.16-0.619-1.265-0.777-1.274l-0.032-0.002l0.002-0.044l3.55,0.203l-0.002,0.044l-0.033-0.001
				c-0.15-0.008-0.822,0.02-0.928,1.177l-0.375,6.56l1.982,0.114c1.248-0.03,1.434-1.569,1.434-1.569l0.289,0.017l-0.279,1.652
				l-0.043,0.172l-6.054-0.347L42.822,10.725z M29.175,5.62c1.643-0.665,2.666-0.021,3.086,1.019
				c0.362,0.894,0.221,1.864-0.907,2.556c0.669-0.113,1.295-0.045,1.778,0.321c0.339,0.274,0.513,0.706,0.667,1.085l0.089,0.218
				c0.204,0.507,0.536,1.176,1.25,0.987l-0.002-0.008l0.011-0.001c0.086-0.013,0.502-0.14,0.74-1.34l1.045-7.038l1.569-0.242
				l2.778,6.071c0.745,1.467,1.381,1.385,1.403,1.382l0.006,0.044l-3.417,0.53l-0.006-0.045l0.026-0.003
				c0.119-0.018,0.557-0.132,0.458-0.775c-0.018-0.116-0.048-0.242-0.104-0.393l-0.569-1.256l-2.827,0.438l-0.136,0.896
				c-0.035,0.453-0.073,0.629-0.032,0.895c0.097,0.625,0.486,0.616,0.61,0.597l0.043-0.006l0.006,0.044l-1.479,0.229l-0.16,0.065
				c-1.638,0.663-2.345,0.888-2.993-0.712c-0.39-0.962-0.945-1.729-2.083-1.378l-1.063,0.43l0.963,2.38
				c0.465,1.064,1.11,0.875,1.256,0.816l0.03-0.012l0.018,0.042l-3.297,1.333l-0.017-0.042l0.031-0.012
				c0.141-0.058,0.735-0.37,0.321-1.455l-2.058-5.088c-0.456-1.067-1.101-0.879-1.242-0.821l-0.03,0.012L24.92,7.341L29.175,5.62z
				 M22.668,8.595l1.276,1.357l-0.236,0.174c0,0-1.008-1.194-2.074-0.541l-1.195,0.881l3.9,5.294
				c0.715,0.914,1.293,0.572,1.421,0.478l0.025-0.019l0.027,0.036l-2.864,2.109l-0.026-0.037l0.026-0.02
				c0.123-0.09,0.621-0.541-0.037-1.498l-3.9-5.294l-1.208,0.89c-0.944,0.828-0.099,2.141-0.099,2.141l-0.228,0.167l-0.825-1.46
				l-0.101-0.156L22.668,8.595z M10.734,19.673l7.508-0.529l-3.333-2.78c-0.202-0.133-0.38-0.218-0.532-0.253
				c-0.16-0.035-0.291-0.036-0.406-0.013c-0.111,0.028-0.201,0.067-0.267,0.118c-0.064,0.052-0.111,0.099-0.135,0.128l-0.021,0.025
				l-0.034-0.029l1.233-1.478l0.035,0.029l-0.024,0.029c-0.024,0.03-0.054,0.083-0.097,0.16c-0.043,0.078-0.068,0.178-0.071,0.296
				c-0.003,0.117,0.027,0.256,0.098,0.407c0.071,0.151,0.199,0.321,0.387,0.499l5.265,4.393l-0.108,0.129l-7.464,0.565l3.284,2.74
				c0.207,0.136,0.385,0.221,0.538,0.256c0.157,0.039,0.291,0.037,0.402,0.01c0.11-0.028,0.201-0.067,0.267-0.119
				c0.064-0.052,0.115-0.094,0.139-0.124l0.025-0.029l0.034,0.029l-1.237,1.481l-0.034-0.028l0.023-0.029
				c0.024-0.029,0.058-0.087,0.1-0.165c0.04-0.073,0.065-0.173,0.068-0.291c0.003-0.118-0.027-0.256-0.103-0.411
				c-0.071-0.151-0.198-0.322-0.386-0.5l-3.349-2.793c-0.366-0.306-0.684-0.536-0.951-0.688c-0.269-0.152-0.494-0.257-0.681-0.305
				c-0.186-0.048-0.333-0.065-0.449-0.057c-0.112,0.013-0.2,0.04-0.252,0.074c-0.054,0.039-0.091,0.065-0.101,0.078l-0.007,0.009
				l-0.034-0.029L10.734,19.673z M8.8,22.464l0.16,0.07l1.58,0.595l-0.13,0.25c0,0-1.428-0.631-2.099,0.43l-0.916,1.761l3.318,1.724
				l0.407-0.781c0.633-1.221-0.092-1.819-0.092-1.819l1.791,0.931c0,0-0.906-0.25-1.541,0.97l-0.405,0.782l3.318,1.724l0.915-1.761
				c0.482-1.159-0.846-1.96-0.846-1.96l0.13-0.251l1.375,0.942l0.164,0.097l-2.794,5.38l-0.04-0.02l0.014-0.029
				c0.07-0.135,0.312-0.745-0.7-1.314l-4.875-2.533c-1.047-0.5-1.408,0.048-1.479,0.183L6.04,27.862l-0.035-0.018L8.8,22.464z
				 M4.525,32.295l0.012-0.041c0.113-0.398,0.252-0.681,0.375-0.912c0.155-0.278,0.335-0.521,0.528-0.732l-0.003,0.011
				c0.047-0.06,0.075-0.121,0.091-0.178c0.093-0.33-0.289-0.523-0.289-0.523l2.066,0.585l-0.078,0.272c0,0-1.614-0.412-2.268,0.889
				C4.899,31.78,4.847,31.9,4.792,32.032l-0.049,0.156l-0.055,0.21c-0.125,1.101,1.299,2.409,2.987,2.888
				c0.151,0.042,0.3,0.072,0.448,0.104c0.234,0.038,0.465,0.087,0.702,0.096c1.321,0.064,2.207-0.555,2.657-1.236
				c0.139-0.204,0.241-0.418,0.304-0.643c0.202-0.711,0.006-1.502-0.727-2.246l0.167-0.054c0.233,0.184,0.44,0.418,0.596,0.672
				c0.358,0.507,0.582,1.176,0.552,1.755c-0.007,0.252-0.049,0.483-0.115,0.713c-0.042,0.152-0.098,0.306-0.159,0.463
				c-0.107,0.235-0.24,0.475-0.391,0.698c-0.153,0.211-0.332,0.409-0.534,0.589c-0.181,0.169-0.396,0.329-0.633,0.465
				c-0.233,0.125-0.462,0.236-0.716,0.328c-0.27,0.087-0.525,0.145-0.793,0.188c-0.27,0.025-0.557,0.035-0.826,0.015
				c-0.296-0.022-0.574-0.072-0.854-0.151C5.19,36.429,3.966,34.313,4.525,32.295z M5.501,42.859l0.534-1.652l0.533,1.652
				l1.736-0.004l-1.407,1.018l0.539,1.65l-1.4-1.023l-1.403,1.023l0.539-1.65l-1.406-1.018L5.501,42.859z M4.693,56.834l-0.044,0.01
				l-0.041-0.169c-0.338-1.417-0.425-2.024,1.254-2.426c1.008-0.24,1.859-0.638,1.73-1.612l-0.221-0.921l-2.497,0.597
				c-1.123,0.297-1.06,0.848-1.03,0.976l0.006,0.025l-0.043,0.011l-0.682-2.853l0.043-0.011l0.007,0.025
				c0.029,0.122,0.222,0.645,1.356,0.393l5.338-1.276c1.125-0.286,1.062-0.84,1.032-0.962l-0.005-0.024l0.042-0.012l0.88,3.683
				c0.339,1.422-0.48,2.217-1.57,2.477c-0.937,0.225-1.856,0.023-2.318-0.973c-0.016,0.567-0.198,1.079-0.646,1.45
				c-0.33,0.259-0.782,0.367-1.181,0.463l-0.229,0.054C5.309,55.895,4.524,56.128,4.693,56.834z M8.003,64.279l-0.041,0.018
				L6.757,61.71l0.041-0.019l0.009,0.021c0.042,0.09,0.239,0.408,0.829,0.133c0.107-0.05,0.219-0.112,0.351-0.202l1.076-0.839
				l-0.997-2.138l-0.877,0.162c-0.438,0.109-0.613,0.132-0.856,0.245c-0.574,0.268-0.486,0.577-0.442,0.67l0.015,0.033l-0.041,0.021
				L5.301,58.59l0.041-0.021l0.004,0.01c0.03,0.063,0.235,0.358,1.423,0.186l6.894-1.293l0.552,1.188l-5.189,4.072
				C7.787,63.775,7.995,64.261,8.003,64.279z M10.598,68.153l0.015,0.023l-0.037,0.025l-1.627-2.425l0.038-0.025L9,65.775
				c0.07,0.104,0.426,0.513,1.407-0.106l4.563-3.063c0.946-0.673,0.702-1.156,0.632-1.261l-0.015-0.023l0.032-0.021l1.627,2.425
				l-0.032,0.022l-0.016-0.024c-0.072-0.106-0.433-0.522-1.409,0.104l-4.563,3.062C10.276,67.555,10.525,68.045,10.598,68.153z
				 M15.1,73.324l-0.148,0.095l-3.344-3.717l0.032-0.03l0.019,0.019c0.087,0.098,0.502,0.461,1.38-0.3l4.081-3.67
				c0.848-0.793,0.532-1.245,0.445-1.342l-0.019-0.02l0.034-0.029l1.961,2.179l-0.034,0.031l-0.017-0.021
				c-0.084-0.093-0.504-0.457-1.387,0.294l-4.885,4.396l1.094,1.217c0.762,0.696,1.967-0.28,1.967-0.28l0.159,0.178L15.1,73.324z
				 M22.368,74.507c0.348,0.446,0.534,0.959,0.424,1.528c-0.09,0.41-0.371,0.781-0.618,1.106l-0.143,0.188
				c-0.351,0.465-0.81,1.145-0.229,1.585l-0.027,0.034l-0.14-0.106c-1.163-0.878-1.615-1.29-0.573-2.667
				c0.625-0.828,1.029-1.675,0.311-2.346l-0.754-0.57l-1.549,2.048c-0.679,0.942-0.279,1.329-0.175,1.408l0.021,0.014l-0.027,0.036
				l-2.339-1.769l0.027-0.036l0.022,0.016c0.1,0.077,0.581,0.356,1.294-0.559l3.311-4.378c0.686-0.938,0.287-1.321,0.186-1.398
				l-0.022-0.016l0.027-0.037l3.02,2.284c1.166,0.881,1.04,2.016,0.363,2.909C24.194,74.552,23.358,74.982,22.368,74.507z
				 M25.997,81.129c-1.561-0.761-1.866-2.867-0.879-4.894c0.984-2.021,2.834-3.084,4.395-2.322c1.561,0.76,1.859,2.87,0.875,4.891
				C29.4,80.831,27.557,81.889,25.997,81.129z M35.678,84.555l-2.742-0.785l0.013-0.044l0.021,0.008
				c0.095,0.026,0.465,0.085,0.645-0.54c0.032-0.113,0.059-0.239,0.077-0.397l0.073-1.361l-2.268-0.648l-0.454,0.768
				c-0.204,0.401-0.302,0.549-0.376,0.808c-0.174,0.609,0.118,0.744,0.217,0.773l0.035,0.009l-0.013,0.044l-1.28-0.366l0.012-0.044
				l0.009,0.002c0.069,0.02,0.427,0.059,1.075-0.95l3.544-6.053l1.258,0.361l-0.329,6.587c-0.026,1.621,0.479,1.781,0.496,1.787
				L35.678,84.555z M44.068,81.397c-0.179,2.258-1.52,3.896-3.147,3.766l-3.241-0.258l0.003-0.044l0.026,0.001
				c0.13,0.012,0.681-0.013,0.804-1.167l0.436-5.477c0.061-1.159-0.479-1.271-0.609-1.28l-0.027-0.002l0.004-0.039l3.241,0.258
				C43.257,77.291,44.247,79.15,44.068,81.397z M53.002,83.243c-0.238,0.529-0.645,1.001-1.084,1.206
				c-0.189,0.093-0.375,0.147-0.57,0.181c-0.129,0.021-0.264,0.032-0.402,0.037c-0.215-0.003-0.441-0.026-0.662-0.075
				c-0.215-0.055-0.43-0.14-0.639-0.25c-0.193-0.1-0.395-0.23-0.584-0.394c-0.184-0.162-0.352-0.325-0.516-0.521
				c-0.166-0.21-0.307-0.419-0.439-0.647c-0.123-0.235-0.238-0.494-0.326-0.748c-0.096-0.279-0.166-0.551-0.213-0.839
				c-0.373-2.218,0.721-4.18,2.424-4.477l0.035-0.007c0.336-0.057,0.596-0.043,0.814-0.021c0.264,0.028,0.512,0.095,0.74,0.188
				l-0.008,0.002c0.063,0.019,0.115,0.02,0.166,0.011c0.277-0.046,0.275-0.473,0.275-0.473l0.354,2.117l-0.229,0.039
				c0,0-0.313-1.637-1.52-1.711c-0.107-0.011-0.217-0.009-0.334-0.008l-0.133,0.017l-0.176,0.034
				c-0.861,0.327-1.283,2.149-0.992,3.88c0.025,0.154,0.059,0.303,0.094,0.45c0.061,0.229,0.113,0.458,0.195,0.679
				c0.457,1.229,1.25,1.79,1.924,1.928c0.203,0.045,0.4,0.053,0.59,0.02c0.602-0.101,1.111-0.595,1.381-1.561l0.104,0.129
				C53.225,82.717,53.131,83,53.002,83.243z M58.525,82.654c-1.625,0.611-3.365-0.616-4.156-2.727
				c-0.791-2.104-0.289-4.178,1.334-4.789c1.625-0.609,3.363,0.624,4.152,2.729C60.65,79.976,60.15,82.045,58.525,82.654z
				 M67.506,77.961l-0.025-0.037l0.023-0.014c0.027-0.018,0.064-0.057,0.119-0.113c0.049-0.057,0.084-0.143,0.115-0.25
				c0.025-0.109,0.018-0.251-0.027-0.425c-0.039-0.168-0.137-0.38-0.283-0.624l-3.451-5.265l1.984,7.759l-0.02,0.014l-6.109-5.039
				l3.547,5.411c0.152,0.195,0.295,0.33,0.42,0.415c0.129,0.09,0.244,0.136,0.346,0.15c0.1,0.015,0.184,0.014,0.25-0.012
				c0.066-0.021,0.113-0.039,0.139-0.058l0.027-0.017l0.023,0.038l-1.33,0.872l-0.025-0.038l0.025-0.016
				c0.027-0.018,0.066-0.057,0.117-0.11c0.047-0.052,0.086-0.129,0.109-0.233c0.023-0.102,0.021-0.235-0.016-0.399
				c-0.033-0.158-0.113-0.354-0.244-0.576l-3.156-4.822c-0.148-0.184-0.287-0.321-0.412-0.406c-0.125-0.086-0.236-0.134-0.338-0.147
				c-0.102-0.015-0.191-0.015-0.27-0.012c-0.078,0.006-0.133,0.021-0.158,0.037l1.879-1.231l4.355,3.515l-1.393-5.454l1.848-1.21
				L65.6,69.7l-0.021,0.016c-0.027,0.018-0.066,0.057-0.117,0.108c-0.051,0.062-0.086,0.146-0.111,0.255
				c-0.025,0.11-0.018,0.252,0.023,0.42c0.039,0.175,0.133,0.383,0.281,0.628l2.996,4.571c0.162,0.234,0.318,0.407,0.461,0.51
				c0.141,0.107,0.27,0.17,0.379,0.192c0.107,0.017,0.199,0.019,0.273-0.005c0.07-0.025,0.123-0.046,0.148-0.062l0.021-0.018
				l0.025,0.038L67.506,77.961z M71.627,74.864l-0.033-0.03l0.018-0.02c0.088-0.09,0.418-0.525-0.393-1.357l-3.938-3.82
				c-0.857-0.786-1.283-0.443-1.371-0.354l-0.018,0.021l-0.031-0.031l2.629-2.71c1.023-1.056,2.029-0.894,2.826-0.121
				c0.805,0.78,1.232,1.959,0.189,3.033l-1.105,1.14l1.842,1.787c0.85,0.793,1.279,0.447,1.369,0.354l0.02-0.021l0.031,0.031
				L71.627,74.864z M77.449,68.215l-0.035-0.025l0.012-0.019c0.061-0.08,0.244-0.406-0.279-0.791
				c-0.096-0.069-0.205-0.139-0.346-0.21l-1.252-0.541l-1.398,1.899l0.563,0.691c0.307,0.332,0.41,0.475,0.625,0.635
				c0.512,0.373,0.74,0.148,0.801,0.065l0.023-0.029l0.035,0.025l-0.789,1.075l-0.037-0.028l0.006-0.007
				c0.043-0.058,0.203-0.379-0.518-1.339l-4.441-5.429l0.775-1.055l6.064,2.602c1.508,0.587,1.836,0.171,1.848,0.156l0.035,0.027
				L77.449,68.215z M82.355,59.497l-6.686,1.629l3.877,1.807c0.234,0.083,0.422,0.127,0.574,0.134
				c0.156,0.009,0.279-0.013,0.373-0.054c0.092-0.041,0.162-0.087,0.207-0.141c0.043-0.055,0.076-0.099,0.09-0.127l0.014-0.028
				l0.039,0.019l-0.672,1.443l-0.041-0.019l0.014-0.029c0.012-0.027,0.025-0.083,0.041-0.153c0.014-0.069,0.004-0.156-0.029-0.257
				c-0.033-0.099-0.105-0.212-0.223-0.33c-0.113-0.117-0.285-0.241-0.512-0.362l-3.953-1.843c-0.432-0.203-0.797-0.346-1.09-0.434
				s-0.535-0.141-0.721-0.153s-0.328-0.004-0.432,0.021c-0.098,0.027-0.172,0.063-0.207,0.1c-0.039,0.043-0.064,0.069-0.07,0.082
				l-0.002,0.01l-0.043-0.02l0.367-0.785l6.734-1.604l-3.932-1.835c-0.229-0.08-0.418-0.124-0.568-0.131
				c-0.16-0.006-0.281,0.015-0.379,0.053c-0.092,0.04-0.164,0.086-0.207,0.141c-0.043,0.053-0.07,0.1-0.084,0.128l-0.012,0.025
				l-0.041-0.021l0.67-1.438l0.041,0.021l-0.012,0.027c-0.014,0.029-0.025,0.078-0.041,0.149c-0.014,0.072-0.006,0.16,0.029,0.261
				c0.033,0.1,0.105,0.211,0.217,0.33c0.113,0.116,0.283,0.241,0.512,0.36l6.215,2.896L82.355,59.497z M83.854,55.023l-0.045-0.009
				l0.006-0.028c0.029-0.121,0.09-0.665-1.031-0.963l-2.586-0.614l-3.539,0.807c-0.869,0.286-1.014,0.8-1.029,0.866l-0.002,0.003
				l-0.043-0.009l0.717-3.025l0.045,0.011c0,0-0.074,0.361,0.33,0.456c0.107,0.027,0.244,0.036,0.428,0.015l2.545-0.599
				l-1.779-1.754c-0.275-0.223-0.477-0.321-0.629-0.357c-0.338-0.08-0.404,0.171-0.404,0.171l-0.043-0.011l0.373-1.566l0.043,0.011
				c-0.012,0.04-0.146,0.666,0.594,1.474l1.895,1.879l3.424,0.813c1.135,0.246,1.328-0.272,1.357-0.398l0.006-0.025l0.045,0.01
				L83.854,55.023z"/>
			<path fill="#FFFFFF" d="M61.896,7.762l-3.4,3.426l2.445,1.27L61.896,7.762z"/>
			<path fill="#FFFFFF" d="M36.99,4.221l-0.72,4.774l2.725-0.422L36.99,4.221z"/>
			<path fill="#FFFFFF" d="M9.914,53.333c0.535-0.128,1.85-0.534,1.596-1.595l-0.233-0.953l-3.724,0.89l0.252,1.078
				C8.122,53.646,9.402,53.455,9.914,53.333z"/>
			<path fill="#FFFFFF" d="M30.14,9.559c1.021-0.521,0.663-1.768,0.465-2.256c-0.205-0.51-0.821-1.742-2.046-1.246l-1.103,0.452
				l1.437,3.55L30.14,9.559z"/>
			<path fill="#FFFFFF" d="M70.291,67.497c-0.393-0.383-1.332-1.169-2.092-0.387l-0.68,0.708l2.756,2.675l0.688-0.708
				C71.697,69.029,70.688,67.88,70.291,67.497z"/>
			<path fill="#FFFFFF" d="M74.039,68.396l1.348-1.831l-4.355-1.856L74.039,68.396z"/>
			<path d="M44.033,0C19.752,0,0,19.753,0,44.034c0,24.278,19.752,44.03,44.033,44.03c24.28,0,44.034-19.752,44.034-44.03
				C88.066,19.753,68.313,0,44.033,0z M44.033,87.598c-24.022,0-43.566-19.543-43.566-43.564c0-24.023,19.543-43.567,43.566-43.567
				c24.022,0,43.567,19.544,43.567,43.567C87.6,68.055,68.055,87.598,44.033,87.598z"/>
			<path d="M7.353,37.042c0.281,0.08,0.558,0.129,0.854,0.151c0.269,0.02,0.556,0.011,0.826-0.015
				c0.268-0.043,0.523-0.101,0.793-0.188c0.253-0.092,0.482-0.203,0.716-0.328c0.237-0.137,0.452-0.296,0.633-0.465
				c0.203-0.18,0.381-0.378,0.534-0.589c0.151-0.223,0.283-0.462,0.391-0.698c0.062-0.157,0.117-0.312,0.159-0.463
				c0.066-0.23,0.108-0.461,0.115-0.713c0.03-0.579-0.194-1.248-0.552-1.755c-0.155-0.253-0.363-0.488-0.596-0.672l-0.167,0.054
				c0.732,0.744,0.928,1.535,0.727,2.246c-0.063,0.225-0.165,0.439-0.304,0.643c-0.45,0.681-1.336,1.3-2.657,1.236
				c-0.236-0.009-0.468-0.058-0.702-0.096c-0.148-0.031-0.297-0.062-0.448-0.104c-1.688-0.479-3.112-1.787-2.987-2.888l0.055-0.21
				l0.049-0.156C4.847,31.9,4.899,31.78,4.96,31.667c0.654-1.301,2.268-0.889,2.268-0.889l0.078-0.272L5.239,29.92
				c0,0,0.382,0.193,0.289,0.523c-0.016,0.057-0.044,0.118-0.091,0.178L5.44,30.61c-0.193,0.211-0.373,0.454-0.528,0.732
				c-0.123,0.23-0.262,0.514-0.375,0.912l-0.012,0.041C3.966,34.313,5.19,36.429,7.353,37.042z"/>
			<path d="M6.054,27.833c0.071-0.135,0.432-0.683,1.479-0.183l4.875,2.533c1.012,0.569,0.771,1.179,0.7,1.314l-0.014,0.029
				l0.04,0.02l2.794-5.38l-0.164-0.097l-1.375-0.942l-0.13,0.251c0,0,1.328,0.801,0.846,1.96L14.191,29.1l-3.318-1.724l0.405-0.782
				c0.635-1.22,1.541-0.97,1.541-0.97l-1.791-0.931c0,0,0.726,0.599,0.092,1.819l-0.407,0.781l-3.318-1.724l0.916-1.761
				c0.671-1.061,2.099-0.43,2.099-0.43l0.13-0.25l-1.58-0.595l-0.16-0.07l-2.794,5.38l0.035,0.018L6.054,27.833z"/>
			<path d="M10.103,20.499c0.01-0.012,0.047-0.039,0.101-0.078c0.052-0.035,0.14-0.062,0.252-0.074
				c0.117-0.008,0.264,0.008,0.449,0.057c0.187,0.048,0.412,0.153,0.681,0.305c0.267,0.152,0.585,0.382,0.951,0.688l3.349,2.793
				c0.188,0.178,0.315,0.349,0.386,0.5c0.076,0.155,0.106,0.293,0.103,0.411c-0.002,0.118-0.028,0.217-0.068,0.291
				c-0.042,0.078-0.076,0.135-0.1,0.165l-0.023,0.029l0.034,0.028l1.237-1.481l-0.034-0.029l-0.025,0.029
				c-0.024,0.029-0.075,0.072-0.139,0.124c-0.066,0.052-0.156,0.091-0.267,0.119c-0.111,0.027-0.245,0.029-0.402-0.01
				c-0.153-0.035-0.331-0.12-0.538-0.256l-3.284-2.74l7.464-0.565l0.108-0.129l-5.265-4.393c-0.188-0.178-0.315-0.348-0.387-0.499
				c-0.07-0.151-0.101-0.29-0.098-0.407c0.003-0.118,0.028-0.218,0.071-0.296c0.043-0.077,0.072-0.13,0.097-0.16l0.024-0.029
				l-0.035-0.029l-1.233,1.478l0.034,0.029l0.021-0.025c0.024-0.029,0.071-0.076,0.135-0.128c0.065-0.051,0.155-0.089,0.267-0.118
				c0.115-0.023,0.246-0.022,0.406,0.013c0.152,0.036,0.33,0.121,0.532,0.253l3.333,2.78l-7.508,0.529l-0.672,0.805l0.034,0.029
				L10.103,20.499z"/>
			<path d="M17.478,14.716l0.228-0.167c0,0-0.845-1.313,0.099-2.141l1.208-0.89l3.9,5.294c0.658,0.957,0.159,1.408,0.037,1.498
				l-0.026,0.02l0.026,0.037l2.864-2.109l-0.027-0.036l-0.025,0.019c-0.128,0.094-0.706,0.436-1.421-0.478l-3.9-5.294l1.195-0.881
				c1.066-0.653,2.074,0.541,2.074,0.541l0.236-0.174l-1.276-1.357l-6.117,4.506l0.101,0.156L17.478,14.716z"/>
			<path d="M24.966,7.371c0.142-0.058,0.787-0.246,1.242,0.821l2.058,5.088c0.415,1.085-0.18,1.397-0.321,1.455l-0.031,0.012
				l0.017,0.042l3.297-1.333l-0.018-0.042l-0.03,0.012c-0.146,0.059-0.792,0.248-1.256-0.816l-0.963-2.38l1.063-0.43
				c1.137-0.351,1.693,0.416,2.083,1.378c0.647,1.6,1.354,1.375,2.993,0.712l0.16-0.065l1.479-0.229l-0.006-0.044l-0.043,0.006
				c-0.124,0.019-0.513,0.028-0.61-0.597c-0.041-0.266-0.002-0.442,0.032-0.895l0.136-0.896l2.827-0.438l0.569,1.256
				c0.056,0.151,0.086,0.276,0.104,0.393c0.099,0.643-0.339,0.757-0.458,0.775l-0.026,0.003l0.006,0.045l3.417-0.53l-0.006-0.044
				c-0.022,0.003-0.658,0.085-1.403-1.382l-2.778-6.071l-1.569,0.242l-1.045,7.038c-0.238,1.2-0.654,1.327-0.74,1.34l-0.011,0.001
				l0.002,0.008c-0.714,0.189-1.046-0.479-1.25-0.987l-0.089-0.218c-0.154-0.379-0.328-0.811-0.667-1.085
				c-0.483-0.367-1.108-0.434-1.778-0.321c1.128-0.692,1.269-1.662,0.907-2.556c-0.42-1.04-1.444-1.684-3.086-1.019L24.92,7.341
				l0.017,0.041L24.966,7.371z M36.99,4.221l2.005,4.352l-2.725,0.422L36.99,4.221z M28.559,6.057
				c1.225-0.496,1.841,0.736,2.046,1.246c0.198,0.489,0.556,1.735-0.465,2.256l-1.247,0.499l-1.437-3.55L28.559,6.057z"/>
			<path d="M48.916,10.944l0.279-1.652l-0.289-0.017c0,0-0.186,1.54-1.434,1.569l-1.982-0.114l0.375-6.56
				c0.105-1.157,0.777-1.185,0.928-1.177l0.033,0.001l0.002-0.044l-3.55-0.203l-0.002,0.044l0.032,0.002
				c0.158,0.009,0.816,0.114,0.777,1.274l-0.314,5.479c-0.093,1.157-0.759,1.187-0.917,1.177l-0.032-0.001l-0.003,0.044l6.054,0.347
				L48.916,10.944z"/>
			<path d="M54.67,12.591l-0.029-0.01c-0.148-0.05-0.756-0.326-0.41-1.434l0.82-2.433l1.824,0.617
				c1.721,0.581,2.711-0.274,3.068-1.336c0.355-1.052-0.047-2.069-1.736-2.64l-4.338-1.465L53.855,3.93l0.031,0.011
				c0.145,0.048,0.744,0.323,0.41,1.435l-1.756,5.199c-0.408,1.088-1.053,0.941-1.199,0.892l-0.029-0.01l-0.016,0.042l3.359,1.135
				L54.67,12.591z M56.336,4.911l1.129,0.376c1.252,0.423,0.965,1.615,0.789,2.135c-0.176,0.521-0.803,1.919-2.014,1.509
				l-1.133-0.383L56.336,4.911z"/>
			<path d="M55.934,12.783l-0.01-0.005l-0.021,0.04l1.434,0.744l0.021-0.039l-0.039-0.02c-0.109-0.058-0.43-0.281-0.139-0.843
				c0.125-0.239,0.26-0.358,0.555-0.704l0.639-0.641l2.539,1.317l-0.283,1.35c-0.043,0.155-0.092,0.275-0.146,0.378
				c-0.301,0.577-0.721,0.409-0.828,0.354l-0.023-0.012l-0.021,0.04l3.07,1.594l0.02-0.04c-0.018-0.01-0.58-0.321-0.313-1.944
				l1.348-6.539l-1.41-0.731l-5.004,5.058C56.42,12.966,56.01,12.823,55.934,12.783z M61.896,7.762l-0.955,4.696l-2.445-1.27
				L61.896,7.762z"/>
			<path d="M63.559,15.085c-0.012,0.269,0.004,0.523,0.031,0.788c0.035,0.271,0.1,0.53,0.188,0.762
				c0.088,0.255,0.203,0.496,0.34,0.719c0.148,0.225,0.32,0.438,0.496,0.626c0.123,0.117,0.244,0.227,0.367,0.324
				c0.189,0.149,0.387,0.275,0.617,0.379c0.523,0.249,1.227,0.296,1.832,0.16c0.293-0.047,0.59-0.149,0.85-0.294l0.014-0.175
				c-0.969,0.393-1.775,0.272-2.355-0.186c-0.184-0.145-0.342-0.321-0.477-0.527c-0.459-0.675-0.693-1.73-0.129-2.929
				c0.098-0.214,0.232-0.408,0.355-0.61c0.086-0.126,0.172-0.251,0.268-0.375c1.088-1.378,2.84-2.196,3.809-1.659l0.176,0.13
				l0.123,0.105c0.102,0.101,0.193,0.195,0.273,0.294c0.953,1.101-0.043,2.436-0.043,2.436l0.223,0.175l1.328-1.687
				c0,0-0.324,0.279-0.594,0.068c-0.047-0.038-0.09-0.086-0.129-0.152l0.008,0.007c-0.119-0.26-0.277-0.519-0.475-0.767
				c-0.166-0.202-0.375-0.439-0.699-0.694l-0.035-0.028c-1.65-1.286-4.072-0.963-5.465,0.803c-0.18,0.229-0.334,0.466-0.465,0.732
				c-0.123,0.241-0.225,0.511-0.303,0.769C63.625,14.544,63.58,14.802,63.559,15.085z"/>
			<path d="M68.842,20.129c-0.881,0.756-1.371,0.319-1.475,0.207l-0.021-0.024l-0.033,0.03l2.391,2.611l0.033-0.03l-0.021-0.024
				c-0.107-0.116-0.506-0.651,0.332-1.455l4.053-3.708c0.875-0.764,1.371-0.32,1.479-0.204l0.021,0.023l0.029-0.026l-2.391-2.612
				l-0.027,0.026l0.021,0.024c0.104,0.112,0.494,0.639-0.338,1.451L68.842,20.129z"/>
			<path d="M70.064,23.175l-0.018-0.027l-0.037,0.024l1.953,2.96L72,26.107l-0.018-0.028c-0.088-0.131-0.396-0.722,0.557-1.384
				l2.219-1.463l0.484,0.736c0.758,1.148,0.1,1.818,0.1,1.818l1.684-1.111c0,0-0.875,0.343-1.633-0.806l-0.486-0.735l3.123-2.059
				l1.092,1.657c0.596,1.098-0.646,2.042-0.646,2.042l0.154,0.236l1.289-1.092l0.139-0.104l-3.342-5.065l-0.031,0.022l0.018,0.026
				c0.086,0.132,0.389,0.714-0.557,1.384l-4.588,3.025C70.566,23.814,70.152,23.306,70.064,23.175z"/>
			<path d="M73.629,28.848l-0.014-0.03l-0.041,0.018l1.451,3.23l0.043-0.019l-0.016-0.029c-0.064-0.145-0.275-0.777,0.773-1.277
				l5.012-2.252c1.068-0.45,1.402,0.126,1.467,0.271l0.014,0.031l0.035-0.017l-1.451-3.229l-0.035,0.017l0.012,0.029
				c0.064,0.138,0.27,0.761-0.773,1.271l-5.012,2.252C74.02,29.554,73.691,28.986,73.629,28.848z"/>
			<path d="M79.078,31.138c-0.281,0.076-0.545,0.175-0.811,0.309c-0.24,0.122-0.482,0.278-0.701,0.438
				c-0.209,0.174-0.396,0.354-0.584,0.568c-0.17,0.209-0.309,0.422-0.445,0.65c-0.133,0.239-0.236,0.486-0.305,0.724
				c-0.08,0.259-0.131,0.521-0.154,0.78c-0.014,0.268-0.006,0.542,0.023,0.799c0.027,0.167,0.061,0.327,0.102,0.479
				c0.063,0.231,0.145,0.452,0.268,0.671c0.273,0.513,0.809,0.971,1.377,1.223c0.262,0.137,0.561,0.231,0.857,0.269l0.113-0.132
				c-1.01-0.261-1.584-0.839-1.777-1.552c-0.063-0.227-0.084-0.462-0.07-0.708c0.035-0.815,0.477-1.802,1.645-2.427
				c0.207-0.112,0.432-0.189,0.65-0.277c0.145-0.05,0.287-0.101,0.439-0.141c1.693-0.458,3.586-0.068,4.045,0.94l0.063,0.208
				l0.037,0.16c0.021,0.141,0.039,0.271,0.043,0.4c0.109,1.452-1.488,1.928-1.488,1.928l0.074,0.273l2.074-0.56
				c0,0-0.428,0.031-0.518-0.3c-0.016-0.058-0.021-0.124-0.014-0.199l0.004,0.01c0.059-0.28,0.086-0.581,0.076-0.899
				c-0.014-0.262-0.039-0.575-0.148-0.975l-0.012-0.042C83.387,31.737,81.248,30.552,79.078,31.138z"/>
			<path d="M5.876,55.758l0.229-0.054c0.398-0.096,0.851-0.204,1.181-0.463c0.448-0.371,0.63-0.883,0.646-1.45
				c0.462,0.996,1.381,1.197,2.318,0.973c1.09-0.26,1.909-1.055,1.57-2.477l-0.88-3.683l-0.042,0.012l0.005,0.024
				c0.029,0.122,0.092,0.676-1.032,0.962l-5.338,1.276c-1.134,0.252-1.327-0.271-1.356-0.393L3.17,50.461l-0.043,0.011l0.682,2.853
				l0.043-0.011l-0.006-0.025c-0.03-0.128-0.093-0.679,1.03-0.976l2.497-0.597l0.221,0.921c0.128,0.975-0.722,1.372-1.73,1.612
				c-1.68,0.401-1.592,1.009-1.254,2.426l0.041,0.169l0.044-0.01C4.524,56.128,5.309,55.895,5.876,55.758z M7.553,51.674l3.724-0.89
				l0.233,0.953c0.253,1.061-1.062,1.467-1.596,1.595c-0.512,0.122-1.792,0.313-2.109-0.58L7.553,51.674z"/>
			<path d="M9.026,62.732l5.189-4.072l-0.552-1.188L6.77,58.765c-1.188,0.173-1.394-0.122-1.423-0.186l-0.004-0.01L5.301,58.59
				l0.563,1.207l0.041-0.021L5.89,59.744c-0.044-0.093-0.132-0.402,0.442-0.67c0.244-0.113,0.419-0.136,0.856-0.245l0.877-0.162
				l0.997,2.138l-1.076,0.839c-0.131,0.09-0.244,0.152-0.351,0.202c-0.589,0.275-0.787-0.043-0.829-0.133l-0.009-0.021L6.757,61.71
				l1.205,2.586l0.041-0.018C7.995,64.261,7.787,63.775,9.026,62.732z M8.235,58.631l4.678-0.87l-3.717,2.932L8.235,58.631z"/>
			<path d="M17.198,63.723l0.016,0.024l0.032-0.022L15.619,61.3l-0.032,0.021l0.015,0.023c0.07,0.104,0.314,0.588-0.632,1.261
				l-4.563,3.063C9.426,66.288,9.071,65.879,9,65.775l-0.014-0.023l-0.038,0.025l1.627,2.425l0.037-0.025l-0.015-0.023
				c-0.073-0.107-0.322-0.598,0.629-1.264l4.563-3.062C16.765,63.201,17.126,63.617,17.198,63.723z"/>
			<path d="M14.313,72.425l-1.094-1.217l4.885-4.396c0.883-0.751,1.302-0.387,1.387-0.294l0.017,0.021l0.034-0.031L17.58,64.33
				l-0.034,0.029l0.019,0.02c0.087,0.097,0.403,0.549-0.445,1.342l-4.081,3.67c-0.878,0.761-1.293,0.397-1.38,0.3l-0.019-0.019
				l-0.032,0.03l3.344,3.717l0.148-0.095l1.339-1.001l-0.159-0.178C16.28,72.145,15.075,73.122,14.313,72.425z"/>
			<path d="M24.413,70.874l-3.02-2.284l-0.027,0.037l0.022,0.016c0.101,0.077,0.5,0.461-0.186,1.398l-3.311,4.378
				c-0.714,0.915-1.194,0.636-1.294,0.559l-0.022-0.016l-0.027,0.036l2.339,1.769l0.027-0.036l-0.021-0.014
				c-0.104-0.079-0.503-0.466,0.175-1.408l1.549-2.048l0.754,0.57c0.719,0.671,0.315,1.518-0.311,2.346
				c-1.042,1.377-0.589,1.789,0.573,2.667l0.14,0.106l0.027-0.034c-0.58-0.44-0.121-1.12,0.229-1.585l0.143-0.188
				c0.247-0.325,0.528-0.696,0.618-1.106c0.11-0.569-0.076-1.082-0.424-1.528c0.99,0.475,1.826,0.045,2.408-0.725
				C25.453,72.889,25.579,71.754,24.413,70.874z M23.606,72.892c-0.318,0.421-1.186,1.382-1.997,0.893l-0.88-0.672l2.309-3.053
				l0.787,0.587C24.695,71.304,23.937,72.454,23.606,72.892z"/>
			<path d="M29.513,73.914c-1.56-0.762-3.41,0.302-4.395,2.322c-0.987,2.026-0.682,4.133,0.879,4.894
				c1.56,0.76,3.403-0.299,4.39-2.325C31.372,76.784,31.073,74.673,29.513,73.914z M29.068,78.161
				c-0.947,1.946-2.161,3.219-2.996,2.812l-0.004-0.002c-0.77-0.374-0.573-2.15,0.37-4.085c1.051-2.157,2.212-3.2,2.995-2.819
				C30.195,74.438,30.161,75.918,29.068,78.161z"/>
			<path d="M35.195,82.725l0.329-6.587l-1.258-0.361l-3.544,6.053c-0.648,1.009-1.006,0.97-1.075,0.95l-0.009-0.002l-0.012,0.044
				l1.28,0.366l0.013-0.044l-0.035-0.009c-0.099-0.029-0.391-0.164-0.217-0.773c0.074-0.259,0.172-0.406,0.376-0.808l0.454-0.768
				l2.268,0.648l-0.073,1.361c-0.018,0.158-0.044,0.284-0.077,0.397c-0.179,0.625-0.55,0.566-0.645,0.54l-0.021-0.008l-0.013,0.044
				l2.742,0.785l0.013-0.043C35.673,84.506,35.169,84.346,35.195,82.725z M33.767,81.26l-2.187-0.625l2.412-4.104L33.767,81.26z"/>
			<path d="M41.558,77.155l-3.241-0.258l-0.004,0.039l0.027,0.002c0.13,0.01,0.669,0.121,0.609,1.28l-0.436,5.477
				c-0.124,1.154-0.674,1.179-0.804,1.167l-0.026-0.001l-0.003,0.044l3.241,0.258c1.627,0.131,2.968-1.508,3.147-3.766
				C44.247,79.15,43.257,77.291,41.558,77.155z M42.606,81.289c-0.148,1.854-0.572,3.789-2.19,3.66l-0.527-0.048l0.61-7.656
				l0.554,0.044C42.688,77.419,42.765,79.287,42.606,81.289z"/>
			<path d="M51.787,83.861c-0.189,0.033-0.387,0.025-0.59-0.02c-0.674-0.138-1.467-0.699-1.924-1.928
				c-0.082-0.221-0.135-0.45-0.195-0.679c-0.035-0.147-0.068-0.296-0.094-0.45c-0.291-1.73,0.131-3.553,0.992-3.88l0.176-0.034
				l0.133-0.017c0.117-0.001,0.227-0.003,0.334,0.008c1.207,0.074,1.52,1.711,1.52,1.711l0.229-0.039l-0.354-2.117
				c0,0,0.002,0.427-0.275,0.473c-0.051,0.009-0.104,0.008-0.166-0.011l0.008-0.002c-0.229-0.093-0.477-0.159-0.74-0.188
				c-0.219-0.022-0.479-0.036-0.814,0.021l-0.035,0.007c-1.703,0.297-2.797,2.259-2.424,4.477c0.047,0.288,0.117,0.56,0.213,0.839
				c0.088,0.254,0.203,0.513,0.326,0.748c0.133,0.229,0.273,0.438,0.439,0.647c0.164,0.195,0.332,0.358,0.516,0.521
				c0.189,0.163,0.391,0.294,0.584,0.394c0.209,0.11,0.424,0.195,0.639,0.25c0.221,0.049,0.447,0.072,0.662,0.075
				c0.139-0.005,0.273-0.016,0.402-0.037c0.195-0.033,0.381-0.088,0.57-0.181c0.439-0.205,0.846-0.677,1.084-1.206
				c0.129-0.242,0.223-0.525,0.27-0.813L53.168,82.3C52.898,83.266,52.389,83.76,51.787,83.861z"/>
			<path d="M55.703,75.138c-1.623,0.611-2.125,2.685-1.334,4.789c0.791,2.11,2.531,3.338,4.156,2.727
				c1.625-0.608,2.125-2.678,1.33-4.786C59.066,75.762,57.328,74.529,55.703,75.138z M58.465,82.491l-0.004,0.003
				c-0.803,0.301-1.957-1.062-2.713-3.079c-0.842-2.244-0.803-3.807,0.014-4.112c0.793-0.297,1.846,0.745,2.723,3.08
				C59.244,80.409,59.334,82.165,58.465,82.491z"/>
			<path d="M69.912,76.333c-0.025,0.016-0.078,0.036-0.148,0.062c-0.074,0.023-0.166,0.021-0.273,0.005
				c-0.109-0.022-0.238-0.085-0.379-0.192c-0.143-0.103-0.299-0.275-0.461-0.51l-2.996-4.571c-0.148-0.245-0.242-0.453-0.281-0.628
				c-0.041-0.168-0.049-0.31-0.023-0.42c0.025-0.108,0.061-0.193,0.111-0.255c0.051-0.052,0.09-0.091,0.117-0.108L65.6,69.7
				l-0.023-0.036l-1.848,1.21l1.393,5.454l-4.355-3.515l-1.879,1.231c0.025-0.017,0.08-0.031,0.158-0.037
				c0.078-0.003,0.168-0.003,0.27,0.012c0.102,0.014,0.213,0.062,0.338,0.147c0.125,0.085,0.264,0.223,0.412,0.406l3.156,4.822
				c0.131,0.223,0.211,0.418,0.244,0.576c0.037,0.164,0.039,0.298,0.016,0.399c-0.023,0.104-0.063,0.182-0.109,0.233
				c-0.051,0.054-0.09,0.093-0.117,0.11l-0.025,0.016l0.025,0.038l1.33-0.872l-0.023-0.038l-0.027,0.017
				c-0.025,0.019-0.072,0.037-0.139,0.058c-0.066,0.025-0.15,0.026-0.25,0.012c-0.102-0.015-0.217-0.061-0.346-0.15
				c-0.125-0.085-0.268-0.22-0.42-0.415l-3.547-5.411l6.109,5.039l0.02-0.014l-1.984-7.759l3.451,5.265
				c0.146,0.244,0.244,0.456,0.283,0.624c0.045,0.174,0.053,0.315,0.027,0.425c-0.031,0.107-0.066,0.193-0.115,0.25
				c-0.055,0.057-0.092,0.096-0.119,0.113l-0.023,0.014l0.025,0.037l2.453-1.607l-0.025-0.038L69.912,76.333z"/>
			<path d="M73.611,72.755c-0.09,0.093-0.52,0.438-1.369-0.354L70.4,70.614l1.105-1.14c1.043-1.074,0.615-2.253-0.189-3.033
				c-0.797-0.772-1.803-0.935-2.826,0.121l-2.629,2.71l0.031,0.031l0.018-0.021c0.088-0.09,0.514-0.433,1.371,0.354l3.938,3.82
				c0.811,0.832,0.48,1.268,0.393,1.357l-0.018,0.02l0.033,0.03l2.035-2.098l-0.031-0.031L73.611,72.755z M67.52,67.818l0.68-0.708
				c0.76-0.782,1.699,0.004,2.092,0.387c0.396,0.384,1.406,1.532,0.672,2.288l-0.688,0.708L67.52,67.818z"/>
			<path d="M77.258,65.736l-6.064-2.602l-0.775,1.055l4.441,5.429c0.721,0.96,0.561,1.281,0.518,1.339l-0.006,0.007l0.037,0.028
				l0.789-1.075l-0.035-0.025l-0.023,0.029c-0.061,0.083-0.289,0.308-0.801-0.065c-0.215-0.16-0.318-0.303-0.625-0.635l-0.563-0.691
				l1.398-1.899l1.252,0.541c0.141,0.071,0.25,0.141,0.346,0.21c0.523,0.385,0.34,0.711,0.279,0.791l-0.012,0.019l0.035,0.025
				l1.691-2.296l-0.035-0.027C79.094,65.907,78.766,66.323,77.258,65.736z M74.039,68.396l-3.008-3.688l4.355,1.856L74.039,68.396z"
				/>
			<path d="M75.688,56.112c-0.111-0.119-0.184-0.23-0.217-0.33c-0.035-0.101-0.043-0.188-0.029-0.261
				c0.016-0.071,0.027-0.12,0.041-0.149l0.012-0.027l-0.041-0.021l-0.67,1.438l0.041,0.021l0.012-0.025
				c0.014-0.028,0.041-0.075,0.084-0.128c0.043-0.055,0.115-0.101,0.207-0.141c0.098-0.038,0.219-0.059,0.379-0.053
				c0.15,0.007,0.34,0.051,0.568,0.131l3.932,1.835l-6.734,1.604l-0.367,0.785l0.043,0.02l0.002-0.01
				c0.006-0.013,0.031-0.039,0.07-0.082c0.035-0.036,0.109-0.072,0.207-0.1c0.104-0.025,0.246-0.034,0.432-0.021
				s0.428,0.065,0.721,0.153s0.658,0.23,1.09,0.434l3.953,1.843c0.227,0.121,0.398,0.245,0.512,0.362
				c0.117,0.118,0.189,0.231,0.223,0.33c0.033,0.101,0.043,0.188,0.029,0.257c-0.016,0.07-0.029,0.126-0.041,0.153l-0.014,0.029
				l0.041,0.019l0.672-1.443l-0.039-0.019l-0.014,0.028c-0.014,0.028-0.047,0.072-0.09,0.127c-0.045,0.054-0.115,0.1-0.207,0.141
				c-0.094,0.041-0.217,0.063-0.373,0.054c-0.152-0.007-0.34-0.051-0.574-0.134l-3.877-1.807l6.686-1.629l0.059-0.129l-6.215-2.896
				C75.971,56.353,75.801,56.228,75.688,56.112z"/>
			<path d="M84.479,52.194c-0.029,0.126-0.223,0.645-1.357,0.398l-3.424-0.813L77.803,49.9c-0.74-0.808-0.605-1.434-0.594-1.474
				l-0.043-0.011l-0.373,1.566l0.043,0.011c0,0,0.066-0.251,0.404-0.171c0.152,0.036,0.354,0.135,0.629,0.357l1.779,1.754
				l-2.545,0.599c-0.184,0.021-0.32,0.013-0.428-0.015c-0.404-0.095-0.33-0.456-0.33-0.456l-0.045-0.011l-0.717,3.025l0.043,0.009
				l0.002-0.003c0.016-0.066,0.16-0.58,1.029-0.866l3.539-0.807l2.586,0.614c1.121,0.298,1.061,0.842,1.031,0.963l-0.006,0.028
				l0.045,0.009l0.676-2.845l-0.045-0.01L84.479,52.194z"/>
			<path fill="#FF0000" d="M47.07,58.965c-0.99,0.021-2.359,0.021-3.846-0.013c0.166,0.064,0.333,0.128,0.519,0.191
				C44.487,59.401,45.779,59.254,47.07,58.965z"/>
			<path fill="#FF0000" d="M32.312,41.342c-0.947,1.754-1.261,3.111-0.936,4.032c0.204,0.581,0.877,1.738,1.724,2.735
				c-0.043-1.709-0.182-4.314-0.428-7.302C32.534,40.983,32.41,41.16,32.312,41.342z"/>
			<path fill="#FF0000" d="M50.789,37.217c-5.025-0.687-8.319-0.577-10.406-0.265c0.001,0.224,0.002,0.474,0.004,0.748
				c1.375-0.405,2.886,0.007,4.326,1.285c0.859,0.763,1.146,1.752,1.146,2.693c0,0.263-0.059,0.5-0.096,0.748
				c0.426,0,1-0.033,1.77-0.143c1.498-0.212,2.973-1.963,4.176-4.921c-0.139-0.022-0.264-0.044-0.404-0.066c0,0,0-0.001,0-0.003
				C51.133,37.268,50.967,37.242,50.789,37.217z"/>
			<path fill="#FF0000" d="M44.033,13.776c-16.685,0-30.257,13.573-30.257,30.257c0,16.683,13.573,30.256,30.257,30.256
				c16.684,0,30.256-13.573,30.256-30.256C74.289,27.35,60.717,13.776,44.033,13.776z M66.281,36.332c0,0,2.432,5.002,2.461,5.068
				l0.359,0.856c0.047,0.113,0.076,0.231,0.09,0.353c0.053,0.471-0.189,1.002-0.582,1.268c-0.213,0.145-0.787,0.432-1.564,0.019
				c-0.117-0.063-0.293-0.176-0.996-0.633c-1.25-0.811-3.578-2.322-4.734-2.901l-0.271-0.137c-0.471-0.237-1.039-0.521-1.738-0.822
				c0,0,0,0.001,0,0.002c-0.043-0.018-0.094-0.037-0.135-0.056c-0.998,2.523-2.883,4.45-4.281,5.72
				c-1.564,1.42-4.906,2.668-7.771,2.898c-2.536,0.205-4.588-0.286-6.65-1.548c0.025,1.858,0.056,3.688,0.094,5.233
				c0.91,0.149,1.864,0.227,2.833,0.187l0.275-0.011c3.825-0.157,7.434-0.303,10.491-1.124c3.643-0.977,6.996-2.283,8.75-3.408
				c0,0,3.318-2.146,3.305-2.138c0.861-0.58,1.607-1.082,2.398-0.508c0.432,0.313,0.625,0.884,0.479,1.398
				c-0.043,0.147-0.051,0.174-1.604,3.563l-1.168,2.564c-0.564,1.268-0.646,1.754-0.646,1.933c0,0.086,0.004,0.191,0.012,0.305
				c0.029,0.565,0.074,1.418-0.643,1.94c-0.418,0.307-0.965,0.367-1.498,0.164c-0.318-0.12-2.09-0.589-3.498-0.949
				c-0.008,0-0.736-0.096-1.404,0.167c-0.057,0.021-4.07,1.577-7.498,2.518c0.043,0.03,0.09,0.052,0.129,0.088
				c0.357,0.323,0.506,0.813,0.385,1.276c-0.018,0.062-0.406,1.506-1.68,4.137c-1.65,3.408-5.027,3.156-6.467,3.048
				c-1.947-0.146-3.966-0.837-5.14-1.766c-0.606-0.478-1.295-1.284-1.846-1.985c-0.587,0.618-1.297,1.289-1.909,1.613
				c-1.412,0.75-3.291,0.47-4.944,0.097c-1.875-0.421-3.837-2.199-4.054-2.399c-0.401-0.373-0.509-0.958-0.286-1.457
				s0.752-0.798,1.297-0.746c0.007,0,0.746,0.062,2.181-0.342c1.279-0.359,1.324-0.402,2.46-1.537l0.438-0.434
				c0.135-0.136,0.281-0.359,0.426-0.713c-0.006-0.005-0.028-0.016-0.028-0.016l-0.002-0.007c-0.198-0.08-0.397-0.159-0.586-0.235
				c-1.075-0.435-2.091-0.844-2.646-0.899c-1.298-0.127-3.071,0.012-3.393,0.087c-0.37,0.095-1.498,0.424-1.9,0.545
				c-0.067,0.02-0.135,0.034-0.206,0.044c-0.562,0.069-1.107-0.19-1.388-0.663c-0.18-0.301-0.397-0.927,0.166-1.716
				c0.119-0.186,0.451-1.145-0.073-2.405c-0.602-1.446-1.753-2.871-1.934-3.088c-0.997-0.923-1.442-1.388-1.317-2.136
				c0.125-0.751,0.691-1.138,1.687-1.148c0.096-0.002,0.205-0.002,0.264-0.01c0.356-0.047,1.437-0.342,1.788-0.537
				c0-0.004,0.001-0.006,0.004-0.01c-0.037-0.078-0.081-0.15-0.104-0.244c-0.079-0.309-0.025-0.627,0.101-0.924
				c-0.514-0.271-1.273-0.578-1.568-0.613c-0.582-0.067-0.804-0.071-0.792-0.071c0.051,0,0.102-0.002,0.151-0.009
				c-0.667,0.08-1.273-0.257-1.504-0.841c-0.269-0.676-0.002-1.318,0.792-1.909c0.414-0.307,1.857-2.272,2.394-3.554
				c0.394-0.942,0.368-2.028,0.27-2.315c-0.769-0.884-0.547-1.58-0.332-1.92c0.131-0.211,0.649-0.877,1.74-0.537
				c0.748,0.234,4.428,0.835,5.289,0.575c0.215-0.064,0.605-0.215,1.056-0.389c0.32-0.124,0.696-0.267,1.095-0.415
				c-0.026-0.07-0.05-0.149-0.077-0.216h0.001c-0.892-2.237-2.015-3.516-2.664-4.254c-0.695-0.791-1.931-1.615-2.46-1.967
				l-0.369-0.254c-0.473-0.328-0.69-1-0.5-1.544c0.346-0.983,1.265-0.965,2.538-0.943l0.367,0.005
				c0.948,0.009,1.482,0.032,3.217,0.467c1.5,0.376,3.458,1.628,4.591,2.411c1.151-1.096,3.131-2.943,3.946-3.449
				c2.797-1.735,6.25-2.349,9.727-1.727c5.998,1.072,8.988,6.557,9.76,8.211c0.666,1.423,0.932,2.952,0.98,4.396
				c0.002,0,0.002,0,0.002,0c0.244-0.055,0.477-0.119,0.717-0.178c0,0.002,0,0.004,0,0.007c1.352-0.34,2.541-0.744,2.555-0.747
				c-0.072,0.024-0.141,0.055-0.207,0.091c0.582-0.323,1.225-0.337,1.717-0.033c0.459,0.282,0.719,0.799,0.695,1.381
				c-0.004,0.083-0.012,0.161-0.018,0.247C65.635,34.126,65.574,34.873,66.281,36.332z"/>
			<path fill="#FF0000" d="M51.875,30.416c-0.025-0.069-0.049-0.142-0.074-0.202c-0.66-1.551-1.445-2.432-3.115-3.489
				c-1.609-1.018-3.715-0.609-4.994,0.2c-0.916,0.579-1.694,1.563-2.253,2.492h0.001c-0.044,0.072-0.081,0.142-0.122,0.212
				C45.596,29.464,48.947,29.703,51.875,30.416z"/>
			<path d="M44.033,12.842c-17.199,0-31.191,13.993-31.191,31.191c0,17.199,13.993,31.19,31.191,31.19
				c17.198,0,31.19-13.991,31.19-31.19C75.223,26.835,61.23,12.842,44.033,12.842z M44.033,74.29
				c-16.685,0-30.257-13.573-30.257-30.256c0-16.684,13.573-30.257,30.257-30.257c16.684,0,30.256,13.573,30.256,30.257
				C74.289,60.716,60.717,74.29,44.033,74.29z"/>
			<path d="M26.486,62.062c-0.017,0-0.079-0.004-0.086-0.004C26.43,62.062,26.458,62.062,26.486,62.062z"/>
			<path d="M65.691,33.435c0.023-0.582-0.236-1.099-0.695-1.381c-0.492-0.305-1.135-0.291-1.717,0.033
				c0.066-0.037,0.135-0.067,0.207-0.091c-0.014,0.003-1.203,0.407-2.555,0.747c0-0.003,0-0.005,0-0.007
				c-0.24,0.059-0.473,0.123-0.717,0.178c0,0,0,0-0.002,0c-0.049-1.444-0.314-2.973-0.98-4.396c-0.771-1.654-3.762-7.139-9.76-8.211
				c-3.477-0.622-6.93-0.008-9.727,1.727c-0.814,0.506-2.794,2.353-3.946,3.449c-1.133-0.783-3.091-2.035-4.591-2.411
				c-1.735-0.435-2.269-0.458-3.217-0.467l-0.367-0.005c-1.273-0.022-2.192-0.04-2.538,0.943c-0.189,0.543,0.028,1.216,0.5,1.544
				l0.369,0.254c0.529,0.352,1.765,1.176,2.46,1.967c0.649,0.738,1.772,2.017,2.664,4.254h-0.001
				c0.027,0.067,0.051,0.146,0.077,0.216c-0.399,0.148-0.775,0.291-1.095,0.415c-0.45,0.173-0.84,0.324-1.056,0.389
				c-0.861,0.26-4.541-0.341-5.289-0.575c-1.091-0.341-1.608,0.325-1.74,0.537c-0.215,0.341-0.437,1.036,0.332,1.92
				c0.098,0.287,0.124,1.373-0.27,2.315c-0.537,1.282-1.98,3.248-2.394,3.554c-0.794,0.59-1.061,1.232-0.792,1.909
				c0.231,0.584,0.837,0.921,1.504,0.841c-0.049,0.006-0.1,0.009-0.151,0.009c-0.011,0,0.211,0.004,0.792,0.071
				c0.295,0.035,1.055,0.342,1.568,0.613c-0.126,0.297-0.18,0.615-0.101,0.924c0.023,0.094,0.067,0.166,0.104,0.244
				c-0.002,0.004-0.003,0.006-0.004,0.01c-0.351,0.195-1.431,0.49-1.788,0.537c-0.059,0.008-0.167,0.008-0.264,0.01
				c-0.995,0.011-1.561,0.397-1.687,1.148c-0.125,0.748,0.32,1.213,1.317,2.136c0.18,0.217,1.332,1.642,1.934,3.088
				c0.523,1.261,0.191,2.22,0.073,2.405c-0.563,0.789-0.346,1.415-0.166,1.716c0.281,0.473,0.826,0.732,1.388,0.663
				c0.071-0.01,0.139-0.024,0.206-0.044c0.402-0.121,1.53-0.45,1.9-0.545c0.322-0.075,2.095-0.214,3.393-0.087
				c0.555,0.056,1.57,0.465,2.646,0.899c0.188,0.076,0.388,0.155,0.586,0.235l0.002,0.007c0,0,0.022,0.011,0.028,0.016
				c-0.145,0.354-0.291,0.577-0.426,0.713l-0.438,0.434c-1.136,1.135-1.182,1.178-2.46,1.537c-1.435,0.403-2.174,0.342-2.181,0.342
				c-0.544-0.052-1.074,0.247-1.297,0.746s-0.115,1.084,0.286,1.457c0.217,0.2,2.18,1.979,4.054,2.399
				c1.653,0.373,3.533,0.653,4.944-0.097c0.612-0.324,1.322-0.995,1.909-1.613c0.551,0.701,1.239,1.508,1.846,1.985
				c1.174,0.929,3.193,1.619,5.14,1.766c1.439,0.108,4.816,0.36,6.467-3.048c1.273-2.631,1.662-4.075,1.68-4.137
				c0.121-0.463-0.027-0.953-0.385-1.276c-0.039-0.036-0.086-0.058-0.129-0.088c3.428-0.94,7.441-2.496,7.498-2.518
				c0.668-0.263,1.396-0.167,1.404-0.167c1.408,0.36,3.18,0.829,3.498,0.949c0.533,0.203,1.08,0.143,1.498-0.164
				c0.717-0.522,0.672-1.375,0.643-1.94c-0.008-0.113-0.012-0.219-0.012-0.305c0-0.179,0.082-0.665,0.646-1.933l1.168-2.564
				c1.553-3.39,1.561-3.416,1.604-3.563c0.146-0.515-0.047-1.086-0.479-1.398c-0.791-0.574-1.537-0.072-2.398,0.508
				c0.014-0.009-3.305,2.138-3.305,2.138c-1.754,1.125-5.107,2.432-8.75,3.408c-3.057,0.821-6.666,0.967-10.491,1.124l-0.275,0.011
				c-0.969,0.04-1.924-0.037-2.833-0.187c-0.038-1.546-0.069-3.375-0.094-5.233c2.062,1.262,4.114,1.753,6.65,1.548
				c2.865-0.23,6.207-1.479,7.771-2.898c1.398-1.27,3.283-3.197,4.281-5.72c0.041,0.019,0.092,0.038,0.135,0.056
				c0-0.001,0-0.002,0-0.002c0.699,0.301,1.268,0.585,1.738,0.822l0.271,0.137c1.156,0.579,3.484,2.09,4.734,2.901
				c0.703,0.457,0.879,0.57,0.996,0.633c0.777,0.413,1.352,0.125,1.564-0.019c0.393-0.265,0.635-0.797,0.582-1.268
				c-0.014-0.122-0.043-0.239-0.09-0.353L68.742,41.4c-0.029-0.066-2.461-5.068-2.461-5.068c-0.707-1.459-0.646-2.206-0.607-2.65
				C65.68,33.596,65.688,33.518,65.691,33.435z M49.402,63.478c-1.463,3.021-4.42,2.797-5.843,2.69
				c-1.829-0.138-3.71-0.775-4.793-1.63c-0.743-0.587-1.65-1.747-2.197-2.483c-0.586,0.667-1.522,1.662-2.251,2.048
				c-1.226,0.651-2.965,0.385-4.504,0.039c-1.742-0.394-3.681-2.173-3.763-2.247c-0.201-0.188-0.257-0.483-0.143-0.733
				c0.116-0.252,0.381-0.399,0.656-0.368c0.009,0.002,0.83,0.087,2.42-0.36c1.438-0.402,1.561-0.527,2.737-1.701l0.434-0.431
				c0.212-0.209,0.393-0.528,0.551-0.911c0.762,0.322,2.168,0.847,3.726,1.046c1.354,0.175,3.593,0.323,5.219,0.416
				c0.495,0.354,1.109,0.628,1.885,0.894c1.713,0.592,5.387-0.556,6.658-1.047c0.225-0.088,0.479-0.042,0.656,0.121
				c0.18,0.161,0.252,0.405,0.191,0.636C51.023,59.514,50.652,60.902,49.402,63.478z M47.07,58.965
				c-1.291,0.289-2.583,0.436-3.327,0.179c-0.185-0.063-0.353-0.127-0.519-0.191C44.711,58.987,46.08,58.986,47.07,58.965z
				 M43.697,52.466c3.86-0.157,7.504-0.307,10.627-1.145c2.902-0.778,6.771-2.102,8.932-3.488c0,0,3.32-2.148,3.316-2.145
				c0.879-0.593,1.252-0.822,1.664-0.523c0.217,0.158,0.316,0.452,0.242,0.709c-0.027,0.098-0.107,0.281-1.57,3.475l-1.172,2.569
				c-0.174,0.391-0.701,1.581-0.701,2.192c0,0.104,0.004,0.219,0.012,0.339c0.027,0.504,0.057,1.072-0.379,1.392
				c-0.143,0.104-0.447,0.252-0.896,0.082c-0.398-0.151-2.428-0.678-3.635-0.983c-0.01-0.001-0.893-0.123-1.727,0.203
				c-0.078,0.031-7.938,3.082-10.896,3.174c-0.68,0.021-1.633,0.03-2.717,0.023c-0.158,0.003-0.492,0.009-0.993,0.003
				c-1.203-0.013-3.342-0.085-6.157-0.384c-2.932-0.314-4.708-1-5.591-1.439c-0.382-0.189-0.602-0.334-0.666-0.38
				c-0.979-0.394-1.881-0.739-2.456-0.796c-1.379-0.137-3.23,0.007-3.611,0.104c-0.458,0.115-1.911,0.545-1.926,0.551
				c-0.033,0.009-0.067,0.018-0.102,0.022c-0.312,0.038-0.61-0.103-0.762-0.355c-0.179-0.301-0.13-0.646,0.144-1.029
				c0.166-0.231,0.649-1.423-0.011-3.011c-0.664-1.596-1.945-3.151-2.049-3.278c-1.135-1.046-1.217-1.252-1.16-1.597
				c0.102-0.604,0.728-0.611,1.065-0.614c0.116-0.002,0.236-0.004,0.331-0.016c0.407-0.043,1.898-0.451,2.166-0.703
				c0.129-0.166,0.23-0.338,0.301-0.479c-0.1-0.1-0.193-0.227-0.237-0.398c-0.055-0.217-0.018-0.448,0.108-0.649
				c0.032-0.054,0.071-0.109,0.105-0.158s0.082-0.121,0.113-0.179c-0.348-0.308-1.771-0.963-2.34-1.027
				c-0.633-0.072-0.866-0.076-0.865-0.076c0.025,0,0.051-0.001,0.076-0.006c-0.382,0.047-0.711-0.127-0.837-0.443
				c-0.224-0.562,0.318-0.964,0.58-1.16c0.576-0.427,2.072-2.551,2.603-3.818c0.521-1.248,0.414-2.662,0.229-2.9
				c0,0,0.004,0.002-0.007-0.005c-0.441-0.472-0.555-0.888-0.334-1.239c0.114-0.182,0.397-0.458,1.01-0.267
				c0.73,0.228,4.595,0.901,5.665,0.577c0.236-0.073,0.618-0.219,1.101-0.405c0.316-0.122,0.686-0.262,1.081-0.409
				c0.066,0.195,0.127,0.4,0.189,0.608c0.307,1.035,0.562,2.217,0.71,3.603c0.093,0.866,0.172,1.706,0.247,2.535
				c0.024,0.271,0.05,0.542,0.072,0.81c-0.342,0.35-0.632,0.719-0.842,1.107c-1.036,1.92-1.364,3.451-0.976,4.548
				c0.184,0.518,0.682,1.418,1.343,2.309l-0.036-0.004l0.011,0.004c0,0,3.295,4.566,11.452,4.575c0.002,0,0.005,0,0.008,0
				L43.697,52.466z M31.376,45.374c-0.326-0.92-0.011-2.277,0.936-4.032c0.098-0.182,0.223-0.358,0.36-0.535
				c0.246,2.987,0.385,5.593,0.428,7.302C32.253,47.112,31.58,45.955,31.376,45.374z M54.461,44.597
				c-1.475,1.338-4.652,2.512-7.395,2.734c-2.828,0.229-4.935-0.381-7.25-2.094c0.025,2.229,0.06,4.492,0.106,6.358
				c-3.19-0.515-5.183-1.913-6.17-2.809c-0.017-1.608-0.148-4.369-0.414-7.656c-0.028-0.351-0.062-0.72-0.093-1.081
				c-0.1-1.14-0.209-2.313-0.339-3.53c-0.224-2.09-0.672-3.761-1.201-5.109c-0.013-0.032-0.023-0.069-0.036-0.102
				c-0.928-2.324-2.098-3.656-2.774-4.423c-0.75-0.854-1.99-1.681-2.586-2.078l-0.334-0.229c-0.237-0.161-0.382-0.556-0.286-0.827
				c0.19-0.547,0.734-0.538,1.924-0.516l0.37,0.004c0.859,0.009,1.332,0.013,3.069,0.448c1.597,0.399,3.874,1.944,4.813,2.615
				c0.959-0.924,3.353-3.195,4.215-3.729c2.663-1.652,5.958-2.234,9.279-1.64c5.697,1.017,8.557,6.267,9.297,7.852
				c0.635,1.359,0.883,2.825,0.924,4.213c-0.553,0.009-1.115-0.206-2.635-0.821c-0.594-0.241-1.334-0.539-2.24-0.886
				c-0.672-0.257-1.377-0.465-2.1-0.652c-0.063-0.257-0.137-0.486-0.217-0.676c-0.709-1.667-1.588-2.655-3.363-3.777
				c-1.842-1.165-4.232-0.713-5.675,0.2c-1.157,0.732-2.093,2.005-2.701,3.123h0.001c-0.002,0.004-0.004,0.008-0.006,0.012
				c-0.265,0.488-0.475,0.95-0.6,1.316c-0.258,0.755-0.319,2.571-0.319,3.871c0,0.43,0.007,0.803,0.014,1.062
				c0,0.022,0.001,0.354,0.005,0.895c0.002,0.505,0.006,1.198,0.012,2.025c0.917-0.595,2.478-1.05,4.534,0.771
				c0.716,0.638,0.933,1.451,0.933,2.198c0,0.509-0.102,0.979-0.213,1.352c0.455,0.062,1.213,0.103,2.613-0.095
				c2.238-0.317,3.803-3.102,4.736-5.447c2.783,0.473,4.764,1.073,6.219,1.641C57.629,41.514,55.813,43.371,54.461,44.597z
				 M41.438,29.417c0.559-0.929,1.338-1.913,2.253-2.492c1.279-0.809,3.385-1.217,4.994-0.2c1.67,1.057,2.455,1.938,3.115,3.489
				c0.025,0.061,0.049,0.133,0.074,0.202c-2.928-0.713-6.279-0.952-10.558-0.787c0.042-0.071,0.078-0.14,0.122-0.212H41.438z
				 M51.709,37.362c-1.203,2.958-2.678,4.709-4.176,4.921c-0.77,0.11-1.344,0.143-1.77,0.143c0.037-0.248,0.096-0.485,0.096-0.748
				c0-0.941-0.287-1.93-1.146-2.693c-1.44-1.278-2.951-1.69-4.326-1.285c-0.001-0.274-0.002-0.524-0.004-0.748
				c2.087-0.312,5.381-0.422,10.406,0.265c0.178,0.025,0.344,0.05,0.516,0.076c0,0.001,0,0.002,0,0.003
				C51.445,37.318,51.57,37.34,51.709,37.362z M65.709,36.612c0,0,2.432,5.001,2.445,5.035l0.359,0.857
				c0.021,0.056,0.039,0.115,0.045,0.175c0.029,0.265-0.09,0.523-0.309,0.671c-0.174,0.118-0.475,0.212-0.906-0.016
				c-0.096-0.053-0.311-0.191-0.947-0.605c-1.262-0.818-3.609-2.342-4.797-2.937l-0.27-0.135c-0.395-0.199-0.855-0.43-1.4-0.677
				c-0.172-0.077-0.359-0.157-0.549-0.237c-1.676-0.708-4.115-1.499-7.871-2.062c-0.213-0.032-0.412-0.066-0.633-0.097
				c-0.396-0.053-0.748-0.087-1.123-0.133v-0.01c-4.398-0.525-7.394-0.417-9.375-0.131c0-0.32-0.002-0.524-0.002-0.541
				c-0.001-0.033-0.001-0.071-0.001-0.104c-0.008-0.294-0.013-0.613-0.013-0.95c0-1.416,0.076-3.063,0.285-3.67
				c0.013-0.035,0.031-0.079,0.045-0.118c0.071-0.194,0.163-0.409,0.277-0.646c3.512-0.154,6.381-0.031,8.899,0.389v-0.01
				c0.246,0.041,0.482,0.091,0.721,0.137c0.199,0.038,0.398,0.075,0.594,0.117c1.156,0.252,2.246,0.574,3.295,0.976
				c0.898,0.343,1.635,0.641,2.227,0.881c2.031,0.82,2.512,1.016,3.648,0.766c0.162-0.037,0.322-0.077,0.48-0.117
				c0.104-0.025,0.209-0.049,0.313-0.075v0.001c1.305-0.332,2.438-0.711,2.527-0.741c0.197-0.095,0.609-0.243,0.986-0.009
				c0.125,0.078,0.416,0.312,0.395,0.813c-0.004,0.071-0.01,0.143-0.018,0.22C64.996,34.138,64.922,34.994,65.709,36.612z"/>
			<path fill="#FFFFFF" d="M65.037,33.627c0.008-0.077,0.014-0.148,0.018-0.22c0.021-0.5-0.27-0.735-0.395-0.813
				c-0.377-0.233-0.789-0.086-0.986,0.009c-0.09,0.03-1.223,0.409-2.527,0.741v-0.001c-0.104,0.026-0.209,0.049-0.313,0.075
				c-0.158,0.04-0.318,0.08-0.48,0.117c-1.137,0.25-1.617,0.054-3.648-0.766c-0.592-0.24-1.328-0.538-2.227-0.881
				c-1.049-0.401-2.139-0.723-3.295-0.976c-0.195-0.042-0.395-0.08-0.594-0.117c-0.238-0.046-0.475-0.096-0.721-0.137v0.01
				c-2.518-0.42-5.387-0.543-8.899-0.389c-0.115,0.237-0.206,0.452-0.277,0.646c-0.014,0.039-0.032,0.083-0.045,0.118
				c-0.208,0.607-0.285,2.255-0.285,3.67c0,0.337,0.004,0.656,0.013,0.95c0,0.033,0,0.071,0.001,0.104
				c0,0.017,0.001,0.22,0.002,0.541c1.98-0.286,4.976-0.394,9.375,0.131v0.01c0.375,0.045,0.727,0.08,1.123,0.133
				c0.221,0.031,0.42,0.065,0.633,0.097c3.756,0.563,6.195,1.354,7.871,2.062c0.189,0.08,0.377,0.161,0.549,0.237
				c0.545,0.247,1.006,0.478,1.4,0.677l0.27,0.135c1.188,0.595,3.535,2.119,4.797,2.937c0.637,0.414,0.852,0.552,0.947,0.605
				c0.432,0.229,0.732,0.134,0.906,0.016c0.219-0.148,0.338-0.406,0.309-0.671c-0.006-0.061-0.023-0.12-0.045-0.175l-0.359-0.857
				c-0.014-0.033-2.445-5.035-2.445-5.035C64.922,34.994,64.996,34.138,65.037,33.627z"/>
			<path fill="#FFFFFF" d="M47.623,42.916c-1.4,0.198-2.158,0.157-2.613,0.095c0.111-0.372,0.213-0.843,0.213-1.352
				c0-0.747-0.217-1.56-0.933-2.198c-2.056-1.822-3.616-1.366-4.534-0.771c-0.006-0.828-0.009-1.52-0.012-2.025
				c-0.003-0.541-0.005-0.873-0.005-0.895c-0.007-0.259-0.014-0.632-0.014-1.062c0-1.3,0.061-3.116,0.319-3.871
				c0.125-0.367,0.335-0.829,0.6-1.316c0.002-0.004,0.004-0.008,0.006-0.012h-0.001c0.608-1.118,1.544-2.391,2.701-3.123
				c1.442-0.913,3.833-1.365,5.675-0.2c1.775,1.122,2.654,2.11,3.363,3.777c0.08,0.19,0.154,0.419,0.217,0.676
				c0.723,0.187,1.428,0.395,2.1,0.652c0.906,0.347,1.646,0.645,2.24,0.886c1.52,0.615,2.082,0.83,2.635,0.821
				c-0.041-1.388-0.289-2.854-0.924-4.213c-0.74-1.584-3.6-6.834-9.297-7.852c-3.32-0.594-6.616-0.012-9.279,1.64
				c-0.862,0.534-3.255,2.806-4.215,3.729c-0.939-0.671-3.216-2.216-4.813-2.615c-1.738-0.435-2.21-0.438-3.069-0.448l-0.37-0.004
				c-1.19-0.021-1.734-0.031-1.924,0.516c-0.096,0.271,0.049,0.666,0.286,0.827l0.334,0.229c0.596,0.397,1.836,1.224,2.586,2.078
				c0.676,0.767,1.846,2.099,2.774,4.423c0.013,0.032,0.023,0.069,0.036,0.102c0.528,1.349,0.977,3.019,1.201,5.109
				c0.13,1.218,0.239,2.391,0.339,3.53c0.031,0.361,0.065,0.73,0.093,1.081c0.266,3.287,0.397,6.048,0.414,7.656
				c0.987,0.896,2.98,2.294,6.17,2.809c-0.046-1.866-0.081-4.129-0.106-6.358c2.315,1.713,4.422,2.322,7.25,2.094
				c2.742-0.223,5.92-1.396,7.395-2.734c1.352-1.227,3.168-3.083,4.117-5.488c-1.455-0.568-3.436-1.168-6.219-1.641
				C51.426,39.813,49.861,42.599,47.623,42.916z M33.853,39.679c0,0.002,0,0.005,0.001,0.009
				C33.853,39.684,33.853,39.681,33.853,39.679z"/>
			<path fill="#FFFFFF" d="M50.193,58.699c-1.271,0.491-4.945,1.639-6.658,1.047c-0.776-0.266-1.39-0.54-1.885-0.894
				c-1.626-0.093-3.865-0.241-5.219-0.416c-1.557-0.199-2.964-0.724-3.726-1.046c-0.158,0.383-0.338,0.702-0.551,0.911l-0.434,0.431
				c-1.176,1.174-1.3,1.299-2.737,1.701c-1.591,0.447-2.411,0.362-2.42,0.36c-0.274-0.031-0.54,0.116-0.656,0.368
				c-0.114,0.25-0.058,0.545,0.143,0.733c0.082,0.074,2.021,1.854,3.763,2.247c1.539,0.346,3.278,0.612,4.504-0.039
				c0.729-0.386,1.665-1.381,2.251-2.048c0.547,0.736,1.455,1.896,2.197,2.483c1.083,0.854,2.964,1.492,4.793,1.63
				c1.423,0.106,4.38,0.331,5.843-2.69c1.25-2.576,1.621-3.964,1.639-4.022c0.061-0.23-0.012-0.475-0.191-0.636
				C50.672,58.657,50.418,58.611,50.193,58.699z M26.4,62.058c0.007,0,0.069,0.004,0.086,0.004
				C26.458,62.062,26.43,62.062,26.4,62.058z"/>
			<path fill="#FFFFFF" d="M43.545,52.471c-8.157-0.009-11.452-4.575-11.452-4.575l-0.011-0.004l0.036,0.004
				c-0.661-0.891-1.16-1.791-1.343-2.309c-0.389-1.098-0.06-2.628,0.976-4.548c0.21-0.388,0.5-0.757,0.842-1.107
				c-0.022-0.268-0.048-0.538-0.072-0.81c-0.075-0.829-0.154-1.669-0.247-2.535c-0.148-1.386-0.404-2.568-0.71-3.603
				c-0.062-0.208-0.124-0.413-0.189-0.608c-0.395,0.146-0.765,0.287-1.081,0.409c-0.483,0.186-0.865,0.332-1.101,0.405
				c-1.069,0.324-4.935-0.349-5.665-0.577c-0.613-0.191-0.896,0.085-1.01,0.267c-0.22,0.351-0.107,0.767,0.334,1.239
				c0.011,0.008,0.007,0.005,0.007,0.005c0.184,0.238,0.291,1.652-0.229,2.9c-0.531,1.268-2.027,3.392-2.603,3.818
				c-0.262,0.196-0.804,0.599-0.58,1.16c0.126,0.315,0.455,0.49,0.837,0.443c-0.025,0.005-0.051,0.006-0.076,0.006
				c-0.001,0,0.231,0.004,0.865,0.076c0.569,0.064,1.992,0.719,2.34,1.027c-0.032,0.058-0.079,0.13-0.113,0.179
				s-0.073,0.104-0.105,0.158c-0.125,0.202-0.163,0.433-0.108,0.649c0.043,0.172,0.137,0.299,0.237,0.398
				c-0.071,0.141-0.172,0.313-0.301,0.479c-0.268,0.252-1.759,0.66-2.166,0.703c-0.095,0.012-0.215,0.014-0.331,0.016
				c-0.337,0.003-0.964,0.01-1.065,0.614c-0.057,0.345,0.025,0.551,1.16,1.597c0.104,0.127,1.386,1.683,2.049,3.278
				c0.66,1.588,0.177,2.779,0.011,3.011c-0.274,0.384-0.323,0.729-0.144,1.029c0.152,0.253,0.45,0.394,0.762,0.355
				c0.035-0.005,0.069-0.014,0.102-0.022c0.015-0.006,1.468-0.436,1.926-0.551c0.381-0.097,2.232-0.24,3.611-0.104
				c0.574,0.057,1.477,0.402,2.456,0.796c0.064,0.046,0.284,0.19,0.666,0.38c0.883,0.439,2.659,1.125,5.591,1.439
				c2.815,0.299,4.954,0.371,6.157,0.384c0.501,0.006,0.835,0,0.993-0.003c1.084,0.007,2.037-0.002,2.717-0.023
				c2.959-0.092,10.818-3.143,10.896-3.174c0.834-0.326,1.717-0.204,1.727-0.203c1.207,0.306,3.236,0.832,3.635,0.983
				c0.449,0.17,0.754,0.022,0.896-0.082c0.436-0.319,0.406-0.888,0.379-1.392c-0.008-0.12-0.012-0.234-0.012-0.339
				c0-0.611,0.527-1.802,0.701-2.192l1.172-2.569c1.463-3.193,1.543-3.377,1.57-3.475c0.074-0.257-0.025-0.551-0.242-0.709
				c-0.412-0.299-0.785-0.069-1.664,0.523c0.004-0.004-3.316,2.145-3.316,2.145c-2.16,1.387-6.029,2.71-8.932,3.488
				c-3.123,0.838-6.768,0.987-10.627,1.145l-0.144,0.005C43.55,52.471,43.547,52.471,43.545,52.471z"/>
			<path fill="none" d="M33.853,39.679c0,0.002,0,0.005,0.001,0.009"/>
			<path d="M4.632,45.523L6.035,44.5l1.4,1.023l-0.539-1.65l1.407-1.018l-1.736,0.004l-0.533-1.652l-0.534,1.652l-1.736-0.004
				l1.406,1.018L4.632,45.523z"/>
			<path d="M81.861,42.859l-0.531-1.652l-0.535,1.652l-1.736-0.004l1.406,1.018l-0.539,1.65L81.33,44.5l1.4,1.023l-0.539-1.65
				l1.406-1.018L81.861,42.859z"/>
		</g>
	</g>
</svg>