<svg xmlns="http://www.w3.org/2000/svg" xmlns:xlink="http://www.w3.org/1999/xlink"
	 width="87.466" height="87.467" viewBox="0 0 87.466 87.467"
	>
	<g>
		<path d="M87.466,43.732c0,24.154-19.579,43.734-43.732,43.734C19.581,87.467,0,67.887,0,43.732C0,19.58,19.581,0,43.734,0
			C67.887,0,87.466,19.58,87.466,43.732z"/>
		<path fill="#33A02C" d="M76.042,43.732c0,17.844-14.465,32.309-32.308,32.309c-17.846,0-32.31-14.465-32.31-32.309
			s14.464-32.309,32.31-32.309C61.578,11.424,76.042,25.889,76.042,43.732z"/>
		<path fill="#195016" d="M10.924,43.732c0,18.091,14.719,32.809,32.81,32.809s32.808-14.718,32.808-32.809
			S61.826,10.924,43.734,10.924S10.924,25.642,10.924,43.732z M11.924,43.732c0-17.539,14.27-31.809,31.81-31.809
			c17.54,0,31.808,14.27,31.808,31.809S61.274,75.541,43.734,75.541C26.194,75.541,11.924,61.271,11.924,43.732z"/>
		<g>
			<g>
				<path d="M26.849,32.48l-1.262,0.326v-2.4l3.931-1.058v5.342c0,0.499-0.195,0.972-0.587,1.421
					c-0.388,0.441-0.85,0.722-1.382,0.85l-3.924,0.938c-0.535,0.126-0.995,0.068-1.382-0.178c-0.392-0.247-0.588-0.612-0.588-1.095
					v-9.271c0-0.482,0.196-0.951,0.588-1.41c0.387-0.448,0.847-0.754,1.382-0.91l3.924-1.156c0.533-0.158,0.994-0.12,1.382,0.112
					c0.392,0.24,0.587,0.608,0.587,1.107v2.651l-2.669,0.736v-1.992l-2.525,0.719v8.131l2.525-0.629V32.48z"/>
				<path d="M32.702,32.371v3.716l-1.706,0.403v-10.35l3.768-1.057c0.342-0.095,0.637-0.039,0.884,0.17
					c0.251,0.211,0.375,0.519,0.375,0.919v2.724c0,0.691-0.217,1.299-0.655,1.822c0.438,0.299,0.655,0.8,0.655,1.5v3.076
					l-1.706,0.406v-3.057c0-0.189-0.061-0.336-0.184-0.443c-0.122-0.098-0.264-0.125-0.426-0.085L32.702,32.371z M33.708,30.18
					c0.162-0.042,0.305-0.145,0.426-0.309c0.123-0.162,0.184-0.335,0.184-0.525V27.15l-1.616,0.441v2.85L33.708,30.18z"/>
				<path d="M38.954,32.624l2.845-0.698v2.002l-4.551,1.079v-10.62l4.551-1.275v1.998l-2.845,0.777v2.377l2.368-0.623v2.004
					l-2.368,0.603V32.624z"/>
				<path d="M44.259,31.131l-0.347,2.295l-1.727,0.41l1.665-11.305l2.271-0.637l1.66,10.613l-1.731,0.412l-0.335-2.148
					L44.259,31.131z M44.568,29.029l0.833-0.209l-0.416-4.564L44.568,29.029z"/>
				<path d="M49.218,23.09l-1.666,0.453v-2.049l5.029-1.412v2.089l-1.662,0.452v9.141l-1.701,0.404V23.09z"/>
			</g>
			<g>
				<path d="M19.917,47.598v8.335l-2.763,0.677V43.836l3.833-1.165l2.264,7.812v-8.499l2.765-0.839v13.291l-3.825,0.939
					L19.917,47.598z"/>
				<path d="M31.385,41.848c0.355-0.098,0.66-0.049,0.917,0.148c0.261,0.197,0.39,0.492,0.39,0.873v7.35
					c0,0.383-0.129,0.74-0.39,1.07c-0.257,0.326-0.562,0.531-0.917,0.613l-2.605,0.604c-0.354,0.082-0.661,0.021-0.918-0.181
					s-0.39-0.493-0.39-0.868v-7.186c0-0.373,0.132-0.729,0.39-1.066c0.258-0.33,0.564-0.546,0.918-0.644L31.385,41.848z
					 M29.244,44.279v6.275l1.678-0.4V43.83L29.244,44.279z"/>
				<path d="M35.839,47.221v3.65l-1.771,0.412V41.111l3.913-1.074c0.354-0.098,0.661-0.043,0.917,0.159
					c0.26,0.206,0.39,0.509,0.39,0.899v2.68c0,0.68-0.226,1.28-0.68,1.801c0.454,0.289,0.68,0.779,0.68,1.469v3.027l-1.772,0.412
					v-3.008c0-0.187-0.063-0.332-0.189-0.434c-0.128-0.096-0.273-0.122-0.444-0.08L35.839,47.221z M36.882,45.059
					c0.17-0.043,0.316-0.146,0.444-0.31c0.125-0.157,0.189-0.329,0.189-0.517v-2.158l-1.676,0.447v2.801L36.882,45.059z"/>
				<path d="M41.731,40.95l-1.729,0.46v-1.928l5.219-1.434v1.971l-1.725,0.46v8.618l-1.766,0.409V40.95z"/>
				<path d="M47.57,43.779v4.379l-1.771,0.409V37.891l1.771-0.485v4.379l1.676-0.431v-4.41l1.771-0.486v10.902l-1.771,0.409v-4.407
					L47.57,43.779z"/>
				<path d="M54.201,44.578l2.953-0.705v2.065l-4.724,1.093V36.068l4.724-1.297v2.066l-2.953,0.788v2.452l2.457-0.631v2.066
					l-2.457,0.613V44.578z"/>
				<path d="M59.832,41.299v4.02l-1.771,0.41V34.523l3.912-1.074c0.354-0.098,0.66-0.03,0.917,0.201
					c0.261,0.234,0.391,0.568,0.391,1v2.945c0,0.748-0.226,1.404-0.681,1.962c0.455,0.331,0.681,0.875,0.681,1.633v3.329
					l-1.771,0.412v-3.31c0-0.204-0.064-0.368-0.19-0.481c-0.126-0.11-0.273-0.141-0.443-0.101L59.832,41.299z M60.875,38.943
					c0.17-0.043,0.317-0.151,0.443-0.325c0.126-0.169,0.19-0.359,0.19-0.563v-2.377l-1.677,0.447v3.087L60.875,38.943z"/>
				<path d="M66.322,36.369v7.447l-1.771,0.41V32.742l2.455-0.674l1.451,7.142v-7.54l1.771-0.486v11.728l-2.451,0.567L66.322,36.369
					z"/>
			</g>
			<g>
				<path d="M32.672,61.982v4.332l-2.548,0.598V54.905l5.628-1.642c0.51-0.146,0.95-0.109,1.319,0.109
					c0.375,0.223,0.562,0.572,0.562,1.041v3.205c0,0.813-0.327,1.549-0.978,2.201c0.651,0.314,0.978,0.885,0.978,1.707v3.623
					l-2.548,0.598v-3.58c0-0.223-0.091-0.391-0.272-0.506c-0.183-0.103-0.395-0.122-0.637-0.06L32.672,61.982z M34.175,59.338
					c0.242-0.064,0.454-0.197,0.637-0.4c0.181-0.199,0.272-0.411,0.272-0.631v-2.573l-2.412,0.677v3.326L34.175,59.338z"/>
				<path d="M40.588,62.465l-0.331,2.067l-1.649,0.389l1.59-10.178l2.168-0.604l1.587,9.529l-1.653,0.386l-0.322-1.929
					L40.588,62.465z M40.883,60.574l0.797-0.201l-0.398-4.098L40.883,60.574z"/>
				<path d="M44.627,63.508V53.51l1.63-0.455v10.072L44.627,63.508z"/>
				<path d="M47.558,62.82V52.693l1.629-0.455v8.313l2.262-0.549v1.906L47.558,62.82z"/>
				<path d="M54.972,50.625l2.072-0.576l0.995,8.335c0.325-3.896,0.617-6.85,0.873-8.858l1.649-0.459L59.16,60.1l-2.178,0.512
					l-0.971-7.334l-0.971,7.789l-2.178,0.51l-1.406-9.971l1.648-0.46c0.257,1.823,0.547,4.563,0.873,8.226L54.972,50.625z"/>
				<path d="M62.229,57.194l-0.33,2.264l-1.649,0.386l1.591-11.133l2.17-0.605l1.586,10.483l-1.653,0.39l-0.322-2.123L62.229,57.194
					z M62.524,55.127l0.796-0.201l-0.397-4.506L62.524,55.127z"/>
				<path d="M68.406,54.148v3.781l-1.631,0.384v-3.751l-1.711-6.751l1.664-0.464c0.238,1.002,0.523,2.68,0.856,5.033
					c0.341-2.534,0.628-4.374,0.864-5.512l1.664-0.467L68.406,54.148z"/>
			</g>
		</g>
		<g>
			<path fill="#FFFFFF" d="M12.634,23.565C12.634,23.564,12.634,23.564,12.634,23.565"/>
			<path fill="#FFFFFF" d="M13.314,23.436l-0.295-0.189c0-0.001-0.063-0.132-0.063-0.132l0.169-0.506l-0.169-0.127l-0.354-0.199
				l-1.57,2.792l0.572,0.322l0.193-0.343l0.147-0.157c0,0,0.118-0.037,0.118-0.037c0,0.001,0.356,0.171,0.356,0.171
				s0.763,0.429,0.998,0.561c-0.023,0.117-0.048,0.247-0.048,0.247c0,0-0.138,0.332-0.138,0.332
				c-0.163,0.29-0.376,0.488-0.651,0.605c-0.272,0.117-0.614,0.125-1.019,0.024c-0.436-0.108-0.915-0.308-1.422-0.593l-1.146-0.834
				c-0.321-0.299-0.527-0.615-0.611-0.938c-0.08-0.309-0.035-0.609,0.138-0.917c0.185-0.329,0.471-0.559,0.874-0.703
				c0.411-0.146,0.91-0.156,1.484-0.027l0.182,0.041l0.282-0.502l-2.37-1.333L8.848,21.21L8.7,21.473c0,0,0.279,0.38,0.279,0.381
				c0,0.037-0.316,0.3-0.316,0.3c0,0-0.505,0.442-0.505,0.442c0,0.001-0.458,0.655-0.458,0.655c-0.287,0.51-0.43,1.035-0.43,1.571
				c0,0.345,0.06,0.693,0.178,1.045c0.3,0.889,0.897,1.589,1.775,2.083c0.489,0.276,0.991,0.439,1.49,0.485
				c0.002,0,1.177-0.114,1.177-0.114c0,0,1.087-0.525,1.087-0.525c0.341-0.245,0.653-0.616,0.927-1.104l0.489-1.158
				c0,0,0.231-1.391,0.231-1.391l-0.156-0.057L13.314,23.436z M12.634,23.564C12.634,23.564,12.634,23.564,12.634,23.564
				S12.634,23.564,12.634,23.564z"/>
			<path fill="#FFFFFF" d="M21.329,14.177l0.088,0.175c0.235,0.464,0.328,0.881,0.277,1.24c-0.051,0.354-0.245,0.671-0.595,0.971
				l-0.252,0.217l-0.171,0.108c-0.082-0.016-0.466-0.424-0.466-0.424s-0.702-0.819-0.968-1.13c0.108-0.064,0.216-0.127,0.216-0.127
				l0.432,0.092c0,0,0.825,0.604,0.825,0.604l0.177-0.106l0.298-0.254l-2.472-2.884l-0.469,0.404l0.132,0.186
				c0.259,0.365,0.408,0.678,0.442,0.932c0.003,0.025,0.006,0.052,0.006,0.082c0,0.102-0.056,0.235-0.181,0.38
				c-0.254-0.297-1.102-1.286-1.336-1.559c0.122-0.105,0.249-0.213,0.249-0.213l0.637-0.456c0.216-0.084,0.412-0.104,0.601-0.061
				c0.136,0.032,0.382,0.139,0.783,0.468l0.162,0.133l0.456-0.391l-1.525-1.779l-0.19,0.163l-3.714,3.182l0.427,0.499l0.33-0.282
				l0.248-0.116c0.005,0,0.135,0.049,0.135,0.049c0,0.003,0.318,0.352,0.318,0.352l2.704,3.156l0.308,0.404
				c0.002,0.005,0.021,0.119,0.021,0.119c-0.002,0.009-0.155,0.214-0.155,0.214l-0.172,0.147l-0.194,0.118
				c0,0-0.232,0.125-0.233,0.125c0-0.001-0.565-0.043-0.565-0.043s-1.792-0.241-2.219-0.298c0.053-0.182,0.125-0.37,0.125-0.538
				c0-0.054-0.002-0.107-0.008-0.16c-0.054-0.487-0.288-0.906-0.696-1.246c-0.333-0.277-0.702-0.435-1.096-0.47
				c-0.397-0.036-0.764,0.047-1.09,0.247c-0.307,0.188-0.675,0.543-1.126,1.085l-1.81,2.175l0.483,0.402l0.477-0.456l0.128-0.01
				c0,0,0.444,0.323,0.444,0.323l3.172,2.638l0.396,0.377c0-0.001,0.014,0.13,0.014,0.13c0,0-0.343,0.527-0.343,0.527l0.153,0.166
				l0.313,0.26l2.138-2.57l-0.483-0.402L16.437,21.5l-0.127,0.01l-0.446-0.323c0,0-0.85-0.707-1.155-0.961
				c0.307,0.042,3.331,0.447,3.331,0.447l1.152-1.386l0.009,0.011l4-3.427l-1.393-2.106L21.329,14.177z M13.975,18.03l0.44,0.542
				c0,0.002,0.032,0.45,0.032,0.45s-0.397,0.625-0.41,0.646c-0.287-0.239-1.442-1.2-1.728-1.438c0.062-0.074,0.125-0.15,0.125-0.15
				c0.236-0.284,0.472-0.431,0.699-0.438C13.374,17.635,13.657,17.766,13.975,18.03z"/>
			<path fill="#FFFFFF" d="M26.616,12.582"/>
			<path fill="#FFFFFF" d="M28.343,11.92l-0.249,0.04c0,0-0.805-0.529-0.805-0.529l-4.87-3.817l0.039,0.674l0.884,5.339
				c0,0.002,0.092,1.002,0.092,1.002c0,0-0.258,0.473-0.258,0.473l0.018,0.192l0.209,0.348l2.01-1.203l-0.316-0.53l-0.621,0.241
				c-0.044-0.003-0.101-0.021-0.165-0.127c0-0.001-0.138-0.424-0.138-0.424s-0.049-0.297-0.08-0.482
				c0.22-0.131,1.152-0.69,1.375-0.823c0.171,0.136,0.529,0.418,0.529,0.418c-0.003-0.003,0.264,0.222,0.264,0.222
				c0.006,0.006,0.079,0.095,0.079,0.095c0.017,0.022-0.212,0.217-0.212,0.217l-0.161,0.138l-0.02,0.262l0.209,0.349l2.72-1.628
				l-0.296-0.493L28.343,11.92z M26.616,12.582z M23.73,10.918c0.414,0.328,0.759,0.601,1.03,0.815
				c-0.275,0.165-0.536,0.321-0.814,0.487C23.888,11.875,23.816,11.44,23.73,10.918z"/>
			<path fill="#FFFFFF" d="M31.819,10.543l-0.231,0.041l-0.119-0.056c0,0-0.227-0.477-0.227-0.477S29.67,6.185,29.5,5.768
				c0.069-0.028,0.145-0.059,0.145-0.059l0.419-0.111c0,0.001,0.442,0.168,0.442,0.168c0,0,0.649,0.751,0.649,0.751l0.182-0.046
				l0.363-0.147L30.87,4.283l-0.231,0.094L25.79,6.349l0.83,2.04l0.564-0.228L27.13,7.949c-0.05-0.195-0.075-0.376-0.075-0.542
				c0-0.174,0.028-0.332,0.083-0.472c0.065-0.164,0.242-0.306,0.525-0.421c0,0,0.076-0.031,0.145-0.059
				c0.169,0.417,1.742,4.284,1.742,4.284l0.165,0.48c0,0-0.022,0.121-0.022,0.121c-0.005,0.008-0.212,0.152-0.212,0.152l-0.4,0.164
				l0.246,0.607l3.142-1.277l-0.248-0.607L31.819,10.543z"/>
			<path fill="#FFFFFF" d="M40.194,3.267l0.072-0.162c0.001,0,0.532-0.225,0.532-0.225l-0.005-0.201l-0.061-0.401l-0.247,0.038
				l-2.039,0.31l0.099,0.654l0.251-0.043c0.313-0.054,0.417,0.056,0.451,0.091c0.025,0.028,0.119,0.159,0.189,0.617
				c0,0,0.166,1.094,0.284,1.873c-0.759-0.794-2.826-2.956-2.826-2.956l-2.329,0.354l0.091,0.602l0.245,0.011l0.272,0.016
				c0,0,0.272,0.237,0.272,0.237s0.06,0.062,0.108,0.112c0.023,0.152,0.657,4.32,0.657,4.32c0.016,0.108,0.023,0.196,0.023,0.269
				c0,0.165-0.033,0.249-0.058,0.289c-0.056,0.089-0.202,0.156-0.422,0.192l-0.244,0.04l0.098,0.646l2.44-0.371l-0.099-0.648
				l-0.377,0.057c-0.001,0-0.359-0.076-0.359-0.076C37.119,8.849,37.041,8.661,37,8.392c0,0-0.335-2.208-0.488-3.213
				c0.84,0.868,4.031,4.161,4.031,4.161l0.509-0.078l-0.826-5.438L40.194,3.267z"/>
			<path fill="#FFFFFF" d="M47.579,3.222c-0.58-0.698-1.36-1.047-2.317-1.037c-0.884-0.063-1.649,0.238-2.276,0.895
				c-0.621,0.65-0.951,1.486-0.982,2.482c-0.028,0.883,0.181,1.667,0.62,2.33c0.566,0.854,1.4,1.305,2.479,1.338
				c1.079,0.033,1.939-0.385,2.559-1.242c0.458-0.635,0.704-1.386,0.73-2.232C48.421,4.761,48.149,3.908,47.579,3.222z
				 M44.335,3.691c0.238-0.489,0.551-0.721,0.957-0.708h0.001c0.22,0.006,0.406,0.078,0.57,0.219
				c0.169,0.145,0.31,0.405,0.419,0.775c0.117,0.391,0.162,0.998,0.138,1.803c-0.021,0.674-0.103,1.222-0.241,1.628
				c-0.131,0.383-0.303,0.658-0.51,0.818c-0.147,0.114-0.328,0.166-0.553,0.159c-0.337-0.01-0.577-0.153-0.756-0.45
				c-0.291-0.481-0.423-1.245-0.391-2.269C43.997,4.8,44.12,4.135,44.335,3.691z M45.308,2.483z"/>
			<path fill="#FFFFFF" d="M45.308,2.483"/>
			<path fill="#FFFFFF" d="M54.003,3.64c-0.309-0.186-0.794-0.348-1.482-0.496l-2.766-0.598l-0.053,0.245l-0.08,0.369l0.625,0.212
				c0,0,0.068,0.109,0.068,0.109c-0.001,0-0.08,0.543-0.08,0.543l-0.872,4.032l-0.15,0.525l-0.11,0.074l-0.625-0.061l-0.076,0.212
				l-0.086,0.397l3.27,0.707l0.131-0.615l-0.624-0.211c-0.001,0-0.067-0.107-0.067-0.107c0-0.001,0.08-0.545,0.08-0.545
				s0.233-1.081,0.317-1.469c0.105,0.292,1.145,3.16,1.145,3.16l2.088,0.451l0.124-0.578l-0.212-0.128l-0.22-0.148
				c0-0.004-0.223-0.521-0.223-0.521s-0.627-1.729-0.768-2.118c0.243-0.049,0.498-0.086,0.678-0.206
				c0.407-0.273,0.67-0.675,0.781-1.194c0.035-0.159,0.053-0.314,0.053-0.466c0-0.252-0.048-0.494-0.143-0.722
				C54.574,4.123,54.331,3.836,54.003,3.64z M52.082,3.912c0.094,0.02,0.191,0.041,0.191,0.041c0.361,0.078,0.6,0.219,0.711,0.418
				c0.068,0.121,0.102,0.274,0.102,0.46c0,0.138-0.019,0.293-0.056,0.465l-0.277,0.642l-0.385,0.236c0,0-0.735-0.063-0.761-0.064
				C51.685,5.744,52.003,4.275,52.082,3.912z"/>
			<path fill="#FFFFFF" d="M57.947,11.211c-0.001,0-0.048-0.122-0.048-0.122c0,0,0.165-0.501,0.165-0.501s1.531-3.884,1.696-4.303
				c0.068,0.027,0.146,0.057,0.146,0.057l0.38,0.208c0,0.001,0.204,0.428,0.204,0.428l-0.049,0.991l0.164,0.092l0.363,0.144
				l0.808-2.05l-5.102-2.011l-0.092,0.232l-0.717,1.817l0.566,0.224l0.106-0.191c0.203-0.36,0.439-0.605,0.705-0.727
				c0.16-0.074,0.387-0.055,0.67,0.057c0,0,0.077,0.03,0.146,0.058c-0.166,0.418-1.697,4.302-1.697,4.302l-0.211,0.46
				c-0.002,0.001-0.1,0.073-0.1,0.073c-0.01,0.001-0.26-0.036-0.26-0.036l-0.402-0.158l-0.242,0.609l3.156,1.244l0.239-0.611
				l-0.401-0.158L57.947,11.211z"/>
			<path fill="#FFFFFF" d="M70.3,17.369l-0.162,0.112c-0.428,0.295-0.829,0.443-1.191,0.441c-0.357-0.002-0.698-0.153-1.043-0.459
				l-0.248-0.221l-0.131-0.155c0.004-0.082,0.358-0.52,0.358-0.52s0.717-0.805,0.989-1.112c0.078,0.098,0.156,0.197,0.156,0.197
				c-0.001,0-0.033,0.441-0.033,0.441l-0.487,0.899l0.129,0.161l0.292,0.261l2.523-2.837l-0.462-0.411l-0.167,0.156
				c-0.326,0.306-0.617,0.496-0.863,0.564c-0.104,0.028-0.273-0.006-0.47-0.125c0.272-0.306,1.116-1.254,1.353-1.521
				c0.121,0.107,0.246,0.218,0.246,0.218l0.538,0.57c0.097,0.173,0.144,0.339,0.144,0.504c0,0.027-0.001,0.055-0.004,0.082
				c-0.013,0.14-0.086,0.398-0.357,0.839L71.3,15.632l0.447,0.4l1.559-1.751l-3.84-3.417L69.3,11.05l-0.271,0.304l0.325,0.289
				c0,0,0.148,0.23,0.148,0.23c0,0.008-0.03,0.14-0.03,0.14c-0.003,0-0.306,0.363-0.306,0.363l-2.763,3.105l-0.357,0.359
				c-0.005,0.002-0.115,0.036-0.115,0.036c-0.01-0.001-0.233-0.124-0.233-0.124l-0.325-0.29L65.339,15.5l0.049-0.08l-0.367-0.225
				l-0.172-0.166l-0.026-0.125c0.001,0,0.253-0.466,0.253-0.466l2.18-3.54l0.289-0.416c0.001,0,0.111-0.054,0.111-0.054
				c0.012,0,0.25,0.083,0.25,0.083l0.367,0.226l0.343-0.56l-5.693-3.507l-0.131,0.213L62.579,7.23l0.369,0.228
				c0.001,0,0.171,0.164,0.171,0.164c0,0.001,0.024,0.126,0.024,0.126c-0.001,0-0.252,0.465-0.252,0.465l-2.18,3.539l-0.29,0.416
				c-0.004,0.003-0.105,0.056-0.105,0.056c-0.011,0-0.252-0.082-0.252-0.082l-0.369-0.228l-0.345,0.559l2.887,1.779v0
				c0.056,0.035,2.278,1.403,2.724,1.678l-0.022,0.025l3.935,3.501l1.898-1.664L70.3,17.369z M65.924,9.351
				c0,0.001,0.026,0.126,0.026,0.126c-0.002,0-0.252,0.465-0.252,0.465s-0.617,1.001-0.812,1.317
				c-0.277-0.171-0.974-0.6-1.251-0.771c0.194-0.315,0.812-1.317,0.812-1.317l0.29-0.417l0.11-0.054
				c0.009,0,0.248,0.081,0.248,0.081l0.655,0.403L65.924,9.351z M62.212,13.464l-0.17-0.162c0-0.001-0.024-0.128-0.024-0.128
				l0.25-0.465c0,0,0.694-1.126,0.894-1.45c0.277,0.171,0.973,0.6,1.25,0.77c-0.199,0.324-0.893,1.45-0.893,1.45
				c0,0-0.291,0.417-0.291,0.417l-0.11,0.053c-0.013,0-0.251-0.082-0.251-0.082l-0.365-0.227v0.001
				c-0.063-0.038-0.133-0.082-0.133-0.082L62.212,13.464z"/>
			<path fill="#FFFFFF" d="M80.859,24.61l-0.58,0.317l0.127,0.222c0.078,0.137,0.101,0.239,0.101,0.313
				c0,0.074-0.022,0.119-0.034,0.141c-0.017,0.034-0.107,0.167-0.515,0.39c0,0-0.972,0.53-1.662,0.907
				c0.487-0.985,1.812-3.666,1.812-3.666l-1.129-2.068l-0.22,0.12l-0.313,0.171l0.072,0.234l0.078,0.261l-0.129,0.337
				c0,0-0.037,0.077-0.068,0.14c-0.135,0.074-3.836,2.094-3.836,2.094c-0.311,0.17-0.469,0.171-0.535,0.157
				c-0.103-0.021-0.217-0.139-0.324-0.331l-0.047-0.084l-0.039-0.108l-0.076-0.253c0.002,0,0.155-0.545,0.155-0.545
				s0.604-1.736,0.741-2.127c0.22,0.115,0.441,0.247,0.655,0.268c0.487,0.045,0.944-0.101,1.36-0.433
				c0.338-0.271,0.566-0.6,0.68-0.979c0.115-0.382,0.107-0.758-0.023-1.118c-0.121-0.338-0.396-0.77-0.836-1.321l-1.769-2.208
				l-0.195,0.156l-0.296,0.237l0.352,0.558c0,0-0.016,0.127-0.016,0.127l-0.405,0.372l-3.22,2.577l-0.449,0.313l-0.131-0.012
				c0,0-0.447-0.442-0.447-0.442l-0.193,0.117l-0.317,0.254l2.09,2.611l0.491-0.393l-0.352-0.559c0,0,0.016-0.127,0.016-0.127
				l0.406-0.371c0,0,0.863-0.692,1.173-0.94c-0.102,0.292-1.106,3.174-1.106,3.174l1.146,1.431l1.141,2.089l0.575-0.315
				l-0.183-0.335c0,0-0.051-0.363-0.051-0.363c0.023-0.11,0.173-0.247,0.412-0.377c0,0,1.961-1.071,2.853-1.558
				c-0.528,1.086-2.532,5.21-2.532,5.21l0.246,0.452l4.828-2.635l0.514-0.22c0,0,0.178,0.013,0.178,0.013
				c0,0.001,0.392,0.423,0.392,0.423l0.188-0.073l0.356-0.194L80.859,24.61z M73.693,19.372c0.291-0.233,1.465-1.173,1.754-1.405
				c0.061,0.075,0.123,0.152,0.123,0.152c0.197,0.247,0.297,0.473,0.297,0.673c0,0.034-0.004,0.067-0.009,0.1
				c-0.042,0.237-0.227,0.488-0.549,0.746l-0.62,0.323l-0.447-0.059C74.242,19.903,73.71,19.389,73.693,19.372z"/>
		</g>
		<g>
			<path fill="#FFFFFF" d="M8.003,63.701c0,0-0.012-0.265-0.013-0.266c0.002,0,0.284-0.489,0.284-0.489s1.011-1.536,1.238-1.883
				c0.185,0.165,0.368,0.348,0.571,0.42c0.461,0.163,0.94,0.133,1.424-0.088c0.394-0.181,0.696-0.444,0.899-0.784
				c0.204-0.342,0.288-0.708,0.25-1.089c-0.036-0.357-0.196-0.843-0.489-1.485l-1.176-2.572l-0.228,0.104l-0.344,0.157l0.204,0.627
				l-0.047,0.12c0.002-0.002-0.483,0.26-0.483,0.26l-3.752,1.715L5.83,58.642c0-0.001-0.124-0.044-0.124-0.044
				c-0.001,0-0.326-0.537-0.326-0.537l-0.216,0.066l-0.37,0.169l1.39,3.041l0.572-0.261l-0.205-0.628l0.046-0.119
				c0.001,0,0.484-0.262,0.484-0.262s1.006-0.46,1.367-0.624c-0.17,0.259-1.846,2.809-1.846,2.809l0.887,1.941l0.538-0.246
				L8.003,63.701z M9.647,59.729c0,0-0.384-0.615-0.404-0.648c0.34-0.156,1.708-0.78,2.045-0.936
				c0.041,0.088,0.082,0.179,0.082,0.179c0.096,0.21,0.144,0.396,0.144,0.556c0,0.098-0.018,0.186-0.053,0.264
				c-0.098,0.221-0.338,0.419-0.714,0.59l-0.68,0.162C10.066,59.895,9.647,59.729,9.647,59.729z"/>
			<path fill="#FFFFFF" d="M11.802,69.217l0.477-0.835l3.502-5.101l-0.67,0.08L9.838,64.58c-0.003,0-0.995,0.156-0.995,0.156
				c0-0.001-0.486-0.229-0.486-0.229l-0.19,0.029l-0.335,0.23l1.328,1.931l0.509-0.349l-0.279-0.604
				c0-0.045,0.014-0.104,0.116-0.174c0,0,0.416-0.164,0.416-0.164s0.293-0.068,0.476-0.11c0.145,0.211,0.761,1.106,0.908,1.319
				c-0.125,0.18-0.384,0.555-0.384,0.555c0.002-0.004-0.204,0.276-0.204,0.276c-0.008,0.009-0.092,0.085-0.092,0.085
				c-0.02,0.02-0.23-0.197-0.23-0.197l-0.147-0.152L9.984,67.18l-0.335,0.23l1.796,2.611l0.474-0.325l-0.063-0.232L11.802,69.217z
				 M12.566,64.797c-0.301,0.434-0.551,0.795-0.749,1.079c-0.182-0.265-0.354-0.515-0.538-0.782
				C11.621,65.016,12.051,64.916,12.566,64.797z"/>
			<path fill="#FFFFFF" d="M19.287,68.564l0.057-0.051l-2.283-2.51l-0.185,0.17l-0.299,0.273l0.291,0.32l0.119,0.205L16.976,67.1
				c0,0-0.371,0.377-0.371,0.377l-3.075,2.797l-0.394,0.32c-0.005,0.002-0.117,0.023-0.117,0.023
				c-0.01-0.003-0.219-0.148-0.219-0.148l-0.292-0.321l-0.485,0.442l2.282,2.508l0.484-0.441l-0.291-0.32
				c0-0.001-0.117-0.203-0.117-0.203l0.011-0.132c0,0.001,0.368-0.375,0.368-0.375l3.075-2.797l0.394-0.319
				c0-0.001,0.122-0.021,0.122-0.021c0.008,0.002,0.215,0.146,0.215,0.146l0.291,0.32l0.412-0.374l-0.146,0.173l-0.263,0.311
				l0.331,0.279l0.144,0.188l0.006,0.127c0,0-0.319,0.423-0.319,0.423l-2.688,3.171l-0.349,0.367
				c-0.004,0.002-0.113,0.039-0.113,0.039c-0.011-0.002-0.237-0.119-0.237-0.119l-0.331-0.281l-0.425,0.501l4.119,3.493l1.958-1.926
				l-0.475-0.402l-1.158,0.674c0,0-0.624,0.088-0.624,0.088l-0.553-0.283l-0.352-0.298l-0.291-0.278
				c-0.004-0.071,0.313-0.497,0.313-0.497l2.599-3.065c0,0,0.348-0.366,0.348-0.366c0-0.001,0.12-0.036,0.12-0.036
				c0.009,0.002,0.244,0.125,0.244,0.125l0.378,0.32l0.425-0.5L19.287,68.564z"/>
			<path fill="#FFFFFF" d="M29.453,76.691c-0.006,0.005,0.187-0.088,0.187-0.088c0,0,0.307,0.055,0.307,0.055l0.149-0.133
				l0.204-0.352l-1.675-0.971l-0.307,0.531l0.189,0.158l0.209,0.18c0,0-0.029,0.125-0.029,0.125c0,0.002-0.142,0.191-0.142,0.191
				l-0.422,0.393c0,0-0.962,0.855-1.57,1.395c0.172-0.853,0.477-2.357,0.477-2.357l0.149-0.598c0.046-0.03,0.34,0.1,0.34,0.1
				l0.205,0.09l0.132-0.184l0.203-0.352l-2.74-1.588l-0.309,0.534l0.196,0.159l0.205,0.17c0,0.002,0.039,0.221,0.039,0.221
				l-0.115,0.74c0,0-0.092,0.457-0.119,0.588c-0.09,0.075-0.832,0.694-1.373,1.146c0.157-0.844,0.467-2.51,0.467-2.51
				c0,0,0.178-0.679,0.178-0.679c0.034-0.031,0.249,0.051,0.249,0.051l0.199,0.075l0.136-0.17l0.203-0.352l-2.513-1.457
				l-0.125,0.217l-0.19,0.328l0.18,0.133c0.118,0.088,0.122,0.148,0.124,0.169c0,0.001-0.138,0.957-0.138,0.957l-1.032,5.549
				l0.431,0.249c0,0,2.196-1.824,2.965-2.463c-0.201,0.976-0.768,3.736-0.768,3.736l0.448,0.26l4.233-3.76L29.453,76.691z"/>
			<path fill="#FFFFFF" d="M32.723,83.257c0-0.001-0.101-0.957-0.101-0.957l-0.137-6.187l-0.497,0.457L28.42,80.64
				c-0.001,0.002-0.716,0.708-0.716,0.708c-0.001,0-0.528,0.1-0.528,0.1l-0.137,0.135l-0.137,0.383l2.206,0.791l0.208-0.58
				l-0.579-0.328c-0.016-0.021-0.03-0.049-0.03-0.094c0-0.029,0.006-0.066,0.023-0.113l0.241-0.377c0,0,0.199-0.227,0.322-0.367
				c0.241,0.086,1.264,0.453,1.508,0.541c0.004,0.219,0.012,0.674,0.012,0.674l-0.004,0.345c-0.001,0.01-0.024,0.123-0.024,0.123
				c-0.006,0.025-0.302-0.028-0.302-0.028l-0.208-0.037l-0.216,0.151l-0.137,0.382l2.983,1.07l0.194-0.541l-0.186-0.151
				L32.723,83.257z M30.784,80.535c-0.302-0.108-0.588-0.211-0.894-0.32c0.23-0.264,0.521-0.595,0.87-0.992
				C30.77,79.75,30.777,80.189,30.784,80.535z"/>
			<path fill="#FFFFFF" d="M38.219,78.824l0.221,0.094l0.343,0.149c0,0.003,0.001,0.007,0.001,0.011
				c0,0.064-0.068,0.242-0.479,0.756c0,0-0.658,0.824-1.024,1.281c-0.156-0.592-0.461-1.749-0.461-1.749
				c0-0.001-0.155-0.79-0.155-0.792c0,0.027,0.18,0.037,0.18,0.037l0.361,0.069l0.125-0.645l-3.101-0.597l-0.047,0.246l-0.063,0.334
				l0.229,0.111l0.243,0.133c0.016,0.021,0.11,0.171,0.315,0.945l0.761,2.911l-0.243,1.134c0,0.001-0.124,0.493-0.124,0.493
				c0-0.001-0.084,0.089-0.084,0.089c-0.012,0.005-0.263,0.012-0.263,0.012l-0.53-0.102l-0.125,0.645l3.545,0.682l0.123-0.645
				l-0.551-0.106c0,0-0.201-0.087-0.201-0.087l-0.066-0.109l0.071-0.525c0,0,0.255-1.329,0.277-1.44
				c0.073-0.091,1.577-1.979,1.577-1.979c0.5-0.648,0.701-0.827,0.777-0.876l0.467-0.093l0.09-0.17l0.077-0.398l-2.149-0.413
				L38.219,78.824z"/>
			<path fill="#FFFFFF" d="M47.978,83.492c-0.286,0.41-0.561,0.703-0.817,0.87c-0.249,0.163-0.52,0.248-0.828,0.262
				c-0.368,0.015-0.659-0.068-0.892-0.257c-0.239-0.193-0.426-0.5-0.557-0.908l-0.242-1.471c-0.023-0.541,0.037-1.042,0.182-1.488
				c0.104-0.324,0.281-0.594,0.526-0.801c0.241-0.205,0.503-0.311,0.798-0.322c0.357-0.016,0.676,0.1,0.973,0.352
				c0.302,0.256,0.521,0.648,0.654,1.164l0.051,0.195l0.592-0.024l-0.113-2.685l-0.25,0.01l-0.324,0.014l-0.055,0.223l-0.057,0.211
				c-0.031,0.026-0.428-0.103-0.428-0.103c-0.477-0.185-0.933-0.269-1.357-0.25c-0.577,0.024-1.123,0.21-1.621,0.554
				c-0.497,0.342-0.887,0.814-1.161,1.402c-0.271,0.584-0.396,1.205-0.369,1.844c0.026,0.605,0.186,1.18,0.475,1.706
				c0.294,0.534,0.703,0.944,1.219,1.217c0.51,0.27,1.092,0.393,1.727,0.366c0.486-0.021,0.918-0.132,1.281-0.33
				c0.36-0.195,0.703-0.502,1.02-0.91l0.056-0.072l-0.058-1.375L47.978,83.492z"/>
			<path fill="#FFFFFF" d="M51.621,77.729c0.005-0.001,0.019-0.005,0.021-0.005"/>
			<path fill="#FFFFFF" d="M54.126,78.152c-0.732-0.527-1.57-0.67-2.491-0.425c-0.876,0.157-1.547,0.641-1.991,1.437
				c-0.293,0.524-0.439,1.096-0.439,1.707c0,0.305,0.037,0.619,0.109,0.942c0.195,0.862,0.593,1.569,1.184,2.101
				c0.762,0.686,1.682,0.912,2.734,0.675s1.782-0.856,2.167-1.843c0.285-0.728,0.335-1.516,0.147-2.344
				C55.328,79.432,54.85,78.674,54.126,78.152z M51.103,79.419c0.109-0.533,0.354-0.836,0.751-0.926
				c0.215-0.048,0.414-0.026,0.606,0.069c0.2,0.098,0.402,0.314,0.602,0.646c0.21,0.35,0.406,0.926,0.584,1.711
				c0.148,0.657,0.206,1.208,0.174,1.637c-0.031,0.404-0.129,0.713-0.289,0.92c-0.114,0.147-0.276,0.242-0.496,0.293
				c-0.328,0.073-0.598-0.006-0.844-0.247c-0.402-0.394-0.721-1.101-0.947-2.1C51.053,80.576,51.005,79.902,51.103,79.419z"/>
			<path fill="#FFFFFF" d="M67.701,77.213c-0.001,0-0.129-0.023-0.129-0.023l-0.354-0.436c0,0-0.689-0.972-0.89-1.254
				c0.259-0.22,0.888-0.751,0.888-0.751c0.291-0.352,0.449-0.744,0.466-1.165c0.001-0.023,0.001-0.047,0.001-0.071
				c0-0.396-0.127-0.774-0.379-1.131c-0.319-0.45-0.754-0.714-1.293-0.785c-0.538-0.07-1.146,0.14-1.857,0.644l-2.18,1.545l0.07,0.1
				l-0.106,0.049l-2.192,1.008c0,0,0.243,2.932,0.323,3.898c-0.69-0.683-2.798-2.763-2.798-2.763l-2.441,1.122l0.275,0.595
				l0.388-0.178l0.235-0.052l0.121,0.049c0,0.001,0.246,0.466,0.246,0.466l1.663,3.62c0,0,0.183,0.412,0.183,0.414
				c0,0.026,0.02,0.252,0.02,0.252l-0.081,0.157l-0.36,0.259l-0.014,0.238l0.17,0.369l2.186-1.004l-0.252-0.552l-0.249,0.06
				l-0.401,0.086c-0.002,0-0.234-0.156-0.234-0.156c0-0.004-0.228-0.462-0.228-0.462s-0.738-1.607-1.286-2.798
				c1.172,1.152,3.845,3.785,3.845,3.785l0.036-0.709c0,0-0.24-3.042-0.373-4.707c0.574,1.25,1.365,2.971,1.365,2.971l0.186,0.473
				l-0.016,0.123c-0.003,0.005-0.209,0.162-0.209,0.162l-0.391,0.178l0.274,0.598l3.08-1.416l-0.272-0.597l-0.392,0.181
				l-0.234,0.051l-0.118-0.047c0-0.001-0.247-0.469-0.247-0.469l-1.735-3.776l-0.186-0.474l0.018-0.124
				c0.002-0.003,0.207-0.159,0.207-0.159l0.391-0.18l-0.066-0.146l0.542-0.297c0.001,0,0.128,0.025,0.128,0.025l0.355,0.436
				l2.366,3.34l0.292,0.477l-0.019,0.133c-0.001,0.001-0.466,0.42-0.466,0.42l0.105,0.2l0.235,0.331l2.728-1.933l-0.361-0.513
				L67.701,77.213z M65.8,73.477c0.229,0.322,0.345,0.6,0.345,0.824c0,0.012,0,0.021-0.001,0.033
				c-0.01,0.194-0.12,0.346-0.297,0.485c-0.22-0.31-1.054-1.487-1.282-1.81c0.195-0.117,0.38-0.176,0.554-0.128
				C65.333,72.941,65.563,73.141,65.8,73.477z"/>
			<path fill="#FFFFFF" d="M74.361,71.516l-0.233,0.093c-0.001,0-0.9-0.339-0.9-0.339l-5.589-2.657l0.186,0.648l2.031,5.017
				c0.002,0.002,0.311,0.957,0.311,0.957l-0.148,0.516l0.059,0.184l0.28,0.295l1.698-1.615l-0.426-0.446l-0.552,0.37
				c-0.043,0.008-0.103,0.003-0.188-0.087l-0.228-0.384c0,0-0.113-0.28-0.184-0.453c0.186-0.177,0.973-0.926,1.161-1.104
				c0.196,0.094,0.606,0.291,0.606,0.291l0.308,0.16c0.007,0.004,0.096,0.074,0.096,0.074c0.002,0.002,0.002,0.004,0.002,0.006
				c0,0.039-0.16,0.254-0.16,0.254l-0.127,0.168l0.037,0.261l0.28,0.295l2.298-2.185l-0.397-0.416L74.361,71.516z M69.64,71.549
				c0.477,0.229,0.873,0.42,1.185,0.569c-0.233,0.222-0.453,0.431-0.688,0.654C70.005,72.448,69.839,72.039,69.64,71.549z"/>
			<path fill="#FFFFFF" d="M81.464,60.555l-0.252,0.502l-0.137,0.168c-0.001,0-0.123,0.035-0.123,0.035l-0.487-0.211
				c0,0-1.21-0.605-1.312-0.656c-0.068-0.095-1.479-2.054-1.479-2.054c-0.487-0.657-0.605-0.899-0.632-0.985l0.037-0.475
				l-0.139-0.133l-0.364-0.182l-0.112,0.223l-0.867,1.735l0.543,0.271l0.148-0.188l0.237-0.289c0.052,0.006,0.2,0.099,0.608,0.668
				c0,0,0.615,0.857,0.957,1.334c-0.612-0.011-1.81-0.031-1.81-0.031s-0.796-0.064-0.804-0.064c0.027,0,0.084-0.162,0.084-0.162
				l0.165-0.33l-0.588-0.293L73.8,62.111l-0.127,0.172l-1.229,1.657l0.531,0.395l0.148-0.208c0.184-0.259,0.334-0.254,0.384-0.253
				c0.049,0.002,0.206,0.035,0.569,0.304c0,0,0.889,0.66,1.521,1.129c-1.099-0.029-4.088-0.105-4.088-0.105l-1.402,1.893
				l0.488,0.363l0.182-0.166l0.204-0.18l0.36-0.024c0,0,0.086,0.001,0.155,0.003c0.124,0.092,3.511,2.602,3.511,2.602
				c0.285,0.211,0.354,0.354,0.369,0.422c0.003,0.014,0.004,0.029,0.004,0.046c0,0.099-0.059,0.233-0.169,0.386l-0.146,0.201
				l0.525,0.39l1.469-1.984l-0.527-0.39l-0.227,0.307c-0.001,0-0.309,0.199-0.309,0.199c-0.064,0.014-0.217,0.006-0.516-0.217
				c0,0-1.795-1.33-2.611-1.935c1.207,0.022,5.791,0.11,5.791,0.11l0.309-0.414l-4.42-3.274l-0.416-0.374l-0.063-0.166
				c0.001,0,0.179-0.434,0.209-0.508l0.141-0.156l0.193-0.198c0.025-0.011,0.193-0.06,0.996-0.049l3.008,0.056l1.026,0.541
				l0.44,0.252c0,0.001,0.063,0.106,0.063,0.106c0.002,0.013-0.059,0.256-0.059,0.256l-0.242,0.483l0.587,0.293l1.616-3.227
				L81.464,60.555z"/>
		</g>
	</g>
</svg>