<svg xmlns="http://www.w3.org/2000/svg" xmlns:xlink="http://www.w3.org/1999/xlink"
	 width="85.407" height="85.406" viewBox="0 0 85.407 85.406"
	>
	<g>
		<g>
			<g>
				<path d="M74.584,71.073c6.725-7.549,10.822-17.488,10.822-28.37C85.407,19.157,66.25,0,42.704,0S0,19.157,0,42.703
					C0,66.25,19.157,85.406,42.704,85.406c8.215,0,15.891-2.338,22.41-6.373c0.162,0.052,0.266,0.084,0.266,0.084l-0.066-0.213
					c3.412-2.139,6.504-4.742,9.18-7.726c0.014-0.015,0.029-0.024,0.041-0.038C74.553,71.119,74.565,71.095,74.584,71.073z
					 M42.704,83.539c-22.553,0-40.836-18.283-40.836-40.836c0-22.553,18.283-40.835,40.836-40.835
					c22.553,0,40.834,18.282,40.834,40.835C83.538,65.255,65.256,83.539,42.704,83.539z"/>
				<path fill="#34B3D1" d="M83.538,42.703c0-22.553-18.281-40.835-40.834-40.835c-22.553,0-40.836,18.282-40.836,40.835
					c0,22.553,18.283,40.836,40.836,40.836C65.256,83.539,83.538,65.255,83.538,42.703z M51.609,79.173l0.004,0.027l-0.009,0.002
					c0,0.004,0,0.006,0.002,0.01c0.025,0.107,0.053,0.217,0.053,0.217l-2.119,0.43c0,0-0.018-0.112-0.037-0.23l-0.009,0.001
					l-0.005-0.026l0.009-0.002c0-0.002-0.001-0.004-0.001-0.006c-0.024-0.096-0.049-0.193-0.049-0.193l0.016-0.004
					c0-0.003-0.004-0.027-0.004-0.027c0.065-0.014,0.197-0.076,0.197-0.35c0-0.055-0.006-0.117-0.018-0.191l-0.645-3.185
					c-0.109-0.453-0.316-0.447-0.376-0.435c0,0-0.006-0.021-0.007-0.023l-0.019,0.004c0,0-0.016-0.102-0.032-0.208l-0.008,0.003
					l-0.006-0.023l0.009-0.002c-0.028-0.114-0.056-0.227-0.056-0.227l2.121-0.43c0,0,0.018,0.109,0.033,0.218
					c0.002,0.005,0.002,0.008,0.003,0.013l0.011-0.002l0.004,0.023l-0.008,0.002c0.025,0.104,0.05,0.203,0.05,0.203
					s-0.021,0.004-0.022,0.004c0.002,0.003,0.004,0.025,0.004,0.025c-0.051,0.01-0.197,0.063-0.197,0.345
					c0,0.055,0.006,0.12,0.02,0.194l0.646,3.187c0.104,0.454,0.313,0.446,0.375,0.434c0,0,0.006,0.023,0.007,0.026
					c0.001-0.001,0.021-0.004,0.021-0.004s0.016,0.099,0.033,0.203L51.609,79.173z M44.331,80.396c0,0-0.002-0.115-0.004-0.234
					l-0.01,0.002l-0.002-0.027h0.009c-0.012-0.105-0.022-0.205-0.022-0.205l0.02-0.002c0-0.003,0-0.027,0-0.027
					c0.063-0.004,0.26-0.05,0.26-0.469c0-0.013,0-0.026,0-0.041c0,0-0.206-3.246-0.231-3.658c-0.255,0.016-0.663,0.041-0.663,0.041
					c-0.548,0.08-0.562,0.777-0.562,0.807l-0.002,0.22l-0.653,0.038l0.078-1.24V75.27l4.85-0.306l0.207-0.014l0.293,1.551
					l-0.66,0.036l-0.029-0.212c-0.004-0.03-0.108-0.721-0.639-0.732c0,0-0.416,0.026-0.674,0.043c0.025,0.412,0.23,3.65,0.23,3.65
					c0.043,0.467,0.256,0.486,0.32,0.482c0,0,0.003,0.022,0.003,0.025l0.021-0.002c0,0,0.003,0.101,0.005,0.207h0.008l0.002,0.026
					h-0.009c0,0.007,0,0.013,0,0.019c0.011,0.105,0.022,0.214,0.022,0.214L44.331,80.396z M31.396,78.366l-0.009,0.026l-0.009-0.004
					c-0.035,0.113-0.069,0.223-0.069,0.223l-2.041-0.718c0,0,0.043-0.105,0.085-0.21c0.001-0.002,0.001-0.005,0.002-0.006
					l-0.009-0.004l0.009-0.023l0.008,0.002c0.031-0.102,0.06-0.199,0.06-0.199l0.02,0.007c0.001-0.001,0.01-0.023,0.01-0.023
					c0.058,0.021,0.26,0.056,0.426-0.373L30.958,74c0.038-0.121,0.052-0.217,0.052-0.291c0-0.205-0.107-0.262-0.149-0.276
					c0,0,0.006-0.022,0.007-0.024c-0.001,0-0.021-0.008-0.021-0.008s0.037-0.094,0.078-0.193l-0.007-0.002l0.007-0.024l0.01,0.004
					c0.001-0.002,0.001-0.004,0.002-0.005c0.033-0.109,0.066-0.219,0.066-0.219l2.042,0.719c0,0-0.041,0.105-0.085,0.217
					l0.007,0.003l-0.007,0.022l-0.008-0.003c-0.004,0.009-0.007,0.016-0.01,0.024c-0.026,0.086-0.052,0.176-0.052,0.176
					s-0.014-0.004-0.015-0.004c0,0.001-0.008,0.021-0.008,0.021c-0.169-0.058-0.325,0.076-0.436,0.369l-1.078,3.067
					c-0.036,0.111-0.054,0.208-0.054,0.292c0,0.142,0.053,0.238,0.157,0.274c0,0-0.007,0.024-0.008,0.026l0.017,0.006
					c0,0-0.037,0.094-0.076,0.191L31.396,78.366z M21.556,73.853c0,0,0.04-0.04,0.053-0.053c0.014-0.023,0.049-0.078,0.085-0.135
					l-0.006-0.004l0.014-0.023l0.007,0.005c0.056-0.088,0.111-0.175,0.111-0.175s0.063,0.043,0.068,0.047
					c0.007-0.008,0.038-0.039,0.038-0.039s0.119-0.104,0.116-0.1c0,0,0.091-0.172,0.087-0.158c0,0,0.134-0.404,0.203-0.609
					c-0.21-0.144-0.956-0.654-1.158-0.793c-0.121,0.094-0.276,0.213-0.276,0.213l-0.141,0.124c0,0-0.203,0.206-0.204,0.207
					l-0.06,0.15l0.025,0.032c0,0-0.012,0.021-0.015,0.023c0.002,0.001,0.026,0.018,0.026,0.018s-0.062,0.079-0.126,0.164
					l0.008,0.005l-0.015,0.022l-0.01-0.007c-0.005,0.007-0.01,0.013-0.016,0.021c-0.052,0.088-0.106,0.18-0.106,0.18l-0.816-0.56
					L19.723,72c0.046,0.017,0.246,0.001,0.612-0.255l3.341-2.592l0.135-0.105l0.093,0.065l0.07-0.054l-0.026,0.082l0.947,0.651
					l-1.289,3.925c-0.208,0.734-0.019,0.93-0.018,0.932l-0.292,0.396L21.556,73.853z M17.82,67.107
					c-0.462,0.496-1.329,1.423-1.329,1.423s-0.13,0.231-0.131,0.241c0,0-0.002,0.02-0.002,0.05c0,0.042,0.003,0.103,0.02,0.151
					l0.04,0.053c0,0-0.016,0.019-0.017,0.02l0.014,0.014c0,0-0.072,0.07-0.147,0.146l0.008,0.008l-0.021,0.018l-0.006-0.007
					c-0.001,0.001-0.001,0.003-0.003,0.003c-0.075,0.086-0.15,0.174-0.15,0.174l-0.862-0.805c0,0,0.08-0.081,0.165-0.164
					l-0.005-0.006l0.02-0.021l0.005,0.005c0.011-0.01,0.021-0.021,0.032-0.031c0.047-0.057,0.102-0.124,0.102-0.124l0.011,0.011
					c0.001-0.002,0.019-0.019,0.019-0.019s0.065,0.042,0.14,0.063c0,0,0.139-0.027,0.144-0.029c0,0,0.236-0.163,0.223-0.151
					l1.764-1.891l0.411-0.505c0,0,0.174-0.341,0.175-0.341c0,0,0.035-0.193,0.026-0.238l0.002,0.005c0,0,0.018-0.022,0.021-0.024
					l-0.011-0.01c0,0,0.03-0.016,0.036-0.019c0.024-0.027,0.068-0.077,0.112-0.128l-0.002-0.002l-0.004-0.006l0.018-0.018
					l0.005,0.006c0.077-0.088,0.154-0.176,0.154-0.176l0.54,0.504c0,0,0.094,3.189,0.119,4.057c0.468-0.5,1.35-1.443,1.35-1.443
					s0.129-0.234,0.128-0.23c0,0,0.003-0.041,0.003-0.088c0-0.044-0.003-0.094-0.015-0.127l-0.047-0.057c0,0,0.016-0.018,0.018-0.02
					l-0.008-0.008c0,0,0.056-0.052,0.094-0.088c0.017-0.019,0.034-0.039,0.051-0.059l-0.005-0.004l0.02-0.02l0.005,0.004
					c0.079-0.09,0.155-0.175,0.155-0.175l0.859,0.802c0,0-0.051,0.047-0.076,0.068c-0.021,0.025-0.054,0.063-0.087,0.1l0.003,0.004
					l-0.018,0.021l-0.004-0.004c-0.069,0.075-0.138,0.153-0.138,0.153s-0.025-0.023-0.026-0.024c-0.002,0.001-0.02,0.019-0.02,0.019
					l0.014,0.012l-0.136-0.061c0,0-0.137,0.026-0.138,0.026c0,0-0.237,0.163-0.226,0.152l-2.774,2.97l-0.462,0.342
					C17.975,71.609,17.851,67.968,17.82,67.107z M22.832,10.289c0,0,0.62-0.309,0.624-0.311c0,0,0.591-0.132,0.596-0.138
					l-0.005-0.08l0.417-0.202l0.808,1.273l-0.547,0.341l-0.125-0.188c-0.019-0.027-0.452-0.66-1.104-0.397
					c0,0-0.332,0.167-0.333,0.167c-0.204,0.131-0.303,0.418-0.303,0.768c0,0.439,0.155,0.981,0.453,1.45
					c0,0,0.137,0.195,0.138,0.196c0.493,0.635,1.255,1.232,1.911,1.009c0,0,0.111-0.055,0.112-0.055c0,0,0.071-0.068,0.139-0.135
					c-0.119-0.209-0.407-0.718-0.407-0.718l-0.106-0.17c-0.256-0.386-0.451-0.305-0.504-0.271c0,0-0.009-0.013-0.009-0.014
					c-0.001,0-0.018,0.011-0.018,0.011s-0.053-0.093-0.109-0.188l-0.008,0.004l-0.008-0.014l0.009-0.005l-0.001-0.001
					c-0.066-0.095-0.133-0.19-0.133-0.19l1.835-1.165c0,0,0.057,0.1,0.117,0.202l0.008-0.005l0.009,0.015l-0.008,0.006
					c0.062,0.089,0.124,0.177,0.124,0.177s-0.017,0.011-0.018,0.011c0.001,0,0.008,0.014,0.008,0.014
					c-0.041,0.027-0.106,0.088-0.106,0.214c0,0.088,0.031,0.204,0.122,0.361l0.758,1.193l0.134,0.278l-0.788,0.201l-0.06,0.032
					c0,0-0.247,0.233-0.246,0.231c0,0-0.566,0.501-0.576,0.507c-1.21,0.754-2.818,0.384-3.584-0.825
					C21.28,12.668,21.629,11.06,22.832,10.289z M35.568,6.107c0,0-0.123-0.232-0.124-0.234c0,0-0.11-0.087-0.187-0.105l-0.072,0.007
					c0,0-0.006-0.023-0.007-0.025l-0.009,0.002c0,0-0.008-0.059-0.013-0.086c-0.009-0.034-0.02-0.074-0.031-0.116l-0.004,0.001
					l-0.006-0.026l0.004-0.001c-0.03-0.113-0.06-0.226-0.06-0.226l1.143-0.277c0,0,0.022,0.114,0.045,0.23l0.009-0.003l0.006,0.026
					l-0.009,0.002c0.03,0.102,0.058,0.199,0.058,0.199s-0.021,0.004-0.021,0.004c0,0.003,0.005,0.026,0.005,0.026l0.005-0.002
					l-0.128,0.083c0,0-0.053,0.127-0.054,0.127c0,0,0.004,0.184,0.004,0.251c0,0.018,0,0.027-0.001,0.023l0.961,3.948l0.035,0.571
					c0,0-3.114-1.891-3.851-2.338c0.161,0.658,0.459,1.89,0.459,1.89s0.124,0.236,0.127,0.242c0,0,0.097,0.078,0.178,0.099
					l0.065-0.004c0,0,0.006,0.023,0.007,0.025c0.001,0,0.024-0.006,0.024-0.006s0.023,0.102,0.046,0.202h0.003l0.005,0.026h-0.002
					c0.016,0.068,0.031,0.134,0.038,0.16c0.005,0.017,0.019,0.067,0.019,0.067l-1.146,0.278c0,0-0.014-0.085-0.025-0.148
					c-0.006-0.024-0.014-0.053-0.022-0.08l-0.007,0.001l-0.006-0.025l0.006-0.001c-0.028-0.102-0.055-0.2-0.055-0.2
					s0.028-0.006,0.03-0.007c0-0.003-0.004-0.027-0.004-0.027l-0.008,0.002l0.124-0.084c0,0,0.049-0.125,0.05-0.129
					c0,0-0.007-0.283-0.005-0.271l-0.61-2.511l-0.198-0.623l-0.187-0.331c0,0-0.14-0.133-0.188-0.154l0.008,0
					c0,0-0.007-0.027-0.008-0.031c-0.001,0-0.016,0.004-0.016,0.004s0.003-0.036,0.005-0.042c-0.01-0.036-0.028-0.097-0.046-0.161
					h-0.003L31.922,6.33l-0.007-0.025l0.008-0.002c-0.032-0.112-0.064-0.225-0.064-0.225l0.719-0.175c0,0,2.717,1.672,3.457,2.126
					C35.873,7.363,35.568,6.107,35.568,6.107z M42.881,4.481c0.59-0.008,1.047,0.145,1.361,0.45c0.26,0.255,0.4,0.604,0.405,1.007
					c0,0.007,0,0.015,0,0.021c0,0.553-0.313,0.914-0.755,1.161c0.24,0.12,0.446,0.269,0.577,0.478c0,0,0.171,0.845,0.171,0.858
					l0.002,0.142c0.006,0.503,0.121,0.594,0.346,0.592l0.006,0.493l-0.131,0.002c-0.985,0.012-1.764,0.021-1.78-1.27
					c-0.009-0.679-0.187-0.945-0.642-0.979c0,0-0.261,0.004-0.468,0.006c0.004,0.333,0.016,1.279,0.016,1.279
					c0.019,0.453,0.215,0.501,0.299,0.5c0,0,0.001,0.023,0.001,0.026h0.018c0,0-0.003,0.104-0.007,0.208h0.01v0.026h-0.009
					c0.006,0.119,0.012,0.233,0.012,0.233l-2.172,0.027c0,0,0.004-0.116,0.008-0.233h-0.01l-0.002-0.027h0.01
					c-0.005-0.106-0.01-0.207-0.01-0.207s0.018,0,0.019,0c0-0.003,0-0.027,0-0.027c0.063,0,0.271-0.039,0.275-0.499l-0.039-3.247
					c-0.014-0.463-0.223-0.496-0.286-0.494c0,0-0.001-0.024-0.002-0.027h-0.02c0,0,0.003-0.1,0.006-0.207H40.08V4.749h0.01
					c0-0.002,0-0.004,0-0.007c-0.007-0.112-0.013-0.226-0.013-0.226L42.881,4.481z M48.112,4.799l0.111,0.017l0.041-0.081
					l0.012,0.09l1.137,0.174l0.539,4.097c0.131,0.754,0.388,0.847,0.391,0.848l-0.094,0.483l-2.089-0.321
					c0,0,0.021-0.111,0.043-0.229l-0.007-0.001L48.2,9.85l0.008,0.001c0.002-0.009,0.004-0.016,0.004-0.024
					c0.01-0.088,0.02-0.182,0.02-0.182l0.014,0.001c0.001-0.002,0.005-0.025,0.005-0.025c0.057,0.007,0.118,0.002,0.144-0.16
					c0,0,0.008-0.188,0.01-0.175c0,0-0.055-0.423-0.082-0.639c-0.25-0.039-1.143-0.175-1.385-0.213
					c-0.07,0.138-0.158,0.314-0.158,0.314L46.709,8.91c0,0-0.098,0.283-0.098,0.285l0.011,0.161l0.038,0.02
					c0,0-0.003,0.026-0.003,0.028c0.002,0,0.028,0.004,0.028,0.004s-0.021,0.098-0.045,0.202l0.012,0.001l-0.004,0.027l-0.014-0.001
					c0,0.001,0,0.003-0.001,0.006c-0.011,0.112-0.022,0.226-0.022,0.226l-0.975-0.153l0.07-0.486c0,0,0.179-0.028,0.441-0.494
					l1.887-3.785L48.112,4.799z M52.381,6.142c0,0,0.006-0.021,0.006-0.023L52.37,6.114c0,0,0.033-0.098,0.066-0.199l-0.008-0.003
					l0.007-0.023l0.009,0.003C52.473,5.779,52.5,5.666,52.5,5.666l2.077,0.607c0,0-0.037,0.108-0.075,0.222l0.01,0.002l-0.007,0.022
					l-0.009-0.003c-0.002,0.003-0.002,0.005-0.004,0.008c-0.023,0.098-0.047,0.197-0.047,0.197l-0.018-0.005
					c0,0.002-0.007,0.021-0.007,0.021c-0.168-0.047-0.319,0.098-0.412,0.394l-0.911,3.122c-0.028,0.105-0.039,0.19-0.039,0.26
					c0,0.22,0.112,0.281,0.172,0.298c0,0-0.006,0.023-0.007,0.027l0.021,0.005c0,0-0.033,0.095-0.067,0.196l0.007,0.002
					l-0.006,0.026l-0.01-0.002c-0.001,0.001-0.002,0.002-0.002,0.004c-0.026,0.111-0.054,0.223-0.054,0.223l-2.077-0.607
					c0,0,0.036-0.108,0.073-0.221l-0.008-0.003l0.008-0.025l0.008,0.002c0.003-0.007,0.004-0.013,0.008-0.02
					c0.021-0.089,0.043-0.182,0.043-0.182l0.016,0.004c0-0.001,0.008-0.024,0.008-0.024c0.163,0.045,0.313-0.101,0.41-0.395
					l0.91-3.119c0.024-0.096,0.036-0.182,0.036-0.256C52.548,6.283,52.491,6.174,52.381,6.142z M55.94,7.799
					c0.051-0.124,0.076-0.232,0.076-0.322c0-0.125-0.047-0.211-0.141-0.251c0,0,0.009-0.022,0.01-0.024l-0.017-0.007
					c0,0,0.044-0.091,0.089-0.181c0.002-0.002,0.002-0.003,0.002-0.006l-0.008-0.003l0.008-0.024l0.01,0.003
					c0.043-0.112,0.084-0.218,0.084-0.218l1.996,0.856c0,0-0.049,0.104-0.102,0.211l0.01,0.004l-0.012,0.024l-0.008-0.004
					c-0.037,0.099-0.072,0.193-0.072,0.193s-0.018-0.007-0.02-0.007c0,0.002-0.01,0.023-0.01,0.023
					c-0.059-0.026-0.268-0.075-0.461,0.34c0,0-1.283,2.985-1.445,3.364c0.277,0.12,0.883,0.379,0.883,0.379
					c0.521,0.176,0.842-0.432,0.855-0.459l0.102-0.193l0.602,0.257l-0.623,1.09l-0.16,0.267l-3.596-1.542
					c0,0,0.049-0.103,0.098-0.205c0.001-0.001,0.002-0.003,0.002-0.006l-0.008-0.003l0.01-0.026l0.009,0.004
					c0.038-0.1,0.073-0.193,0.073-0.193s0.018,0.007,0.02,0.008c0-0.002,0.012-0.025,0.012-0.025
					c0.057,0.025,0.262,0.075,0.453-0.341L55.94,7.799z M64.133,12.713c-0.293,0.463-0.719,0.681-1.213,0.661
					c0.102,0.198,0.158,0.4,0.158,0.607c0,0.009,0,0.017,0,0.026c0,0-0.324,0.812-0.324,0.813L62.68,14.94
					c-0.061,0.093-0.191,0.298-0.191,0.453c0,0.019,0.002,0.035,0.006,0.051l0.15,0.179c0,0-0.014,0.02-0.014,0.022v0.001
					l-0.236,0.37l-0.002-0.003c0,0.003-0.014,0.025-0.014,0.025l-0.109-0.07l0.002,0.001c-0.523-0.331-0.979-0.618-1.074-1.05
					c-0.016-0.059-0.021-0.119-0.021-0.181c0-0.231,0.096-0.487,0.297-0.802c0.18-0.285,0.27-0.508,0.27-0.693
					c0-0.188-0.094-0.338-0.275-0.478c0,0-0.219-0.139-0.396-0.251c-0.178,0.283-0.686,1.083-0.686,1.083
					c-0.096,0.161-0.127,0.28-0.127,0.368c0,0.124,0.064,0.185,0.105,0.211c0,0-0.012,0.02-0.014,0.023l0.016,0.01
					c0,0-0.059,0.084-0.119,0.17l0.008,0.005l-0.014,0.022l-0.008-0.005c-0.061,0.103-0.117,0.203-0.117,0.203l-1.834-1.164
					c0,0,0.064-0.094,0.131-0.193l-0.006-0.004l0.014-0.022l0.008,0.005c0.002-0.004,0.004-0.008,0.008-0.012
					c0.047-0.083,0.096-0.168,0.096-0.168l0.014,0.009c0.002-0.002,0.014-0.021,0.014-0.021c0.148,0.093,0.334-0.005,0.506-0.265
					l1.74-2.744c0.098-0.161,0.131-0.28,0.131-0.367c0-0.12-0.063-0.179-0.104-0.205c0,0,0.014-0.021,0.016-0.023
					c-0.002,0-0.018-0.01-0.018-0.01s0.061-0.084,0.119-0.17l-0.008-0.004l0.014-0.023l0.008,0.005
					c0.061-0.104,0.117-0.202,0.117-0.202l2.369,1.503C64.538,11.217,64.516,12.109,64.133,12.713z M29.747,73.039
					c-0.001,0-0.18-0.027-0.574,0.342l-3.104,3.103c0,0-0.066-0.034-0.109-0.056c-0.012,0.012-0.061,0.059-0.061,0.059
					s0.013-0.065,0.016-0.082c-0.005-0.003-1.017-0.521-1.017-0.521l0.793-4.057c0.023-0.16,0.032-0.293,0.032-0.404
					c0-0.418-0.132-0.52-0.134-0.521c0,0,0.109-0.199,0.174-0.317c0.017-0.033,0.046-0.093,0.046-0.093
					c0.001,0,0.003,0.002,0.004,0.002l0.008-0.016l1.879,0.967c0,0-0.019,0.025-0.023,0.029c-0.007,0.014-0.046,0.094-0.087,0.176
					l0.004,0.002l-0.008,0.016l-0.002-0.002c-0.049,0.098-0.096,0.194-0.096,0.194s-0.068-0.036-0.075-0.038
					c-0.004,0.006-0.027,0.037-0.027,0.037s-0.11,0.121-0.108,0.117c0,0-0.065,0.175-0.065,0.168c0,0.004-0.385,2.002-0.569,2.947
					c0.66-0.653,1.944-1.928,1.944-1.928l0.094-0.107l0.204-0.269c0.031-0.06,0.042-0.101,0.042-0.128
					c0-0.04-0.022-0.052-0.035-0.059c0,0,0.011-0.022,0.012-0.024c0-0.001-0.016-0.008-0.016-0.008s0.051-0.091,0.103-0.179
					l-0.01-0.005l0.014-0.024l0.008,0.004c0.05-0.108,0.099-0.212,0.099-0.212l0.868,0.447L29.747,73.039z M68.053,17.514
					c-1.006,1.133-2.49,1.283-3.531,0.359c-0.48-0.426-0.754-0.979-0.789-1.6c-0.006-0.047-0.006-0.095-0.006-0.141
					c0-0.64,0.254-1.277,0.73-1.811c0.506-0.572,1.164-0.911,1.852-0.951c0.619-0.038,1.201,0.168,1.682,0.596
					c0.479,0.425,0.752,0.977,0.789,1.596C68.819,16.25,68.561,16.943,68.053,17.514z M73.829,21.252c0,0,0.02-0.012,0.021-0.014
					l-0.01-0.016c0,0,0.09-0.049,0.184-0.1l-0.004-0.008l0.021-0.012l0.004,0.008c0.002,0,0.002,0,0.002,0
					c0.096-0.063,0.193-0.127,0.193-0.127l1.23,2.071c0.691,1.163,0.246,2.572-1.061,3.349c-1.277,0.759-2.752,0.468-3.434-0.677
					l-1.23-2.07c0,0,0.102-0.056,0.205-0.111l-0.004-0.008l0.021-0.015l0.006,0.009c0.086-0.058,0.174-0.114,0.174-0.114
					s0.008,0.016,0.008,0.017c0.004-0.002,0.023-0.013,0.023-0.013c0.033,0.056,0.172,0.219,0.576-0.002l2.791-1.66
					c0.254-0.164,0.311-0.305,0.311-0.399C73.858,21.309,73.84,21.271,73.829,21.252z M73.094,64.64c0,0-0.262-0.429-0.264-0.429
					c0,0,0.113-0.487,0.115-0.487l0.43-0.268c0,0,0.484,0.115,0.486,0.115c0,0,0.268,0.428,0.268,0.43c0,0-0.115,0.49-0.113,0.489
					l-0.434,0.267C73.583,64.757,73.096,64.642,73.094,64.64z M71.536,67.58c-0.928,1.041-2.42,1.066-3.553,0.061
					c-1.111-0.991-1.264-2.511-0.352-3.533c0.91-1.023,2.438-1.049,3.551-0.059C72.313,65.053,72.461,66.539,71.536,67.58z
					 M11.739,22.19c0.665-0.176,1.394-0.061,2.055,0.323c0.664,0.384,1.127,0.961,1.304,1.625c0.16,0.599,0.074,1.209-0.248,1.765
					c-0.322,0.555-0.809,0.933-1.409,1.093c-0.665,0.176-1.395,0.063-2.058-0.322c0,0,0,0,0,0c0,0,0,0,0,0
					c-0.663-0.384-1.126-0.962-1.303-1.627c-0.052-0.196-0.078-0.393-0.078-0.589c0-0.403,0.109-0.801,0.326-1.174
					C10.652,22.727,11.139,22.35,11.739,22.19z M11.601,42.703c0-17.149,13.953-31.102,31.103-31.102
					c17.15,0,31.102,13.953,31.102,31.102s-13.951,31.1-31.102,31.1C25.554,73.802,11.601,59.852,11.601,42.703z M68.243,69.937
					c-0.002,0.441-0.15,0.891-0.391,1.196l-0.346,0.358l-0.262,0.191l0.01-0.004c0,0-0.486,0.244-0.496,0.247
					c0,0-0.514,0.126-0.512,0.126c0,0-0.525,0.021-0.533,0.021c0,0-0.5-0.082-0.51-0.084c0,0-0.49-0.185-0.502-0.191l-0.445-0.291
					l-0.4-0.396c-0.926-1.125-0.787-2.723,0.332-3.654c0,0,0.545-0.356,0.547-0.358c0,0,0.566-0.206,0.574-0.21l-0.016-0.074
					l0.387-0.256l0.957,1.163l-0.488,0.403l-0.15-0.17c-0.021-0.025-0.537-0.598-1.145-0.262l-0.188,0.113l-0.131,0.107
					c-0.354,0.396-0.135,1.415,0.453,2.134l0.148,0.161c0,0,0.027,0.029,0.076,0.075c0,0,0.232,0.21,0.232,0.212
					c0.668,0.504,1.281,0.336,1.516,0.24l0.311-0.181c0.248-0.203,0.375-0.498,0.375-0.863c0-0.09-0.01-0.185-0.023-0.283
					c0,0,0.109-0.015,0.23-0.03c0-0.002,0-0.004,0-0.006l0.014,0.004c0.057-0.007,0.113-0.016,0.162-0.021
					c0.014-0.004,0.055-0.02,0.055-0.02c0,0.005,0,0.009,0,0.013c0.025-0.003,0.094-0.013,0.094-0.013S68.243,69.953,68.243,69.937z
					 M71.389,17.372l0.072,0.086l0.082-0.033l-0.049,0.073l0.744,0.881l-2.285,3.441c-0.24,0.395-0.287,0.638-0.287,0.769
					c0,0.085,0.021,0.123,0.021,0.124c0,0-0.129,0.103-0.244,0.192c-0.053,0.048-0.117,0.103-0.117,0.103
					c0,0-0.002-0.005-0.004-0.006c-0.002,0.002-0.023,0.018-0.023,0.018l-1.361-1.616c0,0,0.09-0.071,0.184-0.145l-0.004-0.005
					l0.02-0.015l0.004,0.003c0.002-0.001,0.004-0.003,0.008-0.006c0.072-0.065,0.146-0.133,0.146-0.133l0.008,0.01
					c0.002-0.001,0.021-0.016,0.021-0.016c0.035,0.042,0.086,0.08,0.215-0.028c0,0,0.131-0.138,0.119-0.123
					c0,0,0.238-0.355,0.357-0.536c-0.162-0.194-0.746-0.884-0.904-1.072c-0.143,0.059-0.326,0.133-0.326,0.133l-0.154,0.076
					c0,0-0.26,0.149-0.262,0.149l-0.098,0.131l0.016,0.039c0,0-0.018,0.016-0.02,0.019c0.002,0.001,0.018,0.021,0.018,0.021
					s-0.082,0.061-0.166,0.125l0.008,0.008l-0.02,0.018l-0.01-0.01c-0.002,0.001-0.002,0.001-0.002,0.002
					c-0.084,0.079-0.168,0.158-0.168,0.158l-0.637-0.753l0.373-0.323c0,0,0.15,0.098,0.658-0.083l3.908-1.612L71.389,17.372z
					 M31.548,8.89c0.298,0.708,0.32,1.448,0.061,2.085c-0.233,0.574-0.669,1.009-1.259,1.257c-1.285,0.542-2.645-0.076-3.233-1.47
					c-0.297-0.706-0.318-1.445-0.059-2.084c0.234-0.575,0.67-1.011,1.26-1.26C29.581,6.886,30.969,7.519,31.548,8.89z
					 M20.587,13.711l-0.492,0.431l-0.155-0.15c-0.019-0.022-0.525-0.502-0.953-0.183c0,0-0.504,0.45-0.732,0.652
					c0.219,0.246,0.945,1.061,1.164,1.307c0.112-0.1,0.228-0.201,0.228-0.201c0.277-0.247,0.337-0.461,0.337-0.6
					c0-0.092-0.027-0.15-0.033-0.164l0.38-0.265l0.795,0.895l-0.308,0.348c-0.032-0.022-0.331-0.197-0.793,0.213
					c0,0-0.115,0.103-0.228,0.202c0.22,0.246,0.945,1.061,1.164,1.308c0.227-0.202,0.718-0.639,0.718-0.639
					c0.119-0.125,0.16-0.265,0.16-0.399c0-0.294-0.199-0.56-0.211-0.575l-0.133-0.173l0.49-0.435l0.696,1.019l0.211,0.261
					l-2.935,2.61c0,0-0.072-0.087-0.148-0.18l-0.006,0.006l-0.018-0.021l0.008-0.006c-0.004-0.003-0.005-0.006-0.008-0.01
					c-0.068-0.067-0.137-0.138-0.137-0.138l0.013-0.012c-0.001-0.001-0.017-0.021-0.017-0.021c0.047-0.042,0.071-0.098,0.071-0.164
					c0-0.108-0.064-0.245-0.188-0.394l-2.159-2.429c-0.256-0.27-0.447-0.274-0.541-0.188c0,0-0.014-0.016-0.016-0.018
					c0,0.001-0.016,0.015-0.016,0.015s-0.066-0.079-0.135-0.162l-0.005,0.004l-0.015-0.017l0.006-0.004
					c-0.009-0.011-0.016-0.02-0.024-0.029c-0.065-0.068-0.137-0.141-0.137-0.141l2.769-2.462l0.227-0.064L20.587,13.711z
					 M16.392,17.488c0.354,0.294,0.535,0.658,0.535,1.057c0,0.114-0.077,0.237-0.106,0.355c0.242-0.102,0.485-0.239,0.723-0.205
					c0,0,0.76,0.418,0.769,0.425l0.107,0.09c0.387,0.32,0.531,0.291,0.673,0.117c0,0,0.02,0.017,0.022,0.019l0.001-0.002
					l0.337,0.281c-0.001,0.001-0.001,0-0.002,0.002c0.002,0.002,0.023,0.019,0.023,0.019l-0.083,0.098l0.001-0.001
					c-0.395,0.479-0.737,0.893-1.178,0.936c-0.286,0.027-0.576-0.094-0.94-0.395c-0.517-0.429-0.847-0.464-1.162-0.143
					c0,0-0.166,0.201-0.298,0.36c0.258,0.213,0.989,0.817,0.989,0.817c0.357,0.278,0.518,0.159,0.571,0.094
					c0,0,0.02,0.014,0.022,0.017l0.013-0.016c0,0,0.075,0.066,0.153,0.138l0.005-0.006l0.021,0.017l-0.007,0.007
					c0.001,0,0.001,0,0.001,0c0.092,0.07,0.185,0.141,0.185,0.141l-1.384,1.676c0,0-0.086-0.079-0.173-0.157l-0.006,0.008
					l-0.02-0.018l0.006-0.006c-0.086-0.063-0.166-0.124-0.166-0.124s0.012-0.016,0.013-0.016c-0.002-0.002-0.021-0.018-0.021-0.018
					c0.018-0.021,0.047-0.068,0.047-0.137c0-0.092-0.051-0.224-0.25-0.394l-2.504-2.068c-0.352-0.28-0.514-0.162-0.566-0.099
					c0,0-0.018-0.015-0.021-0.016c0,0-0.011,0.013-0.011,0.013s-0.075-0.069-0.15-0.136c-0.001-0.001-0.002-0.002-0.003-0.002
					l-0.005,0.006l-0.021-0.016l0.005-0.006c-0.095-0.073-0.185-0.143-0.185-0.143l1.785-2.163
					C14.957,16.901,15.839,17.033,16.392,17.488z M10.608,61.276c0,0,0.458-0.578,0.54-0.628c0.305-0.165,0.604-0.235,0.891-0.21
					c0,0,0.162,0.058,0.319,0.116c0-0.018-0.003-0.068-0.003-0.068l0.179-0.482c0,0,0.4-0.424,0.472-0.474
					c0.289-0.163,0.579-0.243,0.866-0.236c0,0,0.785,0.236,0.788,0.237c0,0,0.583,0.564,0.583,0.566l0.063,0.092l0.297,0.727
					l0.001-0.047c0,0-0.01,0.721-0.011,0.725c0,0-0.223,0.506-0.223,0.509c0,0-0.225,0.207-0.228,0.208c0,0-0.345,0.115-0.348,0.116
					l-0.45-0.194l-0.068-0.003l-0.028-0.112c0,0-0.12-0.482-0.12-0.498c0,0,0.117-0.266,0.123-0.273c0,0,0.192-0.186,0.204-0.191
					l0.109-0.063c0,0,0.216-0.207,0.217-0.207c0,0,0.09-0.219,0.091-0.221c0,0-0.041-0.152-0.088-0.201
					c-0.089-0.088-0.186-0.121-0.313-0.107l-0.465,0.18l-0.418,0.467c-0.091,0.167-0.109,0.324-0.057,0.496
					c0,0,0.036,0.244,0.036,0.246c-0.004,0.095-0.041,0.229-0.192,0.333l-0.098,0.055l-0.038,0.011
					c-0.139,0.039-0.278-0.008-0.371-0.115c0,0-0.171-0.2-0.228-0.279c0,0-0.125,0.016-0.126,0.016l-0.396,0.195
					c0,0-0.365,0.317-0.366,0.317c0,0-0.224,0.35-0.224,0.348l-0.009,0.271l0.056,0.104c0.043,0.063,0.091,0.093,0.156,0.1
					c0,0,0.329-0.044,0.339-0.047c0,0,0.396-0.177,0.394-0.175c0,0,0.371-0.233,0.372-0.233l0.335-0.11c0,0,0.277,0.06,0.278,0.06
					c0,0,0.193,0.129,0.187,0.123l0.426,0.213c0,0,0.472-0.018,0.483-0.02c0,0,0.419,0.014,0.428,0.018l0.336,0.254
					c0,0,0.103,0.254,0.103,0.258c0,0-0.056,0.422-0.053,0.415l-0.253,0.29c0,0-0.553,0.145-0.568,0.143
					c0,0-0.447-0.148-0.447-0.147c0,0-0.339-0.262-0.341-0.262c0,0-0.083-0.104-0.155-0.192c-0.06,0.053-0.127,0.114-0.127,0.115
					c0,0-0.281,0.133-0.281,0.137c0,0,0,0,0-0.001c0,0-0.393,0.104-0.394,0.104c0,0-0.536,0.015-0.532,0.015
					c0,0-0.599-0.193-0.6-0.193c0,0-0.56-0.541-0.561-0.541l-0.096-0.145l-0.292-0.557l-0.172-0.658
					C10.54,61.958,10.605,61.28,10.608,61.276z M32.962,76.46c0.3-1.4,1.677-2.303,3.078-2.011c0,0,0.657,0.213,0.661,0.216
					c0,0,0.511,0.316,0.522,0.318l0.052-0.062l0.634-0.762l-0.511,2.386l-0.627-0.139l0.042-0.223
					c0.001-0.01,0.015-0.086,0.015-0.194c0-0.251-0.071-0.675-0.522-0.862c0,0-0.358-0.114-0.358-0.115
					c-0.535-0.11-1.237,0.709-1.445,1.689c0,0-0.04,0.229-0.04,0.234c-0.018,0.15-0.027,0.306-0.027,0.461
					c0,0.676,0.178,1.355,0.687,1.6c0,0,0.112,0.037,0.114,0.038c0,0,0.099,0.001,0.194,0.001c0.063-0.232,0.214-0.797,0.214-0.797
					l0.042-0.196c0.015-0.079,0.023-0.149,0.023-0.212c0-0.189-0.067-0.307-0.198-0.338c0,0,0.002-0.013,0.002-0.014l-0.014-0.004
					c0,0,0.024-0.088,0.045-0.166c0.003-0.015,0.006-0.029,0.008-0.045l-0.008-0.002l0.004-0.016l0.007,0.002
					c0.021-0.118,0.041-0.229,0.041-0.229l2.125,0.454c0,0-0.028,0.109-0.056,0.217c0,0.003-0.001,0.006-0.002,0.01l0.01,0.002
					l-0.004,0.017l-0.008-0.001c-0.018,0.107-0.037,0.212-0.037,0.212l-0.02-0.004c-0.001,0.001-0.004,0.019-0.004,0.019
					c-0.081-0.02-0.283-0.014-0.391,0.42l-0.296,1.382l-0.1,0.292l-0.702-0.409l-0.065-0.017c0,0-0.34-0.01-0.341-0.01
					c0,0-0.751-0.039-0.763-0.041C33.55,79.251,32.662,77.86,32.962,76.46z M40.523,80.328c0,0,0.016-0.059,0.02-0.08
					c0.001-0.03,0.003-0.09,0.004-0.151l-0.008-0.001l0.001-0.025l0.008,0.001c0.002-0.104,0.006-0.208,0.006-0.208
					s0.078,0.004,0.083,0.005c0.003-0.009,0.013-0.05,0.013-0.05s0.05-0.15,0.05-0.152c0,0-0.006-0.141-0.006-0.17
					c0-0.006,0-0.007,0-0.006c0,0-0.089-0.414-0.134-0.627c-0.253-0.018-1.155-0.079-1.399-0.096
					c-0.058,0.142-0.131,0.322-0.131,0.322l-0.059,0.181l-0.07,0.278c-0.001,0.017-0.001,0.031-0.001,0.044
					c0,0.128,0.048,0.134,0.072,0.135c0,0-0.001,0.024-0.001,0.028c0.001,0,0.022,0.002,0.022,0.002s-0.014,0.095-0.026,0.188
					c0,0.006,0,0.01,0,0.016l0.012,0.001l-0.001,0.028l-0.011-0.002c-0.003,0.121-0.005,0.234-0.005,0.234l-0.984-0.068l0.028-0.492
					c0.001,0,0.177-0.043,0.399-0.53l1.563-3.93l0.063-0.157l0.113,0.008l0.033-0.082l0.018,0.086l1.149,0.078l0.88,4.037
					c0.193,0.737,0.454,0.81,0.458,0.811c0,0-0.012,0.115-0.023,0.231c-0.004,0.116-0.008,0.233-0.008,0.233
					c-0.002,0-0.012-0.004-0.014-0.004c-0.002,0.004-0.004,0.031-0.004,0.031L40.523,80.328z M53.33,78.322
					c-0.615-0.308-1.087-0.877-1.331-1.604c-0.106-0.318-0.16-0.639-0.16-0.951c0-0.399,0.088-0.784,0.261-1.129
					c0.276-0.557,0.745-0.957,1.353-1.158c0.609-0.203,1.223-0.166,1.779,0.111c0.615,0.307,1.088,0.875,1.33,1.602
					c0.48,1.436-0.131,2.799-1.451,3.24C54.502,78.636,53.886,78.597,53.33,78.322z M58.627,77.14c0,0-0.051-0.104-0.102-0.211
					l-0.006,0.004l-0.012-0.023l0.006-0.002c-0.01-0.023-0.021-0.046-0.033-0.068c-0.029-0.048-0.068-0.113-0.068-0.113
					s0.01-0.007,0.012-0.007c-0.002-0.001-0.012-0.022-0.012-0.022s0.064-0.048,0.107-0.111l0.02-0.145c0,0-0.07-0.252-0.07-0.261
					l-1.193-2.292c0,0-0.342-0.559-0.34-0.557l-0.262-0.277c0,0-0.172-0.098-0.217-0.104l0.012-0.002c0,0-0.016-0.026-0.02-0.03
					l-0.018,0.01c0,0-0.008-0.045-0.01-0.058c-0.018-0.033-0.047-0.081-0.076-0.132l-0.004,0.002l-0.006,0.003l-0.014-0.022
					l0.012-0.006c-0.059-0.101-0.119-0.201-0.119-0.201l0.654-0.342c0,0,3.041,0.974,3.867,1.238
					c-0.316-0.608-0.912-1.756-0.912-1.756s-0.174-0.195-0.174-0.197c0,0-0.131-0.06-0.199-0.063l-0.061,0.021
					c0,0-0.012-0.021-0.014-0.022c-0.002,0-0.025,0.013-0.025,0.013s-0.045-0.092-0.094-0.186v0.002l-0.014-0.023l0.002-0.001
					c-0.031-0.064-0.064-0.126-0.076-0.148c-0.006-0.014-0.033-0.058-0.033-0.058l1.043-0.543c0,0,0.045,0.096,0.086,0.188
					c0.004,0.008,0.008,0.016,0.014,0.023l0.008-0.004l0.014,0.022l-0.008,0.005c0.053,0.093,0.102,0.18,0.102,0.18
					s-0.02,0.011-0.021,0.012c0.002,0.002,0.012,0.024,0.012,0.024l0.004-0.002l-0.104,0.109l-0.02,0.136c0,0,0.07,0.255,0.07,0.264
					c0,0.001-0.002,0-0.002,0l1.877,3.605l0.17,0.545c0,0-3.475-1.092-4.297-1.35c0.313,0.601,0.896,1.727,0.896,1.727
					s0.18,0.201,0.184,0.203c0,0,0.117,0.053,0.201,0.051l0.061-0.019c0,0,0.014,0.021,0.014,0.022c0.002,0,0.018-0.009,0.018-0.009
					s0.043,0.092,0.088,0.187l0.008-0.004l0.014,0.024l-0.01,0.005c0.059,0.102,0.117,0.202,0.117,0.202L58.627,77.14z"/>
				<path fill="#34B3D1" d="M10.822,23.57c-0.254,0.439,0.287,1.146,1.344,1.758c0.728,0.421,1.454,0.61,1.896,0.492
					c0,0,0.293-0.199,0.296-0.204c0.038-0.067,0.058-0.142,0.058-0.223c0-0.432-0.536-1.037-1.398-1.538
					C11.959,23.243,11.078,23.129,10.822,23.57z"/>
				<path fill="#34B3D1" d="M15.369,20.135c0.15-0.18,0.364-0.437,0.364-0.437c0.071-0.103,0.101-0.206,0.101-0.305
					c0-0.291-0.252-0.555-0.435-0.708c-0.466-0.381-0.838-0.41-1.107-0.085c0,0-0.178,0.218-0.314,0.386
					C14.233,19.198,15.113,19.923,15.369,20.135z"/>
				<path fill="#34B3D1" d="M28.538,7.945c-0.467,0.197-0.46,1.086,0.016,2.214c0.326,0.774,0.792,1.361,1.215,1.533
					c0,0,0.355,0.017,0.361,0.016c0.224-0.095,0.336-0.371,0.336-0.759c0-0.395-0.116-0.903-0.347-1.453
					C29.642,8.371,29.006,7.747,28.538,7.945z"/>
				<path fill="#34B3D1" d="M41.967,6.869c0.233-0.001,0.568-0.004,0.568-0.004c0.498-0.049,0.557-0.631,0.557-0.896
					c0-0.005,0-0.01,0-0.015c-0.011-0.601-0.23-0.904-0.65-0.899c0,0-0.281,0.005-0.498,0.009
					C41.949,5.396,41.962,6.538,41.967,6.869z"/>
				<path fill="#34B3D1" d="M47.2,7.903c0.32,0.049,0.726,0.112,1.041,0.16C48.194,7.72,48.094,6.989,48.002,6.3
					C47.691,6.923,47.359,7.586,47.2,7.903z"/>
				<path fill="#34B3D1" d="M61.381,12.029c0.197,0.127,0.477,0.306,0.477,0.306c0.457,0.238,0.826-0.242,0.963-0.46v-0.001
					c0.092-0.142,0.229-0.396,0.229-0.637c0-0.041-0.004-0.082-0.014-0.121c-0.029-0.139-0.117-0.252-0.27-0.348
					c0,0-0.236-0.149-0.418-0.264C62.168,10.786,61.559,11.75,61.381,12.029z"/>
				<path fill="#34B3D1" d="M65.618,15.357c-0.559,0.629-0.887,1.303-0.859,1.759c0,0,0.139,0.327,0.143,0.331
					c0.096,0.086,0.217,0.123,0.369,0.114c0.439-0.027,1.047-0.43,1.621-1.078c0.588-0.663,0.91-1.292,0.885-1.724
					c-0.01-0.158-0.064-0.279-0.166-0.37C67.231,14.054,66.43,14.443,65.618,15.357z"/>
				<path fill="#34B3D1" d="M70.319,18.432c-0.645,0.265-1.328,0.545-1.658,0.681c0.211,0.248,0.475,0.561,0.68,0.803
					C69.53,19.627,69.938,19.011,70.319,18.432z"/>
				<path fill="#34B3D1" d="M71.192,24.966c0.037,0.066,0.078,0.138,0.078,0.138c0.158,0.265,0.354,0.424,0.596,0.485
					c0.412,0.105,0.984-0.065,1.75-0.521c0.934-0.554,1.357-0.996,1.357-1.474c0-0.18-0.061-0.366-0.178-0.564
					c0,0-0.047-0.079-0.092-0.154C74.362,23.08,71.53,24.766,71.192,24.966z"/>
				<path fill="#34B3D1" d="M21.644,71.451c0.268,0.184,0.607,0.415,0.868,0.594c0.107-0.33,0.336-1.029,0.551-1.689
					C22.512,70.779,21.925,71.232,21.644,71.451z"/>
				<path fill="#34B3D1" d="M40.048,76.549c-0.258,0.647-0.534,1.333-0.666,1.665c0.324,0.021,0.733,0.049,1.049,0.07
					C40.357,77.947,40.198,77.228,40.048,76.549z"/>
				<path fill="#34B3D1" d="M54.572,77.849c0,0,0.356,0.045,0.358,0.043c0.123-0.041,0.215-0.126,0.281-0.262
					c0.082-0.162,0.122-0.379,0.122-0.637c0-0.37-0.083-0.821-0.245-1.308c-0.389-1.157-0.975-1.827-1.459-1.667
					c-0.125,0.042-0.221,0.13-0.289,0.268c-0.195,0.393-0.145,1.101,0.137,1.941C53.743,77.024,54.163,77.644,54.572,77.849z"/>
				<path fill="#34B3D1" d="M59.497,76.635C59.497,76.635,59.497,76.635,59.497,76.635z"/>
				<path fill="#34B3D1" d="M71.11,67.201c0.084-0.096,0.121-0.217,0.115-0.369c-0.027-0.441-0.43-1.047-1.076-1.623
					c-0.912-0.813-1.754-1.102-2.096-0.721c-0.334,0.377,0.055,1.177,0.967,1.991C69.86,67.227,70.795,67.551,71.11,67.201z"/>
				<path fill="none" d="M11.384,26.674C11.384,26.674,11.384,26.674,11.384,26.674"/>
				<path fill="#FFFFFF" d="M10.33,23.283c-0.217,0.373-0.326,0.771-0.326,1.174c0,0.196,0.026,0.393,0.078,0.589
					c0.177,0.666,0.64,1.243,1.303,1.627c0.663,0.385,1.393,0.499,2.058,0.322c0.6-0.16,1.086-0.538,1.409-1.093
					c0.322-0.556,0.408-1.166,0.248-1.765c-0.177-0.665-0.64-1.242-1.304-1.625c-0.661-0.384-1.391-0.499-2.055-0.323
					C11.139,22.35,10.652,22.727,10.33,23.283z M13.017,23.855c0.863,0.501,1.398,1.106,1.398,1.538c0,0.081-0.02,0.156-0.058,0.223
					c-0.003,0.004-0.296,0.204-0.296,0.204c-0.441,0.118-1.167-0.071-1.896-0.492c-1.057-0.613-1.598-1.319-1.344-1.758
					C11.078,23.129,11.959,23.243,13.017,23.855z"/>
				<path fill="#FFFFFF" d="M12.536,20.199l-0.005,0.006l0.021,0.016l0.005-0.006c0.001,0,0.002,0.001,0.003,0.002
					c0.075,0.067,0.15,0.136,0.15,0.136s0.011-0.013,0.011-0.013c0.003,0.001,0.021,0.016,0.021,0.016
					c0.053-0.063,0.214-0.181,0.566,0.099l2.504,2.068c0.198,0.169,0.25,0.302,0.25,0.394c0,0.069-0.029,0.116-0.047,0.137
					c0,0,0.018,0.016,0.021,0.018c0,0-0.013,0.016-0.013,0.016s0.08,0.061,0.166,0.124l-0.006,0.006l0.02,0.018l0.006-0.008
					c0.087,0.078,0.173,0.157,0.173,0.157l1.384-1.676c0,0-0.093-0.071-0.185-0.141c0,0,0,0-0.001,0l0.007-0.007l-0.021-0.017
					l-0.005,0.006c-0.079-0.071-0.153-0.138-0.153-0.138l-0.013,0.016c-0.002-0.002-0.022-0.017-0.022-0.017
					c-0.053,0.064-0.213,0.184-0.571-0.094c0,0-0.731-0.604-0.989-0.817c0.132-0.16,0.298-0.36,0.298-0.36
					c0.315-0.322,0.645-0.286,1.162,0.143c0.364,0.301,0.654,0.422,0.94,0.395c0.441-0.042,0.783-0.457,1.178-0.936l-0.001,0.001
					l0.083-0.098c0,0-0.021-0.017-0.023-0.019c0.001-0.002,0.001,0,0.002-0.002l-0.337-0.281l-0.001,0.002
					c-0.002-0.002-0.022-0.019-0.022-0.019c-0.142,0.174-0.286,0.203-0.673-0.117l-0.107-0.09c-0.009-0.007-0.769-0.425-0.769-0.425
					c-0.237-0.035-0.48,0.103-0.723,0.205c0.03-0.119,0.106-0.242,0.106-0.355c0-0.399-0.181-0.763-0.535-1.057
					c-0.553-0.455-1.435-0.586-2.255,0.406l-1.785,2.163C12.351,20.056,12.441,20.126,12.536,20.199z M14.292,18.601
					c0.269-0.325,0.641-0.296,1.107,0.085c0.183,0.153,0.435,0.417,0.435,0.708c0,0.099-0.029,0.202-0.101,0.305
					c0,0-0.214,0.256-0.364,0.437c-0.256-0.211-1.136-0.937-1.392-1.148C14.114,18.819,14.292,18.601,14.292,18.601z"/>
				<path fill="#FFFFFF" d="M19.253,12.804l-2.769,2.462c0,0,0.071,0.073,0.137,0.141c0.009,0.01,0.016,0.018,0.024,0.029
					l-0.006,0.004l0.015,0.017l0.005-0.004c0.069,0.083,0.135,0.162,0.135,0.162s0.016-0.014,0.016-0.015
					c0.002,0.002,0.016,0.018,0.016,0.018c0.094-0.086,0.285-0.082,0.541,0.188l2.159,2.429c0.124,0.148,0.188,0.285,0.188,0.394
					c0,0.066-0.023,0.121-0.071,0.164c0,0,0.015,0.019,0.017,0.021l-0.013,0.012c0,0,0.069,0.07,0.137,0.138
					c0.003,0.003,0.004,0.006,0.008,0.01l-0.008,0.006l0.018,0.021l0.006-0.006c0.077,0.093,0.148,0.18,0.148,0.18l2.935-2.61
					l-0.211-0.261l-0.696-1.019l-0.49,0.435l0.133,0.173c0.012,0.016,0.211,0.281,0.211,0.575c0,0.134-0.041,0.274-0.16,0.399
					c0,0-0.492,0.438-0.718,0.639c-0.219-0.247-0.943-1.062-1.164-1.308c0.112-0.099,0.228-0.202,0.228-0.202
					c0.462-0.41,0.761-0.235,0.793-0.213l0.308-0.348l-0.795-0.895l-0.38,0.265c0.006,0.014,0.033,0.072,0.033,0.164
					c0,0.139-0.061,0.353-0.337,0.6c0,0-0.116,0.102-0.228,0.201c-0.219-0.246-0.944-1.061-1.164-1.307
					c0.228-0.202,0.732-0.652,0.732-0.652c0.427-0.32,0.934,0.161,0.953,0.183l0.155,0.15l0.492-0.431l-1.107-0.972L19.253,12.804z"
					/>
				<path fill="#FFFFFF" d="M25.631,14.704c0.009-0.005,0.576-0.507,0.576-0.507c-0.001,0.002,0.246-0.231,0.246-0.231l0.06-0.032
					l0.788-0.201l-0.134-0.278l-0.758-1.193c-0.091-0.157-0.122-0.273-0.122-0.361c0-0.126,0.065-0.188,0.106-0.214
					c0,0-0.007-0.014-0.008-0.014c0.001,0,0.018-0.011,0.018-0.011s-0.062-0.088-0.124-0.177l0.008-0.006l-0.009-0.015l-0.008,0.005
					c-0.06-0.102-0.117-0.202-0.117-0.202l-1.835,1.165c0,0,0.066,0.095,0.133,0.19l0.001,0.001l-0.009,0.005l0.008,0.014
					l0.008-0.004c0.056,0.095,0.109,0.188,0.109,0.188s0.017-0.011,0.018-0.011c0,0.001,0.009,0.014,0.009,0.014
					c0.054-0.035,0.248-0.116,0.504,0.271l0.106,0.17c0,0,0.288,0.509,0.407,0.718c-0.068,0.066-0.139,0.135-0.139,0.135
					c-0.001,0-0.112,0.055-0.112,0.055c-0.656,0.223-1.418-0.375-1.911-1.009c-0.001-0.001-0.138-0.196-0.138-0.196
					c-0.298-0.469-0.453-1.01-0.453-1.45c0-0.35,0.099-0.637,0.303-0.768c0.001,0,0.333-0.167,0.333-0.167
					c0.651-0.262,1.085,0.37,1.104,0.397l0.125,0.188l0.547-0.341l-0.808-1.273L24.046,9.76l0.005,0.08
					c-0.005,0.006-0.596,0.138-0.596,0.138c-0.004,0.002-0.624,0.311-0.624,0.311c-1.203,0.771-1.552,2.38-0.785,3.59
					C22.813,15.088,24.421,15.458,25.631,14.704z"/>
				<path fill="#FFFFFF" d="M28.318,7.418c-0.59,0.249-1.026,0.685-1.26,1.26c-0.259,0.639-0.238,1.378,0.059,2.084
					c0.589,1.394,1.949,2.012,3.233,1.47c0.59-0.249,1.026-0.684,1.259-1.257c0.259-0.637,0.237-1.377-0.061-2.085
					C30.969,7.519,29.581,6.886,28.318,7.418z M30.13,11.708c-0.006,0.001-0.361-0.016-0.361-0.016
					c-0.423-0.171-0.889-0.758-1.215-1.533c-0.476-1.128-0.482-2.017-0.016-2.214c0.469-0.198,1.104,0.426,1.581,1.55
					c0.231,0.55,0.347,1.059,0.347,1.453C30.466,11.336,30.354,11.613,30.13,11.708z"/>
				<path fill="#FFFFFF" d="M31.859,6.078c0,0,0.032,0.113,0.064,0.225l-0.008,0.002l0.007,0.025l0.005-0.001h0.003
					c0.018,0.064,0.036,0.125,0.046,0.161c-0.001,0.007-0.005,0.042-0.005,0.042s0.014-0.004,0.016-0.004
					c0.001,0.004,0.008,0.031,0.008,0.031l-0.008,0c0.048,0.021,0.188,0.154,0.188,0.154l0.187,0.331l0.198,0.623l0.61,2.511
					c-0.002-0.012,0.005,0.271,0.005,0.271c-0.001,0.004-0.05,0.129-0.05,0.129l-0.124,0.084l0.008-0.002
					c0,0,0.004,0.024,0.004,0.027c-0.002,0.001-0.03,0.007-0.03,0.007s0.027,0.098,0.055,0.2l-0.006,0.001l0.006,0.025l0.007-0.001
					c0.008,0.027,0.016,0.056,0.022,0.08c0.011,0.063,0.025,0.148,0.025,0.148l1.146-0.278c0,0-0.014-0.051-0.019-0.067
					c-0.006-0.026-0.022-0.091-0.038-0.16h0.002l-0.005-0.026h-0.003c-0.023-0.1-0.046-0.202-0.046-0.202s-0.023,0.006-0.024,0.006
					c0-0.002-0.007-0.025-0.007-0.025l-0.065,0.004c-0.081-0.021-0.178-0.099-0.178-0.099c-0.004-0.005-0.127-0.242-0.127-0.242
					s-0.299-1.232-0.459-1.89c0.737,0.448,3.851,2.338,3.851,2.338l-0.035-0.571l-0.961-3.948c0.001,0.004,0.001-0.005,0.001-0.023
					c0-0.067-0.004-0.251-0.004-0.251c0,0,0.054-0.127,0.054-0.127l0.128-0.083l-0.005,0.002c0,0-0.005-0.023-0.005-0.026
					c0,0,0.021-0.004,0.021-0.004s-0.028-0.098-0.058-0.199l0.009-0.002l-0.006-0.026l-0.009,0.003
					c-0.023-0.116-0.045-0.23-0.045-0.23L35.06,5.298c0,0,0.03,0.113,0.06,0.226l-0.004,0.001l0.006,0.026l0.004-0.001
					c0.011,0.042,0.022,0.082,0.031,0.116c0.005,0.027,0.013,0.086,0.013,0.086l0.009-0.002c0.001,0.002,0.007,0.025,0.007,0.025
					l0.072-0.007c0.077,0.018,0.187,0.105,0.187,0.105c0,0.002,0.124,0.234,0.124,0.234s0.305,1.256,0.467,1.922
					c-0.74-0.455-3.457-2.126-3.457-2.126L31.859,6.078z"/>
				<path fill="#FFFFFF" d="M40.09,4.742c0,0.003,0,0.005,0,0.007h-0.01v0.026h0.009c-0.003,0.107-0.006,0.207-0.006,0.207h0.02
					c0.001,0.002,0.002,0.027,0.002,0.027c0.063-0.001,0.272,0.031,0.286,0.494L40.43,8.75c-0.003,0.459-0.211,0.498-0.275,0.499
					c0,0,0,0.024,0,0.027c-0.001,0-0.019,0-0.019,0s0.005,0.1,0.01,0.207h-0.01l0.002,0.027h0.01
					c-0.004,0.117-0.008,0.233-0.008,0.233l2.172-0.027c0,0-0.005-0.114-0.012-0.233h0.009V9.457H42.3
					c0.003-0.104,0.007-0.208,0.007-0.208h-0.018c0-0.002-0.001-0.026-0.001-0.026c-0.084,0.001-0.28-0.046-0.299-0.5
					c0,0-0.012-0.946-0.016-1.279c0.208-0.002,0.468-0.006,0.468-0.006c0.455,0.034,0.633,0.299,0.642,0.979
					c0.017,1.291,0.795,1.281,1.78,1.27l0.131-0.002l-0.006-0.493c-0.225,0.002-0.34-0.089-0.346-0.592l-0.002-0.142
					c0-0.013-0.171-0.858-0.171-0.858c-0.131-0.209-0.337-0.358-0.577-0.478c0.442-0.247,0.755-0.608,0.755-1.161
					c0-0.007,0-0.014,0-0.021c-0.005-0.404-0.146-0.752-0.405-1.007c-0.314-0.306-0.771-0.458-1.361-0.45l-2.805,0.035
					C40.077,4.516,40.083,4.629,40.09,4.742z M41.944,5.064c0.216-0.003,0.498-0.009,0.498-0.009c0.42-0.005,0.64,0.298,0.65,0.899
					c0,0.004,0,0.009,0,0.015c0,0.265-0.059,0.847-0.557,0.896c0,0-0.335,0.003-0.568,0.004C41.962,6.538,41.949,5.396,41.944,5.064
					z"/>
				<path fill="#FFFFFF" d="M46.149,8.737c-0.263,0.466-0.441,0.494-0.441,0.494l-0.07,0.486l0.975,0.153
					c0,0,0.012-0.114,0.022-0.226c0.001-0.003,0.001-0.005,0.001-0.006l0.014,0.001l0.004-0.027L46.641,9.61
					c0.023-0.104,0.045-0.202,0.045-0.202s-0.026-0.004-0.028-0.004c0-0.002,0.003-0.028,0.003-0.028l-0.038-0.02l-0.011-0.161
					c0-0.002,0.098-0.285,0.098-0.285l0.068-0.161c0,0,0.088-0.177,0.158-0.314c0.242,0.038,1.135,0.174,1.385,0.213
					c0.027,0.216,0.082,0.639,0.082,0.639c-0.002-0.014-0.01,0.175-0.01,0.175c-0.025,0.162-0.087,0.167-0.144,0.16
					c0,0-0.004,0.023-0.005,0.025l-0.014-0.001c0,0-0.01,0.094-0.02,0.182c0,0.008-0.002,0.015-0.004,0.024L48.2,9.85l-0.004,0.025
					l0.007,0.001c-0.022,0.119-0.043,0.229-0.043,0.229l2.089,0.321l0.094-0.483c-0.003-0.001-0.26-0.094-0.391-0.848l-0.539-4.097
					l-1.137-0.174l-0.012-0.09l-0.041,0.081l-0.111-0.017l-0.076,0.152L46.149,8.737z M48.241,8.063
					c-0.315-0.048-0.721-0.111-1.041-0.16c0.159-0.317,0.491-0.98,0.803-1.603C48.094,6.989,48.194,7.72,48.241,8.063z"/>
				<path fill="#FFFFFF" d="M51.602,9.822c-0.097,0.294-0.247,0.44-0.41,0.395c0,0-0.008,0.023-0.008,0.024l-0.016-0.004
					c0,0-0.021,0.093-0.043,0.182c-0.004,0.007-0.005,0.012-0.008,0.02l-0.008-0.002l-0.008,0.025l0.008,0.003
					c-0.037,0.113-0.073,0.221-0.073,0.221l2.077,0.607c0,0,0.027-0.112,0.054-0.223c0-0.001,0.001-0.002,0.002-0.004l0.01,0.002
					l0.006-0.026l-0.007-0.002c0.034-0.101,0.067-0.196,0.067-0.196l-0.021-0.005c0.001-0.004,0.007-0.027,0.007-0.027
					c-0.06-0.018-0.172-0.078-0.172-0.298c0-0.069,0.011-0.155,0.039-0.26l0.911-3.122c0.093-0.296,0.244-0.441,0.412-0.394
					c0,0,0.007-0.019,0.007-0.021l0.018,0.005c0,0,0.023-0.099,0.047-0.197c0.002-0.003,0.002-0.005,0.004-0.008l0.009,0.003
					l0.007-0.022l-0.01-0.002c0.038-0.113,0.075-0.222,0.075-0.222L52.5,5.666c0,0-0.027,0.113-0.057,0.227L52.435,5.89
					l-0.007,0.023l0.008,0.003c-0.033,0.101-0.066,0.199-0.066,0.199l0.018,0.004c0,0.003-0.006,0.023-0.006,0.023
					c0.109,0.032,0.167,0.141,0.167,0.305c0,0.075-0.012,0.161-0.036,0.256L51.602,9.822z"/>
				<path fill="#FFFFFF" d="M54.208,11.125c0,0-0.012,0.022-0.012,0.025c-0.002,0-0.02-0.008-0.02-0.008s-0.035,0.093-0.073,0.193
					l-0.009-0.004l-0.01,0.026l0.008,0.003c0,0.003-0.001,0.005-0.002,0.006c-0.049,0.102-0.098,0.205-0.098,0.205l3.596,1.542
					l0.16-0.267l0.623-1.09l-0.602-0.257l-0.102,0.193c-0.014,0.027-0.334,0.635-0.855,0.459c0,0-0.605-0.26-0.883-0.379
					c0.162-0.379,1.445-3.364,1.445-3.364c0.193-0.415,0.402-0.366,0.461-0.34c0,0,0.01-0.021,0.01-0.023
					c0.002,0,0.02,0.007,0.02,0.007s0.035-0.094,0.072-0.193l0.008,0.004l0.012-0.024l-0.01-0.004
					C58,7.726,58.049,7.622,58.049,7.622l-1.996-0.856c0,0-0.041,0.105-0.084,0.218l-0.01-0.003l-0.008,0.024l0.008,0.003
					c0,0.003,0,0.004-0.002,0.006c-0.045,0.089-0.089,0.181-0.089,0.181l0.017,0.007c-0.001,0.002-0.01,0.024-0.01,0.024
					c0.094,0.04,0.141,0.126,0.141,0.251c0,0.089-0.025,0.198-0.076,0.322l-1.279,2.985C54.469,11.2,54.264,11.15,54.208,11.125z"/>
				<path fill="#FFFFFF" d="M60.963,9.227l-0.008-0.005l-0.014,0.023l0.008,0.004c-0.059,0.086-0.119,0.17-0.119,0.17
					s0.016,0.01,0.018,0.01c-0.002,0.003-0.016,0.023-0.016,0.023c0.041,0.026,0.104,0.085,0.104,0.205
					c0,0.087-0.033,0.206-0.131,0.367l-1.74,2.744c-0.172,0.26-0.357,0.358-0.506,0.265c0,0-0.012,0.019-0.014,0.021l-0.014-0.009
					c0,0-0.049,0.085-0.096,0.168c-0.004,0.004-0.006,0.007-0.008,0.012L58.42,13.22l-0.014,0.022l0.006,0.004
					c-0.066,0.099-0.131,0.193-0.131,0.193l1.834,1.164c0,0,0.057-0.1,0.117-0.203l0.008,0.005l0.014-0.022l-0.008-0.005
					c0.061-0.085,0.119-0.17,0.119-0.17L60.35,14.2c0.002-0.003,0.014-0.023,0.014-0.023c-0.041-0.026-0.105-0.087-0.105-0.211
					c0-0.087,0.031-0.207,0.127-0.368c0,0,0.508-0.8,0.686-1.083c0.178,0.112,0.396,0.251,0.396,0.251
					c0.182,0.14,0.275,0.29,0.275,0.478c0,0.186-0.09,0.408-0.27,0.693c-0.201,0.315-0.297,0.571-0.297,0.802
					c0,0.062,0.006,0.123,0.021,0.181c0.096,0.433,0.551,0.719,1.074,1.05l-0.002-0.001l0.109,0.07c0,0,0.014-0.022,0.014-0.025
					l0.002,0.003l0.236-0.37v-0.001c0-0.002,0.014-0.022,0.014-0.022l-0.15-0.179c-0.004-0.017-0.006-0.033-0.006-0.051
					c0-0.155,0.131-0.36,0.191-0.453l0.074-0.119c0-0.001,0.324-0.813,0.324-0.813c0-0.009,0-0.017,0-0.026
					c0-0.207-0.057-0.409-0.158-0.607c0.494,0.021,0.92-0.197,1.213-0.661c0.383-0.604,0.404-1.497-0.684-2.186l-2.369-1.503
					C61.081,9.025,61.024,9.124,60.963,9.227z M63.215,12.125z M62.766,10.769c0.152,0.095,0.24,0.208,0.27,0.348
					c0.01,0.039,0.014,0.081,0.014,0.121c0,0.241-0.137,0.495-0.229,0.637v0.001c-0.137,0.218-0.506,0.698-0.963,0.46
					c0,0-0.279-0.179-0.477-0.306c0.178-0.28,0.787-1.244,0.967-1.524C62.53,10.62,62.766,10.769,62.766,10.769z"/>
				<path fill="none" d="M63.215,12.126"/>
				<path fill="#FFFFFF" d="M66.309,13.372c-0.688,0.04-1.346,0.378-1.852,0.951c-0.477,0.533-0.73,1.17-0.73,1.811
					c0,0.046,0,0.094,0.006,0.141c0.035,0.62,0.309,1.174,0.789,1.6c1.041,0.924,2.525,0.773,3.531-0.359
					c0.508-0.571,0.766-1.265,0.727-1.951c-0.037-0.619-0.311-1.171-0.789-1.596C67.51,13.54,66.928,13.334,66.309,13.372z
					 M66.891,16.484c-0.574,0.648-1.182,1.051-1.621,1.078c-0.152,0.009-0.273-0.028-0.369-0.114
					c-0.004-0.004-0.143-0.331-0.143-0.331c-0.027-0.456,0.301-1.13,0.859-1.759c0.813-0.914,1.613-1.304,1.992-0.967
					c0.102,0.09,0.156,0.211,0.166,0.37C67.801,15.192,67.479,15.821,66.891,16.484z"/>
				<path fill="#FFFFFF" d="M67.323,19.049c-0.508,0.181-0.658,0.083-0.658,0.083l-0.373,0.323l0.637,0.753
					c0,0,0.084-0.08,0.168-0.158c0-0.001,0-0.001,0.002-0.002l0.01,0.01l0.02-0.018l-0.008-0.008
					c0.084-0.064,0.166-0.125,0.166-0.125s-0.016-0.019-0.018-0.021c0.002-0.002,0.02-0.019,0.02-0.019l-0.016-0.039l0.098-0.131
					c0.002,0,0.262-0.149,0.262-0.149l0.154-0.076c0,0,0.184-0.075,0.326-0.133c0.158,0.188,0.742,0.878,0.904,1.072
					c-0.119,0.181-0.357,0.536-0.357,0.536c0.012-0.016-0.119,0.123-0.119,0.123c-0.129,0.108-0.18,0.07-0.215,0.028
					c0,0-0.02,0.015-0.021,0.016l-0.008-0.01c0,0-0.074,0.067-0.146,0.133c-0.004,0.003-0.006,0.005-0.008,0.006l-0.004-0.003
					l-0.02,0.015l0.004,0.005c-0.094,0.074-0.184,0.145-0.184,0.145l1.361,1.616c0,0,0.021-0.016,0.023-0.018
					c0.002,0.001,0.004,0.006,0.004,0.006c0,0,0.064-0.055,0.117-0.103c0.115-0.089,0.244-0.192,0.244-0.192
					c0-0.001-0.021-0.039-0.021-0.124c0-0.131,0.047-0.374,0.287-0.769l2.285-3.441l-0.744-0.881l0.049-0.073l-0.082,0.033
					l-0.072-0.086l-0.158,0.065L67.323,19.049z M68.661,19.113c0.33-0.135,1.014-0.416,1.658-0.681
					c-0.381,0.579-0.789,1.195-0.979,1.484C69.135,19.674,68.872,19.361,68.661,19.113z"/>
				<path fill="#FFFFFF" d="M73.547,21.759l-2.791,1.66c-0.404,0.221-0.543,0.058-0.576,0.002c0,0-0.02,0.011-0.023,0.013
					c0-0.001-0.008-0.017-0.008-0.017s-0.088,0.056-0.174,0.114l-0.006-0.009l-0.021,0.015l0.004,0.008
					c-0.104,0.055-0.205,0.111-0.205,0.111l1.23,2.07c0.682,1.145,2.156,1.436,3.434,0.677c1.307-0.777,1.752-2.187,1.061-3.349
					l-1.23-2.071c0,0-0.098,0.064-0.193,0.127c0,0,0,0-0.002,0l-0.004-0.008l-0.021,0.012l0.004,0.008
					c-0.094,0.051-0.184,0.1-0.184,0.1l0.01,0.016c-0.002,0.002-0.021,0.014-0.021,0.014c0.012,0.019,0.029,0.057,0.029,0.108
					C73.858,21.454,73.801,21.595,73.547,21.759z M74.704,22.876c0.045,0.075,0.092,0.154,0.092,0.154
					c0.117,0.198,0.178,0.384,0.178,0.564c0,0.478-0.424,0.919-1.357,1.474c-0.766,0.456-1.338,0.627-1.75,0.521
					c-0.242-0.062-0.438-0.22-0.596-0.485c0,0-0.041-0.072-0.078-0.138C71.53,24.766,74.362,23.08,74.704,22.876z"/>
				<path fill="#FFFFFF" d="M11.003,63.173l0.096,0.145c0.001,0,0.561,0.541,0.561,0.541c0.001,0,0.6,0.193,0.6,0.193
					c-0.004,0,0.532-0.015,0.532-0.015c0.001,0,0.394-0.104,0.394-0.104c0,0.001,0,0.001,0,0.001c0-0.004,0.281-0.137,0.281-0.137
					c0-0.001,0.067-0.063,0.127-0.115c0.071,0.088,0.155,0.192,0.155,0.192c0.001,0,0.341,0.262,0.341,0.262
					c0-0.001,0.447,0.147,0.447,0.147c0.015,0.002,0.568-0.143,0.568-0.143l0.253-0.29c-0.003,0.007,0.053-0.415,0.053-0.415
					c0-0.004-0.103-0.258-0.103-0.258l-0.336-0.254c-0.009-0.004-0.428-0.018-0.428-0.018c-0.011,0.002-0.483,0.02-0.483,0.02
					l-0.426-0.213c0.007,0.006-0.187-0.123-0.187-0.123c-0.001,0-0.278-0.06-0.278-0.06l-0.335,0.11
					c-0.001,0-0.372,0.233-0.372,0.233c0.002-0.002-0.394,0.175-0.394,0.175c-0.011,0.003-0.339,0.047-0.339,0.047
					c-0.064-0.007-0.113-0.037-0.156-0.1l-0.056-0.104l0.009-0.271c0,0.002,0.224-0.348,0.224-0.348
					c0.001,0,0.366-0.317,0.366-0.317l0.396-0.195c0.001,0,0.126-0.016,0.126-0.016c0.057,0.079,0.228,0.279,0.228,0.279
					c0.093,0.107,0.232,0.154,0.371,0.115l0.038-0.011l0.098-0.055c0.151-0.104,0.188-0.238,0.192-0.333
					c0-0.002-0.036-0.246-0.036-0.246c-0.053-0.172-0.035-0.329,0.057-0.496l0.418-0.467l0.465-0.18
					c0.127-0.014,0.224,0.02,0.313,0.107c0.047,0.049,0.088,0.201,0.088,0.201c-0.001,0.002-0.091,0.221-0.091,0.221
					c-0.001,0-0.217,0.207-0.217,0.207l-0.109,0.063c-0.012,0.006-0.204,0.191-0.204,0.191c-0.006,0.008-0.123,0.273-0.123,0.273
					c0,0.016,0.12,0.498,0.12,0.498l0.028,0.112l0.068,0.003l0.45,0.194c0.003-0.001,0.348-0.116,0.348-0.116
					c0.002-0.001,0.228-0.208,0.228-0.208c0-0.003,0.223-0.509,0.223-0.509c0.001-0.004,0.011-0.725,0.011-0.725l-0.001,0.047
					l-0.297-0.727l-0.063-0.092c0-0.002-0.583-0.566-0.583-0.566c-0.003-0.001-0.788-0.237-0.788-0.237
					c-0.287-0.007-0.577,0.073-0.866,0.236c-0.071,0.05-0.472,0.474-0.472,0.474l-0.179,0.482c0,0,0.003,0.051,0.003,0.068
					c-0.158-0.059-0.319-0.116-0.319-0.116c-0.286-0.025-0.586,0.045-0.891,0.21c-0.081,0.05-0.54,0.628-0.54,0.628
					c-0.002,0.004-0.068,0.683-0.068,0.683l0.172,0.658L11.003,63.173z"/>
				<path fill="#FFFFFF" d="M18.437,71.267l2.774-2.97c-0.011,0.011,0.226-0.152,0.226-0.152c0,0,0.138-0.026,0.138-0.026
					l0.136,0.061l-0.014-0.012c0,0,0.018-0.018,0.02-0.019c0.001,0.001,0.026,0.024,0.026,0.024s0.069-0.078,0.138-0.153
					l0.004,0.004l0.018-0.021L21.899,68c0.033-0.037,0.066-0.074,0.087-0.1c0.024-0.021,0.076-0.068,0.076-0.068l-0.859-0.802
					c0,0-0.076,0.085-0.155,0.175l-0.005-0.004l-0.02,0.02l0.005,0.004c-0.018,0.02-0.035,0.04-0.051,0.059
					c-0.038,0.036-0.094,0.088-0.094,0.088l0.008,0.008c-0.002,0.002-0.018,0.02-0.018,0.02l0.047,0.057
					c0.012,0.033,0.015,0.083,0.015,0.127c0,0.047-0.003,0.088-0.003,0.088c0-0.004-0.128,0.23-0.128,0.23s-0.882,0.943-1.35,1.443
					c-0.025-0.867-0.119-4.057-0.119-4.057l-0.54-0.504c0,0-0.078,0.088-0.154,0.176l-0.005-0.006l-0.018,0.018l0.004,0.006
					l0.002,0.002c-0.044,0.051-0.088,0.101-0.112,0.128c-0.006,0.003-0.036,0.019-0.036,0.019l0.011,0.01
					c-0.003,0.002-0.021,0.024-0.021,0.024l-0.002-0.005c0.009,0.045-0.026,0.238-0.026,0.238c-0.001,0-0.175,0.341-0.175,0.341
					l-0.411,0.505l-1.764,1.891c0.013-0.012-0.223,0.151-0.223,0.151c-0.005,0.002-0.144,0.029-0.144,0.029
					c-0.075-0.021-0.14-0.063-0.14-0.063s-0.017,0.017-0.019,0.019l-0.011-0.011c0,0-0.055,0.067-0.102,0.124
					c-0.011,0.011-0.021,0.021-0.032,0.031l-0.005-0.005l-0.02,0.021l0.005,0.006c-0.085,0.083-0.165,0.164-0.165,0.164l0.862,0.805
					c0,0,0.075-0.088,0.15-0.174c0.002,0,0.002-0.002,0.003-0.003l0.006,0.007l0.021-0.018l-0.008-0.008
					c0.076-0.076,0.147-0.146,0.147-0.146L16.4,69.044c0.001-0.001,0.017-0.02,0.017-0.02l-0.04-0.053
					c-0.016-0.049-0.02-0.109-0.02-0.151c0-0.03,0.002-0.05,0.002-0.05c0.001-0.01,0.131-0.241,0.131-0.241s0.867-0.927,1.329-1.423
					c0.03,0.861,0.155,4.502,0.155,4.502L18.437,71.267z"/>
				<path fill="#FFFFFF" d="M23.589,74.65c-0.001-0.002-0.191-0.197,0.018-0.932l1.289-3.925l-0.947-0.651l0.026-0.082l-0.07,0.054
					l-0.093-0.065l-0.135,0.105l-3.341,2.592c-0.367,0.256-0.566,0.271-0.612,0.255l-0.274,0.408l0.816,0.56
					c0,0,0.054-0.092,0.106-0.18c0.006-0.008,0.01-0.014,0.016-0.021l0.01,0.007l0.015-0.022l-0.008-0.005
					c0.064-0.085,0.126-0.164,0.126-0.164s-0.023-0.017-0.026-0.018c0.002-0.003,0.015-0.023,0.015-0.023l-0.025-0.032l0.06-0.15
					c0.001-0.001,0.204-0.207,0.204-0.207l0.141-0.124c0,0,0.155-0.119,0.276-0.213c0.202,0.139,0.948,0.649,1.158,0.793
					c-0.069,0.205-0.203,0.609-0.203,0.609c0.004-0.014-0.087,0.158-0.087,0.158c0.003-0.004-0.116,0.1-0.116,0.1
					s-0.031,0.031-0.038,0.039c-0.005-0.004-0.068-0.047-0.068-0.047s-0.056,0.087-0.111,0.175l-0.007-0.005l-0.014,0.023
					l0.006,0.004c-0.037,0.057-0.071,0.111-0.085,0.135c-0.013,0.013-0.053,0.053-0.053,0.053l1.741,1.193L23.589,74.65z
					 M22.512,72.044c-0.261-0.179-0.601-0.41-0.868-0.594c0.282-0.219,0.868-0.672,1.419-1.096
					C22.848,71.015,22.619,71.714,22.512,72.044z"/>
				<path fill="#FFFFFF" d="M29.1,72.151c0,0-0.048,0.104-0.099,0.212l-0.008-0.004l-0.014,0.024l0.01,0.005
					c-0.052,0.088-0.103,0.179-0.103,0.179s0.016,0.007,0.016,0.008c-0.001,0.002-0.012,0.024-0.012,0.024
					c0.013,0.007,0.035,0.019,0.035,0.059c0,0.027-0.011,0.068-0.042,0.128l-0.204,0.269l-0.094,0.107c0,0-1.285,1.274-1.944,1.928
					c0.184-0.945,0.568-2.943,0.569-2.947c0,0.007,0.065-0.168,0.065-0.168c-0.002,0.004,0.108-0.117,0.108-0.117
					s0.023-0.031,0.027-0.037c0.006,0.002,0.075,0.038,0.075,0.038s0.047-0.097,0.096-0.194l0.002,0.002l0.008-0.016l-0.004-0.002
					c0.041-0.082,0.081-0.162,0.087-0.176c0.004-0.004,0.023-0.029,0.023-0.029l-1.879-0.967l-0.008,0.016
					c-0.001,0-0.003-0.002-0.004-0.002c0,0-0.029,0.06-0.046,0.093c-0.065,0.118-0.174,0.317-0.174,0.317
					c0.002,0.002,0.134,0.104,0.134,0.521c0,0.111-0.009,0.244-0.032,0.404l-0.793,4.057c0,0,1.012,0.519,1.017,0.521
					c-0.003,0.017-0.016,0.082-0.016,0.082s0.048-0.047,0.061-0.059c0.043,0.021,0.109,0.056,0.109,0.056l3.104-3.103
					c0.394-0.369,0.572-0.342,0.574-0.342l0.222-0.44L29.1,72.151z"/>
				<path fill="#FFFFFF" d="M31.463,78.171l-0.017-0.006c0.001-0.002,0.008-0.026,0.008-0.026c-0.104-0.036-0.157-0.133-0.157-0.274
					c0-0.084,0.018-0.181,0.054-0.292l1.078-3.067c0.111-0.293,0.267-0.427,0.436-0.369c0,0,0.008-0.021,0.008-0.021
					c0.001,0,0.015,0.004,0.015,0.004s0.026-0.09,0.052-0.176c0.003-0.009,0.006-0.016,0.01-0.024l0.008,0.003l0.007-0.022
					l-0.007-0.003c0.044-0.111,0.085-0.217,0.085-0.217l-2.042-0.719c0,0-0.033,0.109-0.066,0.219
					c-0.001,0.001-0.001,0.003-0.002,0.005l-0.01-0.004l-0.007,0.024l0.007,0.002c-0.041,0.1-0.078,0.193-0.078,0.193
					s0.02,0.008,0.021,0.008c-0.001,0.002-0.007,0.024-0.007,0.024c0.042,0.015,0.149,0.071,0.149,0.276
					c0,0.074-0.014,0.17-0.052,0.291l-1.078,3.063c-0.167,0.429-0.369,0.394-0.426,0.373c0,0-0.009,0.022-0.01,0.023l-0.02-0.007
					c0,0-0.029,0.098-0.06,0.199l-0.008-0.002l-0.009,0.023l0.009,0.004c-0.001,0.001-0.001,0.004-0.002,0.006
					c-0.042,0.104-0.085,0.21-0.085,0.21l2.041,0.718c0,0,0.034-0.109,0.069-0.223l0.009,0.004l0.009-0.026l-0.008-0.003
					C31.426,78.265,31.463,78.171,31.463,78.171z"/>
				<path fill="#FFFFFF" d="M34.941,79.562c0.012,0.002,0.763,0.041,0.763,0.041c0.001,0,0.341,0.01,0.341,0.01l0.065,0.017
					l0.702,0.409l0.1-0.292l0.296-1.382c0.108-0.434,0.31-0.439,0.391-0.42c0,0,0.003-0.018,0.004-0.019l0.02,0.004
					c0,0,0.019-0.104,0.037-0.212l0.008,0.001l0.004-0.017l-0.01-0.002c0.001-0.004,0.002-0.007,0.002-0.01
					c0.028-0.107,0.056-0.217,0.056-0.217l-2.125-0.454c0,0-0.02,0.111-0.041,0.229l-0.007-0.002l-0.004,0.016l0.008,0.002
					c-0.002,0.016-0.005,0.03-0.008,0.045c-0.021,0.078-0.045,0.166-0.045,0.166l0.014,0.004c0,0.001-0.002,0.014-0.002,0.014
					c0.131,0.031,0.198,0.148,0.198,0.338c0,0.063-0.008,0.133-0.023,0.212l-0.042,0.196c0,0-0.151,0.564-0.214,0.797
					c-0.096,0-0.194-0.001-0.194-0.001c-0.001-0.001-0.114-0.038-0.114-0.038c-0.509-0.244-0.687-0.924-0.687-1.6
					c0-0.155,0.009-0.311,0.027-0.461c0-0.006,0.04-0.234,0.04-0.234c0.208-0.98,0.91-1.8,1.445-1.689
					c0,0.001,0.358,0.115,0.358,0.115c0.451,0.188,0.522,0.611,0.522,0.862c0,0.108-0.013,0.185-0.015,0.194l-0.042,0.223
					l0.627,0.139l0.511-2.386l-0.634,0.762l-0.052,0.062c-0.011-0.002-0.522-0.318-0.522-0.318
					c-0.004-0.003-0.661-0.216-0.661-0.216c-1.401-0.292-2.778,0.61-3.078,2.011C32.662,77.86,33.55,79.251,34.941,79.562z"/>
				<path fill="#FFFFFF" d="M42.633,80.474c0,0,0.002-0.027,0.004-0.031c0.002,0,0.012,0.004,0.014,0.004
					c0,0,0.004-0.117,0.008-0.233c0.012-0.116,0.023-0.231,0.023-0.231c-0.004-0.001-0.264-0.073-0.458-0.811l-0.88-4.037
					l-1.149-0.078l-0.018-0.086l-0.033,0.082l-0.113-0.008l-0.063,0.157l-1.563,3.93c-0.223,0.487-0.398,0.53-0.399,0.53
					l-0.028,0.492l0.984,0.068c0,0,0.002-0.113,0.005-0.234l0.011,0.002l0.001-0.028l-0.012-0.001c0-0.006,0-0.01,0-0.016
					c0.013-0.093,0.026-0.188,0.026-0.188s-0.021-0.002-0.022-0.002c0-0.004,0.001-0.028,0.001-0.028
					c-0.024-0.001-0.072-0.007-0.072-0.135c0-0.013,0-0.027,0.001-0.044l0.07-0.278l0.059-0.181c0,0,0.074-0.181,0.131-0.322
					c0.245,0.017,1.146,0.078,1.399,0.096c0.045,0.213,0.134,0.627,0.134,0.627c0-0.001,0,0,0,0.006c0,0.029,0.006,0.17,0.006,0.17
					c0,0.002-0.05,0.152-0.05,0.152s-0.01,0.041-0.013,0.05c-0.005-0.001-0.083-0.005-0.083-0.005s-0.004,0.104-0.006,0.208
					l-0.008-0.001l-0.001,0.025l0.008,0.001c-0.001,0.062-0.003,0.121-0.004,0.151c-0.004,0.021-0.02,0.08-0.02,0.08L42.633,80.474z
					 M40.432,78.285c-0.316-0.021-0.726-0.049-1.049-0.07c0.132-0.332,0.407-1.018,0.666-1.665
					C40.198,77.228,40.357,77.947,40.432,78.285z"/>
				<path fill="#FFFFFF" d="M46.476,80.044c0-0.006,0-0.012,0-0.019h0.009L46.483,80h-0.008c-0.002-0.106-0.005-0.207-0.005-0.207
					l-0.021,0.002c0-0.003-0.003-0.025-0.003-0.025c-0.064,0.004-0.277-0.016-0.32-0.482c0,0-0.205-3.238-0.23-3.65
					c0.258-0.017,0.674-0.043,0.674-0.043c0.53,0.012,0.635,0.702,0.639,0.732l0.029,0.212l0.66-0.036l-0.293-1.551l-0.207,0.014
					l-4.85,0.306v0.329l-0.078,1.24l0.653-0.038l0.002-0.22c0-0.029,0.014-0.727,0.562-0.807c0,0,0.408-0.025,0.663-0.041
					c0.025,0.412,0.231,3.658,0.231,3.658c0,0.015,0,0.028,0,0.041c0,0.419-0.197,0.465-0.26,0.469c0,0,0,0.024,0,0.027l-0.02,0.002
					c0,0,0.011,0.1,0.022,0.205h-0.009l0.002,0.027l0.01-0.002c0.002,0.119,0.004,0.234,0.004,0.234l2.168-0.138
					C46.499,80.258,46.487,80.15,46.476,80.044z"/>
				<path fill="#FFFFFF" d="M51.567,78.972c0,0-0.02,0.003-0.021,0.004c-0.001-0.003-0.007-0.026-0.007-0.026
					c-0.063,0.013-0.271,0.021-0.375-0.434l-0.646-3.187c-0.014-0.074-0.02-0.14-0.02-0.194c0-0.282,0.146-0.335,0.197-0.345
					c0,0-0.002-0.022-0.004-0.025c0.002,0,0.022-0.004,0.022-0.004s-0.024-0.1-0.05-0.203l0.008-0.002l-0.004-0.023l-0.011,0.002
					c-0.001-0.005-0.001-0.008-0.003-0.013c-0.016-0.108-0.033-0.218-0.033-0.218l-2.121,0.43c0,0,0.027,0.112,0.056,0.227
					l-0.009,0.002l0.006,0.023l0.008-0.003c0.017,0.106,0.032,0.208,0.032,0.208l0.019-0.004c0.001,0.002,0.007,0.023,0.007,0.023
					c0.06-0.013,0.267-0.019,0.376,0.435l0.645,3.185c0.012,0.074,0.018,0.137,0.018,0.191c0,0.273-0.132,0.336-0.197,0.35
					c0,0,0.004,0.024,0.004,0.027l-0.016,0.004c0,0,0.024,0.098,0.049,0.193c0,0.002,0.001,0.004,0.001,0.006l-0.009,0.002
					l0.005,0.026l0.009-0.001c0.02,0.118,0.037,0.23,0.037,0.23l2.119-0.43c0,0-0.027-0.109-0.053-0.217
					c-0.002-0.004-0.002-0.006-0.002-0.01l0.009-0.002l-0.004-0.027L51.6,79.175C51.583,79.071,51.567,78.972,51.567,78.972z"/>
				<path fill="#FFFFFF" d="M55.11,78.433c1.32-0.441,1.932-1.805,1.451-3.24c-0.242-0.727-0.715-1.295-1.33-1.602
					c-0.557-0.277-1.17-0.314-1.779-0.111c-0.607,0.201-1.076,0.602-1.353,1.158c-0.173,0.345-0.261,0.729-0.261,1.129
					c0,0.313,0.054,0.633,0.16,0.951c0.244,0.727,0.716,1.296,1.331,1.604C53.886,78.597,54.502,78.636,55.11,78.433z
					 M53.477,76.228c-0.281-0.841-0.332-1.549-0.137-1.941c0.068-0.138,0.164-0.226,0.289-0.268c0.484-0.16,1.07,0.51,1.459,1.667
					c0.162,0.486,0.245,0.938,0.245,1.308c0,0.258-0.04,0.475-0.122,0.637c-0.066,0.136-0.158,0.221-0.281,0.262
					c-0.002,0.002-0.358-0.043-0.358-0.043C54.163,77.644,53.743,77.024,53.477,76.228z"/>
				<path fill="#FFFFFF" d="M59.674,76.596c0,0-0.059-0.101-0.117-0.202l0.01-0.005l-0.014-0.024l-0.008,0.004
					c-0.045-0.095-0.088-0.187-0.088-0.187s-0.016,0.009-0.018,0.009c0-0.002-0.014-0.022-0.014-0.022l-0.061,0.019
					c-0.084,0.002-0.201-0.051-0.201-0.051c-0.004-0.002-0.184-0.203-0.184-0.203s-0.584-1.126-0.896-1.727
					c0.822,0.258,4.297,1.35,4.297,1.35l-0.17-0.545l-1.877-3.605c0,0,0.002,0.001,0.002,0c0-0.009-0.07-0.264-0.07-0.264
					l0.02-0.136l0.104-0.109l-0.004,0.002c0,0-0.01-0.022-0.012-0.024c0.002-0.001,0.021-0.012,0.021-0.012s-0.049-0.087-0.102-0.18
					l0.008-0.005l-0.014-0.022L60.28,70.66c-0.006-0.008-0.01-0.016-0.014-0.023c-0.041-0.092-0.086-0.188-0.086-0.188l-1.043,0.543
					c0,0,0.027,0.044,0.033,0.058c0.012,0.022,0.045,0.084,0.076,0.148l-0.002,0.001l0.014,0.023V71.22
					c0.049,0.094,0.094,0.186,0.094,0.186s0.023-0.013,0.025-0.013c0.002,0.002,0.014,0.022,0.014,0.022l0.061-0.021
					c0.068,0.003,0.199,0.063,0.199,0.063c0,0.002,0.174,0.197,0.174,0.197s0.596,1.147,0.912,1.756
					c-0.826-0.265-3.867-1.238-3.867-1.238l-0.654,0.342c0,0,0.061,0.101,0.119,0.201l-0.012,0.006l0.014,0.022l0.006-0.003
					l0.004-0.002c0.029,0.051,0.059,0.099,0.076,0.132c0.002,0.013,0.01,0.058,0.01,0.058l0.018-0.01
					c0.004,0.004,0.02,0.03,0.02,0.03l-0.012,0.002c0.045,0.007,0.217,0.104,0.217,0.104l0.262,0.277
					c-0.002-0.002,0.34,0.557,0.34,0.557l1.193,2.292c0,0.009,0.07,0.261,0.07,0.261l-0.02,0.145
					c-0.043,0.063-0.107,0.111-0.107,0.111s0.01,0.021,0.012,0.022c-0.002,0-0.012,0.007-0.012,0.007s0.039,0.065,0.068,0.113
					c0.012,0.022,0.023,0.045,0.033,0.068l-0.006,0.002l0.012,0.023l0.006-0.004c0.051,0.107,0.102,0.211,0.102,0.211L59.674,76.596
					z M59.497,76.635C59.497,76.635,59.497,76.635,59.497,76.635z"/>
				<path fill="#FFFFFF" d="M68.084,69.348c0-0.004,0-0.008,0-0.013c0,0-0.041,0.016-0.055,0.02
					c-0.049,0.006-0.105,0.015-0.162,0.021l-0.014-0.004c0,0.002,0,0.004,0,0.006c-0.121,0.016-0.23,0.03-0.23,0.03
					c0.014,0.099,0.023,0.193,0.023,0.283c0,0.365-0.127,0.66-0.375,0.863l-0.311,0.181c-0.234,0.096-0.848,0.264-1.516-0.24
					c0-0.002-0.232-0.212-0.232-0.212c-0.049-0.046-0.076-0.075-0.076-0.075l-0.148-0.161c-0.588-0.719-0.807-1.737-0.453-2.134
					l0.131-0.107l0.188-0.113c0.607-0.336,1.123,0.236,1.145,0.262l0.15,0.17l0.488-0.403l-0.957-1.163l-0.387,0.256l0.016,0.074
					c-0.008,0.004-0.574,0.21-0.574,0.21c-0.002,0.002-0.547,0.358-0.547,0.358c-1.119,0.932-1.258,2.529-0.332,3.654l0.4,0.396
					l0.445,0.291c0.012,0.007,0.502,0.191,0.502,0.191c0.01,0.002,0.51,0.084,0.51,0.084c0.008,0,0.533-0.021,0.533-0.021
					c-0.002,0,0.512-0.126,0.512-0.126c0.01-0.003,0.496-0.247,0.496-0.247l-0.01,0.004l0.262-0.191l0.346-0.358
					c0.24-0.306,0.389-0.755,0.391-1.196c0,0.016-0.064-0.602-0.064-0.602S68.11,69.345,68.084,69.348z"/>
				<path fill="#FFFFFF" d="M71.182,64.048c-1.113-0.99-2.641-0.965-3.551,0.059c-0.912,1.022-0.76,2.542,0.352,3.533
					c1.133,1.006,2.625,0.98,3.553-0.061C72.461,66.539,72.313,65.053,71.182,64.048z M68.053,64.488
					c0.342-0.381,1.184-0.092,2.096,0.721c0.646,0.576,1.049,1.182,1.076,1.623c0.006,0.152-0.031,0.273-0.115,0.369
					c-0.314,0.351-1.25,0.026-2.09-0.722C68.108,65.665,67.719,64.865,68.053,64.488z"/>
				<path fill="#FFFFFF" d="M74.129,64.001c0-0.002-0.268-0.43-0.268-0.43c-0.002,0-0.486-0.115-0.486-0.115l-0.43,0.268
					c-0.002,0-0.115,0.487-0.115,0.487c0.002,0,0.264,0.429,0.264,0.429c0.002,0.002,0.488,0.117,0.488,0.117l0.434-0.267
					C74.014,64.492,74.129,64.001,74.129,64.001z"/>
				<path fill="#34B3D1" d="M42.704,71.935c16.121,0,29.234-13.113,29.234-29.232c0-16.12-13.113-29.234-29.234-29.234
					c-16.121,0-29.236,13.114-29.236,29.234C13.468,58.822,26.583,71.935,42.704,71.935z M15.546,42.68
					c0-5.769,2.488-9.957,5.915-9.957c3.421,0,5.905,4.188,5.905,9.957c0,5.771-2.484,9.958-5.905,9.958
					C18.034,52.638,15.546,48.451,15.546,42.68z M47.918,32.711h0.282c0.726,0,1.384,0.219,1.956,0.652l0.002,0.001
					c0.532,0.407,0.98,0.905,1.335,1.483c0.341,0.572,0.565,1.137,0.663,1.669l0.094,1.008c0,0-0.196,1.104-0.197,1.106
					c-0.163,0.428-0.479,0.73-1.023,0.919l-0.33,0.045c-0.321,0-0.785-0.112-1.179-0.671c0,0-0.31-0.777-0.312-0.79
					c0,0-0.093-0.848-0.093-0.868l0.024-0.563c0,0-0.146-1.391-0.146-1.394c-0.094-0.407-0.232-0.739-0.414-0.995
					c-0.149-0.219-0.281-0.248-0.376-0.248c0,0-0.114,0.034-0.149,0.045c-0.323,0.099-0.58,0.427-0.761,0.973
					c-0.219,0.66-0.325,1.388-0.325,2.227c0,0.939,0.141,1.849,0.417,2.704c0.248,0.767,0.604,1.268,1.063,1.489
					c0,0,0.526,0.4,0.53,0.404c0.197,0.229,0.297,0.545,0.296,0.983l-0.034,0.348c-0.078,0.375-0.327,0.636-0.648,0.707
					c0,0-0.658,0.112-0.69,0.113c0,0-0.192,0.029-0.208,0.02c-0.008,0.008-0.143,0.123-0.26,0.711
					c-0.117,0.557-0.174,1.191-0.174,1.943c0,0,0.152,2.062,0.152,2.066c0.101,0.665,0.258,1.245,0.465,1.719
					c0.182,0.402,0.394,0.656,0.708,0.791c0,0,0.082,0.008,0.182,0.008c0.079,0,0.265,0,0.462-0.375
					c0.203-0.384,0.348-0.841,0.444-1.408c0,0,0.21-1.856,0.21-1.852l0.042-1.782c0,0,0.179-1.015,0.179-1.019
					c0,0,0.432-0.658,0.443-0.669c0,0,0.512-0.333,0.51-0.332c0.427-0.185,0.793-0.517,1.088-0.987
					c0.318-0.505,0.555-1.111,0.709-1.813c0.119-0.468,0.291-0.842,0.536-1.153c0.364-0.434,0.754-0.525,1.018-0.525
					c0,0,0.703,0.241,0.704,0.24c0.322,0.22,0.555,0.54,0.689,0.938l0.197,1.184c0,0.636-0.137,1.236-0.418,1.808
					c-0.267,0.469-0.565,0.832-0.877,1.072c-0.33,0.27-0.676,0.448-1.035,0.532c0,0-0.585,0.072-0.842,0.101
					c0.037,0.104,0.066,0.182,0.067,0.187l0.081,0.94c0,0-0.099,1.063-0.099,1.091c0,0-0.317,1.405-0.319,1.41
					c0,0-0.67,1.666-0.668,1.661c-0.291,0.567-0.689,1.059-1.184,1.459c-0.514,0.424-1.166,0.637-1.938,0.637h-0.44
					c-0.481,0-1.017-0.098-1.588-0.289c-0.588-0.192-1.116-0.489-1.609-0.904c-0.51-0.42-0.928-0.975-1.242-1.646
					c-0.326-0.697-0.484-1.498-0.484-2.463l0.009-0.309c0.081-1.26,0.329-2.304,0.74-3.1c0.304-0.594,0.632-0.982,0.977-1.28
					c-0.151-0.15-0.312-0.225-0.456-0.447c-0.28-0.417-0.504-0.918-0.682-1.524c-0.186-0.588-0.279-1.26-0.279-1.997v-0.289
					c0.061-1.207,0.281-2.244,0.658-3.086c0.396-0.866,0.893-1.503,1.521-1.95C46.524,32.936,47.206,32.711,47.918,32.711z
					 M36.998,48.037c0-2.885-0.542-4.242-1.698-4.397c0,0-0.788,0-1.292,0c0,0.795,0,5.595,0,5.595
					c0.036,1.932,0.57,2.441,0.848,2.441h0.518v1.043h-6.381v-0.575l0.049-0.468h0.467c0.221,0,0.8-0.438,0.824-2.434v-12.97
					c-0.023-2.002-0.603-2.441-0.824-2.441h-0.516V32.79h0.467h7.03c2.671,0,4.265,2.033,4.265,5.438
					c0,2.411-0.82,4.056-2.259,4.845c0.793,0.481,1.448,1.12,1.815,2.073c0.354,0.98,0.354,2.121,0.354,3.128v0.558
					c0,1.994,0.289,2.844,0.965,2.844h0.467v1.043h-0.792C38.475,52.718,36.998,52.511,36.998,48.037z M69.459,33.364l-0.154,0.372
					c0,0-0.523,0.142-0.525,0.142l-0.186,0.167c0,0-0.295,0.632-0.295,0.633c0,0-0.189,1.341-0.189,1.323v16.677h-0.982
					c0,0-5.893-9.366-7.266-11.547c0,2.282,0,8.462,0,8.462s0.203,1.253,0.205,1.26c0,0,0.285,0.568,0.285,0.569
					c0,0,0.193,0.171,0.193,0.172l0.162,0.044l0.504,0.111v0.929h-3.891v-0.573l0.154-0.374c0,0,0.52-0.138,0.521-0.138
					c0,0,0.188-0.168,0.189-0.168c0-0.001,0.293-0.645,0.295-0.65c0,0,0.189-1.338,0.189-1.322V39.142l-0.123-2.717l-0.289-1.614
					c0,0-0.318-0.774-0.318-0.778c0,0-0.152-0.187-0.127-0.173l-0.109-0.042l-0.383-0.132V32.79h2.334c0,0,5.891,9.459,7.262,11.665
					c0.002-2.306,0.002-8.591,0.002-8.591s-0.201-1.232-0.201-1.237c0,0-0.301-0.609-0.289-0.596c0,0-0.193-0.17-0.195-0.171
					l-0.141-0.029l-0.518-0.088V32.79h3.418h0.467V33.364z"/>
				<path fill="#34B3D1" d="M19.213,42.695c0,5.611,1.3,8.6,2.249,8.6c1.089,0,2.248-3.02,2.248-8.614
					c0-5.917-1.17-8.612-2.256-8.612C20.34,34.068,19.213,37.03,19.213,42.695z"/>
				<path fill="#34B3D1" d="M37.089,38.212c0-1.226-0.168-4.078-1.72-4.078c0,0-0.845,0.006-1.36,0.01c0,0.79,0,7.339,0,8.126
					c0.545,0.005,1.526,0.015,1.526,0.015C36.682,42.128,37.089,39.993,37.089,38.212z"/>
				<path d="M42.704,73.802c17.15,0,31.102-13.95,31.102-31.1S59.854,11.601,42.704,11.601c-17.15,0-31.103,13.953-31.103,31.102
					S25.554,73.802,42.704,73.802z M42.704,13.468c16.121,0,29.234,13.114,29.234,29.234c0,16.119-13.113,29.232-29.234,29.232
					c-16.121,0-29.236-13.113-29.236-29.232C13.468,26.583,26.583,13.468,42.704,13.468z"/>
				<path d="M21.461,52.638c3.421,0,5.905-4.188,5.905-9.958c0-5.769-2.484-9.957-5.905-9.957c-3.427,0-5.915,4.188-5.915,9.957
					C15.546,48.451,18.034,52.638,21.461,52.638z M21.453,34.068c1.086,0,2.256,2.695,2.256,8.612c0,5.595-1.158,8.614-2.248,8.614
					c-0.948,0-2.249-2.988-2.249-8.6C19.213,37.03,20.34,34.068,21.453,34.068z"/>
				<path d="M41.306,52.718h0.792v-1.043H41.63c-0.677,0-0.965-0.85-0.965-2.844v-0.558c0-1.007,0-2.147-0.354-3.128
					c-0.367-0.953-1.022-1.592-1.815-2.073c1.439-0.789,2.259-2.434,2.259-4.845c0-3.405-1.594-5.438-4.265-5.438h-7.03h-0.467
					v1.041h0.516c0.221,0,0.8,0.439,0.824,2.441v12.97c-0.023,1.996-0.603,2.434-0.824,2.434h-0.467l-0.049,0.468v0.575h6.381
					v-1.043h-0.518c-0.278,0-0.813-0.51-0.848-2.441c0,0,0-4.8,0-5.595c0.503,0,1.292,0,1.292,0
					c1.155,0.155,1.698,1.513,1.698,4.397C36.998,52.511,38.475,52.718,41.306,52.718z M34.008,42.271c0-0.788,0-7.336,0-8.126
					c0.516-0.004,1.36-0.01,1.36-0.01c1.552,0,1.72,2.852,1.72,4.078c0,1.781-0.407,3.916-1.554,4.073
					C35.535,42.286,34.554,42.276,34.008,42.271z"/>
				<path d="M44.37,35.33c-0.377,0.842-0.598,1.879-0.658,3.086v0.289c0,0.737,0.094,1.409,0.279,1.997
					c0.178,0.605,0.401,1.107,0.682,1.524c0.145,0.222,0.305,0.296,0.456,0.447c-0.345,0.298-0.673,0.687-0.977,1.28
					c-0.411,0.796-0.659,1.84-0.74,3.1l-0.009,0.309c0,0.965,0.158,1.766,0.484,2.463c0.314,0.672,0.732,1.227,1.242,1.646
					c0.493,0.415,1.021,0.712,1.609,0.904c0.571,0.191,1.106,0.289,1.588,0.289h0.44c0.772,0,1.425-0.213,1.938-0.637
					c0.494-0.4,0.893-0.892,1.184-1.459c-0.002,0.005,0.668-1.661,0.668-1.661c0.002-0.005,0.319-1.41,0.319-1.41
					c0-0.028,0.099-1.091,0.099-1.091l-0.081-0.94c-0.001-0.005-0.03-0.083-0.067-0.187c0.257-0.028,0.842-0.101,0.842-0.101
					c0.359-0.084,0.705-0.263,1.035-0.532c0.312-0.24,0.61-0.604,0.877-1.072c0.281-0.571,0.418-1.171,0.418-1.808l-0.197-1.184
					c-0.135-0.399-0.367-0.719-0.689-0.938c-0.001,0.001-0.704-0.24-0.704-0.24c-0.264,0-0.653,0.091-1.018,0.525
					c-0.245,0.312-0.417,0.686-0.536,1.153c-0.154,0.702-0.391,1.308-0.709,1.813c-0.295,0.471-0.661,0.803-1.088,0.987
					c0.002-0.001-0.51,0.332-0.51,0.332c-0.012,0.011-0.443,0.669-0.443,0.669c0,0.004-0.179,1.019-0.179,1.019l-0.042,1.782
					c0-0.005-0.21,1.852-0.21,1.852c-0.097,0.567-0.241,1.024-0.444,1.408c-0.197,0.375-0.383,0.375-0.462,0.375
					c-0.1,0-0.182-0.008-0.182-0.008c-0.314-0.135-0.526-0.389-0.708-0.791c-0.207-0.474-0.364-1.054-0.465-1.719
					c0-0.005-0.152-2.066-0.152-2.066c0-0.752,0.057-1.387,0.174-1.943c0.117-0.588,0.252-0.703,0.26-0.711
					c0.016,0.01,0.208-0.02,0.208-0.02c0.032-0.001,0.69-0.113,0.69-0.113c0.321-0.071,0.57-0.332,0.648-0.707l0.034-0.348
					c0.001-0.438-0.099-0.754-0.296-0.983c-0.004-0.003-0.53-0.404-0.53-0.404c-0.458-0.222-0.814-0.722-1.063-1.489
					c-0.276-0.855-0.417-1.765-0.417-2.704c0-0.839,0.106-1.567,0.325-2.227c0.181-0.545,0.438-0.874,0.761-0.973
					c0.035-0.012,0.149-0.045,0.149-0.045c0.095,0,0.227,0.028,0.376,0.248c0.182,0.256,0.32,0.587,0.414,0.995
					c0,0.003,0.146,1.394,0.146,1.394l-0.024,0.563c0,0.02,0.093,0.868,0.093,0.868c0.002,0.013,0.312,0.79,0.312,0.79
					c0.394,0.559,0.857,0.671,1.179,0.671l0.33-0.045c0.545-0.189,0.86-0.492,1.023-0.919c0.001-0.002,0.197-1.106,0.197-1.106
					l-0.094-1.008c-0.098-0.533-0.322-1.097-0.663-1.669c-0.354-0.578-0.803-1.076-1.335-1.483l-0.002-0.001
					c-0.572-0.434-1.23-0.652-1.956-0.652h-0.282c-0.713,0-1.395,0.225-2.027,0.669C45.262,33.827,44.766,34.464,44.37,35.33z"/>
				<path d="M68.993,32.79h-3.418v0.953l0.518,0.088l0.141,0.029c0.002,0.001,0.195,0.171,0.195,0.171
					c-0.012-0.013,0.289,0.596,0.289,0.596c0,0.004,0.201,1.237,0.201,1.237s0,6.285-0.002,8.591
					c-1.371-2.206-7.262-11.665-7.262-11.665h-2.334v0.896l0.383,0.132l0.109,0.042c-0.025-0.014,0.127,0.173,0.127,0.173
					c0,0.004,0.318,0.778,0.318,0.778l0.289,1.614l0.123,2.717v10.311c0-0.016-0.189,1.322-0.189,1.322
					c-0.002,0.006-0.295,0.649-0.295,0.65c-0.002,0-0.189,0.168-0.189,0.168c-0.002,0-0.521,0.138-0.521,0.138l-0.154,0.374v0.573
					h3.891V51.75l-0.504-0.111l-0.162-0.044c0-0.001-0.193-0.172-0.193-0.172c0-0.001-0.285-0.569-0.285-0.569
					c-0.002-0.007-0.205-1.26-0.205-1.26s0-6.181,0-8.462c1.373,2.181,7.266,11.547,7.266,11.547h0.982V36.001
					c0,0.018,0.189-1.323,0.189-1.323c0-0.001,0.295-0.633,0.295-0.633l0.186-0.167c0.002,0,0.525-0.142,0.525-0.142l0.154-0.372
					V32.79H68.993z"/>
			</g>
		</g>
	</g>
</svg>