<svg xmlns="http://www.w3.org/2000/svg" xmlns:xlink="http://www.w3.org/1999/xlink"
	 width="89.909" height="89.908" viewBox="0 0 89.909 89.908"
	>
	<g>
		<g>
			<path fill="#FFFFFF" d="M22.547,73.059c0.368-0.423,1.116-1.426,0.276-2.155l-0.761-0.652l-2.568,2.96l0.761,0.66
				C21.066,74.577,22.18,73.482,22.547,73.059z"/>
			<path fill="#FFFFFF" d="M27.942,74.521l-0.867-0.503l-1.986,3.379l0.869,0.51c0.927,0.545,1.822-0.734,2.106-1.218
				C28.348,76.207,28.901,75.085,27.942,74.521z"/>
			<path fill="#FFFFFF" d="M48.161,78.881c-0.884,0.083-1.344,1.608-1.117,4.046c0.204,2.188,0.974,3.84,1.844,3.759l0.005,0
				c0.943-0.088,1.327-1.842,1.122-4.041C49.779,80.11,49.022,78.801,48.161,78.881z"/>
			<path fill="#FFFFFF" d="M64.556,75.087c-0.287-0.482-1.003-1.507-1.959-0.938l-0.858,0.518l2.004,3.368l0.865-0.515
				C65.532,76.97,64.842,75.569,64.556,75.087z"/>
			<path fill="#FFFFFF" d="M10.594,28.89c0.543-1.186-0.81-1.97-1.32-2.203c-0.51-0.233-1.69-0.651-2.251,0.575l-0.5,1.108
				L10.086,30L10.594,28.89z"/>
			<path fill="#FFFFFF" d="M65.001,17.445l0.004,0.003c0.928,0.678,2.47-0.314,3.772-2.099c1.501-2.056,1.692-3.617,0.845-4.235
				c-0.87-0.635-2.327,0.128-3.771,2.106C64.556,14.995,64.145,16.82,65.001,17.445z"/>
			<path fill="#FFFFFF" d="M16.599,14.982l2.074,4.47l2.083-1.892L16.599,14.982z"/>
			<path fill="#FFFFFF" d="M40.399,7.299c1.145-0.242,1.125-1.565,1.06-2.099c-0.067-0.557-0.346-1.935-1.685-1.773l-1.206,0.151
				l0.469,3.88L40.399,7.299z"/>
			<path fill="#FFFFFF" d="M44.955,0.5C20.442,0.5,0.5,20.442,0.5,44.955c0,24.512,19.942,44.453,44.455,44.453
				s44.454-19.941,44.454-44.453C89.409,20.442,69.467,0.5,44.955,0.5z M79.545,21.029l0.026,0.036
				c0.244,0.344,0.381,0.635,0.485,0.88c0.123,0.301,0.202,0.599,0.246,0.888l-0.007-0.009c0.019,0.075,0.048,0.136,0.083,0.186
				c0.203,0.285,0.601,0.104,0.601,0.104l-1.786,1.27l-0.167-0.235c0,0,1.359-1.021,0.742-2.373
				c-0.051-0.121-0.114-0.239-0.184-0.367l-0.092-0.139l-0.133-0.178c-0.796-0.803-2.747-0.505-4.206,0.533
				c-0.131,0.093-0.25,0.191-0.37,0.29c-0.18,0.162-0.366,0.315-0.525,0.496c-0.896,1.011-0.969,2.112-0.714,2.905
				c0.073,0.241,0.179,0.458,0.317,0.653c0.438,0.615,1.191,0.964,2.252,0.857l-0.063,0.167c-0.296,0.067-0.615,0.083-0.916,0.045
				c-0.632-0.041-1.308-0.289-1.75-0.683c-0.196-0.167-0.353-0.348-0.494-0.547c-0.093-0.131-0.181-0.273-0.267-0.424
				c-0.118-0.235-0.225-0.494-0.306-0.756c-0.07-0.257-0.114-0.525-0.128-0.802c-0.018-0.252-0.008-0.525,0.035-0.801
				c0.049-0.267,0.108-0.52,0.196-0.78c0.103-0.271,0.22-0.51,0.357-0.751c0.152-0.23,0.329-0.465,0.516-0.667
				c0.207-0.222,0.424-0.411,0.667-0.583C75.831,18.916,78.297,19.294,79.545,21.029z M73.734,14.296l-0.023-0.023l0.029-0.028
				l2.528,2.582l-0.029,0.028l-0.023-0.024c-0.113-0.115-0.636-0.551-1.501,0.258l-4.006,3.923c-0.827,0.849-0.402,1.38-0.29,1.495
				l0.023,0.024l-0.033,0.032l-2.527-2.582l0.033-0.032l0.023,0.023c0.109,0.111,0.624,0.539,1.498-0.262l4.006-3.923
				C74.26,14.931,73.843,14.407,73.734,14.296z M69.732,10.974c1.735,1.267,1.864,3.593,0.512,5.446
				c-1.356,1.858-3.608,2.438-5.343,1.172c-1.734-1.267-1.872-3.591-0.516-5.449C65.738,10.29,67.998,9.708,69.732,10.974z
				 M55.427,11.217l2.171-5.17c0.438-1.101-0.159-1.426-0.308-1.488L57.26,4.546l0.016-0.037l3.346,1.405l-0.015,0.037l-0.031-0.013
				c-0.148-0.062-0.799-0.261-1.294,0.816l-1.05,2.5l2.892,1.214l1.05-2.5c0.433-1.103-0.165-1.428-0.313-1.491l-0.031-0.013
				l0.016-0.037l3.336,1.401l-0.016,0.037l-0.031-0.013c-0.143-0.06-0.789-0.257-1.283,0.82l-2.171,5.17
				c-0.423,1.107,0.17,1.43,0.313,1.49l0.031,0.013l-0.018,0.042l-3.336-1.401l0.018-0.042l0.031,0.013
				c0.148,0.063,0.799,0.261,1.284-0.82l1.05-2.5l-2.891-1.214l-1.05,2.5c-0.423,1.107,0.175,1.433,0.323,1.495l0.031,0.013
				l-0.018,0.042L54.1,12.069l0.018-0.042l0.03,0.013C54.297,12.102,54.948,12.301,55.427,11.217z M47.88,6.962
				c0.375-2.264,2.381-3.747,4.491-3.41l0.044,0.007c0.416,0.069,0.719,0.177,0.967,0.276c0.3,0.125,0.567,0.28,0.803,0.452
				l-0.011-0.002c0.066,0.04,0.13,0.062,0.191,0.072c0.345,0.057,0.497-0.353,0.497-0.353l-0.358,2.162L54.219,6.12
				c0,0,0.233-1.684-1.161-2.199c-0.122-0.049-0.25-0.088-0.39-0.128L52.506,3.76l-0.22-0.031c-1.13-0.001-2.294,1.592-2.586,3.359
				c-0.026,0.158-0.041,0.313-0.055,0.466c-0.012,0.242-0.035,0.481-0.018,0.722c0.086,1.348,0.815,2.176,1.558,2.554
				c0.222,0.118,0.451,0.197,0.687,0.235c0.745,0.124,1.524-0.166,2.195-0.994l0.074,0.163c-0.161,0.257-0.375,0.495-0.613,0.681
				c-0.475,0.42-1.127,0.724-1.718,0.76c-0.257,0.021-0.496,0.005-0.737-0.035c-0.159-0.026-0.321-0.065-0.488-0.11
				c-0.25-0.082-0.509-0.188-0.752-0.316c-0.231-0.131-0.453-0.29-0.659-0.474c-0.192-0.165-0.378-0.364-0.544-0.589
				c-0.154-0.223-0.292-0.443-0.415-0.689c-0.12-0.264-0.208-0.516-0.281-0.783c-0.057-0.271-0.099-0.562-0.109-0.836
				C47.813,7.542,47.832,7.255,47.88,6.962z M40.498,3.16c1.796-0.217,2.633,0.691,2.77,1.827c0.118,0.977-0.28,1.896-1.576,2.277
				c0.69,0.066,1.289,0.3,1.667,0.79c0.262,0.36,0.318,0.832,0.369,1.247l0.029,0.238c0.071,0.591,0.227,1.414,1.119,1.306
				l0.005,0.045l-0.215,0.026c-1.791,0.216-2.547,0.25-2.758-1.5c-0.127-1.051-0.471-1.954-1.684-1.912L39.06,7.645l0.314,2.602
				c0.175,1.172,0.861,1.158,1.021,1.139l0.033-0.004l0.006,0.045l-3.604,0.436l-0.006-0.045l0.033-0.004
				c0.154-0.019,0.824-0.169,0.704-1.347L36.89,4.904c-0.164-1.173-0.85-1.16-1.004-1.141l-0.033,0.004l-0.005-0.045L40.498,3.16z
				 M33.478,4.379l0.071,0.163l0.774,1.539l-0.271,0.098c0,0-0.634-1.462-1.872-1.131l-1.905,0.688l1.296,3.589l0.845-0.306
				c1.321-0.477,1.19-1.427,1.19-1.427l0.7,1.938c0,0-0.506-0.815-1.827-0.338l-0.846,0.306l1.296,3.589l1.905-0.688
				c1.164-0.536,0.721-2.055,0.721-2.055l0.271-0.098l0.38,1.657l0.056,0.187l-5.821,2.102l-0.015-0.043l0.031-0.012
				c0.146-0.053,0.749-0.343,0.383-1.471l-1.905-5.274c-0.439-1.101-1.088-0.939-1.235-0.886l-0.031,0.011l-0.014-0.038
				L33.478,4.379z M21.815,9.869l0.025,0.038c0,0-0.376,0.257-0.146,0.612c0.062,0.096,0.16,0.196,0.321,0.303l2.513,1.215
				l0.162-2.702c-0.019-0.376-0.089-0.597-0.176-0.731c-0.192-0.298-0.466-0.128-0.466-0.128l-0.025-0.039l1.672-1.083l0.025,0.039
				c-0.042,0.027-0.702,0.468-0.836,1.659l-0.182,2.885l1.953,3.016c0.667,0.979,1.272,0.669,1.408,0.582l0.028-0.018l0.025,0.038
				l-3.038,1.967l-0.025-0.039l0.028-0.018c0.13-0.084,0.657-0.507,0.045-1.522l-1.474-2.276l-3.47-1.714
				c-0.931-0.345-1.498-0.005-1.567,0.04l-0.004,0.003l-0.025-0.039L21.815,9.869z M17.298,13.242l5.781,3.607
				c1.459,0.831,1.956,0.403,1.972,0.388l0.031,0.034l-2.613,2.374l-0.031-0.034l0.021-0.019c0.09-0.082,0.401-0.426-0.045-0.917
				c-0.081-0.089-0.178-0.179-0.31-0.275l-1.191-0.75l-2.161,1.963l0.387,0.839c0.226,0.405,0.292,0.577,0.477,0.781
				c0.435,0.479,0.761,0.251,0.855,0.166l0.033-0.03l0.031,0.034l-1.22,1.109l-0.031-0.034l0.008-0.007
				c0.065-0.06,0.348-0.401-0.125-1.557l-3.069-6.581L17.298,13.242z M11.176,19.947l0.037,0.027l-0.02,0.027
				c-0.091,0.125-0.437,0.718,0.499,1.445l5.427,3.939l1.19-1.639c0.663-1.089-0.556-2.098-0.556-2.098l0.172-0.238l1.265,1.151
				l0.124,0.131l-3.635,5.008l-0.037-0.027l0.02-0.027c0.094-0.13,0.437-0.719-0.506-1.437l-4.533-3.29
				c-0.975-0.673-1.428-0.166-1.523-0.036l-0.02,0.027l-0.037-0.027L11.176,19.947z M5.279,30.755l-0.014,0.03l-0.042-0.019
				l1.944-4.25c0.757-1.656,1.833-1.957,2.863-1.486c1.041,0.476,1.805,1.57,1.033,3.256l-0.817,1.787l2.383,1.09
				c1.088,0.467,1.433-0.12,1.5-0.266l0.014-0.03l0.042,0.019l-1.506,3.291l-0.042-0.019l0.014-0.03
				c0.064-0.141,0.281-0.781-0.779-1.309l-5.094-2.331C5.686,30.032,5.344,30.614,5.279,30.755z M10.603,65.476l-0.086,0.045
				c-0.396,0.206-0.777,0.29-1.137,0.255c-0.365-0.032-0.7-0.168-1.002-0.403c-0.303-0.235-0.559-0.556-0.775-0.959l-0.016,0.008
				l-0.04-0.077l0.016-0.008c-0.126-0.244-0.218-0.495-0.275-0.754c-0.063-0.333-0.113-0.689-0.142-1.082l-0.002-0.066
				c-0.004-0.044-0.016-0.08-0.03-0.108c-0.036-0.069-0.089-0.109-0.158-0.13c-0.074-0.018-0.146-0.022-0.22-0.015
				C6.654,62.188,6.589,62.2,6.54,62.216c-0.03,0.005-0.05,0.016-0.063,0.017c-0.005,0.002-0.01,0.005-0.012,0.001l2.387-1.238
				l0.116,0.224l-0.005,0.002c-0.023,0.017-0.1,0.067-0.232,0.162c-0.157,0.107-0.337,0.257-0.535,0.448
				c-0.203,0.193-0.375,0.421-0.524,0.679c-0.15,0.258-0.226,0.535-0.223,0.837c0.002,0.092,0.016,0.193,0.042,0.304l0.011,0.02
				c0.043,0.184,0.113,0.38,0.203,0.591l0.015-0.008c0.046,0.089,0.111,0.19,0.188,0.3c0.077,0.11,0.166,0.208,0.279,0.289
				c0.108,0.083,0.23,0.133,0.377,0.155c0.145,0.018,0.301-0.017,0.479-0.109l0.051-0.026c0.23-0.14,0.426-0.36,0.584-0.664
				c0.158-0.304,0.294-0.663,0.408-1.078c0.113-0.415,0.214-0.854,0.317-1.314c0.036-0.168,0.078-0.334,0.119-0.505
				c0.063-0.275,0.143-0.533,0.242-0.775c0.095-0.24,0.222-0.455,0.386-0.648c0.159-0.191,0.369-0.357,0.628-0.491
				c0.634-0.318,1.206-0.383,1.717-0.194c0.508,0.185,0.93,0.6,1.261,1.238c0.069,0.134,0.131,0.277,0.184,0.43
				c0.049,0.155,0.088,0.294,0.116,0.409c0.054,0.266,0.075,0.529,0.052,0.783c-0.001,0.073,0.009,0.129,0.032,0.174
				c0.032,0.061,0.077,0.099,0.139,0.119c0.054,0.018,0.117,0.027,0.186,0.022c0.061-0.006,0.115-0.014,0.162-0.022
				c0.01-0.005,0.028-0.009,0.04-0.01l0.01-0.005c0.007,0.001,0.007,0.001,0.012-0.001l-1.945,1.009l-0.11-0.211l0.221-0.146
				c0.149-0.098,0.311-0.233,0.488-0.413c0.172-0.177,0.313-0.39,0.423-0.637c0.105-0.245,0.125-0.519,0.059-0.819l0.008,0.016
				c-0.041-0.19-0.122-0.396-0.235-0.615c-0.105-0.203-0.237-0.346-0.396-0.429c-0.166-0.084-0.333-0.121-0.507-0.108
				c-0.181,0.011-0.345,0.055-0.502,0.137l-0.161,0.099c-0.29,0.212-0.501,0.513-0.629,0.899c-0.128,0.387-0.245,0.859-0.34,1.419
				c-0.05,0.252-0.103,0.522-0.16,0.81c-0.11,0.521-0.254,0.952-0.442,1.297C11.266,64.978,10.985,65.257,10.603,65.476z
				 M11.877,71.052c-0.972-1.239-0.511-3.043,1.515-4.632l2.409-1.889c0.742-0.686,0.486-1.114,0.404-1.218l-0.017-0.022
				l0.036-0.028l1.839,2.345l-0.036,0.028l-0.017-0.021c-0.082-0.104-0.456-0.469-1.341,0.145l-2.724,2.136
				c-0.914,0.717-2.278,1.926-1.306,3.165c0.706,0.9,2.28,0.487,3.86-0.752l2.314-1.815c0.813-0.707,0.542-1.164,0.462-1.265
				l-0.02-0.025l0.036-0.028l1,1.275l-0.036,0.028l-0.017-0.022c-0.085-0.108-0.466-0.483-1.338,0.148l-2.35,1.843
				C14.641,71.943,12.846,72.287,11.877,71.052z M19.377,73.346l-1.717,1.979c-0.759,0.91-0.382,1.328-0.282,1.415l0.021,0.018
				l-0.03,0.034l-2.254-1.956l0.03-0.035l0.021,0.018c0.097,0.084,0.56,0.395,1.36-0.479l3.671-4.231
				c0.752-0.916,0.379-1.331,0.282-1.415l-0.021-0.018l0.03-0.035l2.911,2.526c1.134,0.984,1.025,2.018,0.282,2.874
				c-0.75,0.864-1.925,1.367-3.08,0.365L19.377,73.346z M26.396,78.372l-1.397-0.821l-1.327,2.259
				c-0.581,1.033-0.134,1.375-0.02,1.442l0.024,0.014l-0.023,0.04l-2.573-1.512l0.023-0.04l0.024,0.014
				c0.11,0.065,0.623,0.287,1.25-0.719l2.837-4.83c0.572-1.037,0.13-1.377,0.019-1.442l-0.023-0.014l0.023-0.039l3.323,1.952
				c1.294,0.761,1.375,1.797,0.802,2.774C28.779,78.438,27.714,79.146,26.396,78.372z M36.475,78.048
				c-0.039-0.014-0.657-0.23-1.566,0.422l-2.135,1.688L31.53,83.53c-0.389,1.119,0.111,1.377,0.236,1.423l0.025,0.01l-0.016,0.043
				l-2.8-1.033l0.016-0.043l0.026,0.01c0.12,0.044,0.664,0.171,1.104-0.929l0.938-2.544l-0.382-3.685
				c-0.185-0.916-0.688-1.125-0.752-1.149l-0.004-0.001l0.016-0.043l2.976,1.098l-0.016,0.043c0,0-0.356-0.119-0.502,0.278
				c-0.04,0.107-0.066,0.244-0.067,0.433l0.295,2.652l1.996-1.587c0.259-0.252,0.383-0.444,0.439-0.594
				c0.123-0.333-0.125-0.43-0.125-0.43l0.016-0.043l1.542,0.569L36.475,78.048z M43.999,81.158l-0.237-0.022
				c0,0,0.124-1.695-1.048-2.088c-0.102-0.038-0.21-0.066-0.327-0.094l-0.136-0.019l-0.183-0.011
				c-0.934,0.095-1.829,1.781-1.998,3.563c-0.015,0.16-0.021,0.314-0.026,0.469c0,0.242-0.009,0.482,0.015,0.72
				c0.126,1.334,0.762,2.096,1.39,2.408c0.188,0.099,0.38,0.157,0.576,0.176c0.62,0.059,1.251-0.295,1.771-1.177l0.068,0.156
				c-0.123,0.27-0.289,0.524-0.479,0.731c-0.375,0.458-0.901,0.817-1.387,0.903c-0.211,0.043-0.409,0.047-0.609,0.028
				c-0.132-0.012-0.268-0.037-0.407-0.067c-0.21-0.06-0.428-0.144-0.634-0.25c-0.196-0.111-0.385-0.25-0.563-0.416
				c-0.166-0.148-0.328-0.33-0.473-0.539c-0.137-0.208-0.26-0.416-0.371-0.65c-0.109-0.251-0.192-0.495-0.264-0.755
				c-0.058-0.264-0.104-0.55-0.125-0.822c-0.022-0.301-0.018-0.588,0.01-0.884c0.217-2.284,1.812-3.932,3.567-3.777l0.037,0.003
				c0.346,0.033,0.601,0.115,0.81,0.192c0.252,0.099,0.479,0.229,0.681,0.381l-0.009-0.001c0.057,0.034,0.11,0.051,0.16,0.055
				c0.287,0.027,0.396-0.393,0.396-0.393L43.999,81.158z M13.096,44.955c0-17.567,14.292-31.859,31.859-31.859
				c17.566,0,31.858,14.292,31.858,31.859c0,17.566-14.292,31.857-31.858,31.857C27.388,76.813,13.096,62.521,13.096,44.955z
				 M48.909,86.863c-1.764,0.164-3.147-1.511-3.36-3.802c-0.213-2.285,0.837-4.192,2.601-4.356c1.764-0.165,3.143,1.517,3.356,3.802
				C51.718,84.797,50.673,86.699,48.909,86.863z M59.012,84.657l-0.014-0.043l0.026-0.008c0.03-0.01,0.079-0.038,0.148-0.078
				c0.063-0.044,0.121-0.118,0.18-0.215c0.054-0.102,0.084-0.244,0.088-0.426c0.005-0.176-0.032-0.411-0.113-0.691l-1.984-6.112
				l-0.127,8.175l-0.022,0.007l-4.665-6.601l2.039,6.28c0.1,0.232,0.203,0.403,0.304,0.521c0.103,0.123,0.204,0.198,0.299,0.24
				c0.095,0.041,0.179,0.062,0.25,0.057c0.07-0.005,0.122-0.009,0.152-0.02l0.03-0.01l0.014,0.043l-1.545,0.502l-0.014-0.043
				l0.03-0.01c0.031-0.01,0.08-0.038,0.144-0.077c0.06-0.037,0.12-0.105,0.171-0.2c0.051-0.095,0.085-0.226,0.093-0.397
				c0.009-0.165-0.018-0.379-0.085-0.634l-1.816-5.595c-0.096-0.222-0.195-0.394-0.296-0.512s-0.198-0.194-0.293-0.235
				c-0.095-0.042-0.185-0.066-0.263-0.083c-0.078-0.017-0.135-0.016-0.166-0.006l2.181-0.708l3.346,4.629l0.093-5.746l2.142-0.695
				l0.014,0.044l-0.026,0.008c-0.031,0.01-0.079,0.038-0.144,0.077c-0.067,0.046-0.125,0.119-0.179,0.22
				c-0.054,0.102-0.084,0.244-0.09,0.42c-0.008,0.183,0.028,0.412,0.109,0.692l1.722,5.306c0.099,0.275,0.207,0.487,0.318,0.625
				c0.11,0.145,0.218,0.242,0.321,0.293c0.102,0.045,0.191,0.07,0.272,0.068c0.075-0.006,0.131-0.012,0.161-0.022l0.026-0.008
				l0.014,0.043L59.012,84.657z M63.91,82.703l-0.023-0.04l0.023-0.014c0.11-0.065,0.551-0.408-0.027-1.442l-2.865-4.814
				c-0.633-1.001-1.144-0.777-1.254-0.711l-0.023,0.014l-0.023-0.04l3.312-1.971c1.29-0.768,2.238-0.34,2.817,0.634
				c0.585,0.983,0.693,2.257-0.62,3.039l-1.393,0.829l1.34,2.252c0.625,1.006,1.14,0.779,1.254,0.711l0.023-0.014l0.023,0.04
				L63.91,82.703z M71.341,77.759l-0.029-0.036l0.018-0.014c0.079-0.063,0.348-0.335-0.064-0.854
				c-0.075-0.094-0.164-0.191-0.285-0.3l-1.086-0.869l-1.886,1.497l0.369,0.833c0.213,0.408,0.276,0.577,0.447,0.792
				c0.402,0.506,0.688,0.345,0.771,0.279l0.029-0.023l0.028,0.036l-1.065,0.845l-0.028-0.036l0.007-0.006
				c0.057-0.045,0.301-0.319-0.152-1.458l-2.92-6.536l1.047-0.831l5.274,4.186c1.33,0.983,1.763,0.661,1.777,0.649l0.029,0.036
				L71.341,77.759z M78.508,70.495l-7.02-0.196l3.33,2.823c0.207,0.146,0.382,0.24,0.529,0.287c0.152,0.051,0.278,0.062,0.381,0.046
				c0.103-0.015,0.185-0.041,0.242-0.083c0.058-0.041,0.102-0.076,0.123-0.1l0.021-0.024l0.035,0.03l-1.051,1.239l-0.035-0.03
				l0.021-0.024c0.021-0.024,0.047-0.074,0.082-0.141c0.032-0.063,0.047-0.152,0.041-0.26s-0.046-0.237-0.13-0.386
				c-0.08-0.146-0.214-0.314-0.406-0.495l-3.396-2.878c-0.371-0.314-0.691-0.556-0.957-0.721c-0.266-0.165-0.489-0.282-0.668-0.344
				s-0.32-0.091-0.43-0.094c-0.105,0-0.187,0.016-0.232,0.043c-0.049,0.031-0.081,0.051-0.09,0.062l-0.006,0.007l-0.035-0.029
				l0.571-0.674l7.063,0.233l-3.378-2.864c-0.203-0.142-0.377-0.236-0.525-0.283c-0.155-0.047-0.278-0.062-0.385-0.05
				c-0.103,0.015-0.185,0.042-0.243,0.083c-0.057,0.042-0.097,0.08-0.118,0.104l-0.018,0.021l-0.035-0.03l1.048-1.236l0.035,0.03
				l-0.021,0.024c-0.021,0.024-0.044,0.07-0.079,0.137c-0.034,0.067-0.049,0.156-0.043,0.263s0.046,0.237,0.125,0.383
				c0.08,0.145,0.214,0.313,0.406,0.494l5.338,4.525L78.508,70.495z M81.186,66.511l-0.04-0.022l0.013-0.024
				c0.062-0.112,0.268-0.631-0.754-1.229l-2.377-1.305l-3.701-0.168c-0.933,0.046-1.215,0.513-1.248,0.573l-0.002,0.004
				l-0.041-0.022l1.527-2.781l0.04,0.022c0,0-0.171,0.334,0.2,0.538c0.101,0.055,0.232,0.101,0.418,0.13l2.667,0.101l-1.274-2.208
				c-0.211-0.293-0.382-0.445-0.523-0.522c-0.311-0.17-0.443,0.06-0.443,0.06l-0.041-0.022l0.791-1.44l0.041,0.022
				c-0.02,0.036-0.325,0.615,0.186,1.611l1.353,2.362l3.15,1.729c1.049,0.55,1.378,0.094,1.442-0.022l0.013-0.024l0.04,0.022
				L81.186,66.511z M83,31.659l-0.117-0.264c0,0,1.415-0.735,0.998-1.946l-0.819-1.853l-3.491,1.543l0.363,0.822
				c0.568,1.284,1.507,1.087,1.507,1.087l-1.884,0.833c0,0,0.777-0.562,0.209-1.847l-0.363-0.822l-3.491,1.543l0.819,1.853
				c0.616,1.124,2.101,0.576,2.101,0.576l0.117,0.264l-1.627,0.495l-0.183,0.068l-2.502-5.66l0.042-0.019l0.014,0.031
				c0.063,0.142,0.395,0.724,1.494,0.28l5.129-2.267c1.067-0.514,0.861-1.151,0.798-1.293l-0.014-0.03l0.037-0.017l2.502,5.66
				l-0.158,0.082L83,31.659z"/>
			<path fill="#FFFFFF" d="M67.934,77.022l1.818-1.443l-3.792-2.995L67.934,77.022z"/>
			<path d="M44.955,0C20.167,0,0,20.167,0,44.955c0,24.787,20.167,44.953,44.955,44.953c24.788,0,44.954-20.166,44.954-44.953
				C89.909,20.167,69.742,0,44.955,0z M44.955,89.408C20.442,89.408,0.5,69.467,0.5,44.955C0.5,20.442,20.442,0.5,44.955,0.5
				s44.454,19.942,44.454,44.455C89.409,69.467,69.467,89.408,44.955,89.408z"/>
			<path d="M11.873,32.82c1.061,0.528,0.844,1.167,0.779,1.309l-0.014,0.03l0.042,0.019l1.506-3.291l-0.042-0.019l-0.014,0.03
				c-0.067,0.146-0.411,0.733-1.5,0.266l-2.383-1.09l0.817-1.787c0.771-1.686,0.007-2.78-1.033-3.256
				c-1.03-0.471-2.106-0.17-2.863,1.486l-1.944,4.25l0.042,0.019l0.014-0.03c0.064-0.142,0.407-0.724,1.5-0.266L11.873,32.82z
				 M7.022,27.262c0.561-1.226,1.741-0.808,2.251-0.575c0.51,0.233,1.863,1.017,1.32,2.203L10.086,30L6.522,28.37L7.022,27.262z"/>
			<path d="M9.1,22.885c0.095-0.13,0.548-0.638,1.523,0.036l4.533,3.29c0.942,0.718,0.6,1.307,0.506,1.437l-0.02,0.027l0.037,0.027
				l3.635-5.008l-0.124-0.131l-1.265-1.151l-0.172,0.238c0,0,1.219,1.008,0.556,2.098l-1.19,1.639l-5.427-3.939
				c-0.936-0.727-0.59-1.32-0.499-1.445l0.02-0.027l-0.037-0.027l-2.132,2.938l0.037,0.027L9.1,22.885z"/>
			<path d="M19.292,22.469l-0.008,0.007l0.031,0.034l1.22-1.109l-0.031-0.034l-0.033,0.03c-0.094,0.086-0.421,0.313-0.855-0.166
				c-0.185-0.204-0.251-0.375-0.477-0.781l-0.387-0.839l2.161-1.963l1.191,0.75c0.132,0.096,0.229,0.186,0.31,0.275
				c0.446,0.491,0.136,0.835,0.045,0.917l-0.021,0.019l0.031,0.034l2.613-2.374l-0.031-0.034c-0.017,0.015-0.513,0.443-1.972-0.388
				l-5.781-3.607l-1.2,1.09l3.069,6.581C19.64,22.068,19.357,22.41,19.292,22.469z M16.599,14.982l4.157,2.578l-2.083,1.892
				L16.599,14.982z"/>
			<path d="M18.616,11.994c0.07-0.045,0.637-0.385,1.567-0.04l3.47,1.714l1.474,2.276c0.611,1.016,0.085,1.438-0.045,1.522
				l-0.028,0.018l0.025,0.039l3.038-1.967l-0.025-0.038l-0.028,0.018c-0.135,0.087-0.741,0.398-1.408-0.582l-1.953-3.016
				l0.182-2.885c0.135-1.191,0.794-1.632,0.836-1.659l-0.025-0.039l-1.672,1.083l0.025,0.039c0,0,0.273-0.17,0.466,0.128
				c0.087,0.134,0.157,0.355,0.176,0.731l-0.162,2.702l-2.513-1.215c-0.161-0.107-0.259-0.207-0.321-0.303
				c-0.23-0.355,0.146-0.612,0.146-0.612l-0.025-0.038l-3.229,2.09l0.025,0.039L18.616,11.994z"/>
			<path d="M27.702,6.507c0.146-0.053,0.796-0.214,1.235,0.886l1.905,5.274c0.366,1.127-0.237,1.418-0.383,1.471l-0.031,0.012
				l0.015,0.043l5.821-2.102l-0.056-0.187l-0.38-1.657l-0.271,0.098c0,0,0.442,1.519-0.721,2.055l-1.905,0.688l-1.296-3.589
				l0.846-0.306c1.321-0.477,1.827,0.338,1.827,0.338l-0.7-1.938c0,0,0.131,0.951-1.19,1.427l-0.845,0.306l-1.296-3.589l1.905-0.688
				c1.237-0.331,1.872,1.131,1.872,1.131l0.271-0.098l-0.774-1.539l-0.071-0.163l-5.821,2.102l0.014,0.038L27.702,6.507z"/>
			<path d="M35.886,3.764c0.154-0.019,0.84-0.033,1.004,1.141l0.671,5.562c0.12,1.178-0.549,1.328-0.704,1.347l-0.033,0.004
				l0.006,0.045l3.604-0.436l-0.006-0.045l-0.033,0.004c-0.16,0.019-0.846,0.033-1.021-1.139L39.06,7.645l1.163-0.141
				c1.213-0.042,1.557,0.861,1.684,1.912c0.211,1.75,0.968,1.716,2.758,1.5l0.215-0.026l-0.005-0.045
				c-0.893,0.108-1.048-0.715-1.119-1.306L43.727,9.3c-0.05-0.415-0.107-0.886-0.369-1.247c-0.378-0.49-0.976-0.724-1.667-0.79
				c1.296-0.381,1.694-1.3,1.576-2.277c-0.137-1.136-0.974-2.043-2.77-1.827l-4.65,0.562l0.005,0.045L35.886,3.764z M39.775,3.426
				c1.339-0.162,1.617,1.217,1.685,1.773c0.064,0.534,0.084,1.857-1.06,2.099l-1.362,0.159l-0.469-3.88L39.775,3.426z"/>
			<path d="M48.215,9.465c0.122,0.246,0.26,0.466,0.415,0.689c0.166,0.225,0.352,0.424,0.544,0.589
				c0.206,0.185,0.427,0.343,0.659,0.474c0.243,0.127,0.501,0.234,0.752,0.316c0.167,0.045,0.33,0.083,0.488,0.11
				c0.241,0.04,0.48,0.056,0.737,0.035c0.591-0.036,1.243-0.339,1.718-0.76c0.239-0.187,0.453-0.424,0.613-0.681l-0.074-0.163
				c-0.671,0.828-1.451,1.117-2.195,0.994c-0.235-0.039-0.464-0.117-0.687-0.235c-0.742-0.378-1.472-1.206-1.558-2.554
				c-0.017-0.241,0.006-0.48,0.018-0.722c0.014-0.154,0.028-0.308,0.055-0.466c0.292-1.767,1.456-3.361,2.586-3.359l0.22,0.031
				l0.163,0.033c0.14,0.041,0.268,0.079,0.39,0.128c1.394,0.515,1.161,2.199,1.161,2.199l0.285,0.047l0.358-2.162
				c0,0-0.152,0.41-0.497,0.353c-0.061-0.01-0.125-0.032-0.191-0.072l0.011,0.002c-0.236-0.172-0.503-0.327-0.803-0.452
				c-0.248-0.099-0.551-0.207-0.967-0.276l-0.044-0.007c-2.11-0.337-4.116,1.146-4.491,3.41c-0.048,0.293-0.068,0.581-0.056,0.884
				c0.011,0.274,0.053,0.565,0.109,0.836C48.007,8.949,48.095,9.201,48.215,9.465z"/>
			<path d="M54.148,12.04l-0.03-0.013L54.1,12.069l3.347,1.405l0.018-0.042l-0.031-0.013c-0.148-0.063-0.746-0.388-0.323-1.495
				l1.05-2.5l2.891,1.214l-1.05,2.5c-0.484,1.081-1.135,0.882-1.284,0.82l-0.031-0.013l-0.018,0.042l3.336,1.401l0.018-0.042
				l-0.031-0.013c-0.143-0.06-0.736-0.383-0.313-1.49l2.171-5.17c0.494-1.077,1.14-0.88,1.283-0.82l0.031,0.013l0.016-0.037
				l-3.336-1.401l-0.016,0.037l0.031,0.013c0.148,0.063,0.746,0.388,0.313,1.491l-1.05,2.5l-2.892-1.214l1.05-2.5
				c0.495-1.077,1.146-0.878,1.294-0.816l0.031,0.013l0.015-0.037l-3.346-1.405L57.26,4.546l0.031,0.013
				c0.148,0.062,0.746,0.388,0.308,1.488l-2.171,5.17C54.948,12.301,54.297,12.102,54.148,12.04z"/>
			<path d="M64.385,12.143C63.028,14,63.166,16.325,64.9,17.592c1.735,1.267,3.987,0.686,5.343-1.172
				c1.353-1.853,1.223-4.179-0.512-5.446C67.998,9.708,65.738,10.29,64.385,12.143z M69.623,11.114
				c0.847,0.618,0.656,2.179-0.845,4.235c-1.303,1.784-2.845,2.776-3.772,2.099l-0.004-0.003c-0.856-0.625-0.445-2.45,0.851-4.225
				C67.296,11.243,68.753,10.479,69.623,11.114z"/>
			<path d="M69.434,19.71c-0.874,0.801-1.389,0.373-1.498,0.262l-0.023-0.023l-0.033,0.032l2.527,2.582l0.033-0.032l-0.023-0.024
				c-0.113-0.115-0.538-0.646,0.29-1.495l4.006-3.923c0.866-0.809,1.389-0.373,1.501-0.258l0.023,0.024l0.029-0.028l-2.528-2.582
				l-0.029,0.028l0.023,0.023c0.109,0.111,0.526,0.635-0.293,1.492L69.434,19.71z"/>
			<path d="M73.961,20.246c-0.242,0.172-0.459,0.361-0.667,0.583c-0.187,0.201-0.364,0.436-0.516,0.667
				c-0.138,0.241-0.255,0.481-0.357,0.751c-0.088,0.26-0.147,0.513-0.196,0.78c-0.043,0.276-0.053,0.548-0.035,0.801
				c0.014,0.276,0.058,0.545,0.128,0.802c0.081,0.262,0.188,0.521,0.306,0.756c0.086,0.15,0.173,0.293,0.267,0.424
				c0.141,0.199,0.298,0.38,0.494,0.547c0.442,0.394,1.117,0.643,1.75,0.683c0.301,0.038,0.62,0.022,0.916-0.045l0.063-0.167
				c-1.061,0.107-1.815-0.242-2.252-0.857c-0.138-0.195-0.244-0.413-0.317-0.653c-0.255-0.793-0.181-1.894,0.714-2.905
				c0.159-0.181,0.345-0.334,0.525-0.496c0.12-0.098,0.239-0.197,0.37-0.29c1.459-1.038,3.41-1.336,4.206-0.533l0.133,0.178
				l0.092,0.139c0.07,0.128,0.133,0.246,0.184,0.367c0.617,1.352-0.742,2.373-0.742,2.373l0.167,0.235l1.786-1.27
				c0,0-0.398,0.181-0.601-0.104c-0.036-0.05-0.065-0.111-0.083-0.186l0.007,0.009c-0.044-0.289-0.123-0.587-0.246-0.888
				c-0.104-0.246-0.241-0.537-0.485-0.88l-0.026-0.036C78.297,19.294,75.831,18.916,73.961,20.246z"/>
			<path d="M82.137,25.037l-0.037,0.017l0.014,0.03c0.063,0.142,0.269,0.779-0.798,1.293l-5.129,2.267
				c-1.099,0.443-1.431-0.138-1.494-0.28l-0.014-0.031l-0.042,0.019l2.502,5.66l0.183-0.068l1.627-0.495l-0.117-0.264
				c0,0-1.485,0.547-2.101-0.576l-0.819-1.853l3.491-1.543l0.363,0.822c0.568,1.285-0.209,1.847-0.209,1.847l1.884-0.833
				c0,0-0.939,0.197-1.507-1.087l-0.363-0.822l3.491-1.543l0.819,1.853c0.417,1.211-0.998,1.946-0.998,1.946L83,31.659l1.482-0.879
				l0.158-0.082L82.137,25.037z"/>
			<path d="M11.898,63.339c0.057-0.288,0.11-0.558,0.16-0.81c0.096-0.56,0.212-1.033,0.34-1.419c0.128-0.386,0.34-0.687,0.629-0.899
				l0.161-0.099c0.157-0.082,0.322-0.125,0.502-0.137c0.174-0.013,0.341,0.024,0.507,0.108c0.159,0.083,0.291,0.226,0.396,0.429
				c0.114,0.22,0.195,0.425,0.235,0.615l-0.008-0.016c0.066,0.301,0.046,0.574-0.059,0.819c-0.11,0.248-0.251,0.46-0.423,0.637
				c-0.178,0.18-0.339,0.315-0.488,0.413l-0.221,0.146l0.11,0.211l1.945-1.009c-0.005,0.002-0.005,0.002-0.012,0.001l-0.01,0.005
				c-0.012,0.001-0.03,0.005-0.04,0.01c-0.047,0.009-0.101,0.016-0.162,0.022c-0.069,0.004-0.131-0.004-0.186-0.022
				c-0.062-0.02-0.107-0.058-0.139-0.119c-0.023-0.045-0.033-0.102-0.032-0.174c0.023-0.254,0.002-0.517-0.052-0.783
				c-0.027-0.115-0.067-0.254-0.116-0.409c-0.053-0.153-0.115-0.296-0.184-0.43c-0.331-0.638-0.753-1.053-1.261-1.238
				c-0.511-0.189-1.083-0.124-1.717,0.194c-0.259,0.134-0.47,0.3-0.628,0.491c-0.164,0.193-0.291,0.409-0.386,0.648
				c-0.1,0.243-0.179,0.5-0.242,0.775c-0.041,0.17-0.083,0.337-0.119,0.505c-0.103,0.461-0.204,0.9-0.317,1.314
				c-0.114,0.415-0.25,0.774-0.408,1.078c-0.158,0.304-0.354,0.523-0.584,0.664l-0.051,0.026c-0.178,0.092-0.334,0.127-0.479,0.109
				c-0.146-0.021-0.269-0.072-0.377-0.155c-0.113-0.081-0.202-0.179-0.279-0.289c-0.076-0.11-0.141-0.21-0.188-0.3l-0.015,0.008
				c-0.09-0.211-0.16-0.407-0.203-0.591l-0.011-0.02c-0.025-0.111-0.039-0.212-0.042-0.304c-0.002-0.303,0.073-0.579,0.223-0.837
				c0.149-0.258,0.321-0.486,0.524-0.679c0.198-0.19,0.377-0.34,0.535-0.448c0.132-0.094,0.208-0.145,0.232-0.162l0.005-0.002
				l-0.116-0.224l-2.387,1.238c0.002,0.004,0.007,0.001,0.012-0.001c0.012-0.001,0.033-0.012,0.063-0.017
				c0.05-0.016,0.114-0.028,0.195-0.034c0.074-0.007,0.146-0.003,0.22,0.015c0.069,0.021,0.122,0.061,0.158,0.13
				c0.015,0.028,0.026,0.063,0.03,0.108L7.145,62.5c0.029,0.392,0.079,0.749,0.142,1.082c0.057,0.259,0.149,0.511,0.275,0.754
				l-0.016,0.008l0.04,0.077l0.016-0.008c0.216,0.404,0.472,0.725,0.775,0.959c0.302,0.235,0.637,0.371,1.002,0.403
				c0.36,0.035,0.741-0.049,1.137-0.255l0.086-0.045c0.383-0.219,0.663-0.499,0.854-0.84C11.645,64.291,11.789,63.86,11.898,63.339z
				"/>
			<path d="M18.9,68.603c0.872-0.631,1.253-0.256,1.338-0.148l0.017,0.022l0.036-0.028l-1-1.275l-0.036,0.028l0.02,0.025
				c0.079,0.101,0.35,0.558-0.462,1.265l-2.314,1.815c-1.58,1.239-3.154,1.653-3.86,0.752c-0.972-1.239,0.393-2.448,1.306-3.165
				l2.724-2.136c0.886-0.614,1.259-0.249,1.341-0.145l0.017,0.021l0.036-0.028l-1.839-2.345l-0.036,0.028l0.017,0.022
				c0.082,0.104,0.337,0.532-0.404,1.218l-2.409,1.889c-2.026,1.589-2.487,3.393-1.515,4.632c0.969,1.235,2.764,0.892,4.673-0.605
				L18.9,68.603z"/>
			<path d="M23.681,74.042c0.743-0.856,0.852-1.89-0.282-2.874l-2.911-2.526l-0.03,0.035l0.021,0.018
				c0.097,0.084,0.47,0.499-0.282,1.415l-3.671,4.231c-0.8,0.874-1.264,0.563-1.36,0.479l-0.021-0.018l-0.03,0.035l2.254,1.956
				l0.03-0.034l-0.021-0.018c-0.101-0.087-0.477-0.505,0.282-1.415l1.717-1.979l1.224,1.062
				C21.756,75.41,22.931,74.907,23.681,74.042z M20.254,73.872l-0.761-0.66l2.568-2.96l0.761,0.652
				c0.84,0.729,0.092,1.731-0.276,2.155C22.18,73.482,21.066,74.577,20.254,73.872z"/>
			<path d="M28.557,74.677l-3.323-1.952l-0.023,0.039l0.023,0.014c0.111,0.065,0.553,0.405-0.019,1.442l-2.837,4.83
				c-0.628,1.005-1.14,0.784-1.25,0.719l-0.024-0.014l-0.023,0.04l2.573,1.512l0.023-0.04l-0.024-0.014
				c-0.114-0.067-0.561-0.41,0.02-1.442l1.327-2.259l1.397,0.821c1.318,0.774,2.382,0.066,2.962-0.921
				C29.932,76.474,29.851,75.438,28.557,74.677z M28.064,76.69c-0.284,0.484-1.179,1.763-2.106,1.218l-0.869-0.51l1.986-3.379
				l0.867,0.503C28.901,75.085,28.348,76.207,28.064,76.69z"/>
			<path d="M34.933,77.479c0,0,0.247,0.097,0.125,0.43c-0.056,0.15-0.18,0.342-0.439,0.594l-1.996,1.587l-0.295-2.652
				c0.001-0.188,0.027-0.325,0.067-0.433c0.146-0.397,0.502-0.278,0.502-0.278l0.016-0.043l-2.976-1.098l-0.016,0.043l0.004,0.001
				c0.064,0.024,0.567,0.234,0.752,1.149l0.382,3.685l-0.938,2.544c-0.44,1.1-0.983,0.973-1.104,0.929l-0.026-0.01l-0.016,0.043
				l2.8,1.033l0.016-0.043l-0.025-0.01c-0.125-0.046-0.625-0.304-0.236-1.423l1.244-3.371l2.135-1.688
				c0.909-0.652,1.527-0.437,1.566-0.422l0.016-0.043l-1.542-0.569L34.933,77.479z"/>
			<path d="M43.809,79.37c-0.05-0.004-0.104-0.021-0.16-0.055l0.009,0.001c-0.202-0.151-0.429-0.282-0.681-0.381
				c-0.209-0.077-0.463-0.159-0.81-0.192l-0.037-0.003c-1.755-0.155-3.351,1.493-3.567,3.777c-0.028,0.296-0.032,0.583-0.01,0.884
				c0.021,0.272,0.067,0.558,0.125,0.822c0.072,0.26,0.155,0.503,0.264,0.755c0.111,0.235,0.234,0.442,0.371,0.65
				c0.146,0.209,0.308,0.391,0.473,0.539c0.177,0.166,0.366,0.305,0.563,0.416c0.206,0.105,0.424,0.189,0.634,0.25
				c0.14,0.031,0.275,0.055,0.407,0.067c0.201,0.019,0.398,0.015,0.609-0.028c0.486-0.086,1.013-0.444,1.387-0.903
				c0.189-0.207,0.356-0.461,0.479-0.731l-0.068-0.156c-0.52,0.882-1.151,1.236-1.771,1.177c-0.196-0.019-0.388-0.077-0.576-0.176
				c-0.628-0.312-1.264-1.074-1.39-2.408c-0.023-0.238-0.015-0.478-0.015-0.72c0.005-0.155,0.011-0.309,0.026-0.469
				c0.169-1.783,1.064-3.468,1.998-3.563l0.183,0.011l0.136,0.019c0.117,0.028,0.225,0.056,0.327,0.094
				c1.172,0.393,1.048,2.088,1.048,2.088l0.237,0.022l0.207-2.182C44.205,78.977,44.096,79.397,43.809,79.37z"/>
			<path d="M48.149,78.705c-1.764,0.164-2.814,2.072-2.601,4.356c0.213,2.291,1.597,3.966,3.36,3.802
				c1.764-0.164,2.81-2.066,2.597-4.356C51.292,80.222,49.913,78.54,48.149,78.705z M48.893,86.686l-0.005,0
				c-0.87,0.081-1.64-1.571-1.844-3.759c-0.227-2.438,0.233-3.964,1.117-4.046c0.861-0.08,1.618,1.229,1.854,3.764
				C50.22,84.844,49.836,86.598,48.893,86.686z"/>
			<path d="M61.819,83.697c-0.03,0.01-0.086,0.016-0.161,0.022c-0.081,0.002-0.171-0.022-0.272-0.068
				c-0.103-0.051-0.211-0.148-0.321-0.293c-0.112-0.138-0.219-0.35-0.318-0.625l-1.722-5.306c-0.082-0.28-0.117-0.509-0.109-0.692
				c0.005-0.176,0.036-0.318,0.09-0.42c0.054-0.102,0.112-0.174,0.179-0.22c0.064-0.039,0.113-0.067,0.144-0.077l0.026-0.008
				l-0.014-0.044l-2.142,0.695l-0.093,5.746l-3.346-4.629l-2.181,0.708c0.031-0.01,0.088-0.01,0.166,0.006
				c0.078,0.017,0.167,0.042,0.263,0.083c0.095,0.041,0.192,0.118,0.293,0.235s0.2,0.29,0.296,0.512l1.816,5.595
				c0.068,0.254,0.094,0.469,0.085,0.634c-0.007,0.171-0.042,0.302-0.093,0.397c-0.051,0.095-0.111,0.163-0.171,0.2
				c-0.064,0.039-0.113,0.067-0.144,0.077l-0.03,0.01l0.014,0.043l1.545-0.502l-0.014-0.043l-0.03,0.01
				c-0.031,0.01-0.082,0.015-0.152,0.02c-0.071,0.005-0.155-0.016-0.25-0.057c-0.095-0.042-0.196-0.117-0.299-0.24
				c-0.101-0.118-0.205-0.289-0.304-0.521l-2.039-6.28l4.665,6.601l0.022-0.007l0.127-8.175l1.984,6.112
				c0.081,0.28,0.119,0.515,0.113,0.691c-0.003,0.182-0.034,0.324-0.088,0.426c-0.06,0.097-0.118,0.17-0.18,0.215
				c-0.069,0.04-0.118,0.068-0.148,0.078l-0.026,0.008l0.014,0.043l2.848-0.924l-0.014-0.043L61.819,83.697z"/>
			<path d="M66.428,81.151c-0.114,0.068-0.629,0.294-1.254-0.711l-1.34-2.252l1.393-0.829c1.313-0.782,1.206-2.056,0.62-3.039
				c-0.579-0.974-1.527-1.402-2.817-0.634l-3.312,1.971l0.023,0.04l0.023-0.014c0.11-0.065,0.622-0.29,1.254,0.711l2.865,4.814
				c0.578,1.034,0.137,1.376,0.027,1.442l-0.023,0.014l0.023,0.04l2.564-1.526l-0.023-0.04L66.428,81.151z M61.738,74.667
				l0.858-0.518c0.956-0.569,1.673,0.457,1.959,0.938s0.977,1.882,0.052,2.433l-0.865,0.515L61.738,74.667z"/>
			<path d="M71.815,75.264l-5.274-4.186l-1.047,0.831l2.92,6.536c0.453,1.138,0.209,1.412,0.152,1.458l-0.007,0.006l0.028,0.036
				l1.065-0.845l-0.028-0.036l-0.029,0.023c-0.083,0.065-0.369,0.227-0.771-0.279c-0.171-0.215-0.234-0.384-0.447-0.792
				l-0.369-0.833l1.886-1.497l1.086,0.869c0.121,0.108,0.21,0.206,0.285,0.3c0.413,0.52,0.144,0.792,0.064,0.854l-0.018,0.014
				l0.029,0.036l2.28-1.81l-0.029-0.036C73.579,75.925,73.145,76.247,71.815,75.264z M67.934,77.022l-1.974-4.438l3.792,2.995
				L67.934,77.022z"/>
			<path d="M72.855,65.368c-0.079-0.146-0.119-0.275-0.125-0.383s0.009-0.196,0.043-0.263c0.035-0.067,0.058-0.113,0.079-0.137
				l0.021-0.024l-0.035-0.03l-1.048,1.236l0.035,0.03l0.018-0.021c0.021-0.024,0.061-0.063,0.118-0.104
				c0.058-0.041,0.14-0.067,0.243-0.083c0.107-0.011,0.23,0.003,0.385,0.05c0.148,0.047,0.323,0.142,0.525,0.283l3.378,2.864
				l-7.063-0.233l-0.571,0.674l0.035,0.029l0.006-0.007c0.009-0.01,0.041-0.031,0.09-0.062c0.045-0.027,0.126-0.043,0.232-0.043
				c0.11,0.003,0.25,0.032,0.43,0.094s0.403,0.18,0.668,0.344c0.265,0.165,0.585,0.407,0.957,0.721l3.396,2.878
				c0.192,0.181,0.327,0.349,0.406,0.495c0.083,0.149,0.124,0.279,0.13,0.386s-0.009,0.196-0.041,0.26
				c-0.034,0.067-0.061,0.116-0.082,0.141l-0.021,0.024l0.035,0.03l1.051-1.239l-0.035-0.03l-0.021,0.024
				c-0.021,0.024-0.065,0.059-0.123,0.1c-0.057,0.042-0.14,0.068-0.242,0.083c-0.103,0.015-0.229,0.004-0.381-0.046
				c-0.147-0.047-0.322-0.142-0.529-0.287l-3.33-2.823l7.02,0.196l0.092-0.108l-5.338-4.525
				C73.07,65.681,72.935,65.513,72.855,65.368z"/>
			<path d="M82.569,63.897c-0.064,0.116-0.393,0.573-1.442,0.022l-3.15-1.729l-1.353-2.362c-0.511-0.996-0.206-1.575-0.186-1.611
				l-0.041-0.022l-0.791,1.44l0.041,0.022c0,0,0.133-0.23,0.443-0.06c0.141,0.077,0.312,0.229,0.523,0.522l1.274,2.208l-2.667-0.101
				c-0.186-0.029-0.317-0.075-0.418-0.13c-0.371-0.204-0.2-0.538-0.2-0.538l-0.04-0.022l-1.527,2.781l0.041,0.022l0.002-0.004
				c0.033-0.061,0.315-0.527,1.248-0.573l3.701,0.168l2.377,1.305c1.022,0.599,0.816,1.117,0.754,1.229l-0.013,0.024l0.04,0.022
				l1.437-2.616l-0.04-0.022L82.569,63.897z"/>
			<path fill="#D4A424" d="M44.955,14.096c-17.016,0-30.859,13.843-30.859,30.859c0,17.015,13.843,30.857,30.859,30.857
				c17.015,0,30.858-13.843,30.858-30.857C75.813,27.939,61.97,14.096,44.955,14.096z M25.434,34.1c0,0,1.07-7.328,7.411-10.374
				c6.339-3.047,17.786-3.374,21.82-0.083c4.034,3.295,5.929,6.258,6.34,12.187c0.412,5.929-0.083,6.753-0.083,6.753
				s-6.917,5.271-17.784,3.952c-10.87-1.317-12.105-2.553-17.705-4.281V34.1z M63.64,56.003c-4.034,1.565-15.563,0.247-28.491-3.788
				c-12.926-4.033-14.163-2.057-16.55-1.646c-2.387,0.411-1.646-3.378,0.659-5.435c2.305-2.059,9.386-0.248,9.386-0.248
				c15.346,4.178,21.77,6.999,26.845,7.41c3.899,0.319,6.068-1.395,6.505-3.045c0.435-1.651-0.501-6.674-0.501-6.674
				s5.771,1.979,7.747,5.604C71.216,51.806,67.675,54.439,63.64,56.003z"/>
			<path d="M76.813,44.955c0-17.567-14.292-31.859-31.858-31.859c-17.567,0-31.859,14.292-31.859,31.859
				c0,17.566,14.292,31.857,31.859,31.857C62.521,76.813,76.813,62.521,76.813,44.955z M44.955,75.813
				c-17.016,0-30.859-13.843-30.859-30.857c0-17.016,13.843-30.859,30.859-30.859c17.015,0,30.858,13.843,30.858,30.859
				C75.813,61.97,61.97,75.813,44.955,75.813z"/>
			<path fill="#675012" d="M69.24,48.182c-1.977-3.625-7.747-5.604-7.747-5.604s0.937,5.022,0.501,6.674
				c-0.437,1.65-2.606,3.364-6.505,3.045c-5.075-0.411-11.499-3.232-26.845-7.41c0,0-7.081-1.811-9.386,0.248
				c-2.306,2.057-3.046,5.846-0.659,5.435c2.388-0.411,3.624-2.388,16.55,1.646c12.928,4.035,24.457,5.354,28.491,3.788
				C67.675,54.439,71.216,51.806,69.24,48.182z"/>
			<path fill="#675012" d="M60.922,42.582c0,0,0.495-0.824,0.083-6.753c-0.412-5.929-2.306-8.892-6.34-12.187
				c-4.034-3.291-15.481-2.964-21.82,0.083C26.504,26.771,25.434,34.1,25.434,34.1v8.153c5.599,1.729,6.835,2.964,17.705,4.281
				C54.005,47.853,60.922,42.582,60.922,42.582z"/>
		</g>
	</g>
</svg>