<?xml version="1.0" encoding="utf-8"?>
<!-- Generator: Adobe Illustrator 10.0, SVG Export Plug-In . SVG Version: 3.0.0 Build 77)  -->
<!DOCTYPE svg PUBLIC "-//W3C//DTD SVG 1.0//EN"    "http://www.w3.org/TR/2001/REC-SVG-20010904/DTD/svg10.dtd" [
	<!ENTITY ns_flows "http://ns.adobe.com/Flows/1.0/">
	<!ENTITY ns_svg "http://www.w3.org/2000/svg">
	<!ENTITY ns_xlink "http://www.w3.org/1999/xlink">
]>
<svg  xmlns="&ns_svg;" xmlns:xlink="&ns_xlink;" xmlns:a="http://ns.adobe.com/AdobeSVGViewerExtensions/3.0/"
	 width="183" height="255" viewBox="0 0 183 255" overflow="visible" enable-background="new 0 0 183 255" xml:space="preserve">
	<g id="Layer_1">
		<g>
			<linearGradient id="XMLID_1_" gradientUnits="userSpaceOnUse" x1="91.5" y1="186.6953" x2="91.5" y2="168.0726">
				<stop  offset="0" style="stop-color:#811788"/>
				<stop  offset="0.0757" style="stop-color:#711577"/>
				<stop  offset="0.1625" style="stop-color:#621267"/>
				<stop  offset="0.2594" style="stop-color:#55105A"/>
				<stop  offset="0.3684" style="stop-color:#4C0E50"/>
				<stop  offset="0.4968" style="stop-color:#450D49"/>
				<stop  offset="0.6625" style="stop-color:#420C45"/>
				<stop  offset="1" style="stop-color:#400C44"/>
				<a:midPointStop  offset="0" style="stop-color:#811788"/>
				<a:midPointStop  offset="0.1695" style="stop-color:#811788"/>
				<a:midPointStop  offset="1" style="stop-color:#400C44"/>
			</linearGradient>
			<path fill="url(#XMLID_1_)" d="M180,173.845c-1.043,1.657-2.322,3.147-3.8,4.421V229.2c0,10.477-8.523,19-19,19H25.8
				c-10.477,0-19-8.523-19-19v-50.935c-1.478-1.273-2.757-2.764-3.8-4.421V235.5c0,9.099,7.402,16.5,16.5,16.5h144
				c9.098,0,16.5-7.401,16.5-16.5V173.845z"/>
			<path fill="url(#XMLID_1_)" d="M25.8,246.2h131.4c9.374,0,17-7.626,17-17v-49.417c-3.075,2.028-6.75,3.217-10.7,3.217h-144
				c-3.951,0-7.625-1.188-10.7-3.217V229.2C8.8,238.574,16.426,246.2,25.8,246.2z"/>
			<linearGradient id="XMLID_3_" gradientUnits="userSpaceOnUse" x1="91.5" y1="247.6074" x2="91.5" y2="7.609">
				<stop  offset="0" style="stop-color:#DDBEDD"/>
				<stop  offset="1" style="stop-color:#400C44"/>
				<a:midPointStop  offset="0" style="stop-color:#DDBEDD"/>
				<a:midPointStop  offset="0.5" style="stop-color:#DDBEDD"/>
				<a:midPointStop  offset="1" style="stop-color:#400C44"/>
			</linearGradient>
			<path fill="url(#XMLID_3_)" d="M25.8,246.2h131.4c9.374,0,17-7.626,17-17v-49.417c-3.075,2.028-6.75,3.217-10.7,3.217h-144
				c-3.951,0-7.625-1.188-10.7-3.217V229.2C8.8,238.574,16.426,246.2,25.8,246.2z"/>
			<path fill="#400C44" d="M25.8,248.2h131.4c10.477,0,19-8.523,19-19v-50.935c-0.634,0.546-1.299,1.056-2,1.518V229.2
				c0,9.374-7.626,17-17,17H25.8c-9.374,0-17-7.626-17-17v-49.417c-0.701-0.462-1.366-0.972-2-1.518V229.2
				C6.8,239.677,15.323,248.2,25.8,248.2z"/>
			<path fill="#811788" d="M163.5,3h-144C10.402,3,3,10.402,3,19.5v144c0,9.099,7.402,16.5,16.5,16.5h144
				c9.098,0,16.5-7.401,16.5-16.5v-144C180,10.402,172.598,3,163.5,3z M176.2,157.2c0,10.477-8.523,19-19,19H25.8
				c-10.477,0-19-8.523-19-19V25.8c0-10.477,8.523-19,19-19h131.4c10.477,0,19,8.523,19,19V157.2z"/>
			<path d="M163.5,0h-144C8.748,0,0,8.748,0,19.5v144v72C0,246.252,8.748,255,19.5,255h144c10.752,0,19.5-8.748,19.5-19.5v-72v-144
				C183,8.748,174.252,0,163.5,0z M163.5,252h-144C10.402,252,3,244.599,3,235.5v-61.655c1.043,1.657,2.322,3.147,3.8,4.421
				c0.634,0.546,1.299,1.056,2,1.518c3.075,2.028,6.75,3.217,10.7,3.217h144c3.951,0,7.625-1.188,10.7-3.217
				c0.701-0.462,1.366-0.972,2-1.518c1.478-1.273,2.757-2.764,3.8-4.421V235.5C180,244.599,172.598,252,163.5,252z M180,163.5
				c0,9.099-7.402,16.5-16.5,16.5h-144C10.402,180,3,172.599,3,163.5v-144C3,10.402,10.402,3,19.5,3h144
				c9.098,0,16.5,7.402,16.5,16.5V163.5z"/>
			<path fill="#811788" d="M103.969,21.323c-0.01-0.03-0.023-0.064-0.033-0.094c-0.036,0.156-0.087,0.311-0.126,0.466
				L103.969,21.323z"/>
			<linearGradient id="XMLID_4_" gradientUnits="userSpaceOnUse" x1="103.8896" y1="7.4819" x2="103.8896" y2="178.3145">
				<stop  offset="0" style="stop-color:#811788"/>
				<stop  offset="0.0757" style="stop-color:#711577"/>
				<stop  offset="0.1625" style="stop-color:#621267"/>
				<stop  offset="0.2594" style="stop-color:#55105A"/>
				<stop  offset="0.3684" style="stop-color:#4C0E50"/>
				<stop  offset="0.4968" style="stop-color:#450D49"/>
				<stop  offset="0.6625" style="stop-color:#420C45"/>
				<stop  offset="1" style="stop-color:#400C44"/>
				<a:midPointStop  offset="0" style="stop-color:#811788"/>
				<a:midPointStop  offset="0.1695" style="stop-color:#811788"/>
				<a:midPointStop  offset="1" style="stop-color:#400C44"/>
			</linearGradient>
			<path fill="url(#XMLID_4_)" d="M103.969,21.323c-0.01-0.03-0.023-0.064-0.033-0.094c-0.036,0.156-0.087,0.311-0.126,0.466
				L103.969,21.323z"/>
			<path fill="#811788" d="M24.624,142.038c8.913,0,16.165,7.252,16.165,16.165c0,8.167-6.094,14.92-13.969,15.997h88.003
				l59.377-59.377V25.8c0-9.374-7.626-17-17-17H25.8c-9.374,0-17,7.626-17,17v129.105C10.327,147.568,16.841,142.038,24.624,142.038
				z M131.35,150.25H60.224v-4.5h-4.5V74.624h68.626h2.5v4.5h2h2.5V150.25z"/>
			<linearGradient id="XMLID_5_" gradientUnits="userSpaceOnUse" x1="91.5" y1="7.4819" x2="91.5" y2="178.3145">
				<stop  offset="0" style="stop-color:#811788"/>
				<stop  offset="0.0757" style="stop-color:#711577"/>
				<stop  offset="0.1625" style="stop-color:#621267"/>
				<stop  offset="0.2594" style="stop-color:#55105A"/>
				<stop  offset="0.3684" style="stop-color:#4C0E50"/>
				<stop  offset="0.4968" style="stop-color:#450D49"/>
				<stop  offset="0.6625" style="stop-color:#420C45"/>
				<stop  offset="1" style="stop-color:#400C44"/>
				<a:midPointStop  offset="0" style="stop-color:#811788"/>
				<a:midPointStop  offset="0.1695" style="stop-color:#811788"/>
				<a:midPointStop  offset="1" style="stop-color:#400C44"/>
			</linearGradient>
			<path fill="url(#XMLID_5_)" d="M24.624,142.038c8.913,0,16.165,7.252,16.165,16.165c0,8.167-6.094,14.92-13.969,15.997h88.003
				l59.377-59.377V25.8c0-9.374-7.626-17-17-17H25.8c-9.374,0-17,7.626-17,17v129.105C10.327,147.568,16.841,142.038,24.624,142.038
				z M131.35,150.25H60.224v-4.5h-4.5V74.624h68.626h2.5v4.5h2h2.5V150.25z"/>
			<path fill="#400C44" d="M157.2,6.8H25.8c-10.477,0-19,8.523-19,19v131.4c0,10.477,8.523,19,19,19h131.4c10.477,0,19-8.523,19-19
				V25.8C176.2,15.323,167.677,6.8,157.2,6.8z M8.459,158.203c0-1.13,0.119-2.232,0.34-3.298V25.8c0-9.374,7.626-17,17-17h131.4
				c9.374,0,17,7.626,17,17v89.023L114.823,174.2H26.819c-0.72,0.099-1.449,0.167-2.195,0.167
				C15.711,174.367,8.459,167.116,8.459,158.203z M155.494,174.412c0,0-37.196,0-39.469,0c1.635-1.635,56.731-56.731,58.366-58.366
				c0,2.273,0,39.469,0,39.469C174.391,165.935,165.914,174.412,155.494,174.412z"/>
			<path fill="#333333" d="M126.85,79.124v66.626H60.224v4.5h71.126V79.124h-2.5H126.85z"/>
			<path d="M126.85,145.75V79.124v-4.5h-2.5H55.724v71.126h4.5H126.85z M58.224,143.25V77.124h66.126v66.126H58.224z"/>
			<path fill="#333333" d="M121.85,140.75c0-4.447,0-56.679,0-61.126c-4.447,0-56.679,0-61.126,0c0,4.447,0,56.679,0,61.126
				C65.171,140.75,117.402,140.75,121.85,140.75z M67.548,140.024c-2.488-0.261-4.378-2.251-4.601-4.651l10.066,1.051
				C72.3,138.728,70.04,140.284,67.548,140.024z M63.117,133.512c0.662-2.387,2.962-4.021,5.505-3.755
				c2.544,0.267,4.457,2.341,4.61,4.811L63.117,133.512z M62.971,87.51h10.123c-0.471,2.365-2.558,4.148-5.062,4.148
				C65.529,91.658,63.442,89.875,62.971,87.51z M109.53,132.581c1.125-2.374,3.784-3.52,6.23-2.824l-4.474,9.431
				C109.2,137.733,108.405,134.95,109.53,132.581z M119.104,137.12c-1.103,2.322-3.674,3.472-6.074,2.869l4.453-9.389
				C119.468,132.079,120.205,134.798,119.104,137.12z M115.489,90.361c-1.817,1.815-4.626,2.035-6.685,0.658l7.347-7.346
				C117.526,85.73,117.307,88.541,115.489,90.361z M114.813,82.301l-7.382,7.381c-1.476-2.069-1.29-4.959,0.566-6.815
				C109.854,81.01,112.744,80.824,114.813,82.301z M73.117,85.639H62.947c0.409-2.441,2.528-4.305,5.085-4.305
				C70.59,81.334,72.708,83.197,73.117,85.639z"/>
			<linearGradient id="XMLID_6_" gradientUnits="userSpaceOnUse" x1="60.6084" y1="108.834" x2="128.6083" y2="111.834">
				<stop  offset="0.02" style="stop-color:#9C4118"/>
				<stop  offset="0.14" style="stop-color:#D9B9A5"/>
				<stop  offset="0.34" style="stop-color:#FFFFFF"/>
				<stop  offset="0.63" style="stop-color:#954F35"/>
				<stop  offset="0.75" style="stop-color:#762D18"/>
				<stop  offset="0.7841" style="stop-color:#78301B"/>
				<stop  offset="0.813" style="stop-color:#803821"/>
				<stop  offset="0.8401" style="stop-color:#8E472E"/>
				<stop  offset="0.85" style="stop-color:#954F35"/>
				<stop  offset="1" style="stop-color:#EDDED3"/>
				<a:midPointStop  offset="0.02" style="stop-color:#9C4118"/>
				<a:midPointStop  offset="0.5" style="stop-color:#9C4118"/>
				<a:midPointStop  offset="0.14" style="stop-color:#D9B9A5"/>
				<a:midPointStop  offset="0.5" style="stop-color:#D9B9A5"/>
				<a:midPointStop  offset="0.34" style="stop-color:#FFFFFF"/>
				<a:midPointStop  offset="0.5" style="stop-color:#FFFFFF"/>
				<a:midPointStop  offset="0.63" style="stop-color:#954F35"/>
				<a:midPointStop  offset="0.5" style="stop-color:#954F35"/>
				<a:midPointStop  offset="0.75" style="stop-color:#762D18"/>
				<a:midPointStop  offset="0.7391" style="stop-color:#762D18"/>
				<a:midPointStop  offset="0.85" style="stop-color:#954F35"/>
				<a:midPointStop  offset="0.5" style="stop-color:#954F35"/>
				<a:midPointStop  offset="1" style="stop-color:#EDDED3"/>
			</linearGradient>
			<path fill="url(#XMLID_6_)" d="M121.85,140.75c0-4.447,0-56.679,0-61.126c-4.447,0-56.679,0-61.126,0c0,4.447,0,56.679,0,61.126
				C65.171,140.75,117.402,140.75,121.85,140.75z M67.548,140.024c-2.488-0.261-4.378-2.251-4.601-4.651l10.066,1.051
				C72.3,138.728,70.04,140.284,67.548,140.024z M63.117,133.512c0.662-2.387,2.962-4.021,5.505-3.755
				c2.544,0.267,4.457,2.341,4.61,4.811L63.117,133.512z M62.971,87.51h10.123c-0.471,2.365-2.558,4.148-5.062,4.148
				C65.529,91.658,63.442,89.875,62.971,87.51z M109.53,132.581c1.125-2.374,3.784-3.52,6.23-2.824l-4.474,9.431
				C109.2,137.733,108.405,134.95,109.53,132.581z M119.104,137.12c-1.103,2.322-3.674,3.472-6.074,2.869l4.453-9.389
				C119.468,132.079,120.205,134.798,119.104,137.12z M115.489,90.361c-1.817,1.815-4.626,2.035-6.685,0.658l7.347-7.346
				C117.526,85.73,117.307,88.541,115.489,90.361z M114.813,82.301l-7.382,7.381c-1.476-2.069-1.29-4.959,0.566-6.815
				C109.854,81.01,112.744,80.824,114.813,82.301z M73.117,85.639H62.947c0.409-2.441,2.528-4.305,5.085-4.305
				C70.59,81.334,72.708,83.197,73.117,85.639z"/>
			<linearGradient id="XMLID_7_" gradientUnits="userSpaceOnUse" x1="60.6084" y1="108.834" x2="128.6083" y2="111.834">
				<stop  offset="0.02" style="stop-color:#9C4118"/>
				<stop  offset="0.14" style="stop-color:#D9B9A5"/>
				<stop  offset="0.34" style="stop-color:#FFFFFF"/>
				<stop  offset="0.63" style="stop-color:#954F35"/>
				<stop  offset="0.75" style="stop-color:#762D18"/>
				<stop  offset="0.7841" style="stop-color:#78301B"/>
				<stop  offset="0.813" style="stop-color:#803821"/>
				<stop  offset="0.8401" style="stop-color:#8E472E"/>
				<stop  offset="0.85" style="stop-color:#954F35"/>
				<stop  offset="1" style="stop-color:#EDDED3"/>
				<a:midPointStop  offset="0.02" style="stop-color:#9C4118"/>
				<a:midPointStop  offset="0.5" style="stop-color:#9C4118"/>
				<a:midPointStop  offset="0.14" style="stop-color:#D9B9A5"/>
				<a:midPointStop  offset="0.5" style="stop-color:#D9B9A5"/>
				<a:midPointStop  offset="0.34" style="stop-color:#FFFFFF"/>
				<a:midPointStop  offset="0.5" style="stop-color:#FFFFFF"/>
				<a:midPointStop  offset="0.63" style="stop-color:#954F35"/>
				<a:midPointStop  offset="0.5" style="stop-color:#954F35"/>
				<a:midPointStop  offset="0.75" style="stop-color:#762D18"/>
				<a:midPointStop  offset="0.7391" style="stop-color:#762D18"/>
				<a:midPointStop  offset="0.85" style="stop-color:#954F35"/>
				<a:midPointStop  offset="0.5" style="stop-color:#954F35"/>
				<a:midPointStop  offset="1" style="stop-color:#EDDED3"/>
			</linearGradient>
			<path fill="url(#XMLID_7_)" d="M121.85,140.75c0-4.447,0-56.679,0-61.126c-4.447,0-56.679,0-61.126,0c0,4.447,0,56.679,0,61.126
				C65.171,140.75,117.402,140.75,121.85,140.75z M67.548,140.024c-2.488-0.261-4.378-2.251-4.601-4.651l10.066,1.051
				C72.3,138.728,70.04,140.284,67.548,140.024z M63.117,133.512c0.662-2.387,2.962-4.021,5.505-3.755
				c2.544,0.267,4.457,2.341,4.61,4.811L63.117,133.512z M62.971,87.51h10.123c-0.471,2.365-2.558,4.148-5.062,4.148
				C65.529,91.658,63.442,89.875,62.971,87.51z M109.53,132.581c1.125-2.374,3.784-3.52,6.23-2.824l-4.474,9.431
				C109.2,137.733,108.405,134.95,109.53,132.581z M119.104,137.12c-1.103,2.322-3.674,3.472-6.074,2.869l4.453-9.389
				C119.468,132.079,120.205,134.798,119.104,137.12z M115.489,90.361c-1.817,1.815-4.626,2.035-6.685,0.658l7.347-7.346
				C117.526,85.73,117.307,88.541,115.489,90.361z M114.813,82.301l-7.382,7.381c-1.476-2.069-1.29-4.959,0.566-6.815
				C109.854,81.01,112.744,80.824,114.813,82.301z M73.117,85.639H62.947c0.409-2.441,2.528-4.305,5.085-4.305
				C70.59,81.334,72.708,83.197,73.117,85.639z"/>
			<path d="M124.35,143.25V77.124H58.224v66.126H124.35z M60.724,79.624c4.447,0,56.679,0,61.126,0c0,4.447,0,56.679,0,61.126
				c-4.447,0-56.679,0-61.126,0C60.724,136.303,60.724,84.071,60.724,79.624z"/>
			<linearGradient id="XMLID_8_" gradientUnits="userSpaceOnUse" x1="60.6084" y1="108.8335" x2="128.6083" y2="111.8335">
				<stop  offset="0.02" style="stop-color:#9C4118"/>
				<stop  offset="0.14" style="stop-color:#D9B9A5"/>
				<stop  offset="0.34" style="stop-color:#FFFFFF"/>
				<stop  offset="0.63" style="stop-color:#954F35"/>
				<stop  offset="0.75" style="stop-color:#762D18"/>
				<stop  offset="0.7841" style="stop-color:#78301B"/>
				<stop  offset="0.813" style="stop-color:#803821"/>
				<stop  offset="0.8401" style="stop-color:#8E472E"/>
				<stop  offset="0.85" style="stop-color:#954F35"/>
				<stop  offset="1" style="stop-color:#EDDED3"/>
				<a:midPointStop  offset="0.02" style="stop-color:#9C4118"/>
				<a:midPointStop  offset="0.5" style="stop-color:#9C4118"/>
				<a:midPointStop  offset="0.14" style="stop-color:#D9B9A5"/>
				<a:midPointStop  offset="0.5" style="stop-color:#D9B9A5"/>
				<a:midPointStop  offset="0.34" style="stop-color:#FFFFFF"/>
				<a:midPointStop  offset="0.5" style="stop-color:#FFFFFF"/>
				<a:midPointStop  offset="0.63" style="stop-color:#954F35"/>
				<a:midPointStop  offset="0.5" style="stop-color:#954F35"/>
				<a:midPointStop  offset="0.75" style="stop-color:#762D18"/>
				<a:midPointStop  offset="0.7391" style="stop-color:#762D18"/>
				<a:midPointStop  offset="0.85" style="stop-color:#954F35"/>
				<a:midPointStop  offset="0.5" style="stop-color:#954F35"/>
				<a:midPointStop  offset="1" style="stop-color:#EDDED3"/>
			</linearGradient>
			<path fill="url(#XMLID_8_)" d="M124.35,143.25V77.124H58.224v66.126H124.35z M60.724,79.624c4.447,0,56.679,0,61.126,0
				c0,4.447,0,56.679,0,61.126c-4.447,0-56.679,0-61.126,0C60.724,136.303,60.724,84.071,60.724,79.624z"/>
			<path fill="#333333" d="M68.032,91.658c2.504,0,4.591-1.783,5.062-4.148H62.971C63.442,89.875,65.529,91.658,68.032,91.658z"/>
			<linearGradient id="XMLID_9_" gradientUnits="userSpaceOnUse" x1="61.4756" y1="89.1836" x2="129.4755" y2="92.1836">
				<stop  offset="0.02" style="stop-color:#9C4118"/>
				<stop  offset="0.14" style="stop-color:#D9B9A5"/>
				<stop  offset="0.34" style="stop-color:#FFFFFF"/>
				<stop  offset="0.63" style="stop-color:#954F35"/>
				<stop  offset="0.75" style="stop-color:#762D18"/>
				<stop  offset="0.7841" style="stop-color:#78301B"/>
				<stop  offset="0.813" style="stop-color:#803821"/>
				<stop  offset="0.8401" style="stop-color:#8E472E"/>
				<stop  offset="0.85" style="stop-color:#954F35"/>
				<stop  offset="1" style="stop-color:#EDDED3"/>
				<a:midPointStop  offset="0.02" style="stop-color:#9C4118"/>
				<a:midPointStop  offset="0.5" style="stop-color:#9C4118"/>
				<a:midPointStop  offset="0.14" style="stop-color:#D9B9A5"/>
				<a:midPointStop  offset="0.5" style="stop-color:#D9B9A5"/>
				<a:midPointStop  offset="0.34" style="stop-color:#FFFFFF"/>
				<a:midPointStop  offset="0.5" style="stop-color:#FFFFFF"/>
				<a:midPointStop  offset="0.63" style="stop-color:#954F35"/>
				<a:midPointStop  offset="0.5" style="stop-color:#954F35"/>
				<a:midPointStop  offset="0.75" style="stop-color:#762D18"/>
				<a:midPointStop  offset="0.7391" style="stop-color:#762D18"/>
				<a:midPointStop  offset="0.85" style="stop-color:#954F35"/>
				<a:midPointStop  offset="0.5" style="stop-color:#954F35"/>
				<a:midPointStop  offset="1" style="stop-color:#EDDED3"/>
			</linearGradient>
			<path fill="url(#XMLID_9_)" d="M68.032,91.658c2.504,0,4.591-1.783,5.062-4.148H62.971
				C63.442,89.875,65.529,91.658,68.032,91.658z"/>
			<linearGradient id="XMLID_10_" gradientUnits="userSpaceOnUse" x1="61.4756" y1="89.1836" x2="129.4755" y2="92.1836">
				<stop  offset="0.02" style="stop-color:#9C4118"/>
				<stop  offset="0.14" style="stop-color:#D9B9A5"/>
				<stop  offset="0.34" style="stop-color:#FFFFFF"/>
				<stop  offset="0.63" style="stop-color:#954F35"/>
				<stop  offset="0.75" style="stop-color:#762D18"/>
				<stop  offset="0.7841" style="stop-color:#78301B"/>
				<stop  offset="0.813" style="stop-color:#803821"/>
				<stop  offset="0.8401" style="stop-color:#8E472E"/>
				<stop  offset="0.85" style="stop-color:#954F35"/>
				<stop  offset="1" style="stop-color:#EDDED3"/>
				<a:midPointStop  offset="0.02" style="stop-color:#9C4118"/>
				<a:midPointStop  offset="0.5" style="stop-color:#9C4118"/>
				<a:midPointStop  offset="0.14" style="stop-color:#D9B9A5"/>
				<a:midPointStop  offset="0.5" style="stop-color:#D9B9A5"/>
				<a:midPointStop  offset="0.34" style="stop-color:#FFFFFF"/>
				<a:midPointStop  offset="0.5" style="stop-color:#FFFFFF"/>
				<a:midPointStop  offset="0.63" style="stop-color:#954F35"/>
				<a:midPointStop  offset="0.5" style="stop-color:#954F35"/>
				<a:midPointStop  offset="0.75" style="stop-color:#762D18"/>
				<a:midPointStop  offset="0.7391" style="stop-color:#762D18"/>
				<a:midPointStop  offset="0.85" style="stop-color:#954F35"/>
				<a:midPointStop  offset="0.5" style="stop-color:#954F35"/>
				<a:midPointStop  offset="1" style="stop-color:#EDDED3"/>
			</linearGradient>
			<path fill="url(#XMLID_10_)" d="M68.032,91.658c2.504,0,4.591-1.783,5.062-4.148H62.971
				C63.442,89.875,65.529,91.658,68.032,91.658z"/>
			<linearGradient id="XMLID_11_" gradientUnits="userSpaceOnUse" x1="62.9712" y1="89.584" x2="73.0942" y2="89.584">
				<stop  offset="0" style="stop-color:#FFFFFF"/>
				<stop  offset="1" style="stop-color:#000000"/>
				<a:midPointStop  offset="0" style="stop-color:#FFFFFF"/>
				<a:midPointStop  offset="0.5" style="stop-color:#FFFFFF"/>
				<a:midPointStop  offset="1" style="stop-color:#000000"/>
			</linearGradient>
			<path fill="url(#XMLID_11_)" d="M68.032,91.658c2.504,0,4.591-1.783,5.062-4.148H62.971
				C63.442,89.875,65.529,91.658,68.032,91.658z"/>
			<path fill="#333333" d="M62.947,85.639h10.169c-0.409-2.441-2.526-4.305-5.084-4.305C65.475,81.334,63.356,83.197,62.947,85.639z
				"/>
			<linearGradient id="XMLID_12_" gradientUnits="userSpaceOnUse" x1="61.7344" y1="83.3213" x2="129.7343" y2="86.3213">
				<stop  offset="0.02" style="stop-color:#9C4118"/>
				<stop  offset="0.14" style="stop-color:#D9B9A5"/>
				<stop  offset="0.34" style="stop-color:#FFFFFF"/>
				<stop  offset="0.63" style="stop-color:#954F35"/>
				<stop  offset="0.75" style="stop-color:#762D18"/>
				<stop  offset="0.7841" style="stop-color:#78301B"/>
				<stop  offset="0.813" style="stop-color:#803821"/>
				<stop  offset="0.8401" style="stop-color:#8E472E"/>
				<stop  offset="0.85" style="stop-color:#954F35"/>
				<stop  offset="1" style="stop-color:#EDDED3"/>
				<a:midPointStop  offset="0.02" style="stop-color:#9C4118"/>
				<a:midPointStop  offset="0.5" style="stop-color:#9C4118"/>
				<a:midPointStop  offset="0.14" style="stop-color:#D9B9A5"/>
				<a:midPointStop  offset="0.5" style="stop-color:#D9B9A5"/>
				<a:midPointStop  offset="0.34" style="stop-color:#FFFFFF"/>
				<a:midPointStop  offset="0.5" style="stop-color:#FFFFFF"/>
				<a:midPointStop  offset="0.63" style="stop-color:#954F35"/>
				<a:midPointStop  offset="0.5" style="stop-color:#954F35"/>
				<a:midPointStop  offset="0.75" style="stop-color:#762D18"/>
				<a:midPointStop  offset="0.7391" style="stop-color:#762D18"/>
				<a:midPointStop  offset="0.85" style="stop-color:#954F35"/>
				<a:midPointStop  offset="0.5" style="stop-color:#954F35"/>
				<a:midPointStop  offset="1" style="stop-color:#EDDED3"/>
			</linearGradient>
			<path fill="url(#XMLID_12_)" d="M62.947,85.639h10.169c-0.409-2.441-2.526-4.305-5.084-4.305
				C65.475,81.334,63.356,83.197,62.947,85.639z"/>
			<linearGradient id="XMLID_13_" gradientUnits="userSpaceOnUse" x1="61.7344" y1="83.3213" x2="129.7343" y2="86.3213">
				<stop  offset="0.02" style="stop-color:#9C4118"/>
				<stop  offset="0.14" style="stop-color:#D9B9A5"/>
				<stop  offset="0.34" style="stop-color:#FFFFFF"/>
				<stop  offset="0.63" style="stop-color:#954F35"/>
				<stop  offset="0.75" style="stop-color:#762D18"/>
				<stop  offset="0.7841" style="stop-color:#78301B"/>
				<stop  offset="0.813" style="stop-color:#803821"/>
				<stop  offset="0.8401" style="stop-color:#8E472E"/>
				<stop  offset="0.85" style="stop-color:#954F35"/>
				<stop  offset="1" style="stop-color:#EDDED3"/>
				<a:midPointStop  offset="0.02" style="stop-color:#9C4118"/>
				<a:midPointStop  offset="0.5" style="stop-color:#9C4118"/>
				<a:midPointStop  offset="0.14" style="stop-color:#D9B9A5"/>
				<a:midPointStop  offset="0.5" style="stop-color:#D9B9A5"/>
				<a:midPointStop  offset="0.34" style="stop-color:#FFFFFF"/>
				<a:midPointStop  offset="0.5" style="stop-color:#FFFFFF"/>
				<a:midPointStop  offset="0.63" style="stop-color:#954F35"/>
				<a:midPointStop  offset="0.5" style="stop-color:#954F35"/>
				<a:midPointStop  offset="0.75" style="stop-color:#762D18"/>
				<a:midPointStop  offset="0.7391" style="stop-color:#762D18"/>
				<a:midPointStop  offset="0.85" style="stop-color:#954F35"/>
				<a:midPointStop  offset="0.5" style="stop-color:#954F35"/>
				<a:midPointStop  offset="1" style="stop-color:#EDDED3"/>
			</linearGradient>
			<path fill="url(#XMLID_13_)" d="M62.947,85.639h10.169c-0.409-2.441-2.526-4.305-5.084-4.305
				C65.475,81.334,63.356,83.197,62.947,85.639z"/>
			<linearGradient id="XMLID_14_" gradientUnits="userSpaceOnUse" x1="62.9473" y1="83.4863" x2="73.1167" y2="83.4863">
				<stop  offset="0" style="stop-color:#FFFFFF"/>
				<stop  offset="1" style="stop-color:#000000"/>
				<a:midPointStop  offset="0" style="stop-color:#FFFFFF"/>
				<a:midPointStop  offset="0.5" style="stop-color:#FFFFFF"/>
				<a:midPointStop  offset="1" style="stop-color:#000000"/>
			</linearGradient>
			<path fill="url(#XMLID_14_)" d="M62.947,85.639h10.169c-0.409-2.441-2.526-4.305-5.084-4.305
				C65.475,81.334,63.356,83.197,62.947,85.639z"/>
			<path fill="#333333" d="M108.804,91.02c2.059,1.377,4.868,1.157,6.685-0.658c1.818-1.82,2.037-4.631,0.662-6.688L108.804,91.02z"
				/>
			<linearGradient id="XMLID_15_" gradientUnits="userSpaceOnUse" x1="61.6396" y1="85.4619" x2="129.6396" y2="88.4619">
				<stop  offset="0.02" style="stop-color:#9C4118"/>
				<stop  offset="0.14" style="stop-color:#D9B9A5"/>
				<stop  offset="0.34" style="stop-color:#FFFFFF"/>
				<stop  offset="0.63" style="stop-color:#954F35"/>
				<stop  offset="0.75" style="stop-color:#762D18"/>
				<stop  offset="0.7841" style="stop-color:#78301B"/>
				<stop  offset="0.813" style="stop-color:#803821"/>
				<stop  offset="0.8401" style="stop-color:#8E472E"/>
				<stop  offset="0.85" style="stop-color:#954F35"/>
				<stop  offset="1" style="stop-color:#EDDED3"/>
				<a:midPointStop  offset="0.02" style="stop-color:#9C4118"/>
				<a:midPointStop  offset="0.5" style="stop-color:#9C4118"/>
				<a:midPointStop  offset="0.14" style="stop-color:#D9B9A5"/>
				<a:midPointStop  offset="0.5" style="stop-color:#D9B9A5"/>
				<a:midPointStop  offset="0.34" style="stop-color:#FFFFFF"/>
				<a:midPointStop  offset="0.5" style="stop-color:#FFFFFF"/>
				<a:midPointStop  offset="0.63" style="stop-color:#954F35"/>
				<a:midPointStop  offset="0.5" style="stop-color:#954F35"/>
				<a:midPointStop  offset="0.75" style="stop-color:#762D18"/>
				<a:midPointStop  offset="0.7391" style="stop-color:#762D18"/>
				<a:midPointStop  offset="0.85" style="stop-color:#954F35"/>
				<a:midPointStop  offset="0.5" style="stop-color:#954F35"/>
				<a:midPointStop  offset="1" style="stop-color:#EDDED3"/>
			</linearGradient>
			<path fill="url(#XMLID_15_)" d="M108.804,91.02c2.059,1.377,4.868,1.157,6.685-0.658c1.818-1.82,2.037-4.631,0.662-6.688
				L108.804,91.02z"/>
			<linearGradient id="XMLID_16_" gradientUnits="userSpaceOnUse" x1="61.6396" y1="85.4624" x2="129.6396" y2="88.4624">
				<stop  offset="0.02" style="stop-color:#9C4118"/>
				<stop  offset="0.14" style="stop-color:#D9B9A5"/>
				<stop  offset="0.34" style="stop-color:#FFFFFF"/>
				<stop  offset="0.63" style="stop-color:#954F35"/>
				<stop  offset="0.75" style="stop-color:#762D18"/>
				<stop  offset="0.7841" style="stop-color:#78301B"/>
				<stop  offset="0.813" style="stop-color:#803821"/>
				<stop  offset="0.8401" style="stop-color:#8E472E"/>
				<stop  offset="0.85" style="stop-color:#954F35"/>
				<stop  offset="1" style="stop-color:#EDDED3"/>
				<a:midPointStop  offset="0.02" style="stop-color:#9C4118"/>
				<a:midPointStop  offset="0.5" style="stop-color:#9C4118"/>
				<a:midPointStop  offset="0.14" style="stop-color:#D9B9A5"/>
				<a:midPointStop  offset="0.5" style="stop-color:#D9B9A5"/>
				<a:midPointStop  offset="0.34" style="stop-color:#FFFFFF"/>
				<a:midPointStop  offset="0.5" style="stop-color:#FFFFFF"/>
				<a:midPointStop  offset="0.63" style="stop-color:#954F35"/>
				<a:midPointStop  offset="0.5" style="stop-color:#954F35"/>
				<a:midPointStop  offset="0.75" style="stop-color:#762D18"/>
				<a:midPointStop  offset="0.7391" style="stop-color:#762D18"/>
				<a:midPointStop  offset="0.85" style="stop-color:#954F35"/>
				<a:midPointStop  offset="0.5" style="stop-color:#954F35"/>
				<a:midPointStop  offset="1" style="stop-color:#EDDED3"/>
			</linearGradient>
			<path fill="url(#XMLID_16_)" d="M108.804,91.02c2.059,1.377,4.868,1.157,6.685-0.658c1.818-1.82,2.037-4.631,0.662-6.688
				L108.804,91.02z"/>
			<linearGradient id="XMLID_17_" gradientUnits="userSpaceOnUse" x1="108.8042" y1="87.7808" x2="117.0171" y2="87.7808">
				<stop  offset="0" style="stop-color:#FFFFFF"/>
				<stop  offset="1" style="stop-color:#000000"/>
				<a:midPointStop  offset="0" style="stop-color:#FFFFFF"/>
				<a:midPointStop  offset="0.5" style="stop-color:#FFFFFF"/>
				<a:midPointStop  offset="1" style="stop-color:#000000"/>
			</linearGradient>
			<path fill="url(#XMLID_17_)" d="M108.804,91.02c2.059,1.377,4.868,1.157,6.685-0.658c1.818-1.82,2.037-4.631,0.662-6.688
				L108.804,91.02z"/>
			<path fill="#333333" d="M107.997,82.866c-1.856,1.856-2.042,4.746-0.566,6.815l7.382-7.381
				C112.744,80.824,109.854,81.01,107.997,82.866z"/>
			<linearGradient id="XMLID_18_" gradientUnits="userSpaceOnUse" x1="61.7305" y1="83.4058" x2="129.7304" y2="86.4057">
				<stop  offset="0.02" style="stop-color:#9C4118"/>
				<stop  offset="0.14" style="stop-color:#D9B9A5"/>
				<stop  offset="0.34" style="stop-color:#FFFFFF"/>
				<stop  offset="0.63" style="stop-color:#954F35"/>
				<stop  offset="0.75" style="stop-color:#762D18"/>
				<stop  offset="0.7841" style="stop-color:#78301B"/>
				<stop  offset="0.813" style="stop-color:#803821"/>
				<stop  offset="0.8401" style="stop-color:#8E472E"/>
				<stop  offset="0.85" style="stop-color:#954F35"/>
				<stop  offset="1" style="stop-color:#EDDED3"/>
				<a:midPointStop  offset="0.02" style="stop-color:#9C4118"/>
				<a:midPointStop  offset="0.5" style="stop-color:#9C4118"/>
				<a:midPointStop  offset="0.14" style="stop-color:#D9B9A5"/>
				<a:midPointStop  offset="0.5" style="stop-color:#D9B9A5"/>
				<a:midPointStop  offset="0.34" style="stop-color:#FFFFFF"/>
				<a:midPointStop  offset="0.5" style="stop-color:#FFFFFF"/>
				<a:midPointStop  offset="0.63" style="stop-color:#954F35"/>
				<a:midPointStop  offset="0.5" style="stop-color:#954F35"/>
				<a:midPointStop  offset="0.75" style="stop-color:#762D18"/>
				<a:midPointStop  offset="0.7391" style="stop-color:#762D18"/>
				<a:midPointStop  offset="0.85" style="stop-color:#954F35"/>
				<a:midPointStop  offset="0.5" style="stop-color:#954F35"/>
				<a:midPointStop  offset="1" style="stop-color:#EDDED3"/>
			</linearGradient>
			<path fill="url(#XMLID_18_)" d="M107.997,82.866c-1.856,1.856-2.042,4.746-0.566,6.815l7.382-7.381
				C112.744,80.824,109.854,81.01,107.997,82.866z"/>
			<linearGradient id="XMLID_19_" gradientUnits="userSpaceOnUse" x1="61.7305" y1="83.4063" x2="129.7304" y2="86.4062">
				<stop  offset="0.02" style="stop-color:#9C4118"/>
				<stop  offset="0.14" style="stop-color:#D9B9A5"/>
				<stop  offset="0.34" style="stop-color:#FFFFFF"/>
				<stop  offset="0.63" style="stop-color:#954F35"/>
				<stop  offset="0.75" style="stop-color:#762D18"/>
				<stop  offset="0.7841" style="stop-color:#78301B"/>
				<stop  offset="0.813" style="stop-color:#803821"/>
				<stop  offset="0.8401" style="stop-color:#8E472E"/>
				<stop  offset="0.85" style="stop-color:#954F35"/>
				<stop  offset="1" style="stop-color:#EDDED3"/>
				<a:midPointStop  offset="0.02" style="stop-color:#9C4118"/>
				<a:midPointStop  offset="0.5" style="stop-color:#9C4118"/>
				<a:midPointStop  offset="0.14" style="stop-color:#D9B9A5"/>
				<a:midPointStop  offset="0.5" style="stop-color:#D9B9A5"/>
				<a:midPointStop  offset="0.34" style="stop-color:#FFFFFF"/>
				<a:midPointStop  offset="0.5" style="stop-color:#FFFFFF"/>
				<a:midPointStop  offset="0.63" style="stop-color:#954F35"/>
				<a:midPointStop  offset="0.5" style="stop-color:#954F35"/>
				<a:midPointStop  offset="0.75" style="stop-color:#762D18"/>
				<a:midPointStop  offset="0.7391" style="stop-color:#762D18"/>
				<a:midPointStop  offset="0.85" style="stop-color:#954F35"/>
				<a:midPointStop  offset="0.5" style="stop-color:#954F35"/>
				<a:midPointStop  offset="1" style="stop-color:#EDDED3"/>
			</linearGradient>
			<path fill="url(#XMLID_19_)" d="M107.997,82.866c-1.856,1.856-2.042,4.746-0.566,6.815l7.382-7.381
				C112.744,80.824,109.854,81.01,107.997,82.866z"/>
			<linearGradient id="XMLID_20_" gradientUnits="userSpaceOnUse" x1="106.4644" y1="85.5078" x2="114.813" y2="85.5078">
				<stop  offset="0" style="stop-color:#FFFFFF"/>
				<stop  offset="1" style="stop-color:#000000"/>
				<a:midPointStop  offset="0" style="stop-color:#FFFFFF"/>
				<a:midPointStop  offset="0.5" style="stop-color:#FFFFFF"/>
				<a:midPointStop  offset="1" style="stop-color:#000000"/>
			</linearGradient>
			<path fill="url(#XMLID_20_)" d="M107.997,82.866c-1.856,1.856-2.042,4.746-0.566,6.815l7.382-7.381
				C112.744,80.824,109.854,81.01,107.997,82.866z"/>
			<path fill="#333333" d="M62.947,135.373c0.222,2.4,2.112,4.391,4.601,4.651c2.492,0.26,4.752-1.297,5.466-3.601L62.947,135.373z"
				/>
			<linearGradient id="XMLID_21_" gradientUnits="userSpaceOnUse" x1="59.3467" y1="137.4385" x2="127.3466" y2="140.4384">
				<stop  offset="0.02" style="stop-color:#9C4118"/>
				<stop  offset="0.14" style="stop-color:#D9B9A5"/>
				<stop  offset="0.34" style="stop-color:#FFFFFF"/>
				<stop  offset="0.63" style="stop-color:#954F35"/>
				<stop  offset="0.75" style="stop-color:#762D18"/>
				<stop  offset="0.7841" style="stop-color:#78301B"/>
				<stop  offset="0.813" style="stop-color:#803821"/>
				<stop  offset="0.8401" style="stop-color:#8E472E"/>
				<stop  offset="0.85" style="stop-color:#954F35"/>
				<stop  offset="1" style="stop-color:#EDDED3"/>
				<a:midPointStop  offset="0.02" style="stop-color:#9C4118"/>
				<a:midPointStop  offset="0.5" style="stop-color:#9C4118"/>
				<a:midPointStop  offset="0.14" style="stop-color:#D9B9A5"/>
				<a:midPointStop  offset="0.5" style="stop-color:#D9B9A5"/>
				<a:midPointStop  offset="0.34" style="stop-color:#FFFFFF"/>
				<a:midPointStop  offset="0.5" style="stop-color:#FFFFFF"/>
				<a:midPointStop  offset="0.63" style="stop-color:#954F35"/>
				<a:midPointStop  offset="0.5" style="stop-color:#954F35"/>
				<a:midPointStop  offset="0.75" style="stop-color:#762D18"/>
				<a:midPointStop  offset="0.7391" style="stop-color:#762D18"/>
				<a:midPointStop  offset="0.85" style="stop-color:#954F35"/>
				<a:midPointStop  offset="0.5" style="stop-color:#954F35"/>
				<a:midPointStop  offset="1" style="stop-color:#EDDED3"/>
			</linearGradient>
			<path fill="url(#XMLID_21_)" d="M62.947,135.373c0.222,2.4,2.112,4.391,4.601,4.651c2.492,0.26,4.752-1.297,5.466-3.601
				L62.947,135.373z"/>
			<linearGradient id="XMLID_22_" gradientUnits="userSpaceOnUse" x1="59.3467" y1="137.4385" x2="127.3466" y2="140.4384">
				<stop  offset="0.02" style="stop-color:#9C4118"/>
				<stop  offset="0.14" style="stop-color:#D9B9A5"/>
				<stop  offset="0.34" style="stop-color:#FFFFFF"/>
				<stop  offset="0.63" style="stop-color:#954F35"/>
				<stop  offset="0.75" style="stop-color:#762D18"/>
				<stop  offset="0.7841" style="stop-color:#78301B"/>
				<stop  offset="0.813" style="stop-color:#803821"/>
				<stop  offset="0.8401" style="stop-color:#8E472E"/>
				<stop  offset="0.85" style="stop-color:#954F35"/>
				<stop  offset="1" style="stop-color:#EDDED3"/>
				<a:midPointStop  offset="0.02" style="stop-color:#9C4118"/>
				<a:midPointStop  offset="0.5" style="stop-color:#9C4118"/>
				<a:midPointStop  offset="0.14" style="stop-color:#D9B9A5"/>
				<a:midPointStop  offset="0.5" style="stop-color:#D9B9A5"/>
				<a:midPointStop  offset="0.34" style="stop-color:#FFFFFF"/>
				<a:midPointStop  offset="0.5" style="stop-color:#FFFFFF"/>
				<a:midPointStop  offset="0.63" style="stop-color:#954F35"/>
				<a:midPointStop  offset="0.5" style="stop-color:#954F35"/>
				<a:midPointStop  offset="0.75" style="stop-color:#762D18"/>
				<a:midPointStop  offset="0.7391" style="stop-color:#762D18"/>
				<a:midPointStop  offset="0.85" style="stop-color:#954F35"/>
				<a:midPointStop  offset="0.5" style="stop-color:#954F35"/>
				<a:midPointStop  offset="1" style="stop-color:#EDDED3"/>
			</linearGradient>
			<path fill="url(#XMLID_22_)" d="M62.947,135.373c0.222,2.4,2.112,4.391,4.601,4.651c2.492,0.26,4.752-1.297,5.466-3.601
				L62.947,135.373z"/>
			<linearGradient id="XMLID_23_" gradientUnits="userSpaceOnUse" x1="62.9473" y1="137.6982" x2="73.0137" y2="137.6982">
				<stop  offset="0" style="stop-color:#FFFFFF"/>
				<stop  offset="1" style="stop-color:#000000"/>
				<a:midPointStop  offset="0" style="stop-color:#FFFFFF"/>
				<a:midPointStop  offset="0.5" style="stop-color:#FFFFFF"/>
				<a:midPointStop  offset="1" style="stop-color:#000000"/>
			</linearGradient>
			<path fill="url(#XMLID_23_)" d="M62.947,135.373c0.222,2.4,2.112,4.391,4.601,4.651c2.492,0.26,4.752-1.297,5.466-3.601
				L62.947,135.373z"/>
			<path fill="#333333" d="M68.622,129.757c-2.543-0.267-4.843,1.368-5.505,3.755l10.115,1.056
				C73.079,132.098,71.167,130.023,68.622,129.757z"/>
			<linearGradient id="XMLID_24_" gradientUnits="userSpaceOnUse" x1="59.6016" y1="131.6631" x2="127.6015" y2="134.6631">
				<stop  offset="0.02" style="stop-color:#9C4118"/>
				<stop  offset="0.14" style="stop-color:#D9B9A5"/>
				<stop  offset="0.34" style="stop-color:#FFFFFF"/>
				<stop  offset="0.63" style="stop-color:#954F35"/>
				<stop  offset="0.75" style="stop-color:#762D18"/>
				<stop  offset="0.7841" style="stop-color:#78301B"/>
				<stop  offset="0.813" style="stop-color:#803821"/>
				<stop  offset="0.8401" style="stop-color:#8E472E"/>
				<stop  offset="0.85" style="stop-color:#954F35"/>
				<stop  offset="1" style="stop-color:#EDDED3"/>
				<a:midPointStop  offset="0.02" style="stop-color:#9C4118"/>
				<a:midPointStop  offset="0.5" style="stop-color:#9C4118"/>
				<a:midPointStop  offset="0.14" style="stop-color:#D9B9A5"/>
				<a:midPointStop  offset="0.5" style="stop-color:#D9B9A5"/>
				<a:midPointStop  offset="0.34" style="stop-color:#FFFFFF"/>
				<a:midPointStop  offset="0.5" style="stop-color:#FFFFFF"/>
				<a:midPointStop  offset="0.63" style="stop-color:#954F35"/>
				<a:midPointStop  offset="0.5" style="stop-color:#954F35"/>
				<a:midPointStop  offset="0.75" style="stop-color:#762D18"/>
				<a:midPointStop  offset="0.7391" style="stop-color:#762D18"/>
				<a:midPointStop  offset="0.85" style="stop-color:#954F35"/>
				<a:midPointStop  offset="0.5" style="stop-color:#954F35"/>
				<a:midPointStop  offset="1" style="stop-color:#EDDED3"/>
			</linearGradient>
			<path fill="url(#XMLID_24_)" d="M68.622,129.757c-2.543-0.267-4.843,1.368-5.505,3.755l10.115,1.056
				C73.079,132.098,71.167,130.023,68.622,129.757z"/>
			<linearGradient id="XMLID_25_" gradientUnits="userSpaceOnUse" x1="59.6016" y1="131.6631" x2="127.6015" y2="134.6631">
				<stop  offset="0.02" style="stop-color:#9C4118"/>
				<stop  offset="0.14" style="stop-color:#D9B9A5"/>
				<stop  offset="0.34" style="stop-color:#FFFFFF"/>
				<stop  offset="0.63" style="stop-color:#954F35"/>
				<stop  offset="0.75" style="stop-color:#762D18"/>
				<stop  offset="0.7841" style="stop-color:#78301B"/>
				<stop  offset="0.813" style="stop-color:#803821"/>
				<stop  offset="0.8401" style="stop-color:#8E472E"/>
				<stop  offset="0.85" style="stop-color:#954F35"/>
				<stop  offset="1" style="stop-color:#EDDED3"/>
				<a:midPointStop  offset="0.02" style="stop-color:#9C4118"/>
				<a:midPointStop  offset="0.5" style="stop-color:#9C4118"/>
				<a:midPointStop  offset="0.14" style="stop-color:#D9B9A5"/>
				<a:midPointStop  offset="0.5" style="stop-color:#D9B9A5"/>
				<a:midPointStop  offset="0.34" style="stop-color:#FFFFFF"/>
				<a:midPointStop  offset="0.5" style="stop-color:#FFFFFF"/>
				<a:midPointStop  offset="0.63" style="stop-color:#954F35"/>
				<a:midPointStop  offset="0.5" style="stop-color:#954F35"/>
				<a:midPointStop  offset="0.75" style="stop-color:#762D18"/>
				<a:midPointStop  offset="0.7391" style="stop-color:#762D18"/>
				<a:midPointStop  offset="0.85" style="stop-color:#954F35"/>
				<a:midPointStop  offset="0.5" style="stop-color:#954F35"/>
				<a:midPointStop  offset="1" style="stop-color:#EDDED3"/>
			</linearGradient>
			<path fill="url(#XMLID_25_)" d="M68.622,129.757c-2.543-0.267-4.843,1.368-5.505,3.755l10.115,1.056
				C73.079,132.098,71.167,130.023,68.622,129.757z"/>
			<linearGradient id="XMLID_26_" gradientUnits="userSpaceOnUse" x1="63.1167" y1="132.1621" x2="73.2319" y2="132.1621">
				<stop  offset="0" style="stop-color:#FFFFFF"/>
				<stop  offset="1" style="stop-color:#000000"/>
				<a:midPointStop  offset="0" style="stop-color:#FFFFFF"/>
				<a:midPointStop  offset="0.5" style="stop-color:#FFFFFF"/>
				<a:midPointStop  offset="1" style="stop-color:#000000"/>
			</linearGradient>
			<path fill="url(#XMLID_26_)" d="M68.622,129.757c-2.543-0.267-4.843,1.368-5.505,3.755l10.115,1.056
				C73.079,132.098,71.167,130.023,68.622,129.757z"/>
			<path fill="#333333" d="M117.483,130.601l-4.453,9.389c2.4,0.603,4.972-0.547,6.074-2.869
				C120.205,134.798,119.468,132.079,117.483,130.601z"/>
			<linearGradient id="XMLID_27_" gradientUnits="userSpaceOnUse" x1="59.5498" y1="132.8369" x2="127.5497" y2="135.8369">
				<stop  offset="0.02" style="stop-color:#9C4118"/>
				<stop  offset="0.14" style="stop-color:#D9B9A5"/>
				<stop  offset="0.34" style="stop-color:#FFFFFF"/>
				<stop  offset="0.63" style="stop-color:#954F35"/>
				<stop  offset="0.75" style="stop-color:#762D18"/>
				<stop  offset="0.7841" style="stop-color:#78301B"/>
				<stop  offset="0.813" style="stop-color:#803821"/>
				<stop  offset="0.8401" style="stop-color:#8E472E"/>
				<stop  offset="0.85" style="stop-color:#954F35"/>
				<stop  offset="1" style="stop-color:#EDDED3"/>
				<a:midPointStop  offset="0.02" style="stop-color:#9C4118"/>
				<a:midPointStop  offset="0.5" style="stop-color:#9C4118"/>
				<a:midPointStop  offset="0.14" style="stop-color:#D9B9A5"/>
				<a:midPointStop  offset="0.5" style="stop-color:#D9B9A5"/>
				<a:midPointStop  offset="0.34" style="stop-color:#FFFFFF"/>
				<a:midPointStop  offset="0.5" style="stop-color:#FFFFFF"/>
				<a:midPointStop  offset="0.63" style="stop-color:#954F35"/>
				<a:midPointStop  offset="0.5" style="stop-color:#954F35"/>
				<a:midPointStop  offset="0.75" style="stop-color:#762D18"/>
				<a:midPointStop  offset="0.7391" style="stop-color:#762D18"/>
				<a:midPointStop  offset="0.85" style="stop-color:#954F35"/>
				<a:midPointStop  offset="0.5" style="stop-color:#954F35"/>
				<a:midPointStop  offset="1" style="stop-color:#EDDED3"/>
			</linearGradient>
			<path fill="url(#XMLID_27_)" d="M117.483,130.601l-4.453,9.389c2.4,0.603,4.972-0.547,6.074-2.869
				C120.205,134.798,119.468,132.079,117.483,130.601z"/>
			<linearGradient id="XMLID_28_" gradientUnits="userSpaceOnUse" x1="59.5498" y1="132.8379" x2="127.5497" y2="135.8379">
				<stop  offset="0.02" style="stop-color:#9C4118"/>
				<stop  offset="0.14" style="stop-color:#D9B9A5"/>
				<stop  offset="0.34" style="stop-color:#FFFFFF"/>
				<stop  offset="0.63" style="stop-color:#954F35"/>
				<stop  offset="0.75" style="stop-color:#762D18"/>
				<stop  offset="0.7841" style="stop-color:#78301B"/>
				<stop  offset="0.813" style="stop-color:#803821"/>
				<stop  offset="0.8401" style="stop-color:#8E472E"/>
				<stop  offset="0.85" style="stop-color:#954F35"/>
				<stop  offset="1" style="stop-color:#EDDED3"/>
				<a:midPointStop  offset="0.02" style="stop-color:#9C4118"/>
				<a:midPointStop  offset="0.5" style="stop-color:#9C4118"/>
				<a:midPointStop  offset="0.14" style="stop-color:#D9B9A5"/>
				<a:midPointStop  offset="0.5" style="stop-color:#D9B9A5"/>
				<a:midPointStop  offset="0.34" style="stop-color:#FFFFFF"/>
				<a:midPointStop  offset="0.5" style="stop-color:#FFFFFF"/>
				<a:midPointStop  offset="0.63" style="stop-color:#954F35"/>
				<a:midPointStop  offset="0.5" style="stop-color:#954F35"/>
				<a:midPointStop  offset="0.75" style="stop-color:#762D18"/>
				<a:midPointStop  offset="0.7391" style="stop-color:#762D18"/>
				<a:midPointStop  offset="0.85" style="stop-color:#954F35"/>
				<a:midPointStop  offset="0.5" style="stop-color:#954F35"/>
				<a:midPointStop  offset="1" style="stop-color:#EDDED3"/>
			</linearGradient>
			<path fill="url(#XMLID_28_)" d="M117.483,130.601l-4.453,9.389c2.4,0.603,4.972-0.547,6.074-2.869
				C120.205,134.798,119.468,132.079,117.483,130.601z"/>
			<linearGradient id="XMLID_29_" gradientUnits="userSpaceOnUse" x1="113.0298" y1="135.2949" x2="119.4507" y2="135.2949">
				<stop  offset="0" style="stop-color:#FFFFFF"/>
				<stop  offset="1" style="stop-color:#000000"/>
				<a:midPointStop  offset="0" style="stop-color:#FFFFFF"/>
				<a:midPointStop  offset="0.5" style="stop-color:#FFFFFF"/>
				<a:midPointStop  offset="1" style="stop-color:#000000"/>
			</linearGradient>
			<path fill="url(#XMLID_29_)" d="M117.483,130.601l-4.453,9.389c2.4,0.603,4.972-0.547,6.074-2.869
				C120.205,134.798,119.468,132.079,117.483,130.601z"/>
			<path fill="#333333" d="M109.53,132.581c-1.125,2.369-0.331,5.152,1.756,6.606l4.474-9.431
				C113.314,129.062,110.655,130.207,109.53,132.581z"/>
			<linearGradient id="XMLID_30_" gradientUnits="userSpaceOnUse" x1="59.5825" y1="132.0928" x2="127.5825" y2="135.0927">
				<stop  offset="0.02" style="stop-color:#9C4118"/>
				<stop  offset="0.14" style="stop-color:#D9B9A5"/>
				<stop  offset="0.34" style="stop-color:#FFFFFF"/>
				<stop  offset="0.63" style="stop-color:#954F35"/>
				<stop  offset="0.75" style="stop-color:#762D18"/>
				<stop  offset="0.7841" style="stop-color:#78301B"/>
				<stop  offset="0.813" style="stop-color:#803821"/>
				<stop  offset="0.8401" style="stop-color:#8E472E"/>
				<stop  offset="0.85" style="stop-color:#954F35"/>
				<stop  offset="1" style="stop-color:#EDDED3"/>
				<a:midPointStop  offset="0.02" style="stop-color:#9C4118"/>
				<a:midPointStop  offset="0.5" style="stop-color:#9C4118"/>
				<a:midPointStop  offset="0.14" style="stop-color:#D9B9A5"/>
				<a:midPointStop  offset="0.5" style="stop-color:#D9B9A5"/>
				<a:midPointStop  offset="0.34" style="stop-color:#FFFFFF"/>
				<a:midPointStop  offset="0.5" style="stop-color:#FFFFFF"/>
				<a:midPointStop  offset="0.63" style="stop-color:#954F35"/>
				<a:midPointStop  offset="0.5" style="stop-color:#954F35"/>
				<a:midPointStop  offset="0.75" style="stop-color:#762D18"/>
				<a:midPointStop  offset="0.7391" style="stop-color:#762D18"/>
				<a:midPointStop  offset="0.85" style="stop-color:#954F35"/>
				<a:midPointStop  offset="0.5" style="stop-color:#954F35"/>
				<a:midPointStop  offset="1" style="stop-color:#EDDED3"/>
			</linearGradient>
			<path fill="url(#XMLID_30_)" d="M109.53,132.581c-1.125,2.369-0.331,5.152,1.756,6.606l4.474-9.431
				C113.314,129.062,110.655,130.207,109.53,132.581z"/>
			<linearGradient id="XMLID_31_" gradientUnits="userSpaceOnUse" x1="59.5825" y1="132.0928" x2="127.5824" y2="135.0927">
				<stop  offset="0.02" style="stop-color:#9C4118"/>
				<stop  offset="0.14" style="stop-color:#D9B9A5"/>
				<stop  offset="0.34" style="stop-color:#FFFFFF"/>
				<stop  offset="0.63" style="stop-color:#954F35"/>
				<stop  offset="0.75" style="stop-color:#762D18"/>
				<stop  offset="0.7841" style="stop-color:#78301B"/>
				<stop  offset="0.813" style="stop-color:#803821"/>
				<stop  offset="0.8401" style="stop-color:#8E472E"/>
				<stop  offset="0.85" style="stop-color:#954F35"/>
				<stop  offset="1" style="stop-color:#EDDED3"/>
				<a:midPointStop  offset="0.02" style="stop-color:#9C4118"/>
				<a:midPointStop  offset="0.5" style="stop-color:#9C4118"/>
				<a:midPointStop  offset="0.14" style="stop-color:#D9B9A5"/>
				<a:midPointStop  offset="0.5" style="stop-color:#D9B9A5"/>
				<a:midPointStop  offset="0.34" style="stop-color:#FFFFFF"/>
				<a:midPointStop  offset="0.5" style="stop-color:#FFFFFF"/>
				<a:midPointStop  offset="0.63" style="stop-color:#954F35"/>
				<a:midPointStop  offset="0.5" style="stop-color:#954F35"/>
				<a:midPointStop  offset="0.75" style="stop-color:#762D18"/>
				<a:midPointStop  offset="0.7391" style="stop-color:#762D18"/>
				<a:midPointStop  offset="0.85" style="stop-color:#954F35"/>
				<a:midPointStop  offset="0.5" style="stop-color:#954F35"/>
				<a:midPointStop  offset="1" style="stop-color:#EDDED3"/>
			</linearGradient>
			<path fill="url(#XMLID_31_)" d="M109.53,132.581c-1.125,2.369-0.331,5.152,1.756,6.606l4.474-9.431
				C113.314,129.062,110.655,130.207,109.53,132.581z"/>
			<linearGradient id="XMLID_32_" gradientUnits="userSpaceOnUse" x1="109.2041" y1="134.4717" x2="115.7607" y2="134.4717">
				<stop  offset="0" style="stop-color:#FFFFFF"/>
				<stop  offset="1" style="stop-color:#000000"/>
				<a:midPointStop  offset="0" style="stop-color:#FFFFFF"/>
				<a:midPointStop  offset="0.5" style="stop-color:#FFFFFF"/>
				<a:midPointStop  offset="1" style="stop-color:#000000"/>
			</linearGradient>
			<path fill="url(#XMLID_32_)" d="M109.53,132.581c-1.125,2.369-0.331,5.152,1.756,6.606l4.474-9.431
				C113.314,129.062,110.655,130.207,109.53,132.581z"/>
			<path fill="#FFFF00" d="M174.391,155.515c0,0,0-37.196,0-39.469c-1.635,1.635-56.731,56.731-58.366,58.366
				c2.273,0,39.469,0,39.469,0C165.914,174.412,174.391,165.935,174.391,155.515z"/>
			<path fill="#BC80BD" d="M24.624,172.367c7.811,0,14.165-6.354,14.165-14.164s-6.354-14.165-14.165-14.165
				s-14.165,6.354-14.165,14.165S16.813,172.367,24.624,172.367z"/>
			<path fill="#811788" d="M40.789,158.203c0-8.913-7.251-16.165-16.165-16.165c-7.783,0-14.297,5.53-15.824,12.867
				c-0.222,1.065-0.34,2.168-0.34,3.298c0,8.913,7.251,16.164,16.165,16.164c0.747,0,1.476-0.068,2.195-0.167
				C34.695,173.123,40.789,166.37,40.789,158.203z M24.624,144.038c7.811,0,14.165,6.354,14.165,14.165s-6.354,14.164-14.165,14.164
				s-14.165-6.354-14.165-14.164S16.813,144.038,24.624,144.038z"/>
		</g>
	</g>
</svg>
